<svg width="120" height="40" viewBox="0 0 120 40" fill="none" xmlns="http://www.w3.org/2000/svg">
<rect x="0.5" y="0.5" width="119" height="39" rx="5.5" fill="black"/>
<rect x="0.5" y="0.5" width="119" height="39" rx="5.5" stroke="#A6A6A6"/>
<path d="M24.7045 20.7631C24.7166 19.8432 24.9669 18.9413 25.4321 18.1412C25.8972 17.3411 26.5621 16.6688 27.3648 16.187C26.8548 15.476 26.1821 14.8908 25.4 14.478C24.6178 14.0652 23.7479 13.8361 22.8592 13.809C20.9635 13.6147 19.1258 14.9164 18.1598 14.9164C17.1751 14.9164 15.6878 13.8283 14.0862 13.8604C13.0502 13.8931 12.0406 14.1872 11.1557 14.7141C10.2708 15.241 9.54075 15.9827 9.03674 16.8669C6.85352 20.5573 8.48201 25.9809 10.5734 28.964C11.6197 30.4247 12.8426 32.0564 14.4428 31.9985C16.0086 31.9351 16.5934 31.0237 18.4835 31.0237C20.3561 31.0237 20.9048 31.9985 22.5374 31.9617C24.2176 31.9351 25.2762 30.4945 26.2859 29.02C27.0377 27.9792 27.6162 26.8288 28 25.6116C27.0238 25.2085 26.1908 24.5338 25.6048 23.6716C25.0187 22.8094 24.7056 21.7979 24.7045 20.7631Z" fill="white"/>
<path d="M21.6208 11.8471C22.5369 10.7734 22.9883 9.39335 22.879 8C21.4794 8.14352 20.1865 8.7966 19.258 9.82911C18.804 10.3335 18.4563 10.9203 18.2348 11.556C18.0132 12.1917 17.9222 12.8638 17.9669 13.5338C18.6669 13.5408 19.3595 13.3927 19.9924 13.1005C20.6254 12.8084 21.1821 12.3798 21.6208 11.8471Z" fill="white"/>
<path d="M36.791 14.5V8.50146H39.1816C40.2275 8.50146 40.9043 9.06396 40.9043 9.97803C40.9043 10.6812 40.5088 11.1294 39.9067 11.2964V11.3403C40.667 11.4282 41.2251 11.9424 41.2251 12.8125C41.2251 13.876 40.3857 14.5 39.1377 14.5H36.791ZM37.7842 9.29248V11.0371H38.6279C39.52 11.0371 39.9155 10.7383 39.9155 10.145C39.9155 9.61328 39.5684 9.29248 38.9707 9.29248H37.7842ZM37.7842 11.7886V13.709H38.7378C39.7837 13.709 40.21 13.4102 40.21 12.7773C40.21 12.1577 39.7969 11.7886 39.0542 11.7886H37.7842ZM43.6992 14.5703C42.7983 14.5703 42.1787 14.0166 42.1787 13.1509C42.1787 12.3291 42.75 11.7754 43.8223 11.7754H44.9956V11.3403C44.9956 10.8086 44.6572 10.5581 44.1211 10.5581C43.5938 10.5581 43.3564 10.7778 43.2817 11.0854H42.3545C42.4116 10.3076 42.9961 9.78467 44.1519 9.78467C45.145 9.78467 45.9668 10.1978 45.9668 11.3535V14.5H45.0396V13.8979H44.9956C44.7891 14.2539 44.3848 14.5703 43.6992 14.5703ZM44.0024 13.8145C44.5562 13.8145 44.9956 13.4365 44.9956 12.9312V12.4302H43.9761C43.4092 12.4302 43.1587 12.7158 43.1587 13.1025C43.1587 13.5859 43.563 13.8145 44.0024 13.8145ZM47.3555 8.45752C47.3555 8.10596 47.6235 7.85986 47.9927 7.85986C48.3794 7.85986 48.6475 8.10596 48.6475 8.45752C48.6475 8.80469 48.3794 9.04639 47.9927 9.04639C47.6235 9.04639 47.3555 8.80469 47.3555 8.45752ZM47.5137 14.5V9.85498H48.4849V14.5H47.5137ZM52.7344 14.5L51.7412 12.8521H51.7017L50.7041 14.5H49.645L51.1436 12.1973L49.6143 9.85498H50.7568L51.728 11.4941H51.7676L52.7695 9.85498H53.855L52.3081 12.1401L53.8506 14.5H52.7344ZM56.1445 14.5703C55.2437 14.5703 54.624 14.0166 54.624 13.1509C54.624 12.3291 55.1953 11.7754 56.2676 11.7754H57.4409V11.3403C57.4409 10.8086 57.1025 10.5581 56.5664 10.5581C56.0391 10.5581 55.8018 10.7778 55.7271 11.0854H54.7998C54.8569 10.3076 55.4414 9.78467 56.5972 9.78467C57.5903 9.78467 58.4121 10.1978 58.4121 11.3535V14.5H57.4849V13.8979H57.4409C57.2344 14.2539 56.8301 14.5703 56.1445 14.5703ZM56.4478 13.8145C57.0015 13.8145 57.4409 13.4365 57.4409 12.9312V12.4302H56.4214C55.8545 12.4302 55.604 12.7158 55.604 13.1025C55.604 13.5859 56.0083 13.8145 56.4478 13.8145ZM59.9194 14.5V9.85498H60.8906V10.5801H60.9434C61.0444 10.2681 61.3828 9.78906 62.1606 9.78906C62.2925 9.78906 62.3979 9.79785 62.4902 9.81543V10.6768C62.4067 10.6548 62.2354 10.6416 62.0728 10.6416C61.2905 10.6416 60.9082 11.1074 60.9082 11.7358V14.5H59.9194ZM65.5181 14.5V9.85498H66.4761V10.6899H66.5244C66.6431 10.3252 66.9814 9.78467 67.9219 9.78467C68.8579 9.78467 69.4863 10.3032 69.4863 11.3623V14.5H68.5107V11.6479C68.5107 10.9404 68.1416 10.6152 67.5923 10.6152C66.8716 10.6152 66.4937 11.1689 66.4937 11.9204V14.5H65.5181ZM72.2021 14.5703C71.3013 14.5703 70.6816 14.0166 70.6816 13.1509C70.6816 12.3291 71.2529 11.7754 72.3252 11.7754H73.4985V11.3403C73.4985 10.8086 73.1602 10.5581 72.624 10.5581C72.0967 10.5581 71.8594 10.7778 71.7847 11.0854H70.8574C70.9146 10.3076 71.499 9.78467 72.6548 9.78467C73.6479 9.78467 74.4697 10.1978 74.4697 11.3535V14.5H73.5425V13.8979H73.4985C73.292 14.2539 72.8877 14.5703 72.2021 14.5703ZM72.5054 13.8145C73.0591 13.8145 73.4985 13.4365 73.4985 12.9312V12.4302H72.479C71.9121 12.4302 71.6616 12.7158 71.6616 13.1025C71.6616 13.5859 72.0659 13.8145 72.5054 13.8145Z" fill="white"/>
<path d="M38.2061 30.5H36.1758L40.3066 18.5029H42.5391L46.6611 30.5H44.5518L43.4883 27.1777H39.2783L38.2061 30.5ZM41.4316 20.5771H41.3525L39.7266 25.6484H43.04L41.4316 20.5771ZM52.2644 30.6318C51.0603 30.6318 50.1462 30.0605 49.654 29.208H49.5837V33.585H47.6325V21.21H49.531V22.5723H49.6013C50.1111 21.6846 51.0603 21.0869 52.3083 21.0869C54.3913 21.0869 55.8767 22.6602 55.8767 25.4375V26.2637C55.8767 29.0234 54.4089 30.6318 52.2644 30.6318ZM51.8161 29.0234C53.0554 29.0234 53.8991 28.0303 53.8991 26.1582V25.5078C53.8991 23.7061 53.1081 22.6777 51.781 22.6777C50.4187 22.6777 49.5661 23.7852 49.5661 25.499V26.1582C49.5661 27.916 50.4275 29.0234 51.8161 29.0234ZM62.183 30.6318C60.9789 30.6318 60.0649 30.0605 59.5727 29.208H59.5024V33.585H57.5512V21.21H59.4496V22.5723H59.52C60.0297 21.6846 60.9789 21.0869 62.227 21.0869C64.31 21.0869 65.7954 22.6602 65.7954 25.4375V26.2637C65.7954 29.0234 64.3276 30.6318 62.183 30.6318ZM61.7348 29.0234C62.9741 29.0234 63.8178 28.0303 63.8178 26.1582V25.5078C63.8178 23.7061 63.0268 22.6777 61.6996 22.6777C60.3373 22.6777 59.4848 23.7852 59.4848 25.499V26.1582C59.4848 27.916 60.3461 29.0234 61.7348 29.0234ZM69.8387 27.1689H71.7899C71.8778 28.2061 72.7919 29.0938 74.4882 29.0938C76.0438 29.0938 76.9667 28.3643 76.9667 27.2305C76.9667 26.3164 76.3514 25.8242 75.0682 25.5166L73.0995 25.0244C71.5526 24.6641 70.1639 23.7412 70.1639 21.79C70.1639 19.4961 72.1679 18.2393 74.497 18.2393C76.8261 18.2393 78.7684 19.4961 78.8124 21.7373H76.8964C76.8085 20.7178 76.0262 19.874 74.4706 19.874C73.0995 19.874 72.1679 20.5244 72.1679 21.6406C72.1679 22.4229 72.7128 22.9854 73.829 23.2402L75.7889 23.7236C77.5907 24.1631 78.9618 25.0156 78.9618 27.0547C78.9618 29.4102 77.0546 30.7373 74.3387 30.7373C70.9989 30.7373 69.8827 28.7861 69.8387 27.1689ZM81.3395 21.21V18.9512H83.2555V21.21H85.066V22.7744H83.2555V27.7314C83.2555 28.7422 83.6334 29.0234 84.6793 29.0234C84.8463 29.0234 85.0045 29.0234 85.1188 29.0059V30.5C84.9605 30.5264 84.5914 30.5615 84.1959 30.5615C81.9371 30.5615 81.3131 29.7529 81.3131 27.8896V22.7744H80.0299V21.21H81.3395ZM90.3353 21.0518C93.0071 21.0518 94.4573 22.9326 94.4573 25.4639V26.2109C94.4573 28.8301 93.0159 30.6582 90.3353 30.6582C87.6546 30.6582 86.1956 28.8301 86.1956 26.2109V25.4639C86.1956 22.9414 87.6634 21.0518 90.3353 21.0518ZM90.3353 22.6162C88.8851 22.6162 88.1644 23.8027 88.1644 25.4902V26.2021C88.1644 27.8633 88.8763 29.085 90.3353 29.085C91.7943 29.085 92.4974 27.8721 92.4974 26.2021V25.4902C92.4974 23.7939 91.7855 22.6162 90.3353 22.6162ZM96.1055 30.5V21.21H98.0567V22.4316H98.127C98.3643 21.8516 99.0586 21.0781 100.351 21.0781C100.606 21.0781 100.825 21.0957 101.01 21.1309V22.8535C100.843 22.8096 100.5 22.7832 100.175 22.7832C98.6104 22.7832 98.083 23.75 98.083 24.998V30.5H96.1055ZM105.743 30.6582C103.256 30.6582 101.674 29.0146 101.674 26.2637V25.3232C101.674 22.7305 103.22 21.0518 105.664 21.0518C108.142 21.0518 109.636 22.792 109.636 25.4111V26.2988H103.598V26.5186C103.598 28.083 104.442 29.1201 105.769 29.1201C106.762 29.1201 107.439 28.6279 107.677 27.8281H109.531C109.25 29.3311 108.037 30.6582 105.743 30.6582ZM103.598 24.9365H107.729V24.9189C107.729 23.6006 106.912 22.5635 105.673 22.5635C104.416 22.5635 103.598 23.6006 103.598 24.9189V24.9365Z" fill="white"/>
</svg>
