<svg width="50" height="55" viewBox="0 0 50 55" fill="none" xmlns="http://www.w3.org/2000/svg">
<path d="M25.3742 55C29.2333 55 32.3637 51.9224 32.3637 48.125H18.3848C18.3848 51.9224 21.5151 55 25.3742 55ZM48.908 38.9179C46.7971 36.6878 42.8473 33.333 42.8473 22.3438C42.8473 13.9971 36.8947 7.31543 28.8684 5.67617V3.4375C28.8684 1.53936 27.3038 0 25.3742 0C23.4446 0 21.88 1.53936 21.88 3.4375V5.67617C13.8537 7.31543 7.90112 13.9971 7.90112 22.3438C7.90112 33.333 3.95131 36.6878 1.84038 38.9179C1.18481 39.6107 0.894179 40.439 0.899642 41.25C0.911661 43.0117 2.31786 44.6875 4.40693 44.6875H46.3415C48.4306 44.6875 49.8378 43.0117 49.8488 41.25C49.8542 40.439 49.5636 39.6097 48.908 38.9179Z" fill="white"/>
</svg>
