<svg width="33" height="32" viewBox="0 0 33 32" fill="none" xmlns="http://www.w3.org/2000/svg">
<g clip-path="url(#clip0_55885_153)">
<path d="M24.6156 3.99996H4.34563C4.20517 3.99874 4.06897 4.04815 3.96196 4.13915C3.85496 4.23014 3.7843 4.35663 3.76294 4.49547V17.4977C3.78298 17.6395 3.85239 17.7697 3.95898 17.8654C4.06556 17.9611 4.20248 18.0161 4.34563 18.0208H7.8297V23.4161L13.3001 18.0208H24.6156C24.7448 18.0111 24.8649 17.9506 24.9497 17.8526C25.0344 17.7546 25.0769 17.627 25.0679 17.4977V4.49547C25.0721 4.43292 25.0636 4.37017 25.0429 4.31099C25.0222 4.25181 24.9898 4.19744 24.9475 4.15114C24.9053 4.10484 24.854 4.06758 24.797 4.04159C24.7399 4.01561 24.6782 4.00145 24.6156 3.99996Z" fill="#640090"/>
<path d="M28.5511 7.82397H26.5855V17.9343C26.5855 18.9046 26.1659 19.5382 25.0592 19.5382H14.0874L11.7264 21.9053H19.5983L25.0679 27.3075V21.9053H28.5511C28.6816 21.8953 28.8031 21.8346 28.8894 21.7362C28.9757 21.6377 29.0201 21.5094 29.0129 21.3787V8.37645C29.0209 8.24284 28.9775 8.11122 28.8917 8.00852C28.8058 7.90582 28.684 7.83981 28.5511 7.82397Z" fill="#640090"/>
</g>
<defs>
<clipPath id="clip0_55885_153">
<rect width="25.25" height="23.3077" fill="white" transform="translate(3.76294 3.99994)"/>
</clipPath>
</defs>
</svg>
