<svg width="32" height="32" viewBox="0 0 32 32" fill="none" xmlns="http://www.w3.org/2000/svg">
<path d="M22.2083 10.3924C22.4701 10.1294 22.6171 9.77338 22.6171 9.40224C22.6171 9.03111 22.4701 8.67506 22.2083 8.41204C21.9453 8.15019 21.5893 8.00317 21.2181 8.00317C20.847 8.00317 20.4909 8.15019 20.2279 8.41204L12.9841 15.6559L14.9645 17.6363L22.2083 10.3924Z" fill="#640090"/>
<path d="M8.88982 19.74L4.38922 15.2394C4.1262 14.9775 3.77018 14.8306 3.39904 14.8306C3.02791 14.8306 2.67188 14.9775 2.40886 15.2394C2.14702 15.5024 2 15.8584 2 16.2296C2 16.6007 2.14702 16.9568 2.40886 17.2198L7.90137 22.7123C8.03152 22.8427 8.18613 22.9461 8.35635 23.0166C8.52657 23.087 8.70902 23.1232 8.89326 23.123C9.07749 23.1232 9.25997 23.087 9.43019 23.0166C9.60041 22.9461 9.75502 22.8427 9.88517 22.7123L12.1867 20.4108L10.2063 18.4304L8.88982 19.74Z" fill="#640090"/>
<path d="M29.5902 8.40862C29.3272 8.14677 28.9711 7.99976 28.6 7.99976C28.2289 7.99976 27.8728 8.14677 27.6098 8.40862L16.2735 19.7397L11.7729 15.2392C11.5099 14.9773 11.1538 14.8303 10.7827 14.8303C10.4116 14.8303 10.0555 14.9773 9.7925 15.2392C9.53066 15.5022 9.38367 15.8582 9.38367 16.2293C9.38367 16.6004 9.53066 16.9565 9.7925 17.2195L15.285 22.712C15.4153 22.8425 15.57 22.946 15.7404 23.0165C15.9108 23.087 16.0934 23.1231 16.2778 23.1228C16.462 23.123 16.6445 23.0868 16.8147 23.0163C16.9849 22.9458 17.1396 22.8424 17.2697 22.712L29.5936 10.3881C29.8547 10.1246 30.001 9.76854 30.0003 9.39762C29.9997 9.02669 29.8522 8.67115 29.5902 8.40862Z" fill="#640090"/>
</svg>
