<svg width="205" height="262" viewBox="0 0 205 262" fill="none" xmlns="http://www.w3.org/2000/svg">
<path d="M101.83 85.39C101.87 85.49 101.84 85.52 101.79 85.56C96.6901 89.95 89.2701 94.61 82.9701 91.86C78.2201 89.78 74.7201 87.66 72.1601 86.12C68.5001 83.9 65.6901 82.2 63.3001 83.8C62.0501 82.82 59.6901 81.91 55.1501 81.91C51.0601 81.91 48.7201 82.65 47.4001 83.51C45.3901 79.95 42.2801 71.97 50.1701 65.88C55.8501 61.49 61.5701 61.55 65.3701 62.4C71.7801 63.81 77.5501 68.4 80.8101 74.68C86.9001 86.4 98.2801 85.77 101.62 85.31C101.68 85.29 101.77 85.27 101.83 85.39Z" fill="#3C3C3B"/>
<path d="M61.4701 86.46V92.03C59.4801 91.84 57.3901 91.72 55.1501 91.72C52.9101 91.72 50.8201 91.84 48.8301 92.03V86.46C49.1301 86.14 50.4801 85.11 55.1501 85.11C59.8201 85.11 61.1701 86.14 61.4701 86.46Z" fill="#E6C53C"/>
<path d="M45.53 78.96C45.53 78.96 50.39 80.96 59.98 78.45C69.57 75.94 72.31 84.27 80.65 83.93C88.99 83.59 88.19 81.87 86.02 79.71C83.85 77.54 93.78 84.07 98.12 83.95C102.46 83.83 103.2 83.95 103.2 83.95C103.2 83.95 102 88.2 101.32 88.58C100.63 88.96 91.96 93.64 91.27 93.87C90.58 94.1 85.56 94.44 84.88 94.33C84.19 94.22 76.51 89.99 76.51 89.99C76.51 89.99 68.43 84.05 65.35 84.05C62.27 84.05 61.58 84.16 60.78 83.94C59.98 83.71 50.85 84.02 47.53 85.12C47.54 85.11 45.82 84.41 45.53 78.96Z" fill="#101011"/>
<path d="M104.74 84.07C104.12 82.7 102.69 81.92 101.18 82.13C98.36 82.52 88.77 83.06 83.65 73.2C79.95 66.09 73.38 60.88 66.07 59.27C59.76 57.88 53.42 59.33 48.22 63.35C38.37 70.96 42.05 81.67 45.65 86.75L45.64 92.43C45.6 92.44 45.67 94.16 45.62 94.17C45.88 97.43 50.11 94.15 51.55 94.2C52.06 94.2 52.57 94.23 53.06 94.28C54.06 94.01 55.1 93.9 56.19 93.94C57.79 93.94 59.32 94.21 60.78 94.73C61.21 94.7 61.65 94.68 62.1 94.7C62.94 94.7 63.75 94.78 64.55 94.92C65.04 94.67 64.68 94.14 64.67 92.43V86.82C65.35 85.99 66.04 86.14 70.51 88.83C73.14 90.43 76.74 92.61 81.69 94.78C83.41 95.53 85.21 95.9 87.09 95.9C92.12 95.9 97.74 93.26 103.86 87.98C105 87.01 105.35 85.44 104.74 84.07ZM61.47 92.03C59.48 91.84 57.39 91.72 55.15 91.72C52.91 91.72 50.82 91.84 48.83 92.03V86.46C49.13 86.14 50.48 85.11 55.15 85.11C59.82 85.11 61.17 86.14 61.47 86.46V92.03ZM101.78 85.57C96.68 89.96 89.26 94.62 82.96 91.87C78.21 89.79 74.71 87.67 72.15 86.13C68.49 83.91 65.68 82.21 63.29 83.81C62.04 82.83 59.68 81.92 55.14 81.92C51.05 81.92 48.71 82.66 47.39 83.52C45.38 79.96 42.27 71.98 50.16 65.89C55.84 61.5 61.56 61.56 65.36 62.4C71.77 63.81 77.54 68.4 80.8 74.68C86.89 86.4 98.27 85.77 101.61 85.31C101.66 85.3 101.76 85.28 101.81 85.41C101.87 85.49 101.84 85.52 101.78 85.57Z" fill="#1D1E1C"/>
<path d="M96.93 125.25V132.72C96.93 140.55 94.3 148.11 89.5301 154.01C82.0401 163.25 70.6601 167.92 55.6801 167.92C40.7001 167.92 29.3101 163.25 21.8301 154.01C17.0501 148.11 14.4301 140.56 14.4301 132.72V125.25C14.4301 124.03 14.8901 95.29 55.6901 95.29C96.4901 95.29 96.93 124.02 96.93 125.25Z" fill="#BAE2F8"/>
<path d="M93.1901 112.32C94.7501 116.73 94.8101 120.16 94.8101 120.57V128.04C94.8101 135.87 92.1801 143.43 87.4101 149.33C79.9201 158.57 68.5401 163.24 53.5601 163.24C38.5801 163.24 27.1901 158.57 19.7101 149.33C18.5301 147.88 17.4901 146.32 16.5801 144.68C17.8301 148.06 19.5801 151.22 21.8401 154.01C29.3201 163.25 40.7101 167.92 55.6901 167.92C70.6701 167.92 82.0501 163.25 89.5401 154.01C94.3201 148.11 96.9401 140.56 96.9401 132.72V125.25C96.9301 124.71 96.8301 118.77 93.1901 112.32Z" fill="#84CEF4"/>
<path d="M33.7988 110.041C37.5527 107.45 39.6396 103.964 38.4599 102.255C37.2801 100.546 33.2806 101.262 29.5266 103.853C25.7727 106.445 23.6858 109.931 24.8655 111.64C26.0453 113.349 30.0448 112.633 33.7988 110.041Z" fill="white"/>
<path d="M21.8901 116.27C23.0057 116.27 23.9101 115.437 23.9101 114.41C23.9101 113.383 23.0057 112.55 21.8901 112.55C20.7745 112.55 19.8701 113.383 19.8701 114.41C19.8701 115.437 20.7745 116.27 21.8901 116.27Z" fill="white"/>
<path d="M97.6701 116.46C96.7101 113.75 95.2201 110.72 92.9101 107.7C88.6601 102.17 80.6901 95.77 66.0201 93.69C66.0201 93.69 59.8001 92.92 55.2001 92.95C52.8801 92.96 45.3101 93.69 45.3101 93.69C30.6501 95.78 22.6701 102.17 18.4201 107.7C16.1101 110.72 14.6301 113.75 13.6601 116.46C11.8701 119.68 9.34008 135.23 14.8901 147.14C16.1501 150.1 17.8101 152.87 19.8301 155.37C21.8201 157.83 24.5001 160.44 28.0301 162.8C29.6801 163.91 37.1601 169.72 54.7401 169.66C72.3101 169.6 83.2401 163.25 83.2901 162.8C86.8201 160.44 89.5001 157.83 91.4901 155.37C93.5101 152.88 95.1701 150.11 96.4301 147.14C100.61 135.85 99.7001 124.02 97.6701 116.46ZM95.9301 132.69C95.9301 140.33 93.3701 147.71 88.7001 153.46C81.3901 162.48 70.2801 167.04 55.6701 167.04C41.0601 167.04 29.9301 162.48 22.6401 153.46C17.9801 147.7 15.3401 140.45 15.3401 132.81C15.3401 132.81 14.9901 128.78 15.2801 125.15C15.5701 121.52 15.8701 96.16 55.6701 96.16C95.4801 96.16 95.9301 124.2 95.9301 125.39V132.69Z" fill="#1D1E1C"/>
<path d="M11.6601 138.76C11.3601 137.7 11.1201 136.63 10.9501 135.54C11.1201 136.63 11.3601 137.71 11.6601 138.76Z" fill="#84CEF4"/>
<path d="M10.6201 131.86C10.5601 131.83 10.5101 131.79 10.4501 131.76C10.5001 131.8 10.5501 131.83 10.6201 131.86Z" fill="#84CEF4"/>
<path d="M10.95 135.54C10.89 135.18 10.84 134.81 10.8 134.45C10.75 134.44 10.71 134.42 10.66 134.41C10.71 134.43 10.75 134.44 10.8 134.45C10.84 134.81 10.89 135.17 10.95 135.54Z" fill="#84CEF4"/>
<path d="M9.62999 133.96C9.75999 134.03 9.87999 134.08 10.01 134.14C9.87999 134.09 9.74999 134.03 9.62999 133.96C9.12999 133.73 8.64999 133.38 8.23999 132.97C8.63999 133.39 9.12999 133.73 9.62999 133.96Z" fill="#84CEF4"/>
<path d="M7.73999 132.34C7.77999 132.4 7.80999 132.46 7.84999 132.52C7.90999 132.6 7.96999 132.66 8.02999 132.73C7.96999 132.66 7.89999 132.59 7.84999 132.52C7.81999 132.47 7.77999 132.4 7.73999 132.34Z" fill="#1D1E1C"/>
<path d="M9.90002 120.63C10.14 120.81 10.35 120.98 10.54 121.14C10.34 120.98 10.13 120.81 9.90002 120.63Z" fill="#1D1E1C"/>
<path d="M10.97 122.49C10.87 122.99 10.8 123.45 10.75 123.85C10.81 123.45 10.88 122.99 10.97 122.49Z" fill="#1D1E1C"/>
<path d="M9.75999 131.27C9.70999 131.22 9.66 131.16 9.62 131.1C9.66 131.16 9.69999 131.22 9.75999 131.27Z" fill="#1D1E1C"/>
<path d="M4.23999 122.39C4.25999 122.01 4.28999 121.64 4.32999 121.29C4.29999 121.65 4.26999 122.01 4.23999 122.39Z" fill="#1D1E1C"/>
<path d="M6.47009 122.96C6.63009 122.99 6.78009 123.03 6.93009 123.09C6.79009 123.03 6.63009 122.99 6.47009 122.96Z" fill="#1D1E1C"/>
<path d="M7.3901 126.6C7.4001 126.37 7.3901 126.17 7.3501 125.96C7.3901 126.16 7.4001 126.37 7.3901 126.6Z" fill="#1D1E1C"/>
<path d="M5.2701 130.91C5.1101 130.45 4.9701 129.99 4.8501 129.54C4.9701 130 5.1101 130.46 5.2701 130.91Z" fill="#1D1E1C"/>
<path d="M5.57007 123.01C5.87007 122.93 6.15007 122.91 6.41007 122.95C6.15007 122.91 5.87007 122.92 5.57007 123.01C5.85007 123.73 6.20007 124.08 6.51007 124.48C6.58007 124.58 6.65007 124.68 6.72007 124.77C6.65007 124.67 6.58007 124.58 6.51007 124.48C6.20007 124.08 5.85007 123.73 5.57007 123.01Z" fill="#1D1E1C"/>
<path d="M8.00005 123.8C7.88005 123.68 7.74005 123.57 7.60005 123.47C7.74005 123.57 7.87005 123.68 8.00005 123.8Z" fill="#1D1E1C"/>
<path d="M14.5401 142.8C14.5201 142.8 13.2401 142.75 12.6701 142.46L12.6601 142.48C-0.0699234 137.25 0.650076 124.31 1.55008 118.99C1.73008 117.96 2.36007 117.05 3.26007 116.49C3.90007 116.08 4.65008 115.86 5.43008 115.86C5.70008 115.86 5.98008 115.89 6.25008 115.94C9.03008 116.51 11.0201 117.75 12.2001 118.69L12.6301 118.99C14.6401 120.37 14.6401 120.37 14.5201 120.75C13.7601 123.2 13.6701 125.05 13.6801 125.74V131.22C13.6801 134.96 14.5501 138.7 16.1901 142.06C16.2501 142.19 16.2501 142.34 16.1901 142.47C16.1201 142.6 16.0001 142.69 15.8601 142.71C15.3601 142.79 15.2201 142.81 14.9301 142.81L14.5401 142.8Z" fill="#1D1E1C"/>
<path d="M5.43005 116.31C5.67005 116.31 5.92005 116.33 6.16005 116.38C8.73005 116.91 10.6401 118.03 11.9101 119.04C12.5101 119.46 14.1001 120.54 14.0801 120.61C13.2001 123.44 13.21 125.48 13.21 125.75V131.22C13.21 135.1 14.11 138.88 15.76 142.26C15.28 142.34 15.1601 142.35 14.9101 142.35C14.8101 142.35 14.7 142.35 14.53 142.35C14.16 142.35 12.8501 142.12 12.8301 142.06C0.430053 136.96 1.11005 124.31 2.00005 119.06C2.16005 118.17 2.70005 117.37 3.50005 116.87C4.09005 116.5 4.75005 116.31 5.43005 116.31ZM5.43005 115.4C4.57005 115.4 3.73005 115.64 3.01005 116.1C2.00005 116.73 1.30005 117.75 1.10005 118.9C0.180049 124.34 -0.54995 137.54 12.4801 142.9L12.4901 142.89C13.1701 143.24 14.26 143.26 14.53 143.26H14.76H14.9101C15.2201 143.26 15.3901 143.24 15.9101 143.16C16.1901 143.11 16.4401 142.93 16.5701 142.68C16.7001 142.42 16.7101 142.12 16.5801 141.86C14.9701 138.57 14.12 134.89 14.12 131.22V125.75C14.12 125.07 14.2 123.28 14.94 120.88C15.16 120.18 14.9901 120.06 12.8801 118.61L12.4501 118.31C11.2301 117.34 9.19005 116.07 6.34005 115.49C6.04005 115.43 5.74005 115.4 5.43005 115.4Z" fill="#1E1F1C"/>
<path d="M6.90002 134.25C6.62002 133.82 6.37001 133.39 6.14001 132.94C6.36001 133.38 6.62002 133.82 6.90002 134.25Z" fill="#1D1E1C"/>
<path d="M10.62 134.39C10.42 134.31 10.21 134.23 10.01 134.14C10.21 134.23 10.42 134.3 10.62 134.39Z" fill="#1D1E1C"/>
<path d="M10.6201 131.86C10.6201 131.64 10.6101 131.43 10.6101 131.21C10.6101 131.43 10.6201 131.65 10.6201 131.86Z" fill="#1D1E1C"/>
<path d="M6.90002 134.25C7.60002 135.32 8.46002 136.33 9.53002 137.24C8.46002 136.32 7.59002 135.31 6.90002 134.25Z" fill="#1D1E1C"/>
<path d="M5.63999 131.56C6.34999 132.9 7.21 133.09 8.04 132.74C7.98 132.67 7.91 132.6 7.86 132.53C7.82 132.47 7.77999 132.41 7.74999 132.35C7.47 131.92 7.26999 131.45 7.16999 131C7.12999 130.83 7.1 130.66 7.09 130.49C7.07 130.32 7.06 130.16 7.06 130C7.05 129.52 7.08999 129.06 7.13999 128.62L7.36 126.97C7.38 126.84 7.38999 126.73 7.38999 126.61C7.39999 126.38 7.38999 126.18 7.34999 125.97C7.32999 125.87 7.29999 125.76 7.25999 125.66C7.13999 125.35 6.95 125.07 6.74 124.79C6.67 124.69 6.59999 124.6 6.52999 124.5C6.21999 124.1 5.86999 123.75 5.59 123.03C5.89 122.95 6.17 122.93 6.43 122.97C6.45 122.97 6.47 122.98 6.49999 122.98C6.66 123.01 6.80999 123.05 6.95999 123.11C7.19999 123.21 7.42 123.34 7.63 123.49C7.77 123.59 7.89999 123.7 8.02999 123.82C8.39999 124.18 8.69 124.62 8.9 125.1C9.02 125.37 9.10999 125.67 9.16999 125.98C9.23999 126.36 9.26999 126.74 9.25999 127.08L9.18999 128.77C9.18999 128.9 9.18 129.03 9.18 129.16C9.18 129.42 9.2 129.67 9.22 129.9C9.23 130.02 9.24999 130.13 9.27999 130.24C9.30999 130.39 9.35 130.53 9.4 130.66C9.46 130.83 9.53999 130.99 9.63999 131.13C9.67999 131.19 9.72999 131.25 9.77999 131.3C9.78999 131.31 9.8 131.32 9.81 131.33C10.11 130.97 10.39 130.6 10.63 130.25V125.78C10.63 125.7 10.63 125.54 10.64 125.32C10.65 125.1 10.67 124.8 10.71 124.46C10.73 124.29 10.75 124.1 10.78 123.9C10.83 123.5 10.9 123.04 11 122.54C11.05 122.29 11.1 122.03 11.17 121.76C11.01 121.59 10.8 121.4 10.56 121.19C10.37 121.02 10.16 120.85 9.91999 120.68C9.48999 120.36 8.99999 120.04 8.40999 119.74C7.61999 119.34 6.68999 118.99 5.61999 118.77C5.34999 118.72 5.13999 118.81 4.99999 118.89C4.89999 118.96 4.81 119.04 4.74 119.14C4.67 119.24 4.63 119.35 4.61 119.47C4.52 120.01 4.43 120.64 4.36 121.34C4.32 121.69 4.29 122.06 4.27 122.44C4.2 123.58 4.18999 124.85 4.29999 126.18C4.35999 126.84 4.43999 127.52 4.56999 128.21C4.64999 128.67 4.74999 129.13 4.86999 129.58C4.98999 130.04 5.13 130.5 5.29 130.95C5.4 131.27 5.52999 131.59 5.65999 131.9C5.62999 131.67 5.63999 131.56 5.63999 131.56Z" fill="#BAE2F8"/>
<path d="M10.44 131.77C10.5 131.8 10.55 131.84 10.61 131.87C10.61 131.65 10.6 131.44 10.6 131.22V130.22C10.36 130.57 10.08 130.95 9.78003 131.3C9.96003 131.48 10.19 131.63 10.44 131.77Z" fill="#84CEF4"/>
<path d="M6.90007 134.25C7.60007 135.32 8.46007 136.33 9.53007 137.24C10.1701 137.79 10.8801 138.3 11.6701 138.77C11.3701 137.71 11.1301 136.64 10.9601 135.55C10.9001 135.19 10.8501 134.82 10.8101 134.46C10.7601 134.45 10.7201 134.43 10.6701 134.42C10.6601 134.42 10.6401 134.41 10.6301 134.41C10.4301 134.33 10.2201 134.25 10.0201 134.16C9.89007 134.11 9.77007 134.05 9.64007 133.98C9.14007 133.75 8.66007 133.4 8.25007 132.99C8.18007 132.92 8.12007 132.84 8.05007 132.76C7.22007 133.11 6.36007 132.91 5.65007 131.58C5.65007 131.58 5.64007 131.7 5.65007 131.89C5.80007 132.25 5.96007 132.61 6.15007 132.96C6.36007 133.38 6.62007 133.82 6.90007 134.25Z" fill="#84CEF4"/>
<path d="M99.6001 138.76C99.9001 137.7 100.14 136.63 100.31 135.54C100.14 136.63 99.9001 137.71 99.6001 138.76Z" fill="#84CEF4"/>
<path d="M100.65 131.86C100.71 131.83 100.76 131.79 100.82 131.76C100.76 131.8 100.71 131.83 100.65 131.86Z" fill="#84CEF4"/>
<path d="M100.31 135.54C100.37 135.18 100.42 134.81 100.46 134.45C100.51 134.44 100.55 134.42 100.6 134.41C100.55 134.43 100.51 134.44 100.46 134.45C100.42 134.81 100.37 135.17 100.31 135.54Z" fill="#84CEF4"/>
<path d="M101.64 133.96C101.51 134.03 101.39 134.08 101.26 134.14C101.38 134.09 101.51 134.03 101.64 133.96C102.14 133.73 102.62 133.38 103.03 132.97C102.62 133.39 102.13 133.73 101.64 133.96Z" fill="#84CEF4"/>
<path d="M103.52 132.34C103.48 132.4 103.45 132.46 103.41 132.52C103.35 132.6 103.29 132.66 103.23 132.73C103.29 132.66 103.36 132.59 103.41 132.52C103.45 132.47 103.48 132.4 103.52 132.34Z" fill="#1D1E1C"/>
<path d="M101.36 120.63C101.12 120.81 100.91 120.98 100.72 121.14C100.92 120.98 101.13 120.81 101.36 120.63Z" fill="#1D1E1C"/>
<path d="M102.04 127.05C102.03 126.72 102.06 126.33 102.13 125.95C102.05 126.33 102.02 126.72 102.04 127.05Z" fill="#1D1E1C"/>
<path d="M101.51 131.27C101.56 131.22 101.61 131.16 101.65 131.1C101.6 131.16 101.56 131.22 101.51 131.27C101.5 131.28 101.49 131.29 101.48 131.3C101.48 131.29 101.5 131.28 101.51 131.27Z" fill="#1D1E1C"/>
<path d="M107.02 122.39C107 122.01 106.97 121.64 106.93 121.29C106.96 121.65 106.99 122.01 107.02 122.39Z" fill="#1D1E1C"/>
<path d="M102.11 129.13C102.11 129.39 102.09 129.64 102.07 129.87C102.1 129.64 102.11 129.39 102.11 129.13Z" fill="#1D1E1C"/>
<path d="M103.88 126.6C103.87 126.37 103.88 126.17 103.92 125.96C103.88 126.16 103.87 126.37 103.88 126.6Z" fill="#1D1E1C"/>
<path d="M105.99 130.91C106.15 130.45 106.29 129.99 106.41 129.54C106.29 130 106.15 130.46 105.99 130.91Z" fill="#1D1E1C"/>
<path d="M105.69 123.01C105.39 122.93 105.11 122.91 104.85 122.95C105.11 122.91 105.39 122.92 105.69 123.01C105.41 123.73 105.06 124.08 104.75 124.48C104.68 124.58 104.61 124.68 104.54 124.77C104.61 124.67 104.68 124.58 104.75 124.48C105.06 124.08 105.41 123.73 105.69 123.01Z" fill="#1D1E1C"/>
<path d="M103.27 123.8C103.39 123.68 103.53 123.57 103.67 123.47C103.52 123.57 103.39 123.68 103.27 123.8Z" fill="#1D1E1C"/>
<path d="M106.71 128.16C106.84 127.48 106.92 126.8 106.98 126.13C106.93 126.8 106.84 127.48 106.71 128.16Z" fill="#1D1E1C"/>
<path d="M96.3501 142.8C96.0601 142.8 95.9201 142.79 95.4201 142.7C95.2801 142.68 95.1501 142.59 95.0901 142.46C95.0201 142.33 95.0201 142.18 95.0901 142.05C96.7301 138.7 97.6001 134.95 97.6001 131.21V125.74C97.6001 125.04 97.5201 123.19 96.7601 120.74C96.6401 120.36 96.6401 120.36 98.6501 118.98L99.1101 118.66C100.26 117.74 102.25 116.49 105.03 115.93C105.3 115.88 105.58 115.85 105.85 115.85C106.63 115.85 107.38 116.07 108.02 116.48C108.92 117.04 109.55 117.95 109.73 118.97C110.63 124.3 111.35 137.24 98.6201 142.47L98.6101 142.45C98.0401 142.74 96.7601 142.79 96.7401 142.79L96.3501 142.8Z" fill="#1D1E1C"/>
<path d="M105.83 116.31C106.51 116.31 107.18 116.5 107.75 116.87C108.56 117.37 109.1 118.17 109.25 119.06C110.14 124.3 110.82 136.96 98.42 142.06C98.4 142.12 97.09 142.35 96.72 142.35C96.55 142.35 96.44 142.35 96.34 142.35C96.09 142.35 95.97 142.34 95.49 142.26C97.14 138.88 98.04 135.1 98.04 131.22V125.75C98.04 125.48 98.06 123.44 97.17 120.61C97.15 120.54 98.74 119.46 99.34 119.04C100.61 118.02 102.52 116.91 105.09 116.38C105.34 116.33 105.59 116.31 105.83 116.31ZM105.83 115.4C105.53 115.4 105.22 115.43 104.92 115.49C102.07 116.07 100.02 117.34 98.8 118.31L98.37 118.61C96.26 120.06 96.09 120.18 96.31 120.88C97.06 123.27 97.13 125.07 97.13 125.73V131.21C97.13 134.88 96.28 138.55 94.67 141.85C94.54 142.11 94.55 142.41 94.68 142.67C94.81 142.93 95.06 143.1 95.34 143.15C95.86 143.24 96.03 143.25 96.34 143.25H96.49H96.72C96.99 143.25 98.09 143.23 98.76 142.88L98.77 142.89C111.8 137.53 111.07 124.33 110.15 118.9C109.95 117.74 109.25 116.72 108.23 116.09C107.53 115.64 106.69 115.4 105.83 115.4Z" fill="#1E1F1C"/>
<path d="M104.37 134.25C104.65 133.82 104.9 133.39 105.13 132.94C104.9 133.38 104.65 133.82 104.37 134.25Z" fill="#1D1E1C"/>
<path d="M100.6 134.4C100.61 134.4 100.63 134.39 100.64 134.39C100.84 134.31 101.05 134.23 101.25 134.14C101.05 134.23 100.84 134.3 100.64 134.39C100.63 134.39 100.62 134.4 100.6 134.4Z" fill="#1D1E1C"/>
<path d="M100.65 131.86C100.65 131.64 100.66 131.43 100.66 131.21C100.65 131.43 100.65 131.65 100.65 131.86Z" fill="#1D1E1C"/>
<path d="M104.37 134.25C103.67 135.32 102.81 136.33 101.74 137.24C102.81 136.32 103.67 135.31 104.37 134.25Z" fill="#1D1E1C"/>
<path d="M105.62 131.56C104.91 132.9 104.05 133.09 103.22 132.74C103.28 132.67 103.35 132.6 103.4 132.53C103.44 132.47 103.48 132.41 103.51 132.35C103.79 131.92 103.99 131.45 104.09 131C104.13 130.83 104.16 130.66 104.17 130.49C104.19 130.32 104.2 130.16 104.2 130C104.21 129.52 104.17 129.06 104.12 128.62L103.9 126.97C103.88 126.84 103.87 126.73 103.87 126.61C103.86 126.38 103.87 126.18 103.91 125.97C103.93 125.87 103.96 125.76 104 125.66C104.12 125.35 104.31 125.07 104.52 124.79C104.59 124.69 104.66 124.6 104.73 124.5C105.04 124.1 105.39 123.75 105.67 123.03C105.37 122.95 105.09 122.93 104.83 122.97C104.81 122.97 104.79 122.98 104.76 122.98C104.6 123.01 104.45 123.05 104.3 123.11C104.06 123.21 103.84 123.34 103.63 123.49C103.49 123.59 103.36 123.7 103.23 123.82C102.86 124.18 102.57 124.62 102.36 125.1C102.24 125.37 102.15 125.67 102.09 125.98C102.02 126.36 101.99 126.74 102 127.08L102.07 128.77C102.07 128.9 102.08 129.03 102.08 129.16C102.08 129.42 102.06 129.67 102.04 129.9C102.03 130.02 102.01 130.13 101.98 130.24C101.95 130.39 101.91 130.53 101.86 130.66C101.8 130.83 101.72 130.99 101.62 131.13C101.58 131.19 101.53 131.25 101.48 131.3C101.47 131.31 101.46 131.32 101.45 131.33C101.15 130.97 100.87 130.6 100.63 130.25V125.78C100.63 125.7 100.63 125.54 100.62 125.32C100.61 125.1 100.59 124.8 100.55 124.46C100.53 124.29 100.51 124.1 100.48 123.9C100.43 123.5 100.36 123.04 100.26 122.54C100.21 122.29 100.16 122.03 100.09 121.76C100.25 121.59 100.46 121.4 100.7 121.19C100.89 121.02 101.1 120.85 101.34 120.68C101.77 120.36 102.26 120.04 102.85 119.74C103.64 119.34 104.57 118.99 105.64 118.77C105.91 118.72 106.12 118.81 106.26 118.89C106.36 118.96 106.45 119.04 106.52 119.14C106.59 119.24 106.63 119.35 106.65 119.47C106.74 120.01 106.83 120.64 106.9 121.34C106.94 121.69 106.97 122.06 106.99 122.44C107.06 123.58 107.07 124.85 106.96 126.18C106.9 126.84 106.82 127.52 106.69 128.21C106.61 128.67 106.51 129.13 106.39 129.58C106.27 130.04 106.13 130.5 105.97 130.95C105.86 131.27 105.73 131.59 105.6 131.9C105.63 131.67 105.62 131.56 105.62 131.56Z" fill="#BAE2F8"/>
<path d="M100.82 131.77C100.76 131.8 100.71 131.84 100.65 131.87C100.65 131.65 100.66 131.44 100.66 131.22V130.22C100.9 130.57 101.18 130.95 101.48 131.3C101.3 131.48 101.07 131.63 100.82 131.77Z" fill="#84CEF4"/>
<path d="M104.37 134.25C103.67 135.32 102.81 136.33 101.74 137.24C101.1 137.79 100.39 138.3 99.6001 138.77C99.9001 137.71 100.14 136.64 100.31 135.55C100.37 135.19 100.42 134.82 100.46 134.46C100.51 134.45 100.55 134.43 100.6 134.42C100.61 134.42 100.63 134.41 100.64 134.41C100.84 134.33 101.05 134.25 101.25 134.16C101.38 134.11 101.5 134.05 101.63 133.98C102.13 133.75 102.61 133.4 103.02 132.99C103.09 132.92 103.15 132.84 103.22 132.76C104.05 133.11 104.91 132.91 105.62 131.58C105.62 131.58 105.63 131.7 105.62 131.89C105.47 132.25 105.31 132.61 105.12 132.96C104.9 133.38 104.65 133.82 104.37 134.25Z" fill="#84CEF4"/>
<path d="M9.88004 149.14C9.32004 149.14 8.78004 149.02 8.26004 148.79C7.30004 148.36 6.56004 147.58 6.19004 146.59C5.82004 145.6 5.85004 144.53 6.28004 143.57C6.92004 142.15 8.33004 141.24 9.89004 141.24C10.45 141.24 10.99 141.36 11.51 141.59C12.47 142.02 13.21 142.8 13.58 143.79C13.95 144.78 13.92 145.85 13.49 146.81C12.85 148.22 11.43 149.14 9.88004 149.14Z" fill="#F19001"/>
<path d="M9.88005 142.36C10.27 142.36 10.66 142.44 11.04 142.61C12.46 143.25 13.1 144.92 12.46 146.35C11.99 147.4 10.96 148.02 9.88005 148.02C9.49005 148.02 9.10005 147.94 8.72005 147.77C7.30005 147.13 6.66005 145.46 7.30005 144.03C7.77005 142.98 8.80005 142.36 9.88005 142.36ZM9.88005 140.11C7.88005 140.11 6.07005 141.29 5.25005 143.11C4.10005 145.66 5.25005 148.67 7.80005 149.82C8.46005 150.12 9.16005 150.27 9.88005 150.27C11.88 150.27 13.69 149.09 14.51 147.27C15.06 146.03 15.11 144.66 14.62 143.39C14.14 142.12 13.19 141.12 11.96 140.57C11.3 140.26 10.6 140.11 9.88005 140.11Z" fill="#1D1E1C"/>
<path d="M10.8101 143.2C11.4101 143.47 11.68 144.17 11.41 144.77C11.14 145.37 10.44 145.64 9.84005 145.37C9.24005 145.1 8.97005 144.4 9.24005 143.8C9.51005 143.2 10.2201 142.94 10.8101 143.2Z" fill="#1D1E1C"/>
<path d="M100.18 149.14C98.6299 149.14 97.21 148.22 96.57 146.81C96.14 145.85 96.1099 144.77 96.4799 143.79C96.8599 142.8 97.59 142.02 98.56 141.59C99.07 141.36 99.6199 141.24 100.18 141.24C101.73 141.24 103.15 142.16 103.79 143.57C104.22 144.53 104.25 145.61 103.88 146.59C103.5 147.58 102.77 148.36 101.81 148.79C101.28 149.02 100.74 149.14 100.18 149.14Z" fill="#F19001"/>
<path d="M100.18 142.36C101.26 142.36 102.29 142.98 102.76 144.03C103.4 145.45 102.76 147.13 101.34 147.77C100.96 147.94 100.57 148.02 100.18 148.02C99.1 148.02 98.07 147.4 97.6 146.35C96.96 144.93 97.6 143.25 99.02 142.61C99.4 142.44 99.79 142.36 100.18 142.36ZM100.18 140.11C99.46 140.11 98.76 140.26 98.1 140.56C96.86 141.11 95.92 142.12 95.44 143.38C94.96 144.65 95 146.02 95.55 147.26C96.37 149.08 98.18 150.26 100.18 150.26C100.9 150.26 101.6 150.11 102.26 149.81C104.81 148.66 105.96 145.66 104.81 143.1C103.99 141.29 102.17 140.11 100.18 140.11Z" fill="#1D1E1C"/>
<path d="M99.24 143.2C98.64 143.47 98.37 144.17 98.64 144.77C98.91 145.37 99.61 145.64 100.21 145.37C100.81 145.1 101.08 144.4 100.81 143.8C100.54 143.2 99.84 142.94 99.24 143.2Z" fill="#1D1E1C"/>
<path d="M112.95 238.01C108.49 239.14 105.02 237.96 99.8701 231.92C98.2601 230.03 96.4501 229.32 94.4601 229.32C91.7301 229.32 88.6901 230.66 85.3801 232.12C80.0001 234.49 73.3101 237.45 64.6401 236.82C63.1301 236.71 61.6301 236.53 60.1701 236.28C45.2901 233.72 33.9501 222.05 31.9501 207.25C31.8101 206.18 31.7501 205.34 31.7301 204.82C48.4201 195.31 63.1801 195.24 76.7801 204.6C75.9701 207.2 74.1401 214.93 79.2101 219.22C82.7901 222.24 86.2101 222.21 89.5201 222.18C91.7101 222.16 93.9601 222.13 96.4301 222.95C99.4201 223.95 102.58 225.66 105.47 231.43C107.14 234.79 110.45 236.86 112.95 238.01Z" fill="#BBE3F9"/>
<path d="M99.87 231.92C105.02 237.96 108.49 239.14 112.95 238.01C110.45 236.87 107.14 234.8 105.46 231.43C102.57 225.66 99.41 223.94 96.42 222.95C93.95 222.13 91.69 222.15 89.51 222.18C86.2 222.21 82.78 222.24 79.2 219.22C74.13 214.92 75.96 207.2 76.77 204.6C63.17 195.24 48.42 195.31 31.72 204.82C31.74 205.35 31.8 206.18 31.94 207.25C33.94 222.05 45.28 233.72 60.16 236.28C61.62 236.53 63.12 236.71 64.63 236.82C73.3 237.45 79.99 234.49 85.37 232.12C88.68 230.67 91.73 229.32 94.45 229.32C96.45 229.32 98.25 230.03 99.87 231.92ZM89.48 219.85C91.74 219.83 94.31 219.8 97.14 220.74C100.44 221.84 104.25 223.84 107.52 230.39C109.9 235.13 116.64 236.92 116.71 236.93C117.2 237.05 117.54 237.48 117.58 237.98C117.61 238.48 117.32 238.95 116.85 239.13C114.28 240.16 112.06 240.7 110.01 240.7C105.82 240.7 102.37 238.43 98.1001 233.42C95.5001 230.37 92.44 231.53 86.3 234.23C80.68 236.7 73.69 239.78 64.46 239.12C62.88 239 61.29 238.81 59.76 238.55C43.88 235.81 31.77 223.35 29.64 207.54C29.35 205.44 29.37 204.17 29.37 204.12C29.38 203.71 29.6 203.34 29.95 203.14C48.05 192.62 64.03 192.63 78.8 203.19C79.23 203.5 79.4 204.06 79.21 204.55C79.18 204.63 75.9 213.39 80.68 217.44C83.61 219.91 86.33 219.88 89.48 219.85Z" fill="#020202"/>
<path d="M79.6301 196.25L79.9501 197.45C79.2901 197.38 78.5901 197.27 77.7801 197.16C75.0401 196.75 70.9501 196.15 63.5201 195.85C62.8501 191.31 59.9901 182.3 59.7701 171.28C59.9801 171.25 60.1901 171.22 60.4001 171.18C60.6701 181.78 64.4801 192.92 64.6501 193.88C64.7101 194.24 65.0101 194.51 65.3701 194.52C74.1701 194.92 78.1501 195.81 79.6301 196.25Z" fill="#E7C63E"/>
<path d="M75.3101 185.76L79.2701 194.55C77.2801 194.06 73.3301 193.37 66.0601 193C65.4301 189.28 62.1301 180.34 61.9301 170.89C65.2301 170.21 68 169.11 70.34 167.79C70.33 170.93 71.0301 177.04 75.3101 185.76Z" fill="#8B1249"/>
<path d="M78.7101 202.47C78.7801 202.74 78.8201 202.96 78.8301 203.13C78.7101 203.1 78.5801 203.06 78.4701 203.02C75.9301 202.23 69.9801 200.4 54.3501 200.4C38.7201 200.4 32.7701 202.23 30.2301 203.02C30.1101 203.06 29.9801 203.1 29.8701 203.13C29.8801 202.96 29.9201 202.74 29.9901 202.47C30.1201 201.98 30.1801 201.48 30.1501 200.97L30.1001 199.61C30.4601 199.56 30.8501 199.5 31.2701 199.44C34.0701 199.03 38.3201 198.4 46.2301 198.12C46.7901 198.1 47.2501 197.69 47.3301 197.14C47.4101 196.65 48.2701 201.75 49.1801 194.6C49.8901 194.5 51.3901 194.38 54.3601 194.38C57.3301 194.38 58.8301 194.5 59.5401 194.6C60.4401 201.75 61.3101 196.65 61.3901 197.14C61.4701 197.69 61.9401 198.1 62.4901 198.12C70.4001 198.41 74.6501 199.03 77.4501 199.44C77.8701 199.5 78.2501 199.56 78.6201 199.61L78.5601 200.97C78.5301 201.49 78.5801 201.99 78.7101 202.47Z" fill="#E7C63E"/>
<path d="M57.4501 171.52C57.5801 177.31 58.3801 185.25 59.2301 192.24C58.2301 192.14 56.7001 192.06 54.3501 192.06C51.9901 192.06 50.4701 192.14 49.4701 192.24C50.3101 185.25 51.1201 177.31 51.2501 171.52C52.2501 171.59 53.2701 171.64 54.3601 171.64C55.4501 171.64 56.4601 171.59 57.4501 171.52Z" fill="#BBE3F9"/>
<path d="M48.29 171.17C48.5 171.21 48.71 171.24 48.92 171.27C48.7 182.29 45.85 191.3 45.17 195.84C37.74 196.14 33.65 196.74 30.91 197.15C30.1 197.27 29.4 197.37 28.79 197.49L29.07 196.24C30.56 195.81 34.54 194.92 43.32 194.51C43.68 194.49 43.98 194.22 44.04 193.87C44.21 192.91 48.02 181.77 48.29 171.17Z" fill="#E7C63E"/>
<path d="M46.7502 170.89C46.5602 180.34 43.2602 189.28 42.6202 193C35.3502 193.37 31.4002 194.06 29.4102 194.55L33.3702 185.76C37.6502 177.04 38.3501 170.93 38.3401 167.79C40.6801 169.12 43.4502 170.21 46.7502 170.89Z" fill="#8B1249"/>
<path opacity="0.19" d="M36.9601 167.79C36.9601 167.79 40.3801 175.34 54.3401 175.34C68.3001 175.34 71.5001 167.79 71.5001 167.79L71.0601 165.74C71.0601 165.74 67.7901 169.49 67.1601 169.32C66.5301 169.15 57.4801 170.59 57.1501 170.54C56.8201 170.48 44.9001 169.32 44.9001 169.32L36.9501 165.74V167.79H36.9601Z" fill="#020202"/>
<path d="M81.6401 199.02C82.1301 198.46 82.3301 197.71 82.1701 196.99L81.8501 195.58L77.5501 185.15C77.5301 185.06 77.5001 184.96 77.4601 184.87C72.2501 174.33 72.5701 167.82 72.7501 166.24C73.1901 165.92 73.6001 165.6 73.9901 165.27C73.4101 164.77 72.8501 165.77 72.3301 165.21C67.7301 168.95 61.7001 169.32 54.3501 169.32C47.1801 169.32 41.2701 167.52 36.7101 163.96C36.0801 164.45 35.4301 164.9 34.7501 165.32C35.1301 165.63 35.5301 165.95 35.9501 166.25C36.1301 167.83 36.4401 174.34 31.2401 184.88C31.2001 184.96 31.1601 185.07 31.1501 185.16L26.8601 195.56L26.5401 196.99C26.3801 197.71 26.5801 198.47 27.0701 199.02C27.2701 199.24 27.5201 199.41 27.7801 199.54L27.8501 201.08C27.8601 201.35 27.8301 201.62 27.7701 201.87C27.4101 203.2 27.5401 204.3 28.1401 205.04C28.4701 205.46 28.8701 205.6 29.3201 205.6C29.8101 205.6 30.3501 205.43 30.9301 205.25C33.1501 204.56 39.0801 202.73 54.3601 202.73C69.6401 202.73 75.5701 204.56 77.7901 205.25C78.9201 205.6 79.8901 205.89 80.5901 205.03C81.1901 204.29 81.3201 203.19 80.9601 201.85C80.8901 201.61 80.8701 201.35 80.8801 201.07L80.9501 199.53C81.1901 199.41 81.4401 199.23 81.6401 199.02ZM70.3501 167.79C70.3301 170.93 71.0401 177.04 75.3201 185.76L79.2801 194.55C77.2901 194.06 73.3401 193.37 66.0701 193C65.4401 189.28 62.1401 180.34 61.9401 170.89C65.2401 170.21 68.0101 169.12 70.3501 167.79ZM51.2401 171.52C52.2401 171.59 53.2601 171.64 54.3501 171.64C55.4401 171.64 56.4601 171.59 57.4601 171.52C57.5901 177.31 58.3901 185.25 59.2401 192.24C58.2401 192.14 56.7101 192.06 54.3601 192.06C52.0001 192.06 50.4801 192.14 49.4801 192.24C50.3101 185.25 51.1101 177.31 51.2401 171.52ZM33.3801 185.76C37.6601 177.04 38.3601 170.93 38.3501 167.79C40.6801 169.11 43.4601 170.21 46.7601 170.89C46.5701 180.34 43.2701 189.28 42.6301 193C35.3601 193.37 31.4101 194.06 29.4201 194.55L33.3801 185.76ZM28.7901 197.5L29.0701 196.25C30.5601 195.82 34.5401 194.93 43.3201 194.52C43.6801 194.5 43.9801 194.23 44.0401 193.88C44.2101 192.91 48.0201 181.78 48.2901 171.18C48.5001 171.22 48.7101 171.25 48.9201 171.28C48.7001 182.3 45.8501 191.31 45.1701 195.85C37.7401 196.15 33.6501 196.75 30.9101 197.16C30.1001 197.27 29.4001 197.38 28.7901 197.5ZM78.4601 203.03C75.9201 202.24 69.9701 200.41 54.3401 200.41C38.7101 200.41 32.7601 202.24 30.2201 203.03C30.1001 203.07 29.9701 203.11 29.8601 203.14C29.8701 202.97 29.9101 202.75 29.9801 202.48C30.1101 201.99 30.1701 201.49 30.1401 200.98L30.0901 199.62C30.4501 199.57 30.8401 199.51 31.2601 199.45C34.0601 199.04 38.3101 198.41 46.2201 198.13C46.7801 198.11 47.2401 197.7 47.3201 197.15C47.4001 196.66 48.2601 201.76 49.1701 194.61C49.8801 194.51 51.3801 194.39 54.3501 194.39C57.3201 194.39 58.8201 194.51 59.5301 194.61C60.4301 201.76 61.3001 196.66 61.3801 197.15C61.4601 197.7 61.9301 198.11 62.4801 198.13C70.3901 198.42 74.6401 199.04 77.4401 199.45C77.8601 199.51 78.2401 199.57 78.6101 199.62L78.5501 200.98C78.5301 201.5 78.5801 202 78.7101 202.48C78.7801 202.75 78.8201 202.97 78.8301 203.14C78.7101 203.1 78.5801 203.07 78.4601 203.03ZM77.7801 197.16C75.0401 196.75 70.9501 196.15 63.5201 195.85C62.8501 191.31 59.9901 182.3 59.7701 171.28C59.9801 171.25 60.1901 171.22 60.4001 171.18C60.6701 181.78 64.4801 192.92 64.6501 193.88C64.7101 194.24 65.0101 194.51 65.3701 194.52C74.1701 194.93 78.1501 195.82 79.6301 196.26L79.9501 197.46C79.2901 197.38 78.5901 197.27 77.7801 197.16Z" fill="#020202"/>
<path d="M131.85 256.8C131.77 256.99 131.8 257.21 131.93 257.32C132.81 258.03 135.08 259.21 140.48 259.21C145.87 259.21 148.15 258.03 149.02 257.32C149.16 257.21 149.2 256.99 149.1 256.8L147.79 254.16C145.75 254.74 143.33 255.08 140.47 255.08C137.77 255.08 135.32 254.77 133.15 254.16L131.85 256.8Z" fill="#F29100"/>
<path d="M154.36 237.79C154.52 237.84 154.67 237.89 154.82 237.94C154.86 237.96 154.9 237.97 154.94 237.98C156.14 238.39 156.98 238.82 157.57 239.25C157.74 239.02 157.9 238.8 158.08 238.6C158.95 237.56 159.93 236.89 160.91 236.68C161.44 236.57 161.98 236.58 162.52 236.7L162.6 236.72C162.62 236.72 162.65 236.73 162.69 236.74C162.84 236.77 162.94 236.82 163.01 236.84C163.24 236.94 163.44 237.09 163.6 237.27C163.92 237.63 164.17 238.19 164.28 238.82C164.39 239.38 164.4 240.03 164.32 240.73C164 243.39 162.3 245.97 160.02 247.3C158.95 247.96 157.7 248.38 156.31 248.56C155.9 249.13 155.44 249.66 154.95 250.16C155.35 250.18 155.75 250.18 156.16 250.17C157.85 250.1 159.49 249.68 160.9 248.96C162.37 248.22 163.68 247.11 164.69 245.76C165.74 244.36 166.44 242.82 166.76 241.17C166.94 240.22 166.98 239.35 166.89 238.53C166.77 237.46 166.46 236.56 165.94 235.79C165.64 235.34 165.25 234.94 164.82 234.63C164.58 234.46 164.35 234.32 164.09 234.2C163.88 234.1 163.58 233.99 163.36 233.93C162.71 233.73 162.01 233.63 161.32 233.63C161.04 233.63 160.76 233.65 160.49 233.68C159.58 233.8 158.64 234.13 157.77 234.63C157.01 235.09 156.29 235.66 155.64 236.32C155.19 236.74 154.77 237.25 154.36 237.79Z" fill="#F29100"/>
<path d="M140.49 234.08C138.64 234.08 137.36 234.18 136.5 234.31C137.4 234.46 138.69 234.57 140.49 234.57C142.3 234.57 143.57 234.45 144.48 234.31C143.61 234.18 142.34 234.08 140.49 234.08Z" fill="#F29100"/>
<path d="M134.42 235.38L132.15 239.13C133 239.49 135.18 240.06 140.49 240.06C145.79 240.06 147.98 239.49 148.83 239.13L146.56 235.38C145.52 235.77 143.71 236.11 140.5 236.11C137.27 236.12 135.45 235.78 134.42 235.38Z" fill="#F29100"/>
<path d="M129.49 239.49C126.86 239.99 125.54 240.61 124.91 241.04C126.56 242.05 130.97 244.01 140.48 244.01C149.97 244.01 154.39 242.06 156.05 241.04C155.91 240.94 155.73 240.83 155.51 240.72C155.51 240.71 155.5 240.71 155.49 240.71C155.41 240.66 155.32 240.63 155.23 240.58C155.21 240.57 155.2 240.56 155.18 240.56C155.09 240.52 154.99 240.48 154.89 240.44C154.87 240.43 154.84 240.42 154.82 240.41C154.71 240.37 154.6 240.33 154.48 240.28C154.46 240.27 154.43 240.26 154.41 240.26C154.28 240.21 154.15 240.17 154.01 240.12C153.99 240.12 153.97 240.11 153.96 240.1C153.48 239.95 152.92 239.8 152.27 239.65C152.26 239.65 152.26 239.65 152.25 239.65C152.01 239.6 151.76 239.54 151.49 239.49C151.48 239.51 151.48 239.53 151.48 239.55C151.19 241.43 147.5 242.39 140.49 242.39C133.48 242.39 129.78 241.43 129.5 239.55C129.49 239.52 129.49 239.51 129.49 239.49Z" fill="#F29100"/>
<path d="M113.3 237.75C113.14 237.84 113 237.94 112.87 238.06C115.43 238.72 117.85 240.93 121.26 245.59C124.03 249.36 128.92 250.63 130.89 251.01C131.29 251.09 131.69 251.21 132.13 251.38C134.46 252.3 137.27 252.76 140.48 252.76C145.65 252.76 149.16 251.57 151.54 249.96C152.81 249.1 153.87 248.04 154.68 246.8C154.71 246.76 154.74 246.73 154.77 246.69C155.48 245.59 155.91 244.5 156.17 243.59C153.66 244.82 148.88 246.32 140.47 246.32C127.82 246.32 123.37 242.94 122.52 242.16C121.96 241.84 119.7 240.51 117.64 238.93C115.11 236.98 113.46 237.68 113.3 237.75Z" fill="#F29100"/>
<path d="M156.19 243.6C156.19 243.6 154.21 251.11 143.18 251.24C132.15 251.37 130.38 249.25 130.38 249.25C130.38 249.25 123.98 249.17 120.78 246.4C120.78 246.4 128.17 251.85 131.15 252.76C134.13 253.67 131.81 254.16 131.81 254.16C131.81 254.16 133.51 256.94 140.49 256.69C147.48 256.43 149.17 254.16 149.17 254.16L147.81 252.76C147.81 252.76 155.72 251.83 156.19 243.6Z" fill="#E95A0C"/>
<path d="M161.05 245.16C161.05 245.16 160.19 249.12 163.37 248.11C163.37 248.11 161.22 251.23 157.83 251.12C154.44 251.01 152.6 250.73 152.6 250.73L156.06 247.48L161.05 245.16Z" fill="#E95A0C"/>
<path d="M112.18 235.72C112.3 235.65 115.17 234.11 119.06 237.1C120.45 238.16 121.96 239.12 122.89 239.69C123.89 238.72 126.07 237.61 130.77 236.95L132.79 233.63C133.35 232.39 135.88 231.78 140.49 231.78C145.09 231.78 147.62 232.39 148.19 233.63L150.2 236.95C150.83 237.04 151.41 237.14 151.95 237.24C152 237.16 152.04 237.09 152.09 237.02C152.69 236.14 153.31 235.38 153.97 234.69C154.76 233.88 155.64 233.18 156.59 232.61C157.73 231.95 158.97 231.51 160.18 231.36C161.45 231.2 162.78 231.31 163.99 231.68C164.27 231.75 164.72 231.9 165.08 232.08C165.44 232.25 165.81 232.47 166.17 232.72C166.83 233.19 167.41 233.8 167.86 234.47C168.59 235.57 169.03 236.8 169.19 238.25C169.31 239.32 169.25 240.41 169.03 241.59C168.64 243.59 167.8 245.45 166.55 247.12C165.33 248.76 163.74 250.1 161.95 251.01C160.26 251.88 158.29 252.39 156.26 252.47C156.06 252.48 155.87 252.49 155.67 252.49C154.62 252.49 153.54 252.37 152.43 252.16C151.71 252.62 150.92 253.04 150.04 253.42L151.21 255.8C151.77 256.95 151.48 258.36 150.5 259.15C149.14 260.25 146.31 261.55 140.5 261.55C134.7 261.55 131.86 260.24 130.5 259.15C129.52 258.36 129.23 256.96 129.79 255.8L130.96 253.43C130.79 253.38 130.63 253.34 130.48 253.31C127.69 252.78 122.55 251.26 119.4 246.98C115.22 241.29 113.18 240.17 111.06 240.17C110.71 240.17 110.37 240.01 110.16 239.73C109.94 239.45 109.86 239.09 109.94 238.74C110.24 237.4 111 236.39 112.18 235.72ZM121.26 245.59C124.03 249.36 128.92 250.63 130.89 251.01C131.29 251.09 131.69 251.21 132.13 251.38C134.46 252.3 137.27 252.76 140.48 252.76C145.65 252.76 149.16 251.57 151.54 249.96C152.81 249.1 153.87 248.04 154.68 246.8C154.71 246.76 154.74 246.73 154.77 246.69C155.48 245.59 155.91 244.5 156.17 243.59C153.66 244.82 148.88 246.32 140.47 246.32C127.82 246.32 123.37 242.94 122.52 242.16C121.96 241.84 119.7 240.51 117.64 238.93C115.1 236.98 113.45 237.68 113.29 237.75C113.13 237.84 112.99 237.94 112.86 238.06C115.43 238.72 117.85 240.93 121.26 245.59ZM140.49 244.01C149.98 244.01 154.4 242.06 156.06 241.04C155.92 240.94 155.74 240.83 155.52 240.72C155.52 240.71 155.51 240.71 155.5 240.71C155.42 240.66 155.33 240.63 155.24 240.58C155.22 240.57 155.21 240.56 155.19 240.56C155.1 240.52 155 240.48 154.9 240.44C154.88 240.43 154.85 240.42 154.83 240.41C154.72 240.37 154.61 240.33 154.49 240.28C154.47 240.27 154.44 240.26 154.42 240.26C154.29 240.21 154.16 240.17 154.02 240.12C154 240.12 153.98 240.11 153.97 240.1C153.49 239.95 152.93 239.8 152.28 239.65C152.27 239.65 152.27 239.65 152.26 239.65C152.02 239.6 151.77 239.54 151.5 239.49C151.49 239.51 151.49 239.53 151.49 239.55C151.2 241.43 147.51 242.39 140.5 242.39C133.49 242.39 129.79 241.43 129.51 239.55C129.5 239.53 129.5 239.51 129.5 239.49C126.87 239.99 125.55 240.61 124.92 241.04C126.56 242.05 130.98 244.01 140.49 244.01ZM140.49 259.21C145.88 259.21 148.16 258.03 149.03 257.32C149.17 257.21 149.21 256.99 149.11 256.8L147.8 254.16C145.76 254.74 143.34 255.08 140.48 255.08C137.78 255.08 135.33 254.77 133.16 254.16L131.85 256.8C131.77 256.99 131.8 257.21 131.93 257.32C132.82 258.03 135.09 259.21 140.49 259.21ZM140.49 240.07C145.79 240.07 147.98 239.5 148.83 239.14L146.56 235.39C145.52 235.78 143.71 236.12 140.5 236.12C137.28 236.12 135.46 235.78 134.44 235.39L132.17 239.14C133 239.49 135.18 240.07 140.49 240.07ZM140.49 234.57C142.3 234.57 143.57 234.45 144.48 234.31C143.61 234.18 142.34 234.08 140.49 234.08C138.64 234.08 137.36 234.18 136.5 234.31C137.4 234.46 138.68 234.57 140.49 234.57ZM154.94 237.98C156.14 238.39 156.98 238.82 157.57 239.25C157.74 239.02 157.9 238.8 158.08 238.6C158.95 237.56 159.93 236.89 160.91 236.68C161.44 236.57 161.98 236.58 162.52 236.7L162.6 236.72C162.62 236.72 162.65 236.73 162.69 236.74C162.84 236.77 162.94 236.82 163.01 236.84C163.24 236.94 163.44 237.09 163.6 237.27C163.92 237.63 164.17 238.19 164.28 238.82C164.39 239.38 164.4 240.03 164.32 240.73C164 243.39 162.3 245.97 160.02 247.3C158.95 247.96 157.7 248.38 156.31 248.56C155.9 249.13 155.44 249.66 154.95 250.16C155.35 250.18 155.75 250.18 156.16 250.17C157.85 250.1 159.49 249.68 160.9 248.96C162.37 248.22 163.68 247.11 164.69 245.76C165.74 244.36 166.44 242.82 166.76 241.17C166.94 240.22 166.98 239.35 166.89 238.53C166.77 237.46 166.46 236.56 165.94 235.79C165.64 235.34 165.25 234.94 164.82 234.63C164.58 234.46 164.35 234.32 164.09 234.2C163.88 234.1 163.58 233.99 163.36 233.93C162.71 233.73 162.01 233.63 161.32 233.63C161.04 233.63 160.76 233.65 160.49 233.68C159.58 233.8 158.64 234.13 157.77 234.63C157.01 235.09 156.29 235.66 155.64 236.32C155.2 236.78 154.78 237.28 154.37 237.83C154.53 237.88 154.68 237.93 154.83 237.98C154.86 237.96 154.9 237.97 154.94 237.98ZM162.03 240.43C162.08 239.98 162.08 239.56 162.01 239.22C161.99 239.1 161.96 239 161.93 238.93C161.73 238.9 161.56 238.9 161.38 238.94C160.94 239.03 160.37 239.47 159.84 240.08C159.53 240.44 159.23 240.88 158.95 241.35C158.92 241.4 158.9 241.44 158.87 241.49C158.82 242.13 158.63 243.8 157.81 245.76C158.17 245.62 158.51 245.47 158.82 245.27C160.53 244.3 161.78 242.38 162.03 240.43Z" fill="#020202"/>
<path d="M36.2101 166.97C36.2101 166.97 35.9401 172.92 35.2001 175.03C35.2001 175.03 37.1201 174.42 38.8601 174.5C40.6001 174.58 45.2301 174.42 45.5601 174.25C45.8901 174.08 54.7401 171.32 54.8701 171.17C55.0001 171.02 63.3601 169.66 66.3401 171.17C69.3201 172.68 71.3301 173.34 71.3301 173.34L73.2901 173.75C73.2901 173.75 72.2101 169.63 72.6701 166.95C73.1301 164.27 73.8601 166.98 74.1001 167.05C74.3501 167.12 77.9201 171.51 77.9201 171.51C77.9201 171.51 81.0901 176.48 81.1601 176.73C81.2301 176.98 81.9801 180.54 81.9801 181.2C81.9801 181.86 81.4201 184.43 81.1601 184.59C80.9001 184.76 78.9101 186.68 78.5001 186.55C78.0901 186.41 72.4601 186.72 72.0401 187.02C71.6301 187.32 63.8501 185.83 62.4401 185.17C61.0301 184.51 57.2301 182.69 57.2301 182.69C57.2301 182.69 46.1401 188.15 42.5801 188.32C39.0201 188.49 31.8201 188.65 29.4201 185.01C27.0201 181.37 27.2701 177.84 28.3401 175.34C29.4201 172.84 32.3101 168.21 36.2101 166.97Z" fill="#BBE3F9"/>
<path d="M73.36 165.27C72.82 164.93 72.1 165.1 71.76 165.64C71.42 166.18 71.59 166.9 72.13 167.24C72.23 167.3 81.68 173.3 81.11 181.81C81 183.52 80.17 184.72 78.6 185.49C73.87 187.78 64.26 185.48 58.98 182.63C62.55 180.24 66.07 177.77 69.53 175.2C70.09 174.79 70.76 174.55 71.45 174.55H71.46C71.98 174.56 72.5 174.61 73 174.72C73.51 174.82 73.99 175 74.45 175.23C74.92 175.46 75.32 175.78 75.7 176.14L75.74 176.17C75.91 176.33 76.16 176.35 76.36 176.21C76.58 176.05 76.63 175.75 76.48 175.53C76.12 175.02 75.7 174.52 75.18 174.13C74.67 173.74 74.11 173.4 73.52 173.15C72.93 172.9 72.32 172.71 71.69 172.58C71.3 172.5 70.93 172.44 70.53 172.41C70.5 172.37 70.46 172.32 70.43 172.28C70.25 172.06 70.07 171.85 69.87 171.67C69.48 171.3 69.06 171 68.62 170.76C67.75 170.27 66.84 169.93 65.93 169.73C64.11 169.29 62.29 169.23 60.52 169.3C59.63 169.32 58.75 169.43 57.87 169.51C56.98 169.61 56.09 169.77 55.23 169.96C53.5 170.34 51.83 170.87 50.19 171.43C48.55 171.99 46.95 172.58 45.34 173.08C43.73 173.58 42.11 174.01 40.52 174.1C40.12 174.13 39.73 174.13 39.34 174.1L38.69 174.04C38.44 174.03 38.19 174.02 37.95 174.04C36.96 174.11 35.98 174.45 35.18 175.05C34.78 175.35 34.43 175.72 34.15 176.14C34.01 176.35 33.89 176.57 33.78 176.79C33.68 177 33.6 177.22 33.52 177.43C33.21 178.29 33.03 179.17 32.91 180.05C32.87 180.34 33.07 180.62 33.36 180.68C33.66 180.74 33.96 180.54 34.01 180.24C34.17 179.43 34.39 178.63 34.7 177.89C34.86 177.51 35.02 177.17 35.23 176.9C35.44 176.61 35.7 176.37 36 176.17C36.59 175.76 37.31 175.55 38.03 175.53C38.21 175.52 38.39 175.54 38.57 175.55L39.2 175.63C39.67 175.69 40.13 175.71 40.59 175.7C42.43 175.65 44.17 175.23 45.85 174.76C47.53 174.29 49.17 173.75 50.79 173.25C52.42 172.75 54.04 172.29 55.66 171.95C56.47 171.78 57.28 171.65 58.1 171.58C58.93 171.52 59.76 171.43 60.58 171.43C62.23 171.39 63.87 171.49 65.39 171.88C66.15 172.06 66.86 172.36 67.47 172.71C67.75 172.87 68 173.06 68.22 173.26C63.89 176.42 59.45 179.48 54.94 182.39C52.64 183.94 50.07 185 47.39 185.82C44.71 186.62 41.94 187.12 39.19 187.23C36.47 187.32 33.64 187 31.53 185.7C30.49 185.05 29.69 184.15 29.26 183.05C28.8 181.94 28.71 180.71 28.8 179.33C28.94 176.65 29.76 174.04 31.3 171.86C32.06 170.77 32.99 169.79 34.02 168.93C34.54 168.5 35.08 168.11 35.65 167.75C36.2 167.4 36.84 167.06 37.37 166.83L37.43 166.8C38.01 166.55 38.29 165.88 38.05 165.29C37.81 164.7 37.13 164.42 36.54 164.66C35.73 164.99 35.09 165.34 34.42 165.75C33.76 166.16 33.13 166.6 32.53 167.09C31.33 168.06 30.24 169.19 29.34 170.46C27.5 172.99 26.49 176.1 26.31 179.18C26.21 180.68 26.3 182.41 26.95 183.98C27.57 185.57 28.8 186.94 30.21 187.81C31.62 188.7 33.18 189.17 34.71 189.45C36.25 189.72 37.78 189.79 39.29 189.74C42.32 189.63 45.27 189.05 48.12 188.18C51.15 187.24 54.17 185.94 56.78 184.05C56.79 184.05 56.8 184.05 56.81 184.05C60.76 186.49 67.69 188.73 73.51 188.73C75.8 188.73 77.92 188.38 79.6 187.56C81.92 186.43 83.24 184.49 83.41 181.95C84.08 172.08 73.8 165.54 73.36 165.27Z" fill="#020202"/>
<path d="M34.8301 119.91C35.4401 119.28 36.2901 119.02 37.1401 119C37.9901 118.99 38.8701 119.24 39.5901 119.72C40.3001 120.21 40.8901 120.87 41.2301 121.62C41.4101 121.99 41.5001 122.4 41.5901 122.79C41.6301 123.2 41.6501 123.61 41.5701 124.03C41.1701 123.81 40.8901 123.57 40.6001 123.34C40.2901 123.14 40.0501 122.9 39.7801 122.71C39.2701 122.3 38.7901 121.98 38.3301 121.65C37.8501 121.34 37.3701 121.06 36.8201 120.78C36.2301 120.5 35.6201 120.23 34.8301 119.91Z" fill="#020202"/>
<path d="M74.2901 119.91C73.6801 119.28 72.8301 119.02 71.9801 119C71.1301 118.99 70.2501 119.24 69.5301 119.72C68.8201 120.21 68.2301 120.87 67.8901 121.62C67.7101 121.99 67.6201 122.4 67.5301 122.79C67.4901 123.2 67.4701 123.61 67.5501 124.03C67.9501 123.81 68.2301 123.57 68.5201 123.34C68.8301 123.14 69.0701 122.9 69.3401 122.71C69.8501 122.3 70.3301 121.98 70.7901 121.65C71.2701 121.34 71.7501 121.06 72.3001 120.78C72.8801 120.5 73.5001 120.23 74.2901 119.91Z" fill="#020202"/>
<path d="M32.14 137.91C35.7243 137.91 38.63 135.242 38.63 131.95C38.63 128.658 35.7243 125.99 32.14 125.99C28.5557 125.99 25.65 128.658 25.65 131.95C25.65 135.242 28.5557 137.91 32.14 137.91Z" fill="#1D1D1B"/>
<path d="M78.65 137.91C82.2344 137.91 85.14 135.242 85.14 131.95C85.14 128.658 82.2344 125.99 78.65 125.99C75.0657 125.99 72.16 128.658 72.16 131.95C72.16 135.242 75.0657 137.91 78.65 137.91Z" fill="#1D1D1B"/>
<path d="M34.51 135C35.1175 135 35.61 134.557 35.61 134.01C35.61 133.463 35.1175 133.02 34.51 133.02C33.9025 133.02 33.41 133.463 33.41 134.01C33.41 134.557 33.9025 135 34.51 135Z" fill="white"/>
<path d="M76.83 131.94C78.2604 131.94 79.42 130.937 79.42 129.7C79.42 128.463 78.2604 127.46 76.83 127.46C75.3996 127.46 74.24 128.463 74.24 129.7C74.24 130.937 75.3996 131.94 76.83 131.94Z" fill="white"/>
<path d="M30.62 131.94C32.0505 131.94 33.21 130.937 33.21 129.7C33.21 128.463 32.0505 127.46 30.62 127.46C29.1896 127.46 28.03 128.463 28.03 129.7C28.03 130.937 29.1896 131.94 30.62 131.94Z" fill="white"/>
<path d="M82.0401 135C82.6421 135 83.1301 134.557 83.1301 134.01C83.1301 133.463 82.6421 133.02 82.0401 133.02C81.4381 133.02 80.9501 133.463 80.9501 134.01C80.9501 134.557 81.4381 135 82.0401 135Z" fill="white"/>
<path d="M104.1 106.14C103.6 106.14 103.1 105.93 102.75 105.55C102.21 104.97 102.11 104.1 102.5 103.41C102.54 103.33 106.54 96.19 109.73 89.77C108.24 87.92 107.08 85.84 106.32 83.65C106.13 83.64 105.95 83.63 105.76 83.63C96.75 83.17 88.21 79.77 81.6 74.03C79.63 74.64 77.58 74.95 75.5 74.95C75.15 74.95 74.79 74.94 74.43 74.92C63.15 74.35 54.44 64.83 55 53.7C55.48 44.26 62.47 36.5 71.78 34.86C77.39 21.22 91.51 12.12 107.27 12.12C107.68 12.12 108.09 12.13 108.5 12.14C112.91 6.24999 120.04 2.76999 127.77 2.76999C128.2 2.76999 128.64 2.77999 129.08 2.79999C140.15 3.35999 149.41 11.17 151.32 21.24C151.96 21.24 152.61 21.26 153.26 21.29C167.04 21.99 179.33 29.51 185.59 40.98C195.75 42.67 203.2 51.3 202.71 61.03C202.19 71.27 193.21 79.29 182.27 79.29C182.27 79.29 181.83 79.29 181.62 79.28C174.45 87.76 163.36 92.8 151.75 92.8C151.05 92.8 150.34 92.78 149.63 92.75C147.46 92.64 145.28 92.35 143.15 91.9C139.04 95.84 133.39 98.07 127.48 98.07C127.08 98.07 126.67 98.06 126.27 98.04C125.21 97.99 124.16 97.86 123.12 97.67L104.85 105.98C104.62 106.09 104.36 106.14 104.1 106.14Z" fill="white"/>
<path d="M127.8 4.59999C128.2 4.59999 128.61 4.60999 129.02 4.62999C140.01 5.18999 148.73 13.2 149.77 23.1C150.27 23.08 150.77 23.07 151.27 23.07C151.91 23.07 152.55 23.09 153.19 23.12C167.1 23.83 178.82 31.69 184.42 42.67C194.09 43.83 201.36 51.75 200.89 60.94C200.42 70.25 192.19 77.46 182.28 77.46C181.93 77.46 181.59 77.45 181.24 77.43C181.09 77.42 180.95 77.41 180.81 77.4C174.18 85.68 163.59 90.97 151.77 90.97C151.1 90.97 150.42 90.95 149.74 90.92C147.28 90.79 144.89 90.44 142.58 89.89C138.89 93.8 133.47 96.24 127.49 96.24C127.12 96.24 126.74 96.23 126.37 96.21C124.96 96.14 123.59 95.93 122.27 95.61C122.35 95.85 122.4 95.99 122.4 95.99L104.1 104.31C104.1 104.31 108.59 96.3 111.91 89.5C109.92 87.31 108.45 84.7 107.69 81.85C107.08 81.85 106.48 81.83 105.86 81.8C96.5401 81.33 88.2001 77.63 82.0301 71.95C79.9901 72.7 77.7901 73.11 75.5101 73.11C75.1901 73.11 74.8601 73.1 74.5401 73.09C64.2501 72.57 56.3301 63.93 56.8501 53.79C57.3101 44.76 64.3201 37.59 73.1201 36.51C78.0801 23.26 91.6001 13.95 107.29 13.95C107.96 13.95 108.64 13.97 109.32 14C109.36 14 109.4 14.01 109.44 14.01C113.3 8.31999 120.11 4.59999 127.8 4.59999ZM127.8 0.929993C119.82 0.929993 112.43 4.38999 107.64 10.28C107.52 10.28 107.41 10.28 107.29 10.28C91.1401 10.28 76.6301 19.42 70.5001 33.24C60.8401 35.39 53.7001 43.64 53.1901 53.6C52.5701 65.74 62.0701 76.12 74.3501 76.75C74.7401 76.77 75.1201 76.78 75.5101 76.78C77.4301 76.78 79.3301 76.54 81.1701 76.06C87.8201 81.55 96.1901 84.84 105.04 85.42C105.7 87.02 106.56 88.55 107.58 89.97C104.51 96.06 100.94 102.44 100.9 102.51C100.13 103.89 100.33 105.62 101.4 106.78C102.11 107.55 103.1 107.97 104.1 107.97C104.61 107.97 105.13 107.86 105.62 107.64L123.38 99.57C124.31 99.72 125.25 99.82 126.19 99.87C126.63 99.89 127.07 99.9 127.5 99.9C133.54 99.9 139.34 97.73 143.72 93.87C145.64 94.23 147.6 94.47 149.55 94.57C150.29 94.61 151.03 94.63 151.76 94.63C163.6 94.63 174.93 89.61 182.46 81.12C194.3 81.03 203.98 72.28 204.55 61.12C205.08 50.74 197.4 41.51 186.78 39.33C180.1 27.73 167.47 20.17 153.37 19.45C153.18 19.44 153 19.43 152.81 19.43C150.17 9.24999 140.56 1.53999 129.19 0.959992C128.73 0.949992 128.26 0.929993 127.8 0.929993Z" fill="#1D1D1B"/>
<path d="M95.8801 34.56C95.6601 36.23 94.9401 37.31 94.2701 37.82C94.2401 37.84 94.2101 37.86 94.2101 37.91C94.1701 38.22 95.8101 39.29 95.8001 39.36C95.7701 39.57 94.7201 40.39 93.4101 40.62C93.2001 40.64 93.0101 40.66 92.8301 40.64C92.1601 40.55 91.5701 40.07 91.2201 39.33C91.2201 39.31 91.1701 39.28 91.1501 39.27C90.7601 39.22 90.1801 39.31 89.8201 39.26C86.9901 38.89 84.7301 36.79 85.2101 33.15L86.1301 26.19C86.6101 22.55 89.3101 21.13 92.1701 21.51C95.0301 21.89 97.2901 23.96 96.8101 27.6L95.8801 34.56ZM90.1001 33.75C90.0501 34.1 90.1201 34.38 90.4301 34.42C90.7101 34.46 90.8801 34.22 90.9301 33.84L91.8301 27.02C91.8701 26.71 91.7801 26.39 91.5001 26.35C91.2401 26.32 91.0501 26.58 91.0101 26.91L90.1001 33.75Z" fill="#E20613"/>
<path d="M97.8601 26.14C97.8801 26 97.9701 25.92 98.1001 25.93L101.34 26.36C101.47 26.38 101.54 26.46 101.52 26.57L100.33 35.55C100.28 35.9 100.5 36.05 100.68 36.07C100.89 36.1 101.11 36.01 101.15 35.65L102.34 26.67C102.36 26.55 102.44 26.49 102.54 26.51L105.89 26.95C106.02 26.97 106.11 27.05 106.1 27.15L104.28 40.93C104.27 41.02 104.18 41.08 104.05 41.07L101.01 40.67C100.86 40.65 100.81 39.81 100.66 39.79C100.61 39.78 100.52 39.82 100.35 39.94C99.8301 40.28 99.3701 40.46 98.4401 40.33C97.3801 40.19 96.1301 39.21 96.3401 37.57L97.8601 26.14Z" fill="#E20613"/>
<path d="M106.68 31.9C106.5 31.88 106.52 31.76 106.66 30.65C106.91 28.79 108.7 27.33 111.37 27.68C114.2 28.05 115.56 29.88 115.31 31.72L114.47 38.09C114.45 38.28 114.52 38.29 115.09 38.36C115.19 38.37 115.26 38.48 115.25 38.57L115.06 40.03C114.91 41.18 113.62 42.4 112.18 42.21C111 42.05 110.58 41.64 110.26 41.05C110.15 40.87 110.08 40.81 110.03 40.8C110 40.8 109.89 40.83 109.72 41C109.39 41.32 108.71 41.68 107.81 41.56C106.73 41.42 105.24 40.38 105.55 38.03L105.78 36.29C106.03 34.43 107.52 33.63 109.01 33.27C110.98 32.79 111.12 32.54 111.23 31.72C111.27 31.39 111.14 31.21 110.91 31.18C110.5 31.13 110.48 31.27 110.34 32.35C110.32 32.47 110.21 32.52 110.08 32.51L106.68 31.9ZM110.7 35.8C110.71 35.71 110.67 35.63 110.57 35.59C110.42 35.57 109.87 35.71 109.8 36.23L109.57 37.97C109.53 38.25 109.72 38.4 109.93 38.42C110.14 38.45 110.36 38.36 110.39 38.07L110.7 35.8Z" fill="#E20613"/>
<path d="M115.59 42.59C115.49 42.58 115.4 42.45 115.41 42.35L117.72 24.86C117.75 24.65 117.86 24.59 118.04 24.62L121.67 25.1C121.85 25.12 121.92 25.2 121.9 25.35L119.58 42.94C119.57 43.03 119.45 43.11 119.35 43.1L115.59 42.59Z" fill="#E20613"/>
<path d="M124.36 33.27C124.73 30.5 127.2 29.77 129.29 30.05C132.2 30.43 133.6 32.7 133.3 35L133.11 36.43C133.09 36.55 132.98 36.63 132.85 36.61L128.55 36.04C128.45 36.03 128.39 36.09 128.37 36.21L127.88 39.9C127.83 40.28 127.99 40.44 128.22 40.47C128.4 40.49 128.65 40.38 128.7 40.03L128.89 38.6C128.9 38.51 128.99 38.42 129.15 38.44L132.45 39.04C132.6 39.08 132.69 39.19 132.67 39.33L132.47 40.83C132.07 43.84 129.69 44.43 127.32 44.12C124.57 43.76 123.23 41.76 123.59 39.08L124.36 33.27ZM127.29 28.95C127.21 28.94 127.14 28.86 127.16 28.77C127.17 28.72 127.2 28.68 127.23 28.64L129.33 26.24C129.42 26.16 129.56 26.1 129.66 26.12L132 26.43C132.13 26.45 132.22 26.55 132.21 26.65C132.21 26.67 132.18 26.69 132.15 26.71L129.53 29.11C129.44 29.19 129.33 29.23 129.23 29.21L127.29 28.95ZM128.58 34.64C128.57 34.71 128.64 34.77 128.72 34.78C129.31 34.86 129.39 34.87 129.4 34.75C129.6 33.25 129.59 33.08 129.18 33.02C128.97 32.99 128.78 33.11 128.73 33.46L128.58 34.64Z" fill="#E20613"/>
<path d="M136.68 34.73C136.97 32.57 138.94 31.32 141.59 31.67C144.24 32.02 145.82 33.71 145.52 36.02L144.64 42.7C144.35 44.89 142.38 46.13 139.73 45.78C137.1 45.43 135.5 43.69 135.79 41.53L136.68 34.73ZM139.88 41.45C139.84 41.73 139.95 41.94 140.23 41.97C140.51 42 140.67 41.84 140.7 41.55L141.44 35.95C141.47 35.69 141.35 35.46 141.09 35.43C140.81 35.39 140.65 35.59 140.62 35.85L139.88 41.45Z" fill="#E20613"/>
<path d="M153.71 38.25C153.58 38.26 153.51 38.15 153.53 38.01C153.63 37.28 153.5 36.88 153.11 36.83C152.9 36.8 152.7 36.94 152.67 37.2C152.6 37.69 153.28 38.5 154.54 39.86C155.9 41.28 156.41 42.38 156.21 43.88C155.94 45.9 154.58 47.73 151.44 47.32C149.72 47.09 147.51 45.92 148.04 41.97C148.06 41.85 148.15 41.77 148.25 41.78L151.08 41.99C151.18 42 151.25 42.08 151.26 42.18C151.2 43.03 151.44 43.59 151.83 43.64C152.06 43.67 152.21 43.52 152.24 43.29C152.31 42.73 151.45 41.7 150.16 40.41C149.21 39.5 148.45 38.1 148.68 36.34C148.96 34.25 150.99 32.91 153.28 33.22C156.37 33.63 157.39 35.99 157.08 38.32C157.06 38.44 156.92 38.51 156.79 38.5L153.71 38.25Z" fill="#E20613"/>
<path d="M157.82 37.69C158.19 34.92 160.66 34.19 162.75 34.47C165.66 34.85 167.06 37.12 166.76 39.42L166.57 40.85C166.55 40.97 166.44 41.05 166.31 41.03L162.01 40.46C161.91 40.45 161.85 40.51 161.83 40.63L161.34 44.32C161.29 44.7 161.45 44.86 161.68 44.89C161.86 44.91 162.11 44.8 162.16 44.45L162.35 43.02C162.36 42.93 162.45 42.84 162.61 42.86L165.91 43.46C166.06 43.5 166.15 43.61 166.13 43.75L165.93 45.25C165.53 48.26 163.15 48.85 160.78 48.54C158.03 48.18 156.69 46.18 157.05 43.5L157.82 37.69ZM162.04 39.06C162.03 39.13 162.1 39.19 162.18 39.2C162.77 39.28 162.85 39.29 162.86 39.17C163.06 37.67 163.05 37.5 162.64 37.44C162.43 37.41 162.24 37.53 162.19 37.88L162.04 39.06Z" fill="#E20613"/>
<path d="M168.17 35.42C168.19 35.28 168.28 35.2 168.41 35.21L171.65 35.64C171.78 35.66 171.85 35.74 171.83 35.85L170.64 44.83C170.59 45.18 170.81 45.33 170.99 45.35C171.2 45.38 171.42 45.29 171.46 44.93L172.65 35.95C172.67 35.83 172.75 35.77 172.85 35.79L176.2 36.23C176.33 36.25 176.42 36.33 176.41 36.43L174.59 50.21C174.58 50.3 174.49 50.36 174.36 50.35L171.32 49.95C171.17 49.93 171.12 49.09 170.97 49.07C170.92 49.06 170.83 49.1 170.66 49.22C170.14 49.56 169.68 49.74 168.75 49.61C167.69 49.47 166.44 48.49 166.65 46.85L168.17 35.42Z" fill="#E20613"/>
<path d="M83.6301 70.28C83.4401 70.25 83.1701 69.33 83.0201 69.31C82.9401 69.3 82.8201 69.35 82.5301 69.49C81.9401 69.8 81.1101 69.94 80.2201 69.83C78.3001 69.58 76.2801 68.06 77.0401 62.32L78.0101 55C78.7101 49.68 81.2701 48.59 83.2701 48.85C84.1501 48.97 84.8501 49.31 85.3201 49.87C85.4901 50.07 85.5901 50.16 85.6701 50.17C85.7101 50.18 85.7901 50.11 85.8201 49.9L86.6301 43.77C86.6501 43.59 86.8301 43.44 87.0201 43.46L92.0001 44.12C92.1901 44.15 92.3301 44.27 92.3101 44.45L88.8501 70.64C88.8301 70.81 88.6201 70.93 88.4601 70.91L83.6301 70.28ZM85.0601 55.64C85.1301 55.11 84.8401 54.68 84.4501 54.63C84.1001 54.58 83.9101 54.88 83.8601 55.23L82.7001 64.02C82.6701 64.23 82.6101 64.69 83.1101 64.75C83.2601 64.77 83.4301 64.72 83.5501 64.63C83.7201 64.51 83.9001 64.32 83.9401 64.01L85.0601 55.64Z" fill="#E20613"/>
<path d="M92.1701 55.8C92.7201 51.67 96.4101 50.59 99.5101 51C103.84 51.57 105.93 54.95 105.48 58.38L105.2 60.52C105.18 60.69 105.01 60.81 104.81 60.79L98.4101 59.95C98.2601 59.93 98.1701 60.03 98.1401 60.2L97.4101 65.7C97.3401 66.26 97.5801 66.51 97.9201 66.55C98.1901 66.59 98.5601 66.42 98.6301 65.9L98.9101 63.76C98.9301 63.62 99.0601 63.49 99.2901 63.52L104.2 64.42C104.43 64.49 104.56 64.65 104.53 64.86L104.23 67.1C103.64 71.58 100.09 72.47 96.5601 72C92.4601 71.46 90.4701 68.49 91.0001 64.5L92.1701 55.8ZM98.4501 57.84C98.4401 57.94 98.5401 58.03 98.6601 58.05C99.5401 58.17 99.6601 58.18 99.6801 58.01C99.9801 55.77 99.9701 55.52 99.3601 55.44C99.0501 55.4 98.7601 55.57 98.6901 56.1L98.4501 57.84Z" fill="#E20613"/>
<path d="M113.96 60.31C113.76 60.32 113.67 60.16 113.69 59.95C113.83 58.87 113.64 58.27 113.06 58.19C112.75 58.15 112.45 58.36 112.4 58.74C112.3 59.48 113.31 60.68 115.19 62.71C117.21 64.83 117.97 66.46 117.67 68.7C117.27 71.71 115.24 74.44 110.56 73.82C107.99 73.48 104.71 71.73 105.49 65.85C105.51 65.67 105.65 65.55 105.8 65.57L110.01 65.88C110.16 65.9 110.26 66.02 110.28 66.17C110.19 67.44 110.55 68.27 111.12 68.35C111.46 68.4 111.69 68.18 111.74 67.83C111.85 66.99 110.57 65.47 108.64 63.54C107.22 62.18 106.09 60.1 106.44 57.48C106.85 54.36 109.88 52.38 113.29 52.83C117.89 53.44 119.41 56.95 118.96 60.42C118.94 60.6 118.73 60.71 118.54 60.68L113.96 60.31Z" fill="#E20613"/>
<path d="M120.07 59.48C120.62 55.35 124.31 54.27 127.41 54.68C131.74 55.25 133.83 58.63 133.38 62.06L133.1 64.2C133.08 64.37 132.9 64.49 132.71 64.47L126.31 63.63C126.16 63.61 126.07 63.71 126.04 63.88L125.31 69.38C125.24 69.94 125.48 70.19 125.82 70.23C126.09 70.27 126.46 70.1 126.53 69.58L126.81 67.44C126.83 67.3 126.96 67.17 127.19 67.2L132.1 68.1C132.33 68.17 132.46 68.33 132.43 68.54L132.13 70.78C131.54 75.26 127.99 76.15 124.46 75.68C120.36 75.14 118.37 72.17 118.9 68.18L120.07 59.48ZM126.35 61.52C126.34 61.62 126.44 61.71 126.56 61.73C127.44 61.85 127.56 61.86 127.58 61.69C127.88 59.45 127.87 59.2 127.26 59.12C126.95 59.08 126.66 59.25 126.59 59.78L126.35 61.52Z" fill="#E20613"/>
<path d="M131.76 77.55C131.92 77.54 132.02 77.66 132 77.8C131.86 78.85 131.85 78.96 132.15 79C132.34 79.03 132.47 78.94 132.53 78.48L135.49 56.03C135.51 55.86 135.72 55.78 135.87 55.8L141.27 56.51C141.46 56.54 141.59 56.73 141.57 56.87L138.6 79.39C138.31 81.6 135.73 82.5 132.17 82.03C126.88 81.33 127.11 79.58 127.39 77.48C127.4 77.38 127.49 77.28 127.61 77.26L131.76 77.55ZM141.44 55.03C141.41 55.24 141.24 55.39 141.01 55.36L136.33 54.74C136.14 54.71 135.97 54.48 136 54.27L136.57 49.93C136.59 49.75 136.81 49.57 137 49.6L141.71 50.22C141.86 50.24 142.04 50.37 142.02 50.55L141.44 55.03Z" fill="#E20613"/>
<path d="M142.25 62.16C142.68 58.94 145.61 57.08 149.56 57.6C153.51 58.12 155.87 60.64 155.41 64.07L154.1 74.02C153.67 77.28 150.73 79.13 146.79 78.61C142.88 78.09 140.49 75.5 140.92 72.28L142.25 62.16ZM147.02 72.16C146.96 72.58 147.12 72.89 147.54 72.94C147.96 73 148.19 72.74 148.25 72.32L149.35 63.99C149.4 63.61 149.21 63.26 148.83 63.21C148.41 63.15 148.18 63.44 148.12 63.83L147.02 72.16Z" fill="#E20613"/>
<path d="M160.72 61.23C160.43 61.19 160.27 60.95 160.3 60.73C161.06 54.95 165.77 51.43 171.9 52.24C178.18 53.07 181.27 57.71 180.52 63.4C180.14 66.25 178.03 68.95 174.94 70.99C172.21 72.81 170.71 75.37 170.34 76.71C170.22 77.23 169.86 77.36 169.58 77.32L163.59 76.53C163.25 76.49 162.97 76.05 163.02 75.7C163.48 72.24 164.63 69.01 167.05 66.93C169.64 64.69 170.66 63.22 170.8 62.13C170.89 61.43 170.67 60.91 170.14 60.84C169.47 60.75 168.95 61.35 168.66 62.07C168.51 62.45 168.2 62.59 167.87 62.5L160.72 61.23ZM168.97 84.76C168.94 85.02 168.67 85.21 168.38 85.17L162.54 84.4C162.3 84.37 162.1 84.07 162.13 83.81L162.85 78.38C162.88 78.16 163.2 77.94 163.39 77.96L169.28 78.74C169.52 78.77 169.74 78.93 169.71 79.15L168.97 84.76Z" fill="#E20613"/>
<path d="M55.71 140.71C50.77 140.68 44.03 139.23 41.88 137.19C41.75 137.02 41.62 136.86 41.49 136.69C41.42 136.67 41.35 136.64 41.28 136.62C41.28 144.97 47.67 151.65 55.55 151.65C63.32 151.65 69.64 145.15 69.81 136.95C68.69 137.96 59.48 140.94 55.71 140.71Z" fill="#1D1D1B"/>
<path d="M46.99 148.63C48.81 150.21 51.46 151.59 55.53 151.59C59.5 151.59 62.12 150.26 63.94 148.74C62.72 146.23 59.42 144.55 55.44 144.55C51.51 144.55 48.25 146.17 46.99 148.63Z" fill="#D21D1E"/>
</svg>
