<svg width="144" height="246" viewBox="0 0 144 246" fill="none" xmlns="http://www.w3.org/2000/svg">
<path d="M133.13 31.2399C133.18 31.3499 133.14 31.3899 133.08 31.4399C127.17 36.5199 118.59 41.9099 111.3 38.7299C105.8 36.3299 101.76 33.8699 98.8 32.0799C94.57 29.5199 91.31 27.5399 88.55 29.3899C87.11 28.2599 84.37 27.2099 79.12 27.2099C74.38 27.2099 71.68 28.0599 70.16 29.0599C67.83 24.9399 64.24 15.7099 73.37 8.65993C79.94 3.57994 86.56 3.64993 90.95 4.62993C98.36 6.25993 105.04 11.5699 108.82 18.8399C115.86 32.3999 129.03 31.6799 132.9 31.1299C132.96 31.1199 133.07 31.0899 133.13 31.2399Z" fill="#3C3C3B"/>
<path d="M86.43 32.4699V38.9199C84.12 38.6999 81.71 38.5599 79.12 38.5599C76.53 38.5599 74.11 38.6999 71.81 38.9199V32.4699C72.16 32.0999 73.72 30.8999 79.12 30.8999C84.52 30.9099 86.09 32.0999 86.43 32.4699Z" fill="#E6C53C"/>
<path d="M67.99 23.7899C67.99 23.7899 73.61 26.1099 84.71 23.1999C95.81 20.2899 98.98 29.9399 108.62 29.5399C118.26 29.1399 117.34 27.1599 114.83 24.6499C112.32 22.1399 123.81 29.6899 128.84 29.5499C133.86 29.4099 134.72 29.5499 134.72 29.5499C134.72 29.5499 133.34 34.4699 132.54 34.9099C131.75 35.3499 121.71 40.7699 120.91 41.0299C120.12 41.2899 114.3 41.6899 113.51 41.5599C112.72 41.4299 103.83 36.5399 103.83 36.5399C103.83 36.5399 94.49 29.6699 90.92 29.6699C87.35 29.6699 86.56 29.7999 85.64 29.5399C84.72 29.2799 74.15 29.6299 70.31 30.9099C70.31 30.9099 68.33 30.0999 67.99 23.7899Z" fill="#101011"/>
<path d="M136.5 29.7099C135.78 28.1199 134.13 27.2199 132.38 27.4699C129.11 27.9299 118.03 28.5399 112.09 17.1399C107.81 8.90994 100.2 2.87994 91.74 1.01994C84.44 -0.58006 77.1 1.08994 71.08 5.73994C59.69 14.5399 63.94 26.9399 68.11 32.8199L68.1 39.3899C68.05 39.3999 68.13 41.3899 68.08 41.3999C68.38 45.1699 73.28 41.3699 74.94 41.4299C75.53 41.4299 76.11 41.4599 76.69 41.5299C77.85 41.2199 79.06 41.0899 80.31 41.1399C82.16 41.1499 83.93 41.4499 85.62 42.0499C86.12 42.0099 86.63 41.9999 87.14 42.0199C88.11 42.0199 89.05 42.1099 89.97 42.2699C90.54 41.9799 90.13 41.3599 90.11 39.3899V32.8999C90.9 31.9399 91.7 32.1099 96.87 35.2299C99.92 37.0799 104.08 39.6099 109.81 42.1099C111.8 42.9699 113.88 43.3999 116.06 43.3999C121.88 43.3999 128.38 40.3399 135.47 34.2399C136.8 33.1199 137.21 31.2899 136.5 29.7099ZM86.43 38.9199C84.12 38.6999 81.71 38.5599 79.12 38.5599C76.53 38.5599 74.11 38.6999 71.81 38.9199V32.4699C72.16 32.0999 73.72 30.8999 79.12 30.8999C84.52 30.8999 86.09 32.0999 86.43 32.4699V38.9199ZM133.08 31.4399C127.17 36.5199 118.59 41.9099 111.3 38.7299C105.8 36.3299 101.76 33.8699 98.8 32.0799C94.57 29.5199 91.31 27.5399 88.55 29.3899C87.11 28.2599 84.37 27.2099 79.12 27.2099C74.38 27.2099 71.68 28.0599 70.16 29.0599C67.83 24.9399 64.24 15.7099 73.37 8.65994C79.94 3.57994 86.56 3.64994 90.95 4.62994C98.36 6.25994 105.04 11.5699 108.82 18.8399C115.86 32.3999 129.03 31.6799 132.9 31.1299C132.96 31.1199 133.07 31.0899 133.13 31.2399C133.18 31.3499 133.14 31.3899 133.08 31.4399Z" fill="#1D1E1C"/>
<path d="M127.46 77.3499V86C127.46 95.06 124.42 103.81 118.89 110.63C110.23 121.32 97.05 126.73 79.72 126.73C62.39 126.73 49.2 121.32 40.55 110.63C35.02 103.81 31.98 95.06 31.98 86V77.36C31.98 75.94 32.52 42.7 79.72 42.7C126.92 42.7 127.46 75.9399 127.46 77.3499Z" fill="#BAE2F8"/>
<path d="M53.22 95.3799C57.3069 95.3799 60.62 92.3354 60.62 88.5799C60.62 84.8244 57.3069 81.7799 53.22 81.7799C49.1331 81.7799 45.82 84.8244 45.82 88.5799C45.82 92.3354 49.1331 95.3799 53.22 95.3799Z" fill="#1D1E1C"/>
<path d="M106.24 95.3799C110.327 95.3799 113.64 92.3354 113.64 88.5799C113.64 84.8244 110.327 81.7799 106.24 81.7799C102.153 81.7799 98.84 84.8244 98.84 88.5799C98.84 92.3354 102.153 95.3799 106.24 95.3799Z" fill="#1D1E1C"/>
<path d="M123.13 62.3899C124.93 67.4899 125 71.4699 125 71.9299V80.5699C125 89.6299 121.96 98.3799 116.43 105.2C107.77 115.89 94.59 121.3 77.26 121.3C59.93 121.3 46.74 115.89 38.09 105.2C36.73 103.52 35.52 101.71 34.46 99.8199C35.9 103.73 37.94 107.39 40.55 110.61C49.2 121.3 62.39 126.71 79.72 126.71C97.05 126.71 110.22 121.3 118.89 110.61C124.42 103.79 127.46 95.0399 127.46 85.9799V77.3399C127.46 76.7299 127.35 69.8499 123.13 62.3899Z" fill="#84CEF4"/>
<path d="M54.4196 59.7694C58.7644 56.77 61.1776 52.7321 59.8096 50.7506C58.4417 48.769 53.8106 49.5943 49.4658 52.5937C45.121 55.5932 42.7078 59.6311 44.0758 61.6126C45.4438 63.5941 50.0748 62.7689 54.4196 59.7694Z" fill="white"/>
<path d="M40.64 66.9699C41.9323 66.9699 42.98 66.0073 42.98 64.8199C42.98 63.6325 41.9323 62.6699 40.64 62.6699C39.3476 62.6699 38.3 63.6325 38.3 64.8199C38.3 66.0073 39.3476 66.9699 40.64 66.9699Z" fill="white"/>
<path d="M51.02 88.57C52.5553 88.57 53.8 87.4283 53.8 86.02C53.8 84.6116 52.5553 83.47 51.02 83.47C49.4846 83.47 48.24 84.6116 48.24 86.02C48.24 87.4283 49.4846 88.57 51.02 88.57Z" fill="white"/>
<path d="M55.92 92.0499C56.6158 92.0499 57.18 91.5485 57.18 90.9299C57.18 90.3114 56.6158 89.8099 55.92 89.8099C55.2241 89.8099 54.66 90.3114 54.66 90.9299C54.66 91.5485 55.2241 92.0499 55.92 92.0499Z" fill="white"/>
<path d="M104.17 88.57C105.805 88.57 107.13 87.4283 107.13 86.02C107.13 84.6116 105.805 83.47 104.17 83.47C102.535 83.47 101.21 84.6116 101.21 86.02C101.21 87.4283 102.535 88.57 104.17 88.57Z" fill="white"/>
<path d="M110.11 92.0499C110.795 92.0499 111.35 91.5485 111.35 90.9299C111.35 90.3114 110.795 89.8099 110.11 89.8099C109.425 89.8099 108.87 90.3114 108.87 90.9299C108.87 91.5485 109.425 92.0499 110.11 92.0499Z" fill="white"/>
<path d="M128.32 67.1799C127.21 64.0499 125.49 60.5299 122.82 57.0399C117.91 50.6399 108.67 43.2399 91.71 40.8199C91.71 40.8199 84.51 39.9199 79.19 39.9599C76.5 39.9799 67.74 40.8199 67.74 40.8199C50.78 43.2399 41.54 50.6399 36.63 57.0399C33.96 60.5299 32.24 64.0399 31.13 67.1799C29.06 70.9099 26.13 88.8999 32.55 102.68C34.01 106.11 35.93 109.31 38.27 112.2C40.58 115.05 43.68 118.07 47.76 120.8C49.67 122.08 58.33 128.8 78.66 128.74C98.99 128.67 111.63 121.32 111.69 120.8C115.77 118.07 118.87 115.05 121.18 112.2C123.52 109.31 125.43 106.11 126.9 102.68C131.72 89.6199 130.67 75.9299 128.32 67.1799ZM126.31 85.9699C126.31 94.8099 123.34 103.35 117.95 110C109.5 120.43 96.64 125.71 79.73 125.71C62.82 125.71 49.95 120.43 41.51 110C36.11 103.34 33.06 94.9499 33.06 86.1099C33.06 86.1099 32.66 81.4499 32.99 77.2499C33.32 73.0499 33.67 43.7099 79.73 43.7099C125.79 43.7099 126.31 76.1499 126.31 77.5399V85.9699Z" fill="#1D1E1C"/>
<path d="M27.59 85.0099C27.52 84.9799 27.46 84.9299 27.39 84.8999C27.46 84.9299 27.52 84.9699 27.59 85.0099Z" fill="#84CEF4"/>
<path d="M26.45 87.4399C26.6 87.5199 26.74 87.5799 26.89 87.6399C26.74 87.5799 26.59 87.5199 26.45 87.4399C25.88 87.1699 25.31 86.7699 24.84 86.2899C25.31 86.7699 25.87 87.1699 26.45 87.4399Z" fill="#84CEF4"/>
<path d="M24.27 85.5599C24.32 85.6299 24.35 85.6999 24.4 85.7699C24.46 85.8599 24.54 85.9299 24.61 86.0199C24.54 85.9399 24.46 85.8599 24.4 85.7699C24.35 85.7099 24.31 85.6299 24.27 85.5599Z" fill="#1D1E1C"/>
<path d="M28.01 74.1699C27.9 74.7499 27.82 75.2799 27.75 75.7399C27.81 75.2699 27.89 74.7399 28.01 74.1699Z" fill="#1D1E1C"/>
<path d="M26.6 84.32C26.54 84.26 26.49 84.19 26.44 84.12C26.48 84.19 26.54 84.26 26.6 84.32C26.61 84.33 26.63 84.34 26.64 84.35C26.62 84.34 26.61 84.34 26.6 84.32Z" fill="#1D1E1C"/>
<path d="M27.67 76.3899C27.63 76.7899 27.61 77.1299 27.59 77.3899C27.61 77.1299 27.63 76.7999 27.67 76.3899Z" fill="#1D1E1C"/>
<path d="M26.01 83.09C26.05 83.26 26.1 83.43 26.15 83.58C26.1 83.43 26.05 83.27 26.01 83.09Z" fill="#1D1E1C"/>
<path d="M25.9 81.85C25.9 82.15 25.92 82.43 25.95 82.71C25.91 82.43 25.9 82.14 25.9 81.85Z" fill="#1D1E1C"/>
<path d="M22.8 74.7C22.98 74.73 23.16 74.78 23.33 74.85C23.16 74.79 22.98 74.74 22.8 74.7Z" fill="#1D1E1C"/>
<path d="M23.85 78.9099C23.86 78.6499 23.85 78.4099 23.8 78.1699C23.85 78.4099 23.87 78.6499 23.85 78.9099Z" fill="#1D1E1C"/>
<path d="M21.75 74.76C22.07 75.59 22.47 76 22.84 76.46C22.48 76 22.08 75.59 21.75 74.76Z" fill="#1D1E1C"/>
<path d="M24.56 75.67C24.42 75.53 24.26 75.41 24.1 75.29C24.26 75.41 24.42 75.54 24.56 75.67Z" fill="#1D1E1C"/>
<path d="M20.57 80.73C20.43 79.94 20.32 79.15 20.26 78.38C20.32 79.15 20.43 79.93 20.57 80.73Z" fill="#1D1E1C"/>
<path d="M32.13 97.66C32.11 97.66 30.63 97.6 29.97 97.27L29.96 97.29C15.23 91.24 16.07 76.26 17.11 70.11C17.32 68.92 18.04 67.87 19.09 67.22C19.83 66.75 20.7 66.49 21.59 66.49C21.91 66.49 22.22 66.52 22.54 66.58C25.76 67.24 28.06 68.68 29.42 69.76L29.92 70.11C32.24 71.71 32.24 71.71 32.1 72.15C31.22 74.99 31.12 77.13 31.12 77.92V84.26C31.12 88.58 32.12 92.92 34.02 96.8C34.09 96.95 34.09 97.13 34.02 97.27C33.94 97.42 33.8 97.52 33.64 97.55C33.07 97.64 32.9 97.66 32.57 97.66H32.13Z" fill="#1D1E1C"/>
<path d="M21.6 67.01C21.88 67.01 22.16 67.04 22.44 67.09C25.42 67.7 27.62 69 29.09 70.17C29.78 70.65 31.63 71.9 31.6 71.99C30.58 75.27 30.6 77.62 30.6 77.93V84.26C30.6 88.75 31.64 93.12 33.55 97.03C32.99 97.12 32.85 97.13 32.56 97.13C32.45 97.13 32.31 97.13 32.12 97.13C31.69 97.13 30.18 96.86 30.15 96.8C15.8 90.9 16.59 76.26 17.62 70.19C17.8 69.16 18.43 68.24 19.36 67.66C20.04 67.23 20.81 67.01 21.6 67.01ZM21.6 65.95C20.6 65.95 19.63 66.23 18.8 66.77C17.64 67.49 16.83 68.68 16.59 70.01C15.53 76.3 14.68 91.58 29.76 97.78L29.77 97.77C30.55 98.17 31.82 98.2 32.13 98.2H32.4H32.57C32.93 98.2 33.13 98.18 33.73 98.08C34.06 98.03 34.34 97.82 34.5 97.52C34.65 97.22 34.66 96.87 34.51 96.57C32.65 92.76 31.66 88.51 31.66 84.26V77.93C31.66 77.15 31.75 75.07 32.61 72.3C32.86 71.49 32.66 71.35 30.22 69.67L29.72 69.32C28.31 68.2 25.94 66.73 22.65 66.05C22.3 65.99 21.95 65.95 21.6 65.95Z" fill="#1E1F1C"/>
<path d="M26.64 84.36C26.84 84.57 27.1 84.74 27.4 84.9C27.1 84.74 26.83 84.56 26.64 84.36Z" fill="#1D1E1C"/>
<path d="M23.29 87.76C22.97 87.27 22.68 86.76 22.41 86.25C22.67 86.77 22.96 87.27 23.29 87.76Z" fill="#1D1E1C"/>
<path d="M27.64 87.94C27.62 87.93 27.61 87.93 27.59 87.92C27.61 87.94 27.63 87.94 27.64 87.94Z" fill="#1D1E1C"/>
<path d="M24.84 86.2899C24.76 86.2099 24.69 86.1099 24.61 86.0199C24.69 86.1099 24.76 86.1999 24.84 86.2899Z" fill="#1D1E1C"/>
<path d="M23.29 87.76C24.1 88.99 25.1 90.16 26.33 91.22C25.09 90.17 24.09 89 23.29 87.76Z" fill="#1D1E1C"/>
<path d="M21.8399 84.65C22.6699 86.2 23.65 86.42 24.62 86.02C24.55 85.94 24.47 85.86 24.41 85.77C24.36 85.7 24.3199 85.63 24.2799 85.56C23.9499 85.06 23.73 84.52 23.61 83.99C23.57 83.79 23.5299 83.59 23.5199 83.4C23.4999 83.21 23.49 83.02 23.48 82.83C23.47 82.27 23.52 81.74 23.58 81.23L23.83 79.32C23.85 79.17 23.86 79.04 23.87 78.91C23.88 78.65 23.87 78.41 23.82 78.17C23.79 78.05 23.7599 77.93 23.7099 77.81C23.5699 77.45 23.3499 77.13 23.0999 76.8C23.0199 76.69 22.9299 76.58 22.8499 76.46C22.4899 76 22.09 75.59 21.76 74.76C22.11 74.66 22.43 74.65 22.73 74.69C22.76 74.69 22.7799 74.7 22.8099 74.7C22.9899 74.73 23.1699 74.78 23.3399 74.85C23.6199 74.96 23.87 75.12 24.11 75.29C24.27 75.4 24.43 75.53 24.57 75.67C24.9999 76.08 25.34 76.6 25.58 77.15C25.72 77.47 25.8199 77.81 25.8899 78.17C25.9799 78.61 26.0099 79.05 25.9899 79.44L25.91 81.39C25.9 81.54 25.9 81.7 25.9 81.84C25.9 82.14 25.9199 82.42 25.9499 82.7C25.9699 82.84 25.99 82.97 26.01 83.09C26.05 83.26 26.1 83.43 26.15 83.58C26.22 83.78 26.31 83.96 26.43 84.12C26.48 84.19 26.5299 84.26 26.5899 84.32C26.5999 84.33 26.6199 84.34 26.6299 84.35C26.9799 83.94 27.3 83.5 27.58 83.1V77.93C27.58 77.84 27.5799 77.65 27.5999 77.39C27.6099 77.13 27.64 76.79 27.68 76.39C27.7 76.19 27.73 75.97 27.76 75.74C27.82 75.27 27.8999 74.74 28.0199 74.17C28.0799 73.88 28.1399 73.58 28.2099 73.27C28.0199 73.08 27.78 72.85 27.51 72.61C27.29 72.42 27.0499 72.22 26.7799 72.02C26.2899 71.65 25.7099 71.28 25.0299 70.93C24.1199 70.47 23.04 70.06 21.8 69.81C21.49 69.75 21.2499 69.86 21.0899 69.95C20.9699 70.03 20.87 70.13 20.79 70.24C20.71 70.35 20.6599 70.48 20.6399 70.62C20.5299 71.25 20.4299 71.98 20.3499 72.79C20.3099 73.19 20.27 73.62 20.25 74.06C20.17 75.38 20.16 76.85 20.29 78.39C20.36 79.16 20.4599 79.94 20.5999 80.74C20.6999 81.27 20.8099 81.8 20.9499 82.33C21.0899 82.86 21.25 83.39 21.43 83.92C21.56 84.29 21.71 84.66 21.86 85.02C21.83 84.79 21.8399 84.65 21.8399 84.65Z" fill="#BAE2F8"/>
<path d="M27.39 84.9C27.46 84.94 27.52 84.98 27.59 85.01C27.59 84.76 27.58 84.51 27.58 84.26V83.11C27.3 83.52 26.98 83.95 26.63 84.36C26.83 84.56 27.1 84.74 27.39 84.9Z" fill="#84CEF4"/>
<path d="M23.29 87.7599C24.1 88.9899 25.1 90.1599 26.33 91.2199C27.07 91.8499 27.89 92.4399 28.81 92.9899C28.46 91.7699 28.19 90.5199 27.99 89.2599C27.92 88.8399 27.86 88.4199 27.81 87.9899C27.76 87.9799 27.7 87.9599 27.65 87.9399C27.63 87.9299 27.62 87.9299 27.6 87.9199C27.36 87.8199 27.13 87.7299 26.89 87.6299C26.74 87.5699 26.6 87.5099 26.45 87.4299C25.88 87.1599 25.31 86.7599 24.84 86.2799C24.76 86.1999 24.69 86.0999 24.61 86.0099C23.65 86.4099 22.66 86.1899 21.83 84.6399C21.83 84.6399 21.82 84.7699 21.83 84.9999C22.01 85.4199 22.19 85.8299 22.4 86.2399C22.67 86.7699 22.96 87.2699 23.29 87.7599Z" fill="#84CEF4"/>
<path d="M130.55 92.99C130.9 91.77 131.17 90.52 131.37 89.26C131.18 90.52 130.9 91.77 130.55 92.99Z" fill="#84CEF4"/>
<path d="M131.76 85.0099C131.83 84.9799 131.89 84.9299 131.96 84.8999C131.89 84.9299 131.83 84.9699 131.76 85.0099Z" fill="#84CEF4"/>
<path d="M131.38 89.2599C131.45 88.8399 131.51 88.4199 131.56 87.9899C131.5 88.4199 131.44 88.8399 131.38 89.2599Z" fill="#84CEF4"/>
<path d="M135.09 85.5599C135.04 85.6299 135.01 85.6999 134.96 85.7699C134.9 85.8599 134.82 85.9299 134.75 86.0199C134.82 85.9399 134.9 85.8599 134.96 85.7699C135 85.7099 135.04 85.6299 135.09 85.5599Z" fill="#1D1E1C"/>
<path d="M132.59 72.01C132.32 72.21 132.07 72.41 131.86 72.6C132.08 72.41 132.32 72.21 132.59 72.01Z" fill="#1D1E1C"/>
<path d="M133.37 79.4399C133.35 79.0499 133.39 78.6099 133.47 78.1699C133.39 78.6099 133.36 79.0499 133.37 79.4399Z" fill="#1D1E1C"/>
<path d="M131.35 74.1699C131.46 74.7499 131.54 75.2799 131.61 75.7399C131.54 75.2699 131.46 74.7399 131.35 74.1699Z" fill="#1D1E1C"/>
<path d="M132.76 84.32C132.75 84.33 132.73 84.34 132.72 84.35C132.73 84.34 132.75 84.34 132.76 84.32Z" fill="#1D1E1C"/>
<path d="M131.68 76.3899C131.72 76.7899 131.74 77.1299 131.76 77.3899C131.74 77.1299 131.72 76.7999 131.68 76.3899Z" fill="#1D1E1C"/>
<path d="M139.14 74.0499C139.11 73.6099 139.08 73.1899 139.04 72.7799C139.07 73.1899 139.11 73.6099 139.14 74.0499Z" fill="#1D1E1C"/>
<path d="M133.34 83.09C133.3 83.26 133.25 83.43 133.2 83.58C133.26 83.43 133.31 83.27 133.34 83.09Z" fill="#1D1E1C"/>
<path d="M133.46 81.85C133.46 82.15 133.44 82.43 133.41 82.71C133.44 82.43 133.46 82.14 133.46 81.85Z" fill="#1D1E1C"/>
<path d="M136.56 74.7C136.38 74.73 136.2 74.78 136.03 74.85C136.19 74.79 136.37 74.74 136.56 74.7Z" fill="#1D1E1C"/>
<path d="M137.95 83.91C138.13 83.38 138.29 82.8499 138.43 82.3199C138.3 82.8499 138.14 83.38 137.95 83.91Z" fill="#1D1E1C"/>
<path d="M134.79 75.67C134.93 75.53 135.09 75.41 135.25 75.29C135.09 75.41 134.94 75.54 134.79 75.67Z" fill="#1D1E1C"/>
<path d="M138.78 80.73C138.92 79.94 139.03 79.15 139.09 78.38C139.03 79.15 138.93 79.93 138.78 80.73Z" fill="#1D1E1C"/>
<path d="M126.79 97.66C126.46 97.66 126.29 97.64 125.72 97.55C125.55 97.52 125.41 97.42 125.34 97.27C125.26 97.12 125.26 96.95 125.34 96.8C127.24 92.92 128.24 88.58 128.24 84.26V77.93C128.24 77.12 128.15 74.98 127.26 72.14C127.12 71.7 127.12 71.7 129.43 70.11L129.97 69.74C131.3 68.67 133.6 67.23 136.82 66.58C137.14 66.52 137.45 66.49 137.77 66.49C138.67 66.49 139.54 66.74 140.28 67.22C141.32 67.87 142.05 68.92 142.26 70.11C143.3 76.27 144.14 91.24 129.41 97.3L129.4 97.28C128.74 97.61 127.26 97.67 127.24 97.67L126.79 97.66Z" fill="#1D1E1C"/>
<path d="M137.76 67.01C138.55 67.01 139.32 67.23 139.99 67.66C140.93 68.24 141.55 69.17 141.73 70.19C142.76 76.26 143.55 90.9 129.2 96.8C129.17 96.87 127.66 97.13 127.23 97.13C127.04 97.13 126.9 97.13 126.79 97.13C126.5 97.13 126.36 97.12 125.8 97.03C127.71 93.12 128.75 88.75 128.75 84.26V77.93C128.75 77.62 128.77 75.26 127.75 71.99C127.72 71.91 129.57 70.66 130.26 70.17C131.73 69 133.93 67.7 136.91 67.09C137.2 67.04 137.48 67.01 137.76 67.01ZM137.76 65.95C137.41 65.95 137.06 65.99 136.71 66.05C133.41 66.73 131.04 68.19 129.63 69.32L129.13 69.67C126.69 71.35 126.49 71.49 126.74 72.3C127.6 75.07 127.69 77.15 127.69 77.91V84.25C127.69 88.49 126.71 92.75 124.84 96.56C124.69 96.86 124.7 97.21 124.85 97.51C125 97.81 125.29 98.01 125.62 98.07C126.22 98.17 126.42 98.19 126.78 98.19H126.95H127.22C127.53 98.19 128.8 98.16 129.58 97.76L129.59 97.77C144.67 91.57 143.82 76.29 142.76 70.01C142.52 68.67 141.71 67.49 140.54 66.76C139.73 66.24 138.76 65.95 137.76 65.95Z" fill="#1E1F1C"/>
<path d="M132.72 84.36C132.52 84.57 132.26 84.74 131.96 84.9C132.26 84.74 132.52 84.56 132.72 84.36Z" fill="#1D1E1C"/>
<path d="M136.07 87.76C136.39 87.27 136.68 86.76 136.95 86.25C136.68 86.77 136.39 87.27 136.07 87.76Z" fill="#1D1E1C"/>
<path d="M131.71 87.94C131.73 87.93 131.74 87.93 131.76 87.92C131.75 87.94 131.73 87.94 131.71 87.94Z" fill="#1D1E1C"/>
<path d="M134.52 86.2899C134.6 86.2099 134.67 86.1099 134.75 86.0199C134.67 86.1099 134.6 86.1999 134.52 86.2899Z" fill="#1D1E1C"/>
<path d="M130.55 92.99C131.46 92.45 132.29 91.86 133.03 91.22C132.29 91.86 131.47 92.45 130.55 92.99Z" fill="#1D1E1C"/>
<path d="M136.07 87.76C135.26 88.99 134.26 90.16 133.03 91.22C134.26 90.17 135.26 89 136.07 87.76Z" fill="#1D1E1C"/>
<path d="M137.52 84.65C136.69 86.2 135.71 86.42 134.74 86.02C134.81 85.94 134.89 85.86 134.95 85.77C135 85.7 135.04 85.63 135.08 85.56C135.41 85.06 135.63 84.52 135.75 83.99C135.79 83.79 135.83 83.59 135.84 83.4C135.86 83.21 135.87 83.02 135.88 82.83C135.89 82.27 135.84 81.74 135.78 81.23L135.53 79.32C135.51 79.17 135.5 79.04 135.49 78.91C135.48 78.65 135.49 78.41 135.54 78.17C135.57 78.05 135.6 77.93 135.65 77.81C135.79 77.45 136.01 77.13 136.26 76.8C136.34 76.69 136.43 76.58 136.51 76.46C136.87 76 137.27 75.59 137.6 74.76C137.25 74.66 136.93 74.65 136.63 74.69C136.6 74.69 136.58 74.7 136.55 74.7C136.37 74.73 136.19 74.78 136.02 74.85C135.74 74.96 135.49 75.12 135.25 75.29C135.09 75.4 134.93 75.53 134.79 75.67C134.36 76.08 134.02 76.6 133.78 77.15C133.64 77.47 133.54 77.81 133.47 78.17C133.38 78.61 133.35 79.05 133.37 79.44L133.45 81.39C133.46 81.54 133.46 81.7 133.46 81.84C133.46 82.14 133.44 82.42 133.41 82.7C133.39 82.84 133.37 82.97 133.35 83.09C133.31 83.26 133.26 83.43 133.21 83.58C133.14 83.78 133.05 83.96 132.93 84.12C132.88 84.19 132.83 84.26 132.77 84.32C132.76 84.33 132.74 84.34 132.73 84.35C132.38 83.94 132.06 83.5 131.78 83.1V77.93C131.78 77.84 131.78 77.65 131.76 77.39C131.75 77.13 131.72 76.79 131.68 76.39C131.66 76.19 131.63 75.97 131.6 75.74C131.54 75.27 131.46 74.74 131.34 74.17C131.28 73.88 131.22 73.58 131.15 73.27C131.34 73.08 131.58 72.85 131.85 72.61C132.07 72.42 132.31 72.22 132.58 72.02C133.07 71.65 133.65 71.28 134.33 70.93C135.24 70.47 136.32 70.06 137.56 69.81C137.87 69.75 138.11 69.86 138.27 69.95C138.39 70.03 138.49 70.13 138.57 70.24C138.65 70.35 138.7 70.48 138.72 70.62C138.83 71.25 138.93 71.98 139.01 72.79C139.05 73.19 139.09 73.62 139.11 74.06C139.19 75.38 139.2 76.85 139.07 78.39C139 79.16 138.9 79.94 138.76 80.74C138.66 81.27 138.55 81.8 138.41 82.33C138.27 82.86 138.11 83.39 137.93 83.92C137.8 84.29 137.65 84.66 137.5 85.02C137.53 84.79 137.52 84.65 137.52 84.65Z" fill="#BAE2F8"/>
<path d="M131.96 84.9C131.89 84.94 131.83 84.98 131.76 85.01C131.76 84.76 131.77 84.51 131.77 84.26V83.11C132.05 83.52 132.37 83.95 132.72 84.36C132.52 84.56 132.26 84.74 131.96 84.9Z" fill="#84CEF4"/>
<path d="M136.07 87.7599C135.26 88.9899 134.26 90.1599 133.03 91.2199C132.29 91.8499 131.47 92.4399 130.55 92.9899C130.9 91.7699 131.17 90.5199 131.37 89.2599C131.44 88.8399 131.5 88.4199 131.55 87.9899C131.6 87.9799 131.66 87.9599 131.71 87.9399C131.73 87.9299 131.74 87.9299 131.76 87.9199C132 87.8199 132.23 87.7299 132.47 87.6299C132.62 87.5699 132.76 87.5099 132.91 87.4299C133.48 87.1599 134.05 86.7599 134.52 86.2799C134.6 86.1999 134.67 86.0999 134.75 86.0099C135.71 86.4099 136.7 86.1899 137.53 84.6399C137.53 84.6399 137.54 84.7699 137.53 84.9999C137.35 85.4199 137.17 85.8299 136.96 86.2399C136.68 86.7699 136.39 87.2699 136.07 87.7599Z" fill="#84CEF4"/>
<path d="M26.7399 105C26.0899 105 25.46 104.86 24.87 104.6C23.76 104.1 22.8999 103.2 22.4699 102.06C22.0399 100.92 22.0699 99.6799 22.5699 98.5599C23.3099 96.9199 24.9399 95.8599 26.7399 95.8599C27.3899 95.8599 28.0199 95.9999 28.6099 96.2599C30.9099 97.2899 31.94 99.9999 30.91 102.3C30.17 103.94 28.5399 105 26.7399 105Z" fill="#F19001"/>
<path d="M26.74 97.1499C27.19 97.1499 27.64 97.2399 28.08 97.4399C29.73 98.1799 30.47 100.12 29.73 101.77C29.19 102.98 27.99 103.7 26.74 103.7C26.29 103.7 25.84 103.61 25.4 103.41C23.75 102.67 23.01 100.73 23.75 99.0799C24.3 97.8699 25.49 97.1499 26.74 97.1499ZM26.74 94.5499C24.43 94.5499 22.33 95.9099 21.38 98.0199C20.05 100.97 21.38 104.45 24.33 105.78C25.09 106.12 25.9 106.3 26.73 106.3C29.04 106.3 31.14 104.94 32.09 102.83C33.42 99.8799 32.09 96.3999 29.14 95.0699C28.38 94.7299 27.57 94.5499 26.74 94.5499Z" fill="#1D1E1C"/>
<path d="M27.8199 98.1299C28.5099 98.4399 28.8199 99.2499 28.5099 99.9499C28.1999 100.64 27.3899 100.95 26.6899 100.64C25.9999 100.33 25.6899 99.5199 25.9999 98.8199C26.3199 98.1299 27.1299 97.8199 27.8199 98.1299Z" fill="#1D1E1C"/>
<path d="M131.23 105C129.43 105 127.79 103.94 127.06 102.3C126.03 99.9999 127.06 97.2899 129.36 96.2599C129.95 95.9899 130.58 95.8599 131.23 95.8599C133.03 95.8599 134.67 96.9199 135.4 98.5599C135.9 99.6699 135.94 100.91 135.5 102.06C135.07 103.2 134.21 104.11 133.1 104.6C132.5 104.86 131.87 105 131.23 105Z" fill="#F19001"/>
<path d="M131.22 97.1499C132.47 97.1499 133.66 97.8699 134.21 99.0799C134.95 100.73 134.21 102.67 132.56 103.41C132.12 103.61 131.67 103.7 131.22 103.7C129.97 103.7 128.78 102.98 128.23 101.77C127.49 100.12 128.23 98.1799 129.88 97.4399C130.32 97.2399 130.77 97.1499 131.22 97.1499ZM131.22 94.5499C130.39 94.5499 129.58 94.7199 128.82 95.0699C127.39 95.7099 126.29 96.8699 125.74 98.3399C125.18 99.8099 125.23 101.4 125.87 102.83C126.82 104.94 128.92 106.3 131.23 106.3C132.06 106.3 132.87 106.13 133.63 105.78C135.06 105.14 136.16 103.98 136.71 102.51C137.27 101.04 137.22 99.4499 136.58 98.0199C135.63 95.9099 133.53 94.5499 131.22 94.5499Z" fill="#1D1E1C"/>
<path d="M130.14 98.1299C129.45 98.4399 129.14 99.2499 129.45 99.9499C129.76 100.64 130.57 100.95 131.27 100.64C131.96 100.33 132.27 99.5199 131.96 98.8199C131.65 98.1299 130.83 97.8199 130.14 98.1299Z" fill="#1D1E1C"/>
<path d="M63.98 126.68C65.07 127.86 66.09 129.09 67.04 130.38C68.3 132.09 69.67 133.98 70.43 135.99C71.51 138.84 69.4 144.43 65.82 143.67L65.8 143.58C65.79 143.58 65.73 143.6 65.63 143.62C65.48 143.58 65.32 143.55 65.16 143.47C64.72 143.29 64.38 143.51 64.23 143.85C60.51 144.36 50.8 144.95 42.01 139.21C40 137.9 38.13 136.71 36.4 135.63C28.37 130.57 23.95 127.77 24.08 123.63C24.14 121.52 25.17 119.87 26.92 119.13C28.68 118.37 30.77 118.71 32.36 119.97C32.41 120.18 32.46 120.38 32.51 120.58C32.7 121.45 32.8 122.23 32.6 122.73C32.57 122.79 32.54 122.85 32.52 122.93C32.5 123 32.39 123.17 32.33 123.29C32.18 123.55 32.08 123.84 31.98 124.12C31.81 124.7 31.76 125.3 31.79 125.88C31.92 127.03 32.4 128.04 33.16 128.8C33.22 128.87 33.32 128.89 33.42 128.87C33.56 128.84 33.65 128.69 33.61 128.54L33.6 128.51C33.37 127.62 33.27 126.69 33.42 125.92C33.49 125.52 33.62 125.17 33.79 124.84C33.89 124.68 33.97 124.52 34.1 124.37C34.17 124.28 34.18 124.26 34.28 124.11C34.37 123.97 34.47 123.82 34.55 123.66C35.18 122.37 34.96 121.11 34.79 120.12C34.69 119.62 34.57 119.14 34.51 118.72C34.44 118.35 34.41 117.95 34.46 117.86C34.46 117.86 34.46 117.86 34.47 117.86H34.48C34.49 117.86 34.52 117.86 34.52 117.85C34.53 117.84 34.54 117.83 34.56 117.82L34.66 117.81C34.73 117.8 34.8 117.79 34.86 117.77H35.06C35.21 117.75 35.29 117.81 35.39 117.82C35.72 117.92 36.16 118.44 36.56 119.25C36.96 120.04 37.35 120.96 37.87 121.89C38.39 122.82 39.09 123.79 40.09 124.53C41.05 125.22 41.95 125.63 42.9 126.04C43.84 126.45 44.79 126.8 45.74 127.11C47.66 127.72 49.63 128.18 51.64 128.44C53.65 128.71 55.7 128.73 57.74 128.5C59.78 128.28 61.82 127.76 63.72 126.87C63.81 126.8 63.9 126.75 63.98 126.68Z" fill="#BBE3F9"/>
<path d="M21.6 123.54C21.69 120.47 23.31 117.98 25.94 116.83C27.93 115.97 30.21 116.05 32.2 116.96C32.26 116.8 32.34 116.64 32.43 116.48C32.55 116.27 32.74 116.1 32.92 115.92C33.11 115.74 33.28 115.69 33.47 115.57C33.57 115.53 33.67 115.48 33.76 115.44L34.01 115.37L34.52 115.25C34.7 115.23 34.87 115.23 35.05 115.22C35.39 115.19 35.77 115.27 36.14 115.36C36.87 115.59 37.53 116.06 37.92 116.55C38.16 116.79 38.29 117.03 38.47 117.28C38.61 117.52 38.76 117.76 38.88 117.99C39.37 118.92 39.76 119.78 40.2 120.52C40.64 121.27 41.13 121.87 41.7 122.27C42.33 122.69 43.18 123.12 44 123.48C44.84 123.84 45.71 124.15 46.59 124.44C48.35 125 50.17 125.42 52 125.65C55.65 126.13 59.39 125.93 62.69 124.58L62.71 124.57C62.72 124.57 62.74 124.57 62.74 124.56C63.01 124.15 63.61 123.94 64.05 124.39C65.95 126.3 67.67 128.38 69.19 130.6C70.6 132.65 72.3 135 72.41 137.58C72.56 141.02 69.87 145.59 66.21 145.4L66.35 145.99C65.79 146.12 52.6 149.1 40.63 141.27C38.62 139.97 36.77 138.79 35.05 137.71C26.57 132.34 21.43 129.09 21.6 123.54ZM31.8 125.85C31.76 125.27 31.82 124.67 31.99 124.09C32.09 123.82 32.19 123.52 32.34 123.26C32.4 123.14 32.51 122.97 32.53 122.9C32.55 122.83 32.57 122.77 32.61 122.7C32.81 122.21 32.71 121.42 32.52 120.55C32.47 120.35 32.42 120.14 32.37 119.94C30.78 118.67 28.69 118.34 26.93 119.1C25.18 119.84 24.15 121.49 24.09 123.6C23.96 127.75 28.38 130.54 36.41 135.6C38.14 136.68 40.01 137.87 42.02 139.18C50.81 144.92 60.52 144.33 64.24 143.82C64.4 143.49 64.73 143.26 65.17 143.44C65.34 143.51 65.49 143.54 65.64 143.59C65.74 143.57 65.8 143.56 65.81 143.55L65.83 143.64C69.42 144.4 71.52 138.81 70.44 135.96C69.67 133.96 68.31 132.07 67.05 130.35C66.09 129.07 65.07 127.83 63.99 126.65C63.91 126.72 63.83 126.77 63.74 126.82C61.84 127.72 59.8 128.23 57.76 128.45C55.72 128.68 53.67 128.66 51.66 128.39C49.65 128.13 47.68 127.67 45.76 127.06C44.8 126.75 43.85 126.4 42.92 125.99C41.97 125.57 41.07 125.16 40.11 124.48C39.11 123.74 38.41 122.77 37.89 121.84C37.37 120.91 36.98 119.98 36.58 119.2C36.18 118.39 35.74 117.87 35.41 117.77C35.31 117.76 35.22 117.7 35.08 117.72H34.88C34.81 117.74 34.75 117.75 34.68 117.76L34.58 117.77C34.56 117.78 34.55 117.79 34.54 117.8C34.54 117.81 34.51 117.81 34.5 117.81V117.79C34.51 117.79 34.5 117.77 34.5 117.78H34.49C34.48 117.78 34.49 117.79 34.48 117.8C34.43 117.89 34.46 118.29 34.53 118.66C34.59 119.07 34.71 119.56 34.81 120.06C34.98 121.05 35.2 122.31 34.57 123.6C34.48 123.76 34.39 123.9 34.3 124.05C34.2 124.2 34.18 124.22 34.12 124.31C33.99 124.46 33.92 124.62 33.81 124.78C33.64 125.11 33.51 125.46 33.44 125.86C33.29 126.63 33.38 127.56 33.62 128.45L33.63 128.48C33.67 128.63 33.58 128.78 33.44 128.81C33.34 128.83 33.24 128.81 33.18 128.74C32.41 128.01 31.92 127.01 31.8 125.85Z" fill="#1D1D1B"/>
<path d="M111.73 144.86C111.73 153.22 108.23 157.55 106.38 159.24C105.61 157.64 104.79 156 103.99 154.4C98.9599 144.33 93.2899 132.98 97.8499 128.06C100.81 129.5 111.73 135.47 111.73 144.86Z" fill="#BBE3F9"/>
<path d="M114.21 144.86C114.21 157.45 106.89 162.03 106.57 162.22C106.37 162.34 106.15 162.4 105.93 162.4C105.81 162.4 105.69 162.38 105.57 162.35C105.23 162.24 104.95 162 104.8 161.69C103.86 159.69 102.85 157.66 101.77 155.51C95.8699 143.69 89.7699 131.48 96.8199 125.63C97.1799 125.33 97.6699 125.26 98.0899 125.44C98.7599 125.72 114.21 132.44 114.21 144.86ZM106.39 159.24C108.23 157.55 111.74 153.22 111.74 144.86C111.74 135.48 100.81 129.5 97.8599 128.07C93.3099 132.99 98.9799 144.34 104 154.41C104.8 156 105.62 157.63 106.39 159.24Z" fill="#1D1D1B"/>
<path d="M106.31 156.09L106.65 157.37C105.95 157.3 105.2 157.18 104.33 157.06C101.4 156.62 97.02 155.98 89.07 155.65C88.35 150.79 85.29 142.09 85.06 130.3C85.28 130.27 85.51 130.23 85.74 130.19C86.03 141.53 90.1 152.51 90.29 153.54C90.36 153.92 90.68 154.21 91.06 154.23C100.47 154.67 104.72 155.62 106.31 156.09Z" fill="#E7C63E"/>
<path d="M101.69 145.81L105.93 154.28C103.8 153.75 99.57 153.02 91.8 152.62C91.12 148.64 87.59 140.01 87.39 129.91C90.92 129.18 93.89 128.01 96.38 126.6C96.36 129.94 97.11 136.47 101.69 145.81Z" fill="#8B1249"/>
<path d="M105.33 162.74C105.4 163.03 105.45 163.27 105.45 163.45C105.33 163.42 105.19 163.38 105.06 163.33C102.34 162.49 95.98 160.53 79.26 160.53C62.54 160.53 56.18 162.49 53.46 163.33C53.34 163.37 53.2 163.41 53.07 163.45C53.08 163.27 53.12 163.03 53.19 162.74C53.33 162.22 53.39 161.68 53.36 161.14L53.3 159.69C53.69 159.64 54.1 159.57 54.55 159.51C57.55 159.07 62.1 158.4 70.56 158.1C71.16 158.08 71.65 157.64 71.74 157.05C71.82 156.53 73.17 155.06 73.72 155.27C74.48 155.16 76.08 155.03 79.26 155.03C82.44 155.03 84.04 155.16 84.8 155.27C86.39 155.77 86.69 156.53 86.78 157.05C86.87 157.64 87.37 158.07 87.96 158.1C96.42 158.41 100.97 159.08 103.97 159.51C104.42 159.58 104.83 159.64 105.23 159.69L105.16 161.14C105.13 161.69 105.19 162.23 105.33 162.74Z" fill="#E7C63E"/>
<path d="M82.58 130.57C82.72 136.77 83.58 145.26 84.48 152.74C83.41 152.63 81.78 152.55 79.26 152.55C76.74 152.55 75.11 152.63 74.04 152.74C74.94 145.26 75.8 136.77 75.94 130.57C77.01 130.64 78.11 130.7 79.26 130.7C80.42 130.7 81.52 130.64 82.58 130.57Z" fill="#BBE3F9"/>
<path d="M72.78 130.19C73 130.23 73.23 130.26 73.46 130.3C73.23 142.09 70.17 150.79 69.45 155.65C61.5 155.97 57.13 156.62 54.19 157.06C53.32 157.18 52.57 157.3 51.92 157.42L52.22 156.08C53.82 155.62 58.07 154.67 67.47 154.23C67.85 154.21 68.17 153.92 68.24 153.54C68.42 152.51 72.49 141.53 72.78 130.19Z" fill="#E7C63E"/>
<path d="M71.13 129.9C70.92 140.01 67.39 148.64 66.72 152.61C58.94 153.01 54.72 153.74 52.59 154.27L56.83 145.8C61.41 136.47 62.16 129.93 62.14 126.58C64.64 127.99 67.61 129.17 71.13 129.9Z" fill="#8B1249"/>
<path opacity="0.19" d="M60.66 126.58C60.66 126.58 64.32 134.65 79.26 134.65C94.2 134.65 97.62 126.58 97.62 126.58L97.15 124.38C97.15 124.38 93.65 128.39 92.98 128.21C92.31 128.04 82.63 129.57 82.27 129.51C81.92 129.45 69.16 128.21 69.16 128.21L60.66 124.38V126.58Z" fill="#1D1D1B"/>
<path d="M60.99 220.57C62.2 219.5 63.4 217.63 63.92 214.38C64.23 212.46 65.29 210.95 67.09 209.88C70.37 207.94 75.54 207.86 80.56 209.68C83.98 210.91 87.13 210.61 89.2 208.85C90.62 207.64 91.27 205.9 90.95 204.19C90.58 202.21 88.98 200.61 86.59 199.78L85.71 199.47C79.02 197.17 70.69 194.31 62.38 186.58C54.38 179.13 54.7 168.39 54.96 165.48C57.82 164.63 64.41 163.01 79.28 163.01C93.99 163.01 100.6 164.6 103.5 165.45C103.51 165.57 103.51 165.7 103.52 165.83C103.7 170.68 105.62 175.45 108.9 179.24C111.62 182.38 116.2 188.73 116.36 196.02C116.47 201.33 113.64 207.1 108.97 211.06C103.97 215.31 97.64 216.99 91.13 215.79C87.25 215.07 84.1 214.29 81.32 213.59C73.29 211.58 68.87 210.48 65.05 216.76C63.71 218.95 62.32 220.25 60.99 220.57Z" fill="#BBE3F9"/>
<path d="M106.01 166.07C106.51 166.08 106.95 165.93 107.32 165.47C107.96 164.68 108.11 163.5 107.72 162.07C107.65 161.81 107.62 161.53 107.63 161.24L107.7 159.6C107.98 159.47 108.25 159.28 108.46 159.05C108.98 158.45 109.2 157.64 109.02 156.88L108.68 155.38L104.08 145.16C104.06 145.06 104.02 144.95 103.98 144.86C98.41 133.59 98.75 126.62 98.94 124.93C82.49 129.22 75.64 129.57 59.57 124.93C59.76 126.62 60.1 133.58 54.53 144.86C54.49 144.95 54.45 145.06 54.43 145.16L49.84 155.35L49.49 156.88C49.32 157.65 49.53 158.46 50.05 159.05C50.26 159.28 50.53 159.47 50.81 159.6L50.88 161.24C50.89 161.53 50.86 161.82 50.79 162.08C50.4 163.5 50.54 164.68 51.19 165.47C51.53 165.89 51.93 166.06 52.39 166.07C52.13 170.19 52.4 180.71 60.66 188.4C69.35 196.49 77.96 199.45 84.88 201.82L85.76 202.12C87.3 202.65 88.29 203.57 88.5 204.64C88.66 205.47 88.31 206.34 87.58 206.96C86.22 208.11 83.92 208.25 81.39 207.34C75.69 205.27 69.71 205.43 65.81 207.74C63.39 209.18 61.88 211.34 61.46 213.98C60.61 219.37 57.67 219.54 57.57 219.55C57.07 219.55 56.62 219.85 56.42 220.31C56.23 220.78 56.34 221.31 56.69 221.67C56.76 221.74 58.18 223.12 60.34 223.12C60.55 223.12 60.75 223.11 60.97 223.09C63.21 222.82 65.29 221.12 67.14 218.06C70.01 213.33 72.7 214.01 80.69 216C83.37 216.67 86.7 217.5 90.66 218.23C97.91 219.57 104.98 217.69 110.55 212.96C115.77 208.51 118.94 202.01 118.82 195.97C118.65 187.91 113.7 181.02 110.76 177.63C107.91 174.34 106.24 170.26 106.01 166.07ZM96.38 126.58C96.36 129.94 97.12 136.47 101.69 145.8L105.93 154.27C103.8 153.74 99.57 153.01 91.8 152.61C91.12 148.63 87.59 140 87.39 129.9C90.91 129.17 93.88 127.99 96.38 126.58ZM85.74 130.19C86.03 141.53 90.1 152.51 90.29 153.54C90.36 153.92 90.68 154.21 91.06 154.23C100.47 154.67 104.73 155.62 106.32 156.09L106.66 157.37C105.96 157.3 105.21 157.18 104.34 157.06C101.41 156.62 97.03 155.98 89.08 155.65C88.36 150.79 85.3 142.09 85.07 130.3C85.28 130.27 85.52 130.23 85.74 130.19ZM75.94 130.57C77.01 130.64 78.11 130.7 79.26 130.7C80.41 130.7 81.52 130.64 82.58 130.57C82.72 136.77 83.58 145.26 84.48 152.74C83.41 152.63 81.78 152.55 79.26 152.55C76.74 152.55 75.11 152.63 74.04 152.74C74.94 145.25 75.8 136.76 75.94 130.57ZM56.83 145.81C61.41 136.48 62.16 129.94 62.14 126.59C64.64 128 67.6 129.18 71.13 129.9C70.92 140.01 67.39 148.64 66.72 152.61C58.94 153.01 54.72 153.74 52.59 154.27L56.83 145.81ZM51.92 157.42L52.22 156.08C53.82 155.62 58.07 154.67 67.47 154.23C67.85 154.21 68.17 153.92 68.24 153.54C68.42 152.51 72.5 141.53 72.79 130.19C73.01 130.23 73.24 130.26 73.47 130.3C73.24 142.09 70.18 150.79 69.46 155.65C61.51 155.97 57.14 156.62 54.2 157.06C53.32 157.18 52.57 157.3 51.92 157.42ZM53.07 163.45C53.08 163.27 53.12 163.03 53.19 162.74C53.33 162.22 53.39 161.68 53.36 161.14L53.3 159.69C53.69 159.64 54.1 159.57 54.55 159.51C57.55 159.07 62.1 158.4 70.56 158.1C71.16 158.08 71.65 157.64 71.74 157.05C71.82 156.53 72.81 155.65 73.72 155.27C74.48 155.16 76.08 155.03 79.26 155.03C82.44 155.03 84.04 155.16 84.8 155.27C86.63 156.48 86.69 156.53 86.78 157.05C86.87 157.64 87.37 158.07 87.96 158.1C96.42 158.41 100.97 159.08 103.97 159.51C104.42 159.58 104.83 159.64 105.23 159.69L105.16 161.14C105.14 161.69 105.19 162.23 105.33 162.74C105.4 163.03 105.45 163.27 105.45 163.45C105.33 163.42 105.19 163.38 105.06 163.33C102.34 162.49 95.98 160.53 79.26 160.53C62.54 160.53 56.18 162.49 53.46 163.33C53.33 163.38 53.19 163.42 53.07 163.45ZM108.95 211.07C103.95 215.32 97.62 217 91.11 215.8C87.23 215.08 84.08 214.3 81.3 213.6C73.27 211.59 68.85 210.49 65.03 216.77C63.71 218.94 62.31 220.25 60.98 220.56C62.19 219.49 63.39 217.62 63.91 214.37C64.22 212.45 65.28 210.94 67.08 209.87C70.36 207.93 75.53 207.85 80.55 209.67C83.97 210.9 87.12 210.6 89.19 208.84C90.61 207.63 91.26 205.89 90.94 204.18C90.57 202.2 88.97 200.6 86.58 199.77L85.7 199.46C79.01 197.16 70.68 194.3 62.37 186.57C54.37 179.12 54.69 168.38 54.95 165.47C57.81 164.62 64.4 163 79.27 163C93.98 163 100.59 164.59 103.49 165.44C103.5 165.56 103.5 165.69 103.51 165.82C103.69 170.67 105.61 175.44 108.89 179.23C111.61 182.37 116.19 188.72 116.35 196.01C116.44 201.33 113.62 207.1 108.95 211.07Z" fill="#1D1D1B"/>
<path d="M40.76 240.71C40.85 240.91 40.82 241.15 40.67 241.26C39.73 242.02 37.3 243.28 31.52 243.28C25.75 243.28 23.31 242.02 22.38 241.26C22.23 241.14 22.19 240.9 22.29 240.71L23.69 237.88C25.87 238.5 28.46 238.86 31.53 238.86C34.42 238.86 37.04 238.53 39.37 237.88L40.76 240.71Z" fill="#F29100"/>
<path d="M16.67 220.38C16.5 220.43 16.34 220.49 16.17 220.54C16.13 220.56 16.09 220.57 16.05 220.58C14.77 221.02 13.87 221.48 13.24 221.94C13.06 221.69 12.88 221.46 12.69 221.25C11.76 220.13 10.71 219.42 9.65997 219.19C9.08997 219.07 8.51996 219.08 7.93996 219.21L7.84996 219.23C7.82996 219.23 7.78996 219.24 7.74996 219.25C7.58996 219.28 7.47997 219.33 7.40997 219.36C7.15997 219.47 6.94996 219.62 6.76996 219.82C6.42996 220.2 6.15996 220.8 6.03996 221.47C5.91996 222.07 5.90996 222.77 5.99996 223.51C6.34996 226.35 8.16996 229.11 10.6 230.54C11.75 231.24 13.08 231.7 14.57 231.89C15.01 232.5 15.5 233.07 16.02 233.6C15.59 233.62 15.16 233.62 14.73 233.61C12.92 233.54 11.17 233.09 9.65997 232.31C8.08997 231.52 6.67996 230.33 5.60996 228.89C4.48996 227.39 3.73996 225.74 3.38996 223.98C3.19996 222.96 3.14996 222.04 3.24996 221.15C3.36996 220.01 3.70996 219.04 4.26996 218.22C4.58996 217.74 5.00996 217.31 5.46996 216.98C5.72996 216.8 5.96996 216.65 6.25996 216.52C6.47996 216.41 6.80996 216.3 7.04996 216.23C7.73996 216.02 8.49997 215.91 9.22997 215.91C9.52997 215.91 9.82996 215.93 10.11 215.97C11.09 216.09 12.09 216.45 13.02 216.99C13.84 217.48 14.61 218.09 15.3 218.8C15.79 219.25 16.23 219.79 16.67 220.38Z" fill="#F29100"/>
<path d="M31.52 216.4C33.5 216.4 34.87 216.51 35.79 216.65C34.82 216.81 33.45 216.93 31.52 216.93C29.59 216.93 28.22 216.81 27.25 216.65C28.18 216.51 29.53 216.4 31.52 216.4Z" fill="#F29100"/>
<path d="M38 217.8L40.43 221.81C39.52 222.2 37.19 222.81 31.51 222.81C25.84 222.81 23.5 222.2 22.59 221.81L25.02 217.8C26.13 218.22 28.07 218.59 31.51 218.59C34.96 218.58 36.9 218.22 38 217.8Z" fill="#F29100"/>
<path d="M43.28 222.19C46.1 222.73 47.5 223.39 48.18 223.85C46.42 224.93 41.69 227.02 31.52 227.02C21.37 227.02 16.63 224.93 14.87 223.85C15.02 223.74 15.21 223.63 15.45 223.51C15.45 223.5 15.46 223.5 15.47 223.5C15.55 223.45 15.65 223.41 15.75 223.36C15.77 223.35 15.78 223.34 15.81 223.34C15.91 223.3 16.01 223.25 16.12 223.21C16.14 223.2 16.17 223.19 16.19 223.18C16.31 223.14 16.42 223.09 16.55 223.04C16.57 223.03 16.6 223.02 16.62 223.02C16.76 222.97 16.9 222.92 17.05 222.87C17.07 222.87 17.09 222.86 17.11 222.85C17.62 222.68 18.22 222.53 18.92 222.37C18.93 222.37 18.93 222.37 18.94 222.37C19.2 222.31 19.47 222.25 19.76 222.2C19.77 222.22 19.77 222.24 19.77 222.27C20.08 224.28 24.03 225.3 31.52 225.3C39.02 225.3 42.98 224.28 43.27 222.27C43.28 222.23 43.28 222.21 43.28 222.19Z" fill="#F29100"/>
<path d="M60.6 220.33C60.77 220.43 60.92 220.54 61.06 220.66C58.32 221.37 55.74 223.73 52.08 228.72C49.11 232.75 43.88 234.12 41.77 234.51C41.34 234.59 40.91 234.72 40.44 234.91C37.95 235.89 34.94 236.39 31.51 236.39C25.98 236.39 22.23 235.12 19.67 233.4C18.31 232.48 17.18 231.34 16.31 230.02C16.28 229.98 16.24 229.95 16.21 229.9C15.45 228.73 14.99 227.56 14.71 226.59C17.4 227.9 22.51 229.51 31.5 229.51C45.04 229.51 49.79 225.89 50.71 225.06C51.31 224.71 53.73 223.3 55.93 221.61C58.67 219.5 60.44 220.25 60.6 220.33Z" fill="#F29100"/>
<path d="M14.72 226.58C14.72 226.58 16.84 234.61 28.64 234.76C40.45 234.91 42.34 232.63 42.34 232.63C42.34 232.63 49.19 232.55 52.61 229.58C52.61 229.58 44.7 235.41 41.51 236.38C38.32 237.35 40.8 237.88 40.8 237.88C40.8 237.88 38.99 240.86 31.51 240.58C24.03 240.3 22.22 237.88 22.22 237.88L23.68 236.38C23.68 236.39 15.22 235.39 14.72 226.58Z" fill="#E95A0C"/>
<path d="M9.51997 228.26C9.51997 228.26 10.44 232.49 7.03998 231.42C7.03998 231.42 9.33998 234.76 12.97 234.64C16.6 234.52 18.57 234.22 18.57 234.22L14.87 230.74L9.51997 228.26Z" fill="#E95A0C"/>
<path d="M64.21 221.37C64.29 221.74 64.21 222.13 63.97 222.43C63.74 222.73 63.37 222.9 63 222.9C60.74 222.9 58.55 224.09 54.08 230.18C50.71 234.76 45.21 236.39 42.23 236.95C42.07 236.98 41.9 237.03 41.72 237.08L42.98 239.62C43.58 240.85 43.27 242.36 42.22 243.2C40.77 244.37 37.72 245.77 31.52 245.77C25.32 245.77 22.28 244.37 20.82 243.2C19.77 242.36 19.46 240.85 20.06 239.62L21.32 237.07C20.37 236.67 19.53 236.21 18.76 235.72C17.57 235.95 16.41 236.08 15.29 236.08C15.08 236.08 14.87 236.07 14.65 236.06C12.48 235.97 10.37 235.43 8.55998 234.5C6.64998 233.53 4.94999 232.09 3.63999 230.34C2.29999 228.55 1.40998 226.56 0.989984 224.42C0.749984 223.16 0.689986 221.99 0.819986 220.85C0.989986 219.3 1.45998 217.98 2.23998 216.81C2.71998 216.09 3.34999 215.44 4.04999 214.93C4.42999 214.66 4.82999 214.43 5.21999 214.24C5.59999 214.05 6.08998 213.88 6.38999 213.81C7.68999 213.41 9.10998 213.29 10.46 213.46C11.76 213.63 13.08 214.1 14.3 214.8C15.32 215.41 16.26 216.16 17.1 217.02C17.81 217.76 18.47 218.57 19.12 219.51C19.17 219.59 19.21 219.67 19.27 219.75C19.84 219.64 20.47 219.54 21.14 219.44L23.29 215.89C23.9 214.56 26.6 213.91 31.53 213.91C36.46 213.91 39.17 214.56 39.77 215.89L41.93 219.44C46.96 220.15 49.29 221.34 50.36 222.37C51.36 221.76 52.97 220.73 54.46 219.6C58.62 216.41 61.68 218.05 61.81 218.13H61.82C63.06 218.87 63.88 219.96 64.21 221.37ZM61.06 220.66C60.92 220.54 60.77 220.43 60.6 220.33C60.43 220.26 58.67 219.5 55.95 221.59C53.74 223.28 51.32 224.7 50.73 225.04C49.81 225.87 45.06 229.49 31.52 229.49C22.53 229.49 17.41 227.89 14.73 226.57C15 227.55 15.47 228.71 16.23 229.88C16.26 229.92 16.3 229.95 16.33 230C17.21 231.32 18.34 232.46 19.69 233.38C22.24 235.1 26 236.37 31.53 236.37C34.97 236.37 37.98 235.87 40.46 234.89C40.93 234.71 41.36 234.58 41.79 234.49C43.9 234.09 49.13 232.73 52.1 228.7C55.74 223.73 58.32 221.37 61.06 220.66ZM48.18 223.85C47.5 223.39 46.1 222.73 43.28 222.19C43.28 222.21 43.28 222.23 43.27 222.26C42.97 224.27 39.02 225.29 31.52 225.29C24.02 225.29 20.07 224.27 19.77 222.26C19.77 222.24 19.77 222.22 19.76 222.19C19.47 222.25 19.2 222.31 18.94 222.36C18.93 222.36 18.93 222.36 18.92 222.36C18.22 222.52 17.62 222.67 17.11 222.84C17.09 222.85 17.07 222.86 17.05 222.86C16.9 222.91 16.76 222.96 16.62 223.01C16.6 223.02 16.57 223.03 16.55 223.03C16.42 223.08 16.3 223.13 16.19 223.17C16.17 223.18 16.14 223.19 16.12 223.2C16 223.24 15.91 223.29 15.81 223.33C15.79 223.34 15.77 223.35 15.75 223.35C15.65 223.4 15.55 223.44 15.47 223.49C15.46 223.49 15.45 223.49 15.45 223.5C15.21 223.62 15.02 223.73 14.87 223.84C16.64 224.92 21.37 227.01 31.52 227.01C41.69 227.02 46.42 224.93 48.18 223.85ZM40.66 241.26C40.81 241.14 40.84 240.9 40.75 240.71L39.34 237.88C37.02 238.53 34.4 238.86 31.5 238.86C28.43 238.86 25.85 238.5 23.66 237.88L22.26 240.71C22.16 240.91 22.2 241.15 22.35 241.26C23.28 242.02 25.72 243.28 31.49 243.28C37.29 243.29 39.72 242.02 40.66 241.26ZM40.43 221.81L38 217.8C36.9 218.22 34.96 218.59 31.51 218.59C28.07 218.59 26.13 218.23 25.02 217.8L22.59 221.81C23.5 222.2 25.84 222.81 31.51 222.81C37.19 222.81 39.52 222.19 40.43 221.81ZM35.79 216.65C34.86 216.51 33.5 216.4 31.52 216.4C29.54 216.4 28.18 216.51 27.25 216.65C28.23 216.81 29.59 216.93 31.52 216.93C33.45 216.93 34.82 216.81 35.79 216.65ZM16.18 220.53C16.35 220.48 16.5 220.42 16.68 220.37C16.24 219.78 15.8 219.25 15.32 218.76C14.63 218.05 13.86 217.44 13.04 216.95C12.11 216.41 11.11 216.06 10.13 215.93C9.83998 215.89 9.53999 215.87 9.24999 215.87C8.50999 215.87 7.75999 215.98 7.06999 216.19C6.82999 216.26 6.50998 216.37 6.27998 216.48C5.99998 216.61 5.74998 216.76 5.48998 216.94C5.02998 217.27 4.60999 217.7 4.28999 218.18C3.73999 219.01 3.39998 219.97 3.26998 221.11C3.16998 221.99 3.21999 222.92 3.40999 223.94C3.75999 225.7 4.49998 227.35 5.62998 228.85C6.69998 230.29 8.10999 231.48 9.67999 232.27C11.18 233.05 12.94 233.49 14.75 233.57C15.18 233.59 15.61 233.59 16.04 233.56C15.51 233.03 15.02 232.46 14.59 231.85C13.1 231.66 11.77 231.21 10.62 230.5C8.18999 229.08 6.36998 226.32 6.01998 223.47C5.92998 222.73 5.94998 222.02 6.05998 221.43C6.17998 220.76 6.44999 220.16 6.78999 219.78C6.95999 219.58 7.17999 219.42 7.42999 219.32C7.49999 219.3 7.60998 219.25 7.76998 219.21C7.80998 219.2 7.83999 219.19 7.86999 219.19L7.95998 219.17C8.53998 219.05 9.10999 219.04 9.67999 219.15C10.72 219.38 11.77 220.09 12.71 221.21C12.9 221.42 13.07 221.66 13.26 221.9C13.89 221.45 14.79 220.98 16.07 220.54C16.09 220.57 16.13 220.55 16.18 220.53ZM11.89 228.39C12.23 228.6 12.59 228.76 12.97 228.91C12.09 226.81 11.89 225.03 11.84 224.34C11.82 224.29 11.79 224.24 11.76 224.19C11.46 223.68 11.14 223.21 10.81 222.83C10.25 222.17 9.63998 221.71 9.16998 221.61C8.97998 221.57 8.79999 221.57 8.57999 221.6C8.55999 221.67 8.51999 221.78 8.49999 221.91C8.42999 222.27 8.42999 222.72 8.47999 223.2C8.73999 225.29 10.08 227.34 11.89 228.39Z" fill="#1D1D1B"/>
<path d="M84.62 93.4699C83.86 96.0599 81.47 97.9599 78.63 97.9599C75.6 97.9599 73.08 95.7999 72.51 92.9399" stroke="#020202" stroke-width="2.4908" stroke-miterlimit="10" stroke-linecap="round"/>
</svg>
