<svg width="232" height="235" viewBox="0 0 232 235" fill="none" xmlns="http://www.w3.org/2000/svg">
<g clip-path="url(#clip0_111_145)">
<path d="M48.545 175.874C39.145 179.684 31.057 185.614 27.928 197.782C35.113 192.098 45.962 194.182 53.547 199.301C61.132 204.42 66.697 212.006 73.563 218.072C81.9366 225.3 92.0338 230.244 102.878 232.426C113.722 234.609 124.945 233.956 135.463 230.531C141.238 228.576 163.355 211.806 160.672 188.106L160.554 187.697C158.239 188.35 155.847 188.689 153.442 188.706C152.692 188.719 151.943 188.658 151.205 188.524C150.062 187.474 149.052 186.289 148.195 184.995L148.086 185.068C143.675 187.56 139.892 190.106 131.198 188.642L130.943 188.606C130.907 188.924 130.861 189.224 130.816 189.515C130.07 192.998 111.172 194.235 98.249 189.27C93.0405 187.368 88.103 184.794 83.562 181.612C79.252 180.257 76.032 178.975 71.721 177.62C64.169 175.247 55.875 172.9 48.545 175.874Z" fill="#C2F1FF"/>
<path d="M30.335 191.284C37.44 187.196 47.155 189.318 54.122 194.021C61.716 199.15 67.272 206.721 74.138 212.792C82.5116 220.02 92.6087 224.964 103.453 227.147C114.297 229.329 125.52 228.676 136.038 225.251C140.916 223.599 157.454 211.376 160.856 193.334C160.098 214.242 140.8 228.723 135.456 230.534C124.938 233.959 113.715 234.612 102.871 232.429C92.0267 230.247 81.9296 225.303 73.556 218.075C66.69 212.009 61.133 204.434 53.54 199.304C45.947 194.174 35.106 192.104 27.921 197.785C28.4915 195.538 29.3008 193.359 30.335 191.284Z" fill="#93E5F9"/>
<path d="M130.941 188.607L131.196 188.643C139.89 190.107 143.673 187.561 148.075 185.069L148.193 184.987C146.137 181.767 144.633 178.226 143.746 174.51L143.728 174.52C140.482 176.757 136.389 177.002 131.988 176.666L131.333 176.676C131.478 180.657 131.347 184.644 130.941 188.607Z" fill="#FFF683"/>
<path d="M141 175.704C141.958 175.434 142.875 175.036 143.727 174.521L143.745 174.511C144.632 178.227 146.136 181.768 148.192 184.988L148.074 185.07C147.047 185.651 142.494 187.57 141.465 188.106C143.326 185.006 142.677 178.161 141 175.704Z" fill="#FCC149"/>
<path d="M73.647 141.653L73.138 142.417C65.699 141.572 64.69 148.838 72.02 154.558C76.5719 158.036 81.4512 161.063 86.589 163.597C89.353 164.98 92.182 166.244 94.989 167.335C99.2 164.516 99.563 157.304 98.781 152.775L98.981 151.938C89.898 149.756 80.968 146.476 73.647 141.653Z" fill="#C2F1FF"/>
<path d="M94.988 167.336C92.178 166.244 89.349 164.981 86.588 163.598L86.06 164.653C86.06 168.627 83.823 177.085 79.102 177.831C80.9379 179.645 82.9475 181.275 85.102 182.696C89.2281 185.36 93.635 187.563 98.243 189.263C111.166 194.237 130.064 192.991 130.81 189.517C130.855 189.226 130.901 188.926 130.937 188.607C131.342 184.644 131.473 180.657 131.328 176.676C131.146 169.064 130.373 160.815 129.318 156.45L129.327 155.804C128.399 155.804 127.49 155.768 126.589 155.731C117.289 155.316 108.047 154.046 98.979 151.939L98.779 152.776C99.566 157.304 99.202 164.517 94.988 167.336Z" fill="#AE00BC"/>
<path d="M93.873 170.819C93.2021 170.254 92.6842 169.53 92.3671 168.712C92.0501 167.895 91.9441 167.01 92.059 166.141C92.972 166.53 94.08 166.982 94.992 167.341C99.203 164.522 99.566 157.31 98.784 152.781L98.984 151.944C100.005 152.19 102.547 152.744 103.571 152.963C104.321 159.56 101.32 170.438 93.873 170.819Z" fill="#FFF683"/>
<path d="M82.188 177.049C106.241 193.349 126.839 189.763 127.588 186.288C127.633 185.998 127.679 185.697 127.715 185.379C128.12 181.416 128.251 177.429 128.106 173.448C127.998 167.516 127.495 161.597 126.601 155.732C127.501 155.768 128.408 155.805 129.335 155.805L129.326 156.451C130.381 160.816 131.154 169.065 131.336 176.677C131.481 180.658 131.35 184.645 130.945 188.608C130.909 188.927 130.863 189.227 130.818 189.518C130.072 192.992 111.174 194.238 98.251 189.264C93.643 187.564 89.2361 185.362 85.11 182.697C82.9555 181.276 80.9459 179.646 79.11 177.832C80.0268 177.669 80.8785 177.249 81.566 176.621C81.748 176.75 81.957 176.892 82.188 177.049Z" fill="#FFF683"/>
<path d="M86.061 164.653L86.589 163.598C87.961 164.285 89.35 164.942 90.744 165.562C89.795 171.389 87.788 177.613 83.557 181.613C81.9774 180.469 80.4886 179.205 79.104 177.831C83.823 177.085 86.061 168.627 86.061 164.653Z" fill="#9500A5"/>
<path d="M81.559 176.619C81.748 176.75 81.959 176.892 82.189 177.049C83.347 177.834 84.489 178.559 85.633 179.249C85.0128 180.096 84.3177 180.886 83.556 181.609C81.9764 180.465 80.4877 179.201 79.103 177.827C80.0195 177.665 80.8711 177.246 81.559 176.619Z" fill="#FCC149"/>
<path d="M141.136 155.159L141.254 156.195C141.464 162.369 142.299 168.505 143.745 174.511C144.632 178.227 146.136 181.768 148.192 184.988C149.046 186.284 150.057 187.47 151.202 188.517C151.94 188.651 152.689 188.711 153.439 188.699C154.992 188.69 156.541 188.543 158.068 188.262C162.052 187.553 166.017 185.952 165.868 183.297C165.586 181.478 162.968 173.812 160.111 166.573C157.892 160.934 155.519 155.56 154 153.404L153.836 152.786C149.66 153.857 145.417 154.649 141.136 155.159Z" fill="#AE00BC"/>
<path d="M143.493 154.839C143.764 160.327 144.56 165.777 145.869 171.114C146.755 174.752 148.12 178.256 149.93 181.533C150.626 183.079 151.824 184.343 153.33 185.12C155.188 186.104 164.804 183.897 165.697 182.22C165.719 182.32 165.864 183.22 165.876 183.301C166.022 185.956 162.057 187.558 158.076 188.266C156.549 188.547 155 188.694 153.447 188.703C152.697 188.716 151.948 188.655 151.21 188.521C150.065 187.474 149.054 186.288 148.2 184.992C146.144 181.772 144.64 178.231 143.753 174.515C142.307 168.509 141.472 162.373 141.262 156.199L141.144 155.163C141.919 155.065 142.706 154.947 143.493 154.839Z" fill="#FFF683"/>
<path d="M129.322 156.452C130.377 160.817 131.15 169.066 131.332 176.678L131.987 176.668C136.387 177.005 140.481 176.76 143.727 174.522L143.745 174.512C142.299 168.506 141.464 162.37 141.254 156.196L141.136 155.16C137.221 155.636 133.279 155.851 129.336 155.805L129.322 156.452Z" fill="#C2F1FF"/>
<path d="M153.841 152.785L154.005 153.403C155.524 155.559 157.897 160.933 160.116 166.572L160.671 166.381C167.564 163.707 173.203 160.424 180.733 154.558C188.063 148.838 187.054 141.571 179.615 142.417L179.197 141.817C171.421 146.87 162.849 150.578 153.841 152.785Z" fill="#C2F1FF"/>
<path d="M71.242 142.405C72.609 153.766 88.442 158.048 98.899 159.832C98.466 162.879 97.318 165.778 94.991 167.332C92.181 166.241 89.352 164.977 86.591 163.594C81.4532 161.06 76.5739 158.033 72.022 154.555C65.373 149.373 65.602 142.936 71.242 142.405Z" fill="#93E5F9"/>
<path d="M137.664 155.573C138.926 155.473 139.859 155.312 141.136 155.159L141.254 156.195C141.464 162.369 142.299 168.505 143.745 174.511L143.727 174.521C142.108 175.637 143.015 175.834 141.041 176.134C140.645 169.18 139.513 162.288 137.664 155.573Z" fill="#93E5F9"/>
<path d="M183.468 142.912C187.083 144.629 186.493 150.062 180.732 154.559C173.202 160.425 167.564 163.707 160.67 166.382L160.115 166.573C159.401 164.758 158.67 162.973 157.957 161.308C167.786 157.219 179.187 153.644 183.468 142.912Z" fill="#93E5F9"/>
<path d="M74.401 54.2851C48.628 78.0481 50.42 118.554 65.407 134.769C67.8616 137.392 70.6286 139.704 73.646 141.653C80.967 146.474 89.897 149.753 98.983 151.939C108.051 154.046 117.293 155.316 126.593 155.731C127.493 155.768 128.403 155.804 129.331 155.804C133.274 155.85 137.216 155.635 141.131 155.159C145.412 154.649 149.655 153.856 153.831 152.785C162.838 150.578 171.41 146.871 179.186 141.818C182.282 139.765 185.161 137.404 187.78 134.77C204.468 117.828 206.214 37.125 129.595 36.115C129.059 36.097 128.522 36.0971 127.976 36.0971C120.444 36.0545 112.931 36.8538 105.576 38.4801C100.497 39.6152 95.5506 41.2762 90.816 43.4361C84.8023 46.1566 79.2611 49.819 74.401 54.2851Z" fill="#C2F1FF"/>
<path d="M74.402 54.285C77.8006 51.1566 81.5444 48.4253 85.561 46.144C84.885 46.715 84.221 47.295 83.58 47.888C57.807 71.651 59.599 112.157 74.586 128.372C77.0406 130.995 79.8076 133.307 82.825 135.256C90.146 140.077 99.077 143.356 108.162 145.542C117.23 147.65 126.472 148.919 135.772 149.334C136.672 149.37 137.582 149.407 138.509 149.407C142.452 149.453 146.394 149.238 150.309 148.762C154.59 148.252 158.833 147.459 163.009 146.388C170.511 144.513 177.725 141.633 184.457 137.827C182.778 139.257 181.018 140.589 179.186 141.817C171.41 146.87 162.838 150.577 153.831 152.784C149.655 153.855 145.412 154.648 141.131 155.158C137.216 155.634 133.274 155.849 129.331 155.803C128.403 155.803 127.494 155.767 126.593 155.73C117.293 155.315 108.051 154.045 98.983 151.938C89.898 149.755 80.967 146.473 73.646 141.652C70.6286 139.703 67.8616 137.391 65.407 134.768C50.42 118.554 48.629 78.048 74.402 54.285Z" fill="#93E5F9"/>
<path d="M129.613 35.668C132.76 30.448 130.432 27.292 126.013 25.901C122.3 24.9103 118.41 24.7736 114.636 25.501C110.917 26.138 107.415 27.41 105.305 29.301C102.831 31.521 102.277 34.594 105.587 38.478C112.942 36.8518 120.455 36.0525 127.987 36.095C128.533 36.095 129.07 36.095 129.606 36.113L129.613 35.668Z" fill="#FFF683"/>
<path d="M105.304 29.302C106.618 28.2027 108.121 27.3534 109.741 26.796C107.292 29.837 107.971 34.165 110.058 37.589C108.535 37.855 107.039 38.148 105.586 38.479C102.276 34.596 102.831 31.522 105.304 29.302Z" fill="#FCC149"/>
<path d="M43.154 24.055C42.672 48.674 61.7971 56.094 74.4021 54.285C79.2648 49.8178 84.8091 46.1551 90.8261 43.435L90.817 43.417C97.283 34.186 96.274 25.156 104.849 29.293L105.304 29.302C107.414 27.41 110.915 26.138 114.635 25.502C118.409 24.7746 122.299 24.9113 126.012 25.902L126.149 25.429C131.105 -2.40899 92.2491 -7.85898 76.2851 18.344C67.1641 33.314 45.273 40.497 43.154 24.055Z" fill="#004A5B"/>
<path d="M58.259 44.6891C80.949 53.2991 80.644 33.6801 95.359 23.7891C98.259 21.6161 105.936 23.8631 108.159 27.4621C107.125 27.9402 106.163 28.5613 105.301 29.3071L104.846 29.2981C96.27 25.1601 97.28 34.1901 90.814 43.4221L90.823 43.4401C84.8082 46.159 79.2655 49.82 74.404 54.2851C61.842 56.0851 42.81 48.7191 43.157 24.3011C44.489 33.5271 49.639 41.4181 58.259 44.6891Z" fill="black"/>
<path d="M66.11 133.939C80.944 149.503 105.175 153.411 125.688 154.596C146.594 155.804 173.422 149.608 187.757 133.196C193.846 126.224 195.447 115.352 195.966 106.476C196.72 93.8192 194.183 81.1828 188.601 69.7981C172.489 37.3651 130.354 31.3201 98.693 41.5171C70.458 50.6111 53.457 77.7861 55.831 107.043C56.616 116.718 59.67 126.836 66.297 134.143C67.241 135.185 65.442 136.424 64.509 135.395C49.393 118.719 51.063 90.4671 60.258 71.4801C74.987 41.0701 110.987 31.6851 142.272 35.9701C157.142 38.0061 171.281 44.4371 181.484 55.5921C189.896 64.7921 194.857 76.5711 197.056 88.7371C199.096 99.7243 198.625 111.031 195.679 121.81C192.179 134.103 183.621 141.198 172.379 147.046C154.991 156.093 135.179 158.046 115.957 155.968C97.957 154.021 77.628 149.168 64.694 135.601C63.738 134.597 65.138 132.919 66.11 133.939Z" fill="#00315E"/>
<path d="M160.388 165.618C165.503 163.563 170.377 160.952 174.922 157.832C177.94 155.962 180.685 153.684 183.079 151.062C186.231 147.276 184.788 142.662 179.535 142.955C178.482 143.013 178.327 141.383 179.381 141.325C185.565 140.985 187.981 145.634 185.128 150.937C182.991 154.91 178.188 157.59 174.602 160.03C170.327 162.894 165.751 165.283 160.957 167.153C159.973 167.545 159.411 166.008 160.389 165.618H160.388Z" fill="#00315E"/>
<path d="M94.637 168.072C89.2521 165.928 84.0481 163.355 79.0751 160.378C74.9201 157.891 70.446 155.154 67.748 151.041C64.22 145.664 68.098 140.911 73.848 141.222C74.9 141.279 74.604 142.89 73.564 142.834C67.778 142.522 67.1541 147.147 69.7581 151.115C71.6931 154.065 75.588 156.221 78.47 158.083C83.8062 161.459 89.4578 164.309 95.345 166.593C96.325 166.984 95.62 168.461 94.645 168.072H94.637Z" fill="#00315E"/>
<path d="M130.137 156.371C131.889 164.093 132.168 172.261 132.183 180.149C132.193 185.149 133.305 190.729 127.698 192.362C120.384 194.493 111.611 193.462 104.305 191.917C94.6684 189.835 85.7754 185.182 78.57 178.453C78.4633 178.359 78.3825 178.24 78.3354 178.106C78.2883 177.972 78.2765 177.828 78.3011 177.688C78.3257 177.548 78.3859 177.417 78.4759 177.307C78.5659 177.197 78.6827 177.113 78.815 177.061C83.648 175.78 85.171 168.541 85.309 164.211C85.342 163.169 86.973 163.005 86.939 164.057C86.78 169.066 85.028 177.1 79.383 178.597L79.628 177.205C91.299 188.382 108.928 193.472 124.828 191.287C127.49 190.921 129.883 190.587 130.221 187.655C130.567 183.978 130.665 180.282 130.515 176.592C130.523 169.853 129.853 163.131 128.515 156.526C128.282 155.497 129.915 155.358 130.145 156.372L130.137 156.371Z" fill="#00315E"/>
<path d="M142.071 156.123C142.501 164.083 143.359 172.087 146.266 179.57C147.577 182.944 149.78 187.899 153.843 187.884C157.354 187.983 160.822 187.098 163.856 185.329C167.095 183.206 161.475 172.409 160.477 169.768C158.469 164.456 156.521 158.624 153.334 153.878C152.746 153.002 154.086 152.062 154.675 152.939C158.693 158.921 161.007 166.369 163.455 173.084C164.999 177.317 169.05 183.884 164.149 187.094C161.314 188.953 157.287 189.378 153.998 189.515C150.298 189.668 148.91 187.615 146.965 184.602C141.735 176.502 140.947 165.632 140.442 156.278C140.385 155.225 142.015 155.07 142.072 156.124L142.071 156.123Z" fill="#00315E"/>
<path d="M99.598 152.696C100.417 157.927 100.061 164.596 95.446 168.024C94.597 168.654 93.661 167.312 94.507 166.683C98.619 163.627 98.688 157.451 97.968 152.85C97.804 151.804 99.436 151.659 99.598 152.696Z" fill="#00315E"/>
<path d="M144.2 175.193C140.449 177.593 136.171 177.771 131.842 177.474C130.789 177.402 131.084 175.791 132.126 175.862C135.995 176.127 139.897 176.004 143.261 173.852C144.148 173.284 145.091 174.623 144.2 175.193Z" fill="#00315E"/>
<path d="M148.547 185.743C142.779 189.015 137.747 190.459 131.047 189.443C130.84 189.398 130.658 189.275 130.54 189.1C130.422 188.924 130.376 188.709 130.413 188.5C130.45 188.292 130.566 188.105 130.737 187.981C130.908 187.856 131.121 187.802 131.331 187.831C137.61 188.78 142.214 187.458 147.605 184.399C148.516 183.882 149.463 185.219 148.544 185.74L148.547 185.743Z" fill="#00315E"/>
<path d="M128.875 35.3171C133.094 27.5371 124.495 25.7561 118.52 25.9041C111.949 26.0661 99.714 29.5741 106.307 38.0771C106.955 38.9131 105.607 39.8481 104.966 39.0161C91.623 21.8051 140.244 17.7801 130.354 36.0161C129.854 36.9391 128.37 36.2451 128.875 35.3171Z" fill="#00315E"/>
<path d="M90.091 42.7981C93.065 38.8251 94.012 33.7401 96.902 29.7741C99.085 26.7741 102.131 26.9251 105.276 28.3931C105.509 28.5107 105.687 28.7148 105.772 28.9619C105.856 29.2089 105.841 29.4793 105.729 29.7152C105.617 29.951 105.417 30.1337 105.172 30.2242C104.927 30.3146 104.656 30.3056 104.418 30.1991C100.501 28.4771 98.767 29.8231 97.053 33.4281C95.4462 36.9853 93.6506 40.4543 91.6741 43.8201C91.613 43.9365 91.5284 44.039 91.4256 44.1209C91.3228 44.2028 91.2041 44.2624 91.0769 44.2958C90.9498 44.3293 90.8172 44.3359 90.6874 44.3152C90.5575 44.2946 90.4335 44.247 90.323 44.1757C90.2126 44.1044 90.1182 44.0109 90.0459 43.9011C89.9737 43.7914 89.9251 43.6677 89.9032 43.5381C89.8814 43.4085 89.8868 43.2757 89.9192 43.1483C89.9515 43.0209 90.0101 42.9016 90.091 42.7981Z" fill="#00315E"/>
<path d="M125.212 25.265C127.112 14.395 121.18 5.42403 110.561 2.65503C100.117 -0.0679669 88.901 4.19404 81.769 11.955C77.82 16.255 75.883 21.831 71.811 26.077C68.3266 29.662 63.9922 32.3076 59.211 33.768C51.063 36.28 43.597 32.826 42.196 24.146L44.113 23.965C44.082 33.474 46.857 42.457 54.624 48.403C60.174 52.652 67.693 54.181 74.53 53.26C75.812 53.087 75.99 55.074 74.719 55.251C67.1728 56.2752 59.5212 54.3657 53.341 49.916C45.091 44.028 42.141 33.842 42.197 24.145C42.1789 23.894 42.2598 23.6458 42.4224 23.4537C42.585 23.2616 42.8164 23.1407 43.067 23.1171C43.3176 23.0934 43.5675 23.1688 43.7632 23.3271C43.9589 23.4854 44.0848 23.714 44.114 23.964C46.624 39.729 65.339 30.533 71.85 23.235C75.691 18.93 77.609 13.453 81.712 9.26804C85.206 5.80044 89.4537 3.18684 94.124 1.63105C102.046 -1.11595 111.34 -0.461959 118.47 4.05704C125.924 8.78204 128.297 17.216 127.087 25.591C127.041 25.8368 126.9 26.0545 126.694 26.1968C126.488 26.3391 126.235 26.3945 125.988 26.351C125.742 26.3076 125.523 26.1688 125.378 25.9647C125.234 25.7607 125.175 25.5078 125.216 25.261L125.212 25.265Z" fill="#00315E"/>
<path d="M118.709 182.564C118.709 183.124 118.875 183.67 119.186 184.136C119.497 184.601 119.938 184.964 120.455 185.178C120.972 185.392 121.541 185.448 122.09 185.339C122.639 185.229 123.143 184.96 123.538 184.564C123.934 184.169 124.204 183.665 124.313 183.116C124.422 182.567 124.366 181.998 124.152 181.481C123.938 180.964 123.575 180.523 123.11 180.212C122.645 179.901 122.098 179.735 121.538 179.735C120.788 179.735 120.068 180.033 119.538 180.564C119.007 181.094 118.709 181.814 118.709 182.564Z" fill="#FFF683"/>
<path d="M152.726 179.8C152.726 180.307 152.876 180.803 153.158 181.225C153.44 181.647 153.841 181.976 154.309 182.17C154.778 182.364 155.294 182.415 155.791 182.316C156.289 182.217 156.746 181.972 157.105 181.614C157.463 181.255 157.708 180.798 157.807 180.3C157.906 179.803 157.855 179.287 157.661 178.818C157.467 178.35 157.138 177.949 156.716 177.667C156.294 177.385 155.798 177.235 155.291 177.235C154.611 177.235 153.958 177.505 153.477 177.986C152.996 178.467 152.726 179.12 152.726 179.8Z" fill="#FFF683"/>
<path d="M150.775 48.4491C150.775 49.3984 151.057 50.3264 151.584 51.1158C152.111 51.9051 152.861 52.5204 153.738 52.8837C154.615 53.247 155.58 53.342 156.511 53.1568C157.443 52.9716 158.298 52.5145 158.969 51.8432C159.64 51.1719 160.098 50.3166 160.283 49.3855C160.468 48.4544 160.373 47.4893 160.01 46.6122C159.646 45.7351 159.031 44.9854 158.242 44.458C157.452 43.9306 156.524 43.649 155.575 43.649C154.302 43.649 153.081 44.1548 152.181 45.055C151.281 45.9551 150.775 47.176 150.775 48.4491Z" fill="white"/>
<path d="M162.434 52.561C162.434 53.1854 162.619 53.7958 162.966 54.3151C163.312 54.8344 163.805 55.2392 164.382 55.4783C164.959 55.7175 165.593 55.7802 166.206 55.6586C166.818 55.5369 167.381 55.2364 167.823 54.7951C168.264 54.3537 168.565 53.7913 168.687 53.1789C168.809 52.5666 168.747 51.9318 168.508 51.3548C168.269 50.7779 167.865 50.2847 167.346 49.9377C166.827 49.5906 166.216 49.4052 165.592 49.405C165.177 49.4049 164.767 49.4864 164.384 49.645C164.001 49.8035 163.653 50.0359 163.359 50.329C163.066 50.622 162.833 50.97 162.675 51.353C162.516 51.7359 162.434 52.1465 162.434 52.561Z" fill="white"/>
<path d="M170.866 56.7711C170.866 57.1706 170.984 57.5612 171.206 57.8933C171.428 58.2255 171.744 58.4844 172.113 58.6373C172.482 58.7902 172.888 58.8302 173.28 58.7523C173.672 58.6743 174.032 58.482 174.314 58.1995C174.597 57.917 174.789 57.557 174.867 57.1652C174.945 56.7734 174.905 56.3672 174.752 55.9981C174.599 55.629 174.34 55.3135 174.008 55.0915C173.676 54.8696 173.286 54.7511 172.886 54.7511C172.35 54.7511 171.836 54.9639 171.458 55.3427C171.079 55.7216 170.866 56.2354 170.866 56.7711Z" fill="white"/>
<path d="M126.336 28.1024C125.232 27.6477 123.968 28.1746 123.513 29.2793C123.058 30.384 123.585 31.6481 124.69 32.1027C125.794 32.5574 127.059 32.0305 127.513 30.9258C127.968 29.8212 127.441 28.557 126.336 28.1024Z" fill="white"/>
<path d="M108.59 5.26503C108.59 5.6596 108.707 6.04531 108.926 6.37338C109.145 6.70146 109.457 6.95717 109.822 7.10817C110.186 7.25917 110.587 7.29867 110.974 7.22169C111.361 7.14472 111.717 6.95471 111.996 6.6757C112.275 6.3967 112.465 6.04123 112.542 5.65424C112.619 5.26724 112.579 4.86611 112.428 4.50157C112.277 4.13703 112.021 3.82546 111.693 3.60625C111.365 3.38703 110.98 3.27002 110.585 3.27002C110.056 3.27002 109.548 3.4802 109.174 3.85434C108.8 4.22847 108.59 4.73592 108.59 5.26503Z" fill="white"/>
<path d="M113.346 6.53009C113.346 6.77301 113.418 7.01054 113.552 7.21262C113.687 7.41469 113.879 7.57223 114.103 7.66533C114.328 7.75843 114.575 7.7829 114.813 7.73563C115.051 7.68836 115.27 7.57148 115.442 7.39978C115.614 7.22808 115.731 7.00928 115.778 6.77104C115.826 6.53281 115.802 6.28583 115.709 6.06139C115.616 5.83694 115.458 5.6451 115.256 5.51012C115.054 5.37514 114.817 5.3031 114.574 5.3031C114.248 5.3031 113.936 5.43234 113.706 5.66241C113.476 5.89249 113.346 6.20458 113.346 6.53009Z" fill="white"/>
<path d="M116.379 8.28102C116.379 8.44795 116.429 8.61111 116.521 8.74991C116.614 8.8887 116.746 8.9969 116.9 9.06078C117.054 9.12466 117.224 9.14136 117.388 9.1088C117.551 9.07623 117.702 8.99584 117.82 8.87781C117.938 8.75977 118.018 8.60938 118.051 8.44566C118.083 8.28194 118.067 8.11224 118.003 7.95802C117.939 7.8038 117.831 7.67199 117.692 7.57925C117.553 7.48651 117.39 7.43701 117.223 7.43701C116.999 7.43701 116.785 7.52594 116.626 7.68422C116.468 7.8425 116.379 8.05718 116.379 8.28102Z" fill="white"/>
<path d="M156.494 168.131C157.499 168.131 158.313 167.317 158.313 166.312C158.313 165.307 157.499 164.493 156.494 164.493C155.489 164.493 154.675 165.307 154.675 166.312C154.675 167.317 155.489 168.131 156.494 168.131Z" fill="white"/>
<path d="M157.148 169.669C157.148 169.894 157.215 170.114 157.34 170.301C157.465 170.488 157.642 170.633 157.85 170.719C158.058 170.806 158.286 170.828 158.507 170.784C158.727 170.74 158.93 170.632 159.089 170.473C159.248 170.314 159.356 170.111 159.4 169.891C159.444 169.67 159.422 169.442 159.335 169.234C159.249 169.026 159.104 168.849 158.917 168.724C158.73 168.599 158.51 168.532 158.285 168.532C157.983 168.532 157.694 168.652 157.481 168.865C157.268 169.078 157.148 169.367 157.148 169.669Z" fill="white"/>
<path d="M158.802 172.414C158.802 172.577 158.85 172.737 158.941 172.873C159.031 173.008 159.16 173.114 159.311 173.177C159.461 173.24 159.627 173.256 159.787 173.224C159.947 173.193 160.095 173.114 160.21 172.999C160.325 172.883 160.404 172.736 160.436 172.576C160.468 172.416 160.452 172.25 160.389 172.1C160.327 171.949 160.221 171.82 160.085 171.729C159.95 171.638 159.79 171.59 159.627 171.59C159.408 171.59 159.199 171.677 159.044 171.831C158.889 171.986 158.802 172.195 158.802 172.414Z" fill="white"/>
<path d="M161.492 188.029C162.738 201.25 156.931 213.234 147.82 222.52C139.782 230.713 130.82 233.676 119.383 234.433C103.9 235.296 88.6106 230.65 76.226 221.317C68.993 215.908 63.512 208.533 56.667 202.677C49.05 196.16 37.322 192.005 28.403 198.449C27.861 198.84 26.931 198.343 27.128 197.636C29.986 187.368 36.575 180.48 46.118 176.022C58.544 170.216 71.924 177.022 83.913 180.873C84.913 181.195 84.202 182.673 83.213 182.352C72.103 178.78 59.397 172.237 47.755 177.088C38.306 181.025 31.511 187.975 28.743 197.921L27.468 197.108C39.861 188.155 54.245 197.564 63.298 206.618C69.522 212.842 75.225 219.158 82.793 223.818C89.8389 228.026 97.6278 230.842 105.736 232.111C118.183 234.211 132.616 233.111 142.711 224.974C153.729 216.088 161.221 202.574 159.865 188.188C159.851 187.976 159.921 187.766 160.059 187.604C160.197 187.442 160.393 187.34 160.605 187.32C160.817 187.3 161.029 187.364 161.195 187.497C161.361 187.63 161.469 187.823 161.495 188.034L161.492 188.029Z" fill="#00315E"/>
<path d="M87.99 93.5911C88.083 94.7781 92.3421 90.8321 97.9451 90.3911C103.548 89.9501 108.369 93.1911 108.277 92.0031C108.185 90.8151 103.377 87.8081 97.777 88.2461C92.177 88.6841 87.897 92.4101 87.99 93.5911Z" fill="#602700"/>
<path d="M182.024 85.707C182.118 86.892 177.294 83.655 171.692 84.095C166.09 84.535 161.83 88.48 161.738 87.295C161.646 86.11 165.922 82.388 171.524 81.949C177.126 81.51 181.932 84.521 182.024 85.707Z" fill="#602700"/>
<path d="M114.058 101.71C114.534 107.793 125.409 119.502 138.096 118.51C150.783 117.518 160.48 104.194 160.003 98.11C159.526 92.026 149.057 95.485 136.37 96.48C123.683 97.475 113.58 95.627 114.058 101.71Z" fill="#00315E"/>
<path d="M155.647 108.28C151.696 113.285 145.393 117.936 138.096 118.507C130.255 119.122 123.109 114.883 118.679 110.119C128.712 101.483 144.84 99.9951 155.647 108.28Z" fill="#AE00BC"/>
<path d="M147.54 109.178C147.569 109.55 147.707 109.905 147.937 110.198C148.168 110.491 148.48 110.709 148.834 110.825C149.188 110.941 149.569 110.949 149.928 110.849C150.287 110.748 150.608 110.543 150.851 110.26C151.094 109.977 151.247 109.628 151.291 109.258C151.335 108.888 151.269 108.513 151.1 108.18C150.931 107.848 150.668 107.573 150.343 107.39C150.018 107.207 149.646 107.125 149.274 107.154C148.776 107.193 148.313 107.428 147.988 107.807C147.663 108.187 147.502 108.68 147.54 109.178Z" fill="white"/>
<path d="M77.636 105.072C77.766 106.726 80.6 107.853 83.967 107.589C87.334 107.325 89.96 105.769 89.83 104.115C89.7 102.461 86.866 101.335 83.497 101.599C80.128 101.863 77.506 103.418 77.636 105.072Z" fill="#AE00BC"/>
<path d="M181.483 94.3821C181.613 96.0341 184.447 97.1621 187.816 96.8991C191.185 96.6361 193.808 95.0791 193.68 93.4251C193.552 91.7711 190.714 90.6441 187.347 90.9091C183.98 91.1741 181.355 92.7271 181.483 94.3821Z" fill="#AE00BC"/>
<path d="M7.37104 102.23C8.61173 103.307 10.144 103.993 11.7742 104.199C13.4043 104.406 15.0591 104.124 16.5292 103.39C17.9994 102.656 19.2189 101.503 20.0335 100.076C20.8481 98.6485 21.2212 97.012 21.1057 95.3729C20.9901 93.7337 20.3912 92.1657 19.3845 90.867C18.3778 89.5683 17.0086 88.5973 15.45 88.0768C13.8915 87.5563 12.2136 87.5096 10.6285 87.9427C9.04341 88.3758 7.62237 89.2692 6.54505 90.5099C5.10071 92.1738 4.3763 94.3431 4.5312 96.541C4.68609 98.7388 5.70761 100.785 7.37104 102.23Z" fill="#AE00BC"/>
<path d="M12.815 104.943C14.9221 104.944 16.9624 104.204 18.5796 102.853C20.1969 101.503 21.2883 99.627 21.6632 97.5536C22.0382 95.4802 21.6729 93.341 20.6311 91.5095C19.5893 89.678 17.9372 88.2707 15.9634 87.5334C13.9896 86.796 11.8195 86.7754 9.83212 87.4753C7.8447 88.1751 6.16624 89.5508 5.08993 91.3622C4.01362 93.1736 3.60785 95.3055 3.94344 97.3857C4.27904 99.4658 5.3347 101.362 6.92605 102.743C8.56051 104.161 10.6513 104.942 12.815 104.943ZM12.824 88.327C14.5652 88.3274 16.2537 88.9237 17.6091 90.0167C18.9645 91.1097 19.905 92.6335 20.2744 94.3351C20.6438 96.0366 20.4198 97.8133 19.6397 99.3699C18.8595 100.926 17.5702 102.169 15.986 102.892C14.4018 103.614 12.6181 103.773 10.9313 103.341C9.24451 102.909 7.7562 101.913 6.71377 100.519C5.67134 99.124 5.13754 97.4147 5.20107 95.6747C5.26461 93.9347 5.92165 92.2688 7.06301 90.954C7.77893 90.1293 8.66381 89.4682 9.65762 89.0154C10.6514 88.5627 11.7309 88.3289 12.823 88.33L12.824 88.327Z" fill="#00315E"/>
<path d="M12.3281 93.272C12.5822 93.492 12.8958 93.6317 13.2293 93.6734C13.5628 93.7152 13.9012 93.6572 14.2018 93.5067C14.5023 93.3562 14.7515 93.12 14.9178 92.8279C15.0842 92.5359 15.1602 92.2011 15.1363 91.8658C15.1125 91.5305 14.9897 91.2099 14.7836 90.9443C14.5776 90.6788 14.2974 90.4803 13.9786 90.374C13.6597 90.2676 13.3165 90.2582 12.9923 90.3468C12.6681 90.4354 12.3774 90.6182 12.157 90.872C12.0105 91.0407 11.8987 91.2367 11.828 91.4487C11.7573 91.6607 11.729 91.8845 11.7449 92.1074C11.7608 92.3303 11.8205 92.548 11.9205 92.7478C12.0206 92.9476 12.1591 93.1257 12.3281 93.272Z" fill="white"/>
<path d="M171.946 204.014C171.896 205.656 172.335 207.277 173.206 208.67C174.077 210.063 175.342 211.167 176.84 211.841C178.338 212.516 180.003 212.731 181.624 212.459C183.244 212.187 184.748 211.441 185.944 210.315C187.141 209.189 187.977 207.733 188.346 206.132C188.715 204.531 188.601 202.856 188.019 201.32C187.436 199.783 186.411 198.454 185.073 197.5C183.735 196.547 182.144 196.011 180.502 195.961C178.3 195.895 176.161 196.706 174.556 198.216C172.952 199.726 172.013 201.812 171.946 204.014Z" fill="#AE00BC"/>
<path d="M180.255 213.255C182.616 213.255 184.882 212.326 186.564 210.669C188.245 209.011 189.208 206.759 189.243 204.399C189.278 202.038 188.383 199.758 186.751 198.052C185.119 196.345 182.882 195.349 180.522 195.279H180.246C177.89 195.287 175.632 196.22 173.957 197.877C172.282 199.533 171.324 201.781 171.289 204.136C171.254 206.491 172.145 208.766 173.771 210.472C175.396 212.177 177.626 213.176 179.98 213.254L180.255 213.255ZM180.245 196.64H180.48C182.484 196.696 184.385 197.539 185.772 198.987C187.159 200.435 187.92 202.37 187.891 204.375C187.861 206.38 187.043 208.292 185.614 209.698C184.184 211.104 182.259 211.89 180.254 211.887H180.019C178.015 211.831 176.114 210.988 174.727 209.54C173.34 208.093 172.579 206.157 172.608 204.153C172.638 202.148 173.456 200.236 174.885 198.83C176.314 197.424 178.239 196.637 180.244 196.64H180.245Z" fill="#00315E"/>
<path d="M182.019 202.188C182.01 202.524 182.1 202.855 182.279 203.139C182.458 203.423 182.717 203.648 183.023 203.786C183.33 203.923 183.67 203.966 184.002 203.91C184.333 203.854 184.64 203.702 184.884 203.471C185.129 203.241 185.299 202.943 185.375 202.616C185.45 202.289 185.427 201.947 185.308 201.632C185.189 201.318 184.98 201.046 184.707 200.851C184.434 200.656 184.109 200.546 183.773 200.535C183.549 200.528 183.326 200.565 183.117 200.644C182.907 200.724 182.715 200.843 182.552 200.997C182.389 201.151 182.258 201.335 182.167 201.539C182.075 201.744 182.025 201.964 182.019 202.188Z" fill="white"/>
<path d="M166.825 27.589C167.746 28.389 168.884 28.898 170.094 29.0514C171.304 29.2049 172.533 28.996 173.624 28.4511C174.716 27.9062 175.621 27.0499 176.226 25.9904C176.831 24.9309 177.108 23.7159 177.023 22.4989C176.937 21.2819 176.492 20.1177 175.745 19.1535C174.997 18.1893 173.981 17.4684 172.823 17.082C171.666 16.6956 170.42 16.661 169.244 16.9826C168.067 17.3043 167.012 17.9677 166.212 18.889C165.14 20.1241 164.602 21.7344 164.717 23.3659C164.832 24.9974 165.59 26.5165 166.825 27.589Z" fill="#DEFBFF"/>
<path d="M170.871 29.782C172.477 29.783 174.033 29.2197 175.266 28.1905C176.499 27.1614 177.331 25.7318 177.617 24.1513C177.904 22.5709 177.626 20.9401 176.832 19.5438C176.038 18.1475 174.779 17.0744 173.275 16.5119C171.77 15.9494 170.116 15.9333 168.601 16.4664C167.086 16.9995 165.806 18.0478 164.985 19.4284C164.165 20.809 163.855 22.434 164.11 24.0197C164.366 25.6054 165.17 27.051 166.383 28.104C167.628 29.1853 169.222 29.7811 170.871 29.782ZM170.877 17.445C172.13 17.4453 173.345 17.8744 174.32 18.6608C175.295 19.4472 175.972 20.5437 176.238 21.768C176.503 22.9922 176.342 24.2706 175.781 25.3906C175.22 26.5106 174.292 27.4047 173.152 27.9245C172.012 28.4442 170.729 28.5583 169.515 28.2476C168.301 27.937 167.231 27.2204 166.48 26.2169C165.73 25.2135 165.346 23.9835 165.392 22.7316C165.438 21.4796 165.911 20.281 166.732 19.335C167.246 18.7417 167.882 18.2658 168.596 17.9398C169.31 17.6137 170.086 17.4449 170.871 17.445H170.877Z" fill="#00315E"/>
<path d="M170.506 20.938C170.695 21.1018 170.928 21.206 171.177 21.2372C171.425 21.2684 171.677 21.2253 171.9 21.1134C172.124 21.0014 172.31 20.8257 172.434 20.6083C172.557 20.391 172.614 20.1418 172.596 19.8923C172.579 19.6427 172.487 19.4041 172.334 19.2065C172.18 19.0088 171.972 18.8611 171.735 18.782C171.497 18.7029 171.242 18.6959 171.001 18.7619C170.759 18.828 170.543 18.9641 170.379 19.153C170.27 19.2785 170.187 19.4243 170.134 19.5819C170.082 19.7396 170.061 19.9061 170.073 20.0718C170.084 20.2376 170.129 20.3994 170.203 20.548C170.277 20.6967 170.38 20.8292 170.506 20.938Z" fill="white"/>
<path d="M194.213 38.216C194.11 40.6756 194.739 43.1105 196.019 45.2128C197.3 47.3152 199.176 48.9905 201.408 50.027C203.641 51.0635 206.131 51.4146 208.564 51.0359C210.996 50.6572 213.262 49.5657 215.074 47.8994C216.886 46.2331 218.163 44.067 218.744 41.6748C219.325 39.2826 219.184 36.7718 218.338 34.46C217.492 32.1481 215.98 30.139 213.992 28.6867C212.004 27.2345 209.631 26.4042 207.171 26.301C205.538 26.2324 203.907 26.4863 202.372 27.048C200.837 27.6097 199.427 28.4682 198.224 29.5747C197.021 30.6811 196.047 32.0137 195.359 33.4964C194.671 34.9791 194.281 36.5828 194.213 38.216Z" fill="#E9CCFF"/>
<path d="M206.659 51.862C210.122 51.8627 213.446 50.4971 215.909 48.0616C218.371 45.6262 219.773 42.3177 219.811 38.8545C219.848 35.3913 218.518 32.0531 216.109 29.5649C213.7 27.0767 210.406 25.6394 206.944 25.565C203.481 25.4907 200.129 26.7854 197.616 29.1679C195.102 31.5505 193.63 34.8285 193.518 38.2901C193.407 41.7516 194.666 45.1173 197.022 47.6562C199.378 50.1951 202.64 51.7021 206.1 51.85C206.287 51.858 206.473 51.862 206.659 51.862ZM206.641 26.967C206.807 26.967 206.975 26.967 207.141 26.978C210.234 27.112 213.15 28.4608 215.255 30.7317C217.359 33.0025 218.483 36.012 218.382 39.1066C218.281 42.2012 216.963 45.1309 214.715 47.2597C212.467 49.3885 209.469 50.5443 206.374 50.4762C203.278 50.4081 200.335 49.1215 198.182 46.896C196.03 44.6704 194.842 41.6855 194.877 38.5895C194.912 35.4934 196.168 32.5363 198.37 30.3602C200.573 28.1841 203.545 26.9648 206.641 26.967Z" fill="#00315E"/>
<path d="M209.335 35.656C209.314 36.1604 209.442 36.6599 209.705 37.0912C209.968 37.5225 210.352 37.8662 210.81 38.079C211.268 38.2917 211.779 38.3639 212.277 38.2864C212.776 38.209 213.241 37.9853 213.613 37.6437C213.985 37.3021 214.247 36.8579 214.366 36.3673C214.486 35.8767 214.457 35.3617 214.284 34.8875C214.11 34.4132 213.8 34.001 213.393 33.703C212.985 33.4049 212.498 33.2344 211.994 33.213C211.659 33.1988 211.324 33.2507 211.01 33.3658C210.695 33.4808 210.405 33.6568 210.158 33.8837C209.912 34.1106 209.712 34.3838 209.57 34.6879C209.429 34.992 209.349 35.321 209.335 35.656Z" fill="white"/>
<path d="M31.135 144.481C32.235 145.399 28.654 157.162 28.654 157.162C28.654 157.162 38.272 164.885 37.696 166.394C37.12 167.903 24.869 167.954 24.869 167.954C24.869 167.954 20.384 179.454 18.882 179.406C17.38 179.358 13.433 167.689 13.433 167.689C13.433 167.689 1.072 166.803 0.692004 165.534C0.312004 164.265 10.152 156.734 10.152 156.734C10.152 156.734 7.187 144.796 8.265 143.951C9.343 143.106 19.559 150.228 19.559 150.228C19.559 150.228 30.036 143.561 31.135 144.481Z" fill="#E9CCFF"/>
<path d="M18.891 180.089C20.178 180.089 22.346 176.235 25.335 168.634C31.043 168.592 37.735 168.203 38.335 166.634C38.825 165.349 35.835 162.08 29.441 156.917C31.797 149.101 32.515 144.742 31.573 143.955C31.3562 143.784 31.0856 143.697 30.81 143.709C28.78 143.709 21.758 148.031 19.577 149.409C17.418 147.917 10.437 143.198 8.52899 143.198C8.28268 143.19 8.04092 143.266 7.84399 143.414C7.49599 143.687 6.44399 144.514 9.38299 156.465C-0.468009 164.043 -0.0870037 165.312 0.0389963 165.732C0.164996 166.152 0.545979 167.421 12.933 168.339C15.579 176.099 17.574 180.052 18.862 180.091L18.891 180.089ZM37.025 166.18C36.205 166.799 30.118 167.25 24.866 167.272H24.401L24.233 167.704C22.379 172.454 19.886 177.814 18.901 178.656C17.956 177.769 15.712 172.299 14.079 167.469L13.933 167.04L13.481 167.007C8.48101 166.648 2.71901 165.917 1.45001 165.307C2.17301 164.098 6.584 160.321 10.565 157.274L10.92 157.002L10.812 156.568C9.59901 151.686 8.512 145.961 8.721 144.586C10.253 144.907 15.637 148.325 19.167 150.786L19.539 151.046L19.923 150.802C23.29 148.661 29.044 145.302 30.658 145.087C30.843 146.427 29.471 152.126 27.999 156.964L27.865 157.405L28.225 157.695C32.286 160.954 36.722 165.057 37.025 166.18Z" fill="#00315E"/>
<path d="M2.86899 165.101L13.751 165.974L15.865 162.014L2.86899 165.101Z" fill="white"/>
<path d="M9.19501 145.82L12.002 156.369L16.441 157.042L9.19501 145.82Z" fill="white"/>
<path d="M29.412 146.087L20.038 151.687L20.609 156.141L29.412 146.087Z" fill="white"/>
<path d="M230.521 166.225C229.606 167.311 217.944 163.725 217.944 163.725C217.944 163.725 210.244 173.242 208.751 172.667C207.258 172.092 207.245 159.931 207.245 159.931C207.245 159.931 195.852 155.443 195.9 153.953C195.948 152.463 207.547 148.585 207.547 148.585C207.547 148.585 208.468 136.321 209.728 135.948C210.988 135.575 218.428 145.366 218.428 145.366C218.428 145.366 230.286 142.466 231.122 143.535C231.958 144.604 224.856 154.723 224.856 154.723C224.856 154.723 231.438 165.138 230.521 166.225Z" fill="#FFF361"/>
<path d="M208.9 173.37C210.735 173.37 215.8 167.438 218.186 164.508C220.033 165.063 227.024 167.108 229.655 167.108C229.905 167.136 230.158 167.111 230.397 167.034C230.636 166.957 230.856 166.83 231.042 166.661C231.342 166.301 232.256 165.218 225.677 154.735C232.789 144.553 231.977 143.505 231.663 143.107C231.389 142.756 230.897 142.607 230.017 142.607C227.217 142.607 220.496 144.163 218.703 144.59C215.913 140.941 211.317 135.247 209.803 135.247L209.532 135.286C209.114 135.409 207.851 135.786 206.899 148.074C199.188 150.674 195.258 152.643 195.216 153.922C195.174 155.201 198.991 157.379 206.562 160.386C206.584 166.052 206.948 172.696 208.504 173.295C208.63 173.344 208.764 173.37 208.9 173.37ZM217.7 162.934L217.41 163.293C214.2 167.262 210.169 171.593 209 171.981C208.337 170.943 207.927 165.034 207.924 159.927V159.463L207.492 159.292C202.792 157.441 197.492 154.953 196.647 153.972C197.54 153.036 202.969 150.831 207.761 149.228L208.191 149.085L208.225 148.633C208.599 143.656 209.348 137.919 209.961 136.689C211.073 137.343 214.848 141.779 217.886 145.775L218.156 146.131L218.591 146.024C218.674 146.004 226.991 143.975 230.015 143.975C230.172 143.973 230.33 143.981 230.486 143.998C230.186 145.361 227.155 150.257 224.297 154.327L224.036 154.698L224.279 155.083C226.949 159.313 229.744 164.392 229.918 165.737C229.852 165.743 229.766 165.748 229.652 165.748C226.877 165.748 218.23 163.097 218.143 163.07L217.7 162.934Z" fill="#00315E"/>
<path d="M210.152 138.104L209.252 148.904L213.176 151.016L210.152 138.104Z" fill="white"/>
<path d="M229.266 144.447L218.787 147.197L218.105 151.597L229.266 144.447Z" fill="white"/>
<path d="M228.934 164.509L223.412 155.188L218.99 155.741L228.934 164.509Z" fill="white"/>
<path d="M43.141 71.043C42.855 71.908 35.055 72.566 35.055 72.566C35.055 72.566 32.755 80.076 31.726 80.092C30.697 80.108 27.778 72.873 27.778 72.873C27.778 72.873 19.92 72.932 19.591 72.031C19.262 71.13 25.237 66.046 25.237 66.046C25.237 66.046 22.846 58.526 23.505 58.002C24.164 57.478 30.943 61.521 30.943 61.521C30.943 61.521 37.305 56.951 38.059 57.389C38.813 57.827 37.011 65.55 37.011 65.55C37.011 65.55 43.428 70.172 43.141 71.043Z" fill="#FFF361"/>
<path d="M31.72 80.773H31.738C32.184 80.766 33.222 80.75 35.571 73.205C43.371 72.514 43.663 71.635 43.789 71.256C43.929 70.826 44.217 69.946 37.778 65.262C39.566 57.474 38.811 57.035 38.402 56.798C38.2557 56.7154 38.09 56.6733 37.922 56.676C36.732 56.676 32.866 59.314 30.909 60.706C29.141 59.664 24.945 57.272 23.691 57.272C23.4716 57.265 23.2565 57.3339 23.082 57.467C22.729 57.747 22.082 58.267 24.452 65.821C18.472 70.957 18.807 71.871 18.952 72.265C19.127 72.744 19.419 73.544 27.32 73.555C30.266 80.759 31.318 80.773 31.72 80.773ZM42.294 70.795C39.896 71.3653 37.4539 71.7303 34.994 71.886L34.535 71.924L34.4 72.365C33.7398 74.7525 32.8333 77.0649 31.695 79.265C30.3736 77.1687 29.2721 74.9415 28.408 72.619L28.235 72.188H27.486C25.1132 72.2677 22.7385 72.1133 20.396 71.727C21.9936 69.8464 23.7614 68.1174 25.677 66.562L26.022 66.268L25.884 65.836C25.0989 63.5132 24.4935 61.1336 24.073 58.718C26.3294 59.6774 28.5085 60.809 30.591 62.103L30.975 62.332L31.338 62.071C33.3067 60.5986 35.3896 59.2855 37.567 58.144C37.358 60.5891 36.9486 63.0129 36.343 65.391L36.243 65.834L36.611 66.1C38.638 67.496 40.5395 69.0659 42.294 70.792V70.795Z" fill="#00315E"/>
<path d="M24.276 59.186L26.326 65.828L29.168 66.146L24.276 59.186Z" fill="white"/>
<path d="M37.168 58.379L31.59 62.527L32.239 65.311L37.168 58.379Z" fill="white"/>
<path d="M41.784 70.403L36.263 66.176L33.763 67.565L41.784 70.403Z" fill="white"/>
</g>
<defs>
<clipPath id="clip0_111_145">
<rect width="231.861" height="234.565" fill="white"/>
</clipPath>
</defs>
</svg>
