<svg width="183" height="171" viewBox="0 0 183 171" fill="none" xmlns="http://www.w3.org/2000/svg">
<g clip-path="url(#clip0_104_658)">
<path d="M125.971 101.129L126.364 101.675C132.101 101.071 132.878 106.259 127.226 110.343C123.716 112.826 119.954 114.987 115.992 116.796C113.861 117.784 111.679 118.686 109.512 119.465C106.265 117.452 105.985 112.304 106.588 109.071L106.433 108.473C113.44 106.914 120.327 104.571 125.971 101.129Z" fill="#C2F1FF"/>
<path d="M109.513 119.464C111.678 118.685 113.861 117.783 115.993 116.796L116.399 117.549C116.399 120.386 118.124 126.424 121.764 126.957C120.348 128.252 118.798 129.416 117.136 130.43C113.954 132.332 110.555 133.905 107.002 135.119C97.0374 138.67 82.4647 137.78 81.8894 135.3C81.8544 135.093 81.8194 134.878 81.7911 134.65C81.4786 131.821 81.3779 128.975 81.4898 126.132C81.6297 120.697 82.2266 114.809 83.0391 111.692L83.0316 111.23C83.7468 111.23 84.4469 111.204 85.1429 111.177C92.3144 110.881 99.4412 109.974 106.433 108.47L106.587 109.067C105.986 112.303 106.266 117.452 109.513 119.464Z" fill="#AE00BC"/>
<path d="M110.375 121.951C110.893 121.548 111.292 121.031 111.537 120.447C111.782 119.864 111.864 119.232 111.775 118.612C111.071 118.889 110.216 119.212 109.513 119.465C106.266 117.452 105.986 112.303 106.589 109.071L106.434 108.473C105.647 108.649 103.687 109.045 102.898 109.201C102.319 113.914 104.633 121.681 110.375 121.951Z" fill="#FFF683"/>
<path d="M116.399 117.549L115.993 116.796C114.934 117.286 113.866 117.753 112.789 118.198C113.521 122.36 115.069 126.801 118.33 129.657C119.548 128.841 120.696 127.939 121.764 126.959C118.124 126.424 116.399 120.386 116.399 117.549Z" fill="#9500A5"/>
<path d="M73.9295 110.771L73.8388 111.511C73.6763 115.919 73.0325 120.299 71.9173 124.587C71.2326 127.239 70.0735 129.766 68.4881 132.064C67.8296 132.989 67.0499 133.835 66.1669 134.582C65.5978 134.678 65.0201 134.721 64.4419 134.712C63.2448 134.706 62.0504 134.603 60.8728 134.404C57.8007 133.898 54.7437 132.754 54.8561 130.858C55.0734 129.559 57.0931 124.086 59.2952 118.918C61.006 114.893 62.8367 111.056 64.0073 109.515L64.1339 109.074C67.355 109.839 70.6274 110.406 73.9295 110.771Z" fill="#AE00BC"/>
<path d="M72.1129 110.543C71.904 114.461 71.2906 118.352 70.2813 122.162C69.5983 124.759 68.5451 127.26 67.1493 129.6C66.6141 130.703 65.6912 131.606 64.531 132.161C63.0982 132.864 55.6836 131.288 54.9951 130.089C54.9785 130.162 54.8669 130.803 54.8569 130.86C54.7445 132.756 57.8016 133.899 60.8737 134.405C62.0513 134.605 63.2456 134.708 64.4428 134.714C65.021 134.723 65.5988 134.679 66.1678 134.583C67.051 133.835 67.8306 132.99 68.4889 132.064C70.0744 129.767 71.2335 127.24 71.9181 124.588C73.0334 120.3 73.6771 115.919 73.8396 111.512L73.9304 110.772C73.3259 110.707 72.719 110.623 72.1129 110.543Z" fill="#FFF683"/>
<path d="M83.04 111.695C82.2266 114.811 81.6305 120.7 81.4898 126.135L80.9844 126.128C77.5901 126.368 74.4349 126.193 71.9315 124.595L71.9172 124.588C73.0325 120.301 73.6763 115.92 73.8388 111.513L73.9304 110.773C76.9501 111.113 79.9908 111.267 83.0325 111.235L83.04 111.695Z" fill="#C2F1FF"/>
<path d="M127.826 101.666C126.772 109.776 114.559 112.833 106.499 114.107C106.832 116.282 107.719 118.352 109.513 119.464C111.678 118.685 113.861 117.782 115.993 116.796C119.954 114.987 123.717 112.826 127.227 110.343C132.351 106.64 132.175 102.045 127.826 101.666Z" fill="#93E5F9"/>
<path d="M76.6078 111.066C75.6345 110.995 74.9153 110.88 73.9304 110.771L73.8388 111.511C73.6763 115.919 73.0325 120.299 71.9172 124.587L71.9315 124.594C73.1803 125.39 72.48 125.531 74.0027 125.745C74.3083 120.781 75.1815 115.86 76.6078 111.066Z" fill="#93E5F9"/>
<path d="M125.389 38.7554C145.264 55.7205 143.882 84.6383 132.324 96.2148C130.432 98.0874 128.298 99.7379 125.971 101.129C120.326 104.571 113.44 106.914 106.434 108.473C99.4421 109.977 92.3153 110.884 85.1438 111.181C84.4495 111.206 83.7485 111.232 83.0325 111.232C79.9907 111.265 76.95 111.11 73.9304 110.77C70.628 110.405 67.3553 109.839 64.1338 109.074C57.1882 107.499 50.5787 104.852 44.5825 101.244C42.1954 99.7789 39.975 98.0929 37.9555 96.2125C25.087 84.1172 23.7408 26.5014 82.8226 25.7807C83.2389 25.7676 83.6502 25.7676 84.0714 25.7676C89.8795 25.7372 95.673 26.3077 101.344 27.4686C105.26 28.279 109.075 29.4647 112.726 31.0066C117.365 32.9494 121.64 35.5652 125.389 38.7554Z" fill="#C2F1FF"/>
<path d="M125.389 38.7553C122.769 36.5219 119.882 34.5721 116.784 32.9436C117.306 33.3514 117.818 33.7653 118.312 34.1885C138.186 51.1536 136.804 80.0714 125.247 91.6479C123.354 93.5203 121.221 95.1708 118.894 96.5624C113.249 100.004 106.362 102.347 99.356 103.906C92.3638 105.411 85.237 106.317 78.0655 106.613C77.3712 106.64 76.6694 106.665 75.9542 106.665C72.9122 106.698 69.8712 106.543 66.8513 106.203C63.5489 105.838 60.2763 105.272 57.0548 104.507C51.2699 103.168 45.7066 101.112 40.5157 98.3953C41.8107 99.4172 43.168 100.369 44.5809 101.247C50.5772 104.855 57.1867 107.502 64.1322 109.077C67.3537 109.842 70.6263 110.408 73.9287 110.773C76.9483 111.113 79.989 111.268 83.0308 111.235C83.7459 111.235 84.4461 111.209 85.1421 111.184C92.3135 110.887 99.4403 109.981 106.433 108.476C113.438 106.918 120.324 104.575 125.971 101.133C128.297 99.7415 130.431 98.091 132.324 96.2186C143.878 84.6382 145.263 55.7204 125.389 38.7553Z" fill="#93E5F9"/>
<path d="M82.8152 25.4669C80.3883 21.7409 82.1841 19.4871 85.5926 18.4944C88.4559 17.7871 91.455 17.6893 94.365 18.2084C97.2331 18.6632 99.933 19.5712 101.56 20.9224C103.467 22.5063 103.891 24.6992 101.342 27.4741C95.6716 26.3133 89.8784 25.7426 84.0707 25.7729C83.6494 25.7729 83.2381 25.7729 82.8219 25.786L82.8152 25.4669Z" fill="#FFF683"/>
<path d="M101.561 20.9193C100.548 20.1342 99.3879 19.5276 98.1389 19.1295C100.027 21.3 99.5034 24.3901 97.895 26.8374C99.0697 27.027 100.226 27.2359 101.343 27.4725C103.898 24.6984 103.468 22.5056 101.561 20.9193Z" fill="#FCC149"/>
<path d="M149.485 17.1732C149.856 34.7472 135.109 40.0464 125.39 38.7553C121.64 35.5659 117.364 32.9508 112.724 31.0089L112.731 30.9965C107.745 24.4063 108.523 17.9593 101.908 20.913L101.557 20.9192C99.9305 19.5688 97.2281 18.66 94.3617 18.2053C91.4517 17.6861 88.4526 17.7838 85.5893 18.4912L85.4844 18.1536C81.6622 -1.72046 111.626 -5.61142 123.935 13.0957C130.971 23.7827 147.851 28.9123 149.485 17.1732Z" fill="#004A5B"/>
<path d="M137.838 31.9054C120.341 38.0524 120.577 24.0433 109.227 16.9813C106.992 15.4297 101.068 17.0337 99.3569 19.602C100.154 19.9432 100.896 20.3863 101.561 20.9185L101.911 20.9123C108.524 17.9586 107.746 24.4055 112.734 30.9958L112.727 31.0089C117.367 32.9507 121.643 35.5655 125.393 38.7546C135.079 40.0418 149.755 34.7812 149.487 17.349C148.456 23.9362 144.485 29.5699 137.838 31.9054Z" fill="black"/>
<path d="M59.9579 117.81C59.829 117.875 59.6875 117.916 59.5416 117.93L56.6236 118.409C56.6742 117.664 56.4812 116.922 56.0697 116.28C55.6582 115.638 55.0473 115.125 54.3166 114.809C57.2041 114.178 59.9393 113.054 62.3822 111.495L60.3426 117.22C60.2903 117.451 60.1547 117.659 59.9579 117.81Z" fill="#C2F1FF"/>
<path d="M131.783 95.6228C120.344 106.734 101.66 109.525 85.8424 110.37C69.7211 111.233 49.0342 106.81 37.9798 95.091C33.2843 90.114 32.0496 82.3521 31.6525 76.0147C31.0709 66.9789 33.0273 57.9577 37.3312 49.8301C49.7552 26.6755 82.2458 22.3599 106.66 29.64C128.432 36.1324 141.543 55.5332 139.712 76.4201C139.106 83.3272 136.751 90.551 131.641 95.767C130.913 96.5108 132.3 97.3957 133.02 96.6611C144.675 84.7555 143.388 64.5854 136.297 51.0302C124.94 29.3194 97.1798 22.6204 73.0554 25.6789C61.5889 27.1326 50.686 31.7235 42.8193 39.6881C36.333 46.2537 32.5075 54.6653 30.8117 63.3513C29.2386 71.1953 29.6014 79.2672 31.8731 86.963C34.5688 95.7392 41.1709 100.804 49.8385 104.979C63.2465 111.438 78.5252 112.833 93.3452 111.349C107.226 109.962 122.9 106.497 132.874 96.8091C133.612 96.0923 132.533 94.8937 131.783 95.6228Z" fill="#00315E"/>
<path d="M109.786 119.989C113.939 118.459 117.952 116.622 121.786 114.496C124.991 112.724 128.441 110.767 130.521 107.831C133.242 103.992 130.251 100.599 125.821 100.82C125.009 100.86 125.238 102.011 126.04 101.971C130.501 101.748 130.983 105.05 128.974 107.883C127.483 109.989 124.479 111.529 122.257 112.858C118.142 115.268 113.784 117.303 109.244 118.933C108.488 119.212 109.032 120.267 109.786 119.989Z" fill="#00315E"/>
<path d="M82.4106 111.636C81.0602 117.149 80.8446 122.98 80.8288 128.612C80.8213 132.179 79.9638 136.166 84.2872 137.331C89.9268 138.853 96.692 138.117 102.326 137.014C109.757 135.527 116.614 132.206 122.17 127.402C122.253 127.335 122.315 127.249 122.351 127.154C122.388 127.058 122.397 126.955 122.378 126.855C122.359 126.755 122.312 126.662 122.243 126.583C122.173 126.505 122.083 126.444 121.981 126.407C118.254 125.493 117.08 120.325 116.973 117.235C116.948 116.491 115.69 116.374 115.716 117.125C115.839 120.701 117.19 126.437 121.544 127.505L121.355 126.512C112.355 134.491 98.7649 138.125 86.4975 136.565C84.4444 136.304 82.5996 136.067 82.339 133.972C82.0749 131.347 82.0016 128.708 82.1192 126.074C82.114 121.263 82.6319 116.464 83.6652 111.748C83.845 111.014 82.5829 110.914 82.4081 111.638L82.4106 111.636Z" fill="#00315E"/>
<path d="M73.2094 111.457C72.8764 117.14 72.2162 122.854 69.975 128.196C68.9643 130.605 67.2651 134.142 64.1323 134.132C61.4253 134.202 58.7509 133.57 56.4113 132.308C53.9137 130.792 58.2429 123.085 59.0171 121.198C60.5665 117.405 62.0676 113.242 64.5253 109.854C64.979 109.228 63.9424 108.557 63.4912 109.183C60.3933 113.454 58.6093 118.771 56.7202 123.566C55.5297 126.587 52.406 131.273 56.1849 133.567C58.3711 134.894 61.4765 135.198 64.0107 135.296C66.8672 135.405 67.9345 133.94 69.4339 131.788C73.4667 126.007 74.0745 118.245 74.4641 111.567C74.5082 110.816 73.2511 110.705 73.2069 111.457H73.2094Z" fill="#00315E"/>
<path d="M105.961 109.012C105.329 112.747 105.603 117.506 109.162 119.957C109.816 120.408 110.539 119.449 109.886 119C106.716 116.819 106.662 112.409 107.217 109.125C107.343 108.378 106.085 108.277 105.96 109.015L105.961 109.012Z" fill="#00315E"/>
<path d="M83.3846 25.2134C80.1319 19.6591 86.7622 18.3879 91.3695 18.4928C96.4363 18.6092 105.871 21.1135 100.787 27.1835C100.288 27.7801 101.323 28.4483 101.821 27.854C112.111 15.5669 74.618 12.6934 82.2441 25.7152C82.6304 26.3742 83.7734 25.8778 83.3846 25.2134Z" fill="#00315E"/>
<path d="M113.291 30.5541C110.997 27.7176 110.267 24.0872 108.039 21.2561C106.355 19.1179 104.007 19.222 101.582 20.2703C101.406 20.3564 101.273 20.502 101.211 20.6769C101.148 20.8517 101.161 21.0421 101.246 21.2085C101.332 21.3748 101.483 21.5042 101.669 21.5697C101.855 21.6351 102.061 21.6316 102.244 21.5598C105.265 20.3265 106.602 21.2915 107.924 23.8652C109.163 26.4048 110.547 28.8812 112.071 31.2841C112.119 31.3669 112.184 31.4397 112.263 31.4979C112.342 31.556 112.434 31.5984 112.532 31.6221C112.63 31.6457 112.732 31.6503 112.832 31.6355C112.932 31.6207 113.027 31.5868 113.112 31.536C113.197 31.4851 113.27 31.4186 113.325 31.3404C113.381 31.2621 113.418 31.174 113.435 31.0817C113.452 30.9894 113.448 30.8948 113.424 30.8039C113.399 30.7131 113.353 30.628 113.291 30.5541Z" fill="#00315E"/>
<path d="M86.2087 18.0373C84.7426 10.277 89.3173 3.87247 97.5062 1.89539C105.56 -0.0485404 114.209 2.99375 119.707 8.53651C122.753 11.6058 124.246 15.5869 127.386 18.6184C130.074 21.1785 133.417 23.0675 137.105 24.1096C143.388 25.9032 149.145 23.4367 150.226 17.2403L148.747 17.1108C148.771 23.8992 146.631 30.3129 140.642 34.5577C136.208 37.5174 130.702 38.7615 125.293 38.0262C124.304 37.9029 124.167 39.3212 125.147 39.4476C130.966 40.1789 136.866 38.8157 141.632 35.6391C147.993 31.4352 150.264 24.1635 150.225 17.241C150.242 17.0604 150.181 16.881 150.055 16.7419C149.93 16.6027 149.75 16.5151 149.555 16.498C149.36 16.4809 149.166 16.5358 149.014 16.6507C148.863 16.7656 148.767 16.9312 148.746 17.1116C146.811 28.3651 132.38 21.801 127.359 16.5912C124.397 13.5173 122.919 9.60793 119.754 6.62035C117.059 4.14451 113.782 2.27871 110.18 1.16854C104.072 -0.793119 96.9043 -0.32606 91.4071 2.90047C85.6626 6.27422 83.8309 12.2949 84.7625 18.274C84.7996 18.4481 84.909 18.6018 85.0671 18.7022C85.2252 18.8025 85.4196 18.8415 85.6084 18.8107C85.7972 18.78 85.9655 18.6819 86.0771 18.5376C86.1887 18.3933 86.2347 18.2142 86.2053 18.0388L86.2087 18.0373Z" fill="#00315E"/>
<path d="M60.141 64.3078C60.0539 65.763 59.5028 67.1616 58.5572 68.3268C57.6116 69.492 56.3142 70.3713 54.8288 70.8537C53.3434 71.3361 51.7368 71.3999 50.2122 71.037C48.6876 70.6741 47.3136 69.9008 46.2637 68.8149C45.2139 67.7289 44.5354 66.3792 44.3141 64.9362C44.0928 63.4933 44.3387 62.022 45.0205 60.7085C45.7024 59.3949 46.7897 58.2981 48.1449 57.5566C49.5001 56.8151 51.0623 56.4623 52.634 56.5429C53.6777 56.5962 54.6998 56.8393 55.642 57.2584C56.5842 57.6775 57.4279 58.2644 58.1251 58.9855C58.8222 59.7066 59.3591 60.5478 59.705 61.461C60.0509 62.3742 60.199 63.3416 60.141 64.3078Z" fill="black"/>
<path d="M52.2919 62.31C52.2615 62.8185 52.0688 63.3073 51.7383 63.7145C51.4078 64.1216 50.9542 64.4289 50.4351 64.5974C49.916 64.766 49.3545 64.7882 48.8218 64.6613C48.289 64.5344 47.8088 64.2641 47.4419 63.8846C47.0751 63.505 46.838 63.0334 46.7607 62.5291C46.6834 62.0248 46.7695 61.5106 47.0078 61.0516C47.2461 60.5926 47.6261 60.2093 48.0997 59.9502C48.5733 59.6911 49.1193 59.5678 49.6686 59.596C50.0334 59.6146 50.3906 59.6996 50.7199 59.8461C51.0491 59.9926 51.344 60.1977 51.5877 60.4497C51.8313 60.7017 52.0189 60.9958 52.1397 61.315C52.2605 61.6341 52.3123 61.9723 52.2919 62.31Z" fill="white"/>
<path d="M56.8774 67.0272C56.861 67.3038 56.7564 67.5698 56.5767 67.7913C56.397 68.0129 56.1503 68.18 55.8679 68.2718C55.5856 68.3635 55.2802 68.3757 54.9904 68.3068C54.7005 68.2378 54.4394 68.0907 54.2398 67.8843C54.0403 67.6778 53.9113 67.4213 53.8693 67.147C53.8273 66.8727 53.8741 66.5929 54.0038 66.3433C54.1334 66.0936 54.3402 65.8852 54.5979 65.7443C54.8555 65.6034 55.1526 65.5365 55.4513 65.552C55.6497 65.562 55.8439 65.6081 56.0229 65.6877C56.2019 65.7673 56.3623 65.8788 56.4948 66.0158C56.6272 66.1529 56.7292 66.3127 56.7949 66.4863C56.8605 66.6598 56.8885 66.8436 56.8774 67.0272Z" fill="white"/>
<path d="M125.246 67.653C125.159 69.1082 124.608 70.5069 123.662 71.6721C122.717 72.8373 121.419 73.7166 119.934 74.199C118.448 74.6814 116.842 74.7451 115.317 74.382C113.792 74.019 112.418 73.2455 111.368 72.1594C110.319 71.0733 109.64 69.7234 109.419 68.2804C109.198 66.8374 109.444 65.3661 110.126 64.0525C110.808 62.739 111.896 61.6422 113.251 60.901C114.607 60.1597 116.169 59.8072 117.741 59.8881C118.785 59.9416 119.806 60.1848 120.748 60.604C121.69 61.0232 122.534 61.6102 123.231 62.3313C123.928 63.0523 124.465 63.8934 124.81 64.8065C125.156 65.7196 125.304 66.6869 125.246 67.653Z" fill="black"/>
<path d="M117.397 65.656C117.366 66.1644 117.174 66.6531 116.843 67.0602C116.513 67.4672 116.059 67.7744 115.54 67.9428C115.021 68.1113 114.459 68.1334 113.927 68.0064C113.394 67.8795 112.914 67.6092 112.547 67.2296C112.18 66.8501 111.943 66.3783 111.866 65.8741C111.789 65.3698 111.875 64.8557 112.113 64.3967C112.351 63.9377 112.731 63.5545 113.205 63.2954C113.679 63.0363 114.225 62.9131 114.774 62.9412C115.139 62.96 115.496 63.0451 115.825 63.1916C116.154 63.3382 116.449 63.5434 116.693 63.7955C116.937 64.0476 117.124 64.3416 117.245 64.6608C117.366 64.9801 117.417 65.3182 117.397 65.656Z" fill="white"/>
<path d="M121.983 70.3724C121.966 70.649 121.862 70.9149 121.682 71.1364C121.502 71.3579 121.256 71.5252 120.974 71.6169C120.691 71.7087 120.386 71.7209 120.096 71.652C119.806 71.5831 119.545 71.4362 119.345 71.2299C119.146 71.0235 119.017 70.7669 118.975 70.4927C118.933 70.2184 118.979 69.9388 119.109 69.6891C119.238 69.4394 119.445 69.2308 119.703 69.0899C119.96 68.9489 120.257 68.8819 120.556 68.8972C120.754 68.9072 120.948 68.9533 121.128 69.0329C121.307 69.1125 121.467 69.224 121.6 69.361C121.732 69.498 121.834 69.6578 121.9 69.8314C121.966 70.0049 121.994 70.1888 121.983 70.3724Z" fill="white"/>
<path d="M47.5956 74.3282C47.5248 75.5113 45.3585 76.3615 42.7577 76.2274C40.1569 76.0933 38.1063 75.0273 38.1787 73.8449C38.2512 72.6625 40.4158 71.8115 43.0158 71.9448C45.6158 72.0782 47.6664 73.1458 47.5956 74.3282Z" fill="#AE00BC"/>
<path d="M130.042 78.5651C129.971 79.7475 127.805 80.5984 125.205 80.4643C122.605 80.3302 120.552 79.2635 120.626 78.0819C120.7 76.9002 122.863 76.0478 125.464 76.1819C128.066 76.316 130.112 77.3827 130.042 78.5651Z" fill="#AE00BC"/>
<path d="M90.7751 69.4752C89.135 74.4545 79.2311 73.935 78.1396 68.8648C77.9806 68.1263 76.7243 68.3313 76.8958 69.0674C78.3169 75.1567 89.7478 75.8003 91.9523 69.8783C92.2171 69.1669 91.0107 68.7615 90.7751 69.4752Z" fill="#00315E"/>
<path d="M64.9923 128.363C64.9923 128.725 64.8762 129.079 64.6588 129.38C64.4415 129.682 64.1326 129.916 63.7711 130.055C63.4097 130.194 63.0119 130.23 62.6282 130.159C62.2445 130.088 61.892 129.914 61.6154 129.658C61.3387 129.402 61.1503 129.075 61.074 128.72C60.9977 128.365 61.0369 127.997 61.1866 127.662C61.3363 127.327 61.5899 127.041 61.9152 126.84C62.2405 126.639 62.6229 126.531 63.0141 126.531C63.5387 126.531 64.0419 126.725 64.4129 127.068C64.7839 127.411 64.9923 127.877 64.9923 128.363Z" fill="#FFF683"/>
<path d="M66.4975 34.5885C66.4975 35.2659 66.2804 35.9282 65.8739 36.4915C65.4673 37.0548 64.8895 37.4938 64.2135 37.7531C63.5374 38.0124 62.7935 38.0802 62.0758 37.9481C61.3581 37.8159 60.6989 37.4896 60.1815 37.0105C59.664 36.5315 59.3117 35.9212 59.1689 35.2567C59.0262 34.5922 59.0994 33.9035 59.3794 33.2776C59.6594 32.6517 60.1337 32.1167 60.7422 31.7403C61.3506 31.3639 62.0658 31.1631 62.7976 31.1631C63.7788 31.1631 64.7199 31.524 65.4138 32.1664C66.1076 32.8088 66.4975 33.68 66.4975 34.5885Z" fill="white"/>
<path d="M57.5078 37.5221C57.5078 37.9679 57.365 38.4036 57.0975 38.7743C56.83 39.1449 56.4498 39.4337 56.005 39.6043C55.5602 39.7749 55.0708 39.8195 54.5985 39.7326C54.1263 39.6456 53.6925 39.431 53.3521 39.1158C53.0116 38.8006 52.7798 38.399 52.6859 37.9618C52.592 37.5246 52.6402 37.0714 52.8244 36.6596C53.0087 36.2477 53.3207 35.8957 53.721 35.6481C54.1213 35.4004 54.592 35.2683 55.0735 35.2683C55.7191 35.2683 56.3382 35.5057 56.7947 35.9284C57.2513 36.3511 57.5078 36.9244 57.5078 37.5221Z" fill="white"/>
<path d="M51.0022 40.5297C51.0022 40.8149 50.9109 41.0937 50.7397 41.3309C50.5686 41.5681 50.3253 41.753 50.0406 41.8621C49.756 41.9713 49.4429 41.9998 49.1407 41.9442C48.8386 41.8885 48.561 41.7512 48.3431 41.5495C48.1253 41.3478 47.9769 41.0908 47.9168 40.811C47.8567 40.5313 47.8875 40.2414 48.0054 39.9779C48.1233 39.7144 48.323 39.4891 48.5791 39.3306C48.8353 39.1722 49.1365 39.0876 49.4446 39.0876C49.8577 39.0876 50.2539 39.2395 50.546 39.51C50.8381 39.7804 51.0022 40.1472 51.0022 40.5297Z" fill="white"/>
<path d="M87.156 22.5829C87.8073 21.98 87.8073 21.0024 87.156 20.3995C86.5048 19.7966 85.449 19.7966 84.7977 20.3995C84.1465 21.0024 84.1465 21.98 84.7977 22.5829C85.449 23.1858 86.5048 23.1858 87.156 22.5829Z" fill="white"/>
<path d="M99.0263 3.75766C99.0264 4.03941 98.9364 4.3148 98.7674 4.54915C98.5985 4.78349 98.3583 4.96624 98.0772 5.07417C97.796 5.1821 97.4866 5.21044 97.1881 5.15556C96.8896 5.10069 96.6154 4.96502 96.4002 4.76584C96.1849 4.56666 96.0383 4.31287 95.9788 4.03654C95.9194 3.76021 95.9498 3.47376 96.0662 3.21343C96.1827 2.95311 96.3799 2.73064 96.6329 2.57409C96.886 2.41754 97.1835 2.33397 97.4878 2.33397C97.8957 2.33397 98.2869 2.48392 98.5754 2.75089C98.864 3.01785 99.026 3.38001 99.0263 3.75766Z" fill="white"/>
<path d="M95.359 4.66173C95.359 4.83506 95.3035 5.00453 95.1995 5.14865C95.0955 5.29277 94.9477 5.40505 94.7747 5.47138C94.6017 5.53771 94.4114 5.55506 94.2278 5.52125C94.0442 5.48743 93.8755 5.40398 93.7432 5.28141C93.6108 5.15885 93.5205 5.0027 93.484 4.83269C93.4475 4.66269 93.4662 4.48653 93.5379 4.32639C93.6095 4.16625 93.7309 4.02939 93.8866 3.93309C94.0422 3.83679 94.2253 3.78537 94.4125 3.78537C94.6635 3.78537 94.9043 3.87769 95.0818 4.04205C95.2593 4.2064 95.359 4.4293 95.359 4.66173Z" fill="white"/>
<path d="M93.0162 5.91124C93.0164 6.03052 92.9784 6.14715 92.9069 6.24639C92.8354 6.34563 92.7337 6.42301 92.6147 6.46873C92.4957 6.51445 92.3647 6.5264 92.2384 6.50317C92.112 6.47993 91.9959 6.42257 91.9048 6.33823C91.8137 6.25388 91.7517 6.14642 91.7266 6.02942C91.7015 5.91243 91.7145 5.79108 91.7639 5.68091C91.8132 5.57074 91.8968 5.47667 92.004 5.41049C92.1112 5.34432 92.2372 5.3091 92.366 5.30925C92.5384 5.30945 92.7037 5.37291 92.8256 5.48576C92.9475 5.59861 93.016 5.75165 93.0162 5.91124Z" fill="white"/>
<path d="M53.5174 115.165C56.8176 115.065 60.9012 113.176 63.2864 111.069C63.6769 110.723 63.1357 110.126 62.7419 110.474C60.5606 112.401 56.6161 114.298 53.5965 114.39C53.0611 114.406 52.9771 115.182 53.5132 115.166L53.5174 115.165Z" fill="#00315E"/>
<path d="M90.8334 145.522C91.0648 148.847 92.5509 148.964 96.2607 150.028C90.6994 151.97 76.3797 152.308 71.7442 149.755C74.1852 149.301 78.133 147.119 77.7259 144.652L77.8033 144.354C79.0049 144.646 80.2299 144.847 81.4665 144.957C84.5723 145.244 87.6972 145.314 90.8143 145.165L90.8334 145.522Z" fill="#FFF683"/>
<path d="M66.4583 122.72L66.5008 122.733C66.1091 123.676 65.7995 124.646 65.575 125.635L65.3644 125.597C62.8959 121.545 59.1295 122.359 58.1696 123.447C56.0308 126.121 57.6368 130.076 59.6632 132.251C60.6239 133.334 65.6574 136.23 66.0737 137.295C66.1361 137.449 66.1853 137.603 66.2352 137.757C67.3084 141.335 63.6685 142.431 61.4806 141.543C63.0624 140.342 63.676 139.384 62.4904 137.731C61.1159 135.816 56.7401 135.868 54.1526 132.252C52.505 129.939 51.4452 126.914 52.0837 124.24C54.5572 113.826 64.6767 118.615 66.4583 122.72Z" fill="#FFF683"/>
<path d="M131.115 123.006L131.172 123.135C120.515 139.198 104.733 144.495 90.8135 145.165C87.6963 145.313 84.5715 145.244 81.4657 144.956C80.2291 144.847 79.004 144.645 77.8025 144.353C75.6656 143.887 73.6502 143.032 71.8732 141.838C70.0963 140.645 68.5933 139.136 67.4516 137.4C65.2514 133.836 64.5806 129.636 65.5725 125.635C65.7968 124.646 66.1065 123.676 66.4983 122.733C66.6598 122.337 66.8313 121.941 67.0312 121.545C67.3642 121.661 67.7321 121.785 68.1392 121.908C74.2475 123.771 88.0761 125.881 99.3253 121.934C99.6755 121.81 100.026 121.682 100.377 121.548C105.005 128.69 120.125 127.586 124.402 123.119L124.451 123.021C126.604 123.751 128.966 123.745 131.115 123.006Z" fill="#FFF683"/>
<path d="M99.2412 121.727L99.3244 121.935C88.076 125.882 74.2467 123.771 68.1392 121.908L68.16 121.844C70.8949 117.169 75.9093 114.89 81.1684 114.423C83.0276 114.263 84.901 114.315 86.7465 114.577C92.2987 115.364 97.3063 117.994 99.2412 121.727Z" fill="#FFF683"/>
<path d="M84.2488 102.346C87.1452 105.541 88.7371 110.902 86.8081 114.202L86.7448 114.578C84.8993 114.316 83.026 114.264 81.1668 114.424L81.1243 113.995C79.5009 110.559 81.6679 105.463 84.2488 102.346Z" fill="#FFF683"/>
<path d="M90.8342 145.522L90.8134 145.165C89.1874 145.242 87.5865 145.26 86.0213 145.222C86.0657 147.491 86.9804 149.672 88.6021 151.375C91.2061 151.225 93.7794 150.773 96.2616 150.028C92.5518 148.964 91.0648 148.847 90.8342 145.522Z" fill="#FCC149"/>
<path d="M66.2336 137.757C66.1845 137.608 66.1354 137.449 66.0729 137.295C65.6567 136.23 60.6239 133.335 59.6623 132.25C57.6351 130.074 56.0292 126.121 58.1688 123.446C59.1296 122.362 62.8951 121.544 65.3636 125.595L65.5742 125.634C65.6886 125.137 65.8246 124.641 65.9822 124.145L65.7932 124.33C61.1975 119.649 57.6518 121.048 56.527 122.655C54.573 125.449 55.9942 129.284 58.0206 131.46C58.9814 132.545 64.0149 135.44 64.4311 136.504C64.4944 136.658 65.0888 136.765 65.138 136.913C65.8872 139.417 64.064 140.728 62.1516 140.985C61.9526 141.167 61.7295 141.351 61.4789 141.54C63.6668 142.431 67.3059 141.337 66.2336 137.757Z" fill="#FCC149"/>
<path d="M131.115 123.007C130.132 123.349 129.093 123.533 128.044 123.55C117.51 137.007 103.008 141.608 90.1082 142.228C86.9908 142.376 83.8657 142.307 80.7596 142.02C79.523 141.91 78.2981 141.708 77.0965 141.416C74.9598 140.95 72.9444 140.095 71.1675 138.901C69.3905 137.708 67.8875 136.199 66.7456 134.463C66.1447 133.518 65.6591 132.515 65.2978 131.471C65.6764 134.555 67.0841 137.454 69.325 139.763C71.566 142.072 74.5287 143.676 77.8008 144.354C79.0023 144.646 80.2274 144.848 81.464 144.957C84.5698 145.244 87.6946 145.314 90.8118 145.165C104.732 144.496 120.517 139.199 131.17 123.136L131.115 123.007Z" fill="#FCC149"/>
<path d="M96.6861 122.706L96.697 122.734C97.5853 122.503 98.4628 122.237 99.3253 121.935L99.242 121.727C97.3064 117.993 92.2995 115.364 86.7456 114.578C86.4384 114.534 86.1279 114.505 85.8182 114.473C88.1266 115.114 90.2753 116.172 92.1405 117.585C94.0057 118.997 95.5505 120.738 96.6861 122.706Z" fill="#FCC149"/>
<path d="M84.2489 102.346C84.144 102.473 84.0407 102.608 83.9375 102.741C85.7208 106.334 86.102 111.661 84.5202 114.365V114.373C85.2695 114.411 86.0146 114.473 86.7497 114.578L86.813 114.202C88.737 110.904 87.1453 105.541 84.2489 102.346Z" fill="#FCC149"/>
<path d="M78.0189 117.542C78.0189 117.738 77.9562 117.929 77.8387 118.092C77.7211 118.255 77.554 118.382 77.3586 118.457C77.1631 118.532 76.948 118.551 76.7405 118.513C76.5329 118.475 76.3423 118.381 76.1927 118.242C76.0431 118.104 75.9412 117.927 75.8999 117.735C75.8586 117.543 75.8798 117.344 75.9608 117.163C76.0417 116.982 76.1788 116.827 76.3548 116.718C76.5307 116.609 76.7376 116.551 76.9492 116.551C77.2329 116.551 77.505 116.656 77.7056 116.841C77.9062 117.027 78.0189 117.279 78.0189 117.542Z" fill="white"/>
<path d="M75.3141 118.501C75.3143 118.634 75.272 118.764 75.1926 118.874C75.1132 118.984 75.0002 119.07 74.8681 119.121C74.7359 119.172 74.5904 119.185 74.45 119.159C74.3096 119.134 74.1806 119.07 74.0793 118.976C73.9781 118.883 73.909 118.763 73.8811 118.633C73.8531 118.503 73.8674 118.368 73.9221 118.246C73.9768 118.124 74.0696 118.019 74.1886 117.945C74.3076 117.872 74.4475 117.832 74.5906 117.832C74.7824 117.832 74.9663 117.903 75.1019 118.028C75.2376 118.154 75.3139 118.324 75.3141 118.501Z" fill="white"/>
<path d="M83.5552 109.241C83.5552 109.397 83.5055 109.549 83.4122 109.678C83.319 109.807 83.1864 109.908 83.0312 109.967C82.8761 110.027 82.7054 110.043 82.5407 110.012C82.376 109.982 82.2247 109.907 82.1059 109.797C81.9871 109.687 81.9062 109.547 81.8733 109.395C81.8404 109.242 81.8571 109.084 81.9213 108.941C81.9854 108.797 82.0941 108.674 82.2337 108.588C82.3732 108.501 82.5373 108.455 82.7052 108.455C82.9305 108.455 83.1467 108.538 83.306 108.685C83.4654 108.833 83.555 109.033 83.5552 109.241Z" fill="white"/>
<path d="M73.5524 119.521C73.5524 119.612 73.5231 119.701 73.4682 119.777C73.4133 119.853 73.3352 119.913 73.244 119.948C73.1527 119.983 73.0522 119.992 72.9553 119.974C72.8584 119.956 72.7695 119.912 72.6997 119.847C72.6298 119.783 72.5822 119.7 72.563 119.611C72.5437 119.521 72.5535 119.428 72.5913 119.344C72.6291 119.26 72.6932 119.187 72.7754 119.137C72.8575 119.086 72.954 119.059 73.0528 119.059C73.1853 119.059 73.3124 119.107 73.4061 119.194C73.4997 119.281 73.5524 119.398 73.5524 119.521Z" fill="white"/>
<path d="M69.8651 123.864C70.0139 124.056 70.0978 124.285 70.1062 124.521C70.1146 124.757 70.0471 124.991 69.9123 125.191C69.7775 125.392 69.5814 125.552 69.3488 125.649C69.1161 125.747 68.8574 125.778 68.6054 125.74C68.3535 125.701 68.1195 125.595 67.9331 125.433C67.7467 125.271 67.6162 125.062 67.5582 124.832C67.5002 124.602 67.5172 124.361 67.6072 124.139C67.6971 123.918 67.8559 123.726 68.0635 123.589C68.3418 123.404 68.688 123.329 69.0259 123.381C69.3637 123.432 69.6656 123.606 69.8651 123.864Z" fill="white"/>
<path d="M68.2542 126.508C68.3549 126.638 68.4118 126.793 68.4176 126.953C68.4234 127.113 68.3777 127.271 68.2866 127.407C68.1954 127.542 68.0628 127.65 67.9055 127.716C67.7481 127.782 67.5732 127.804 67.4027 127.778C67.2322 127.752 67.074 127.68 66.9478 127.57C66.8217 127.461 66.7334 127.319 66.6942 127.164C66.6549 127.008 66.6664 126.845 66.7273 126.695C66.7882 126.545 66.8957 126.416 67.0361 126.323C67.2243 126.198 67.4583 126.147 67.6867 126.182C67.915 126.217 68.1192 126.334 68.2542 126.508Z" fill="white"/>
<path d="M67.9936 128.889C68.0634 128.98 68.1027 129.087 68.1066 129.198C68.1104 129.309 68.0786 129.419 68.0152 129.513C67.9518 129.607 67.8597 129.682 67.7504 129.728C67.6411 129.774 67.5196 129.789 67.4012 129.771C67.2828 129.753 67.1728 129.703 67.0852 129.627C66.9976 129.551 66.9363 129.452 66.909 129.344C66.8817 129.236 66.8895 129.123 66.9317 129.019C66.9739 128.915 67.0485 128.825 67.146 128.76C67.2769 128.673 67.4398 128.638 67.5987 128.662C67.7576 128.686 67.8997 128.768 67.9936 128.889Z" fill="white"/>
<path d="M58.212 119.596C58.2674 119.75 58.2721 119.916 58.2256 120.073C58.179 120.23 58.0833 120.371 57.9505 120.477C57.8176 120.584 57.6537 120.651 57.4793 120.671C57.305 120.691 57.1282 120.663 56.9711 120.591C56.814 120.518 56.6838 120.403 56.5969 120.262C56.51 120.121 56.4705 119.958 56.4831 119.796C56.4957 119.634 56.56 119.479 56.6678 119.35C56.7757 119.222 56.9221 119.126 57.0889 119.075C57.3124 119.006 57.5563 119.023 57.7668 119.12C57.9774 119.218 58.1375 119.389 58.212 119.596Z" fill="white"/>
<path d="M56.1616 120.66C56.1992 120.764 56.2025 120.877 56.171 120.983C56.1396 121.089 56.0748 121.184 55.9849 121.256C55.8951 121.328 55.7841 121.374 55.6661 121.388C55.5481 121.401 55.4284 121.382 55.322 121.333C55.2157 121.284 55.1276 121.206 55.0688 121.111C55.01 121.015 54.9832 120.905 54.9918 120.795C55.0004 120.685 55.044 120.581 55.117 120.494C55.1901 120.407 55.2894 120.342 55.4023 120.307C55.4771 120.284 55.5562 120.275 55.6348 120.28C55.7135 120.285 55.7902 120.305 55.8608 120.338C55.9313 120.371 55.9941 120.416 56.0457 120.471C56.0973 120.526 56.1367 120.59 56.1616 120.66Z" fill="white"/>
<path d="M54.872 122.126C54.8974 122.199 54.8991 122.276 54.8769 122.349C54.8548 122.422 54.8098 122.488 54.7475 122.537C54.6852 122.587 54.6085 122.618 54.5269 122.628C54.4454 122.637 54.3626 122.624 54.2892 122.589C54.2158 122.555 54.155 122.502 54.1143 122.436C54.0737 122.37 54.0551 122.294 54.0609 122.218C54.0666 122.143 54.0966 122.07 54.1469 122.01C54.1971 121.95 54.2654 121.905 54.3433 121.881C54.3954 121.864 54.4505 121.858 54.5054 121.861C54.5603 121.865 54.6139 121.879 54.663 121.901C54.7122 121.924 54.7559 121.956 54.7918 121.994C54.8276 122.033 54.8549 122.078 54.872 122.126Z" fill="white"/>
<path d="M124.376 122.488C125.94 118.256 130.536 113.393 135.355 113.05C138.455 112.823 141.46 113.869 143.014 116.356C144.708 119.17 145.708 122.297 145.942 125.511C146.465 135.527 142.975 145.369 136.142 153.149C124.199 167.017 109.879 170.939 92.5717 170.069C72.3544 169.05 57.3678 154.824 57.3678 134.97C59.465 136.087 61.5972 136.502 62.4871 137.736C63.6727 139.379 63.0624 140.346 61.4773 141.547C63.6652 142.437 68.9701 140.845 64.5977 135.045L65.5776 134.716C67.7421 138.582 72.9779 143.17 77.8033 144.358L77.7259 144.657C78.1255 147.118 74.1843 149.3 71.7441 149.754C76.3797 152.305 90.6994 151.975 96.2607 150.027C92.5509 148.962 91.0648 148.845 90.8325 145.528L90.8117 145.164C100.145 144.716 110.314 142.191 119.213 135.724C123.358 136.665 131.598 135.184 136.17 127.972C138.002 125.082 137.988 119.262 132.126 122.419L131.079 123.273C127.294 123.846 126.304 123.566 125.021 123.228L124.376 122.488Z" fill="#C2F1FF"/>
<path d="M140.477 128.697C141.88 125.452 141.88 122.205 139.075 119.607C135.402 117.341 130.127 119.53 128.379 123.575C129.09 123.534 129.961 123.441 131.081 123.271L132.127 122.416C137.99 119.256 138.002 125.081 136.172 127.97C131.599 135.183 123.36 136.664 119.215 135.722C118.507 136.237 117.788 136.717 117.065 137.187C126.06 139.515 135.217 136.815 140.477 128.697Z" fill="#93E5F9"/>
<path d="M137.288 147.525C125.345 161.393 111.026 165.315 93.7181 164.444C75.7536 163.539 61.9294 152.202 59.0696 135.758C58.5184 135.527 57.9457 135.276 57.3737 134.972C57.3737 154.826 72.3593 169.051 92.5775 170.07C109.885 170.941 124.205 167.019 136.148 153.151C141.392 147.195 144.685 139.973 145.638 132.34C144.041 137.889 141.196 143.064 137.288 147.525Z" fill="#93E5F9"/>
<path d="M123.995 122.67C118.452 127.983 105.28 127.4 100.86 121.169C100.771 121.071 100.649 121.003 100.513 120.976C100.378 120.949 100.237 120.964 100.111 121.018C90.0591 124.756 77.3979 124.487 67.2526 120.998C67.0954 120.947 66.9229 120.954 66.7716 121.019C66.6202 121.083 66.5019 121.199 66.4417 121.343C63.6577 127.304 63.8425 134.01 68.1135 139.321C72.923 145.302 81.5606 145.916 88.9485 145.81C97.535 145.751 105.964 143.669 113.441 139.76C120.918 135.851 127.198 130.245 131.688 123.468C132.119 122.832 131.087 122.158 130.654 122.798C122.608 134.663 110.282 142.26 95.2824 144.202C89.1216 145 81.991 145.156 76.0592 143.225C69.1774 140.986 65.4943 134.756 65.819 128.233C65.9256 126.773 66.2236 125.331 66.7064 123.938C67.2892 122.123 67.2118 122.269 69.0142 122.772C71.7026 123.484 74.4474 123.999 77.2231 124.313C84.3793 125.29 91.6807 124.773 98.5935 122.801C100.463 122.242 100.445 122.825 101.739 123.957C102.532 124.637 103.435 125.198 104.416 125.619C106.823 126.629 109.423 127.186 112.065 127.258C116.371 127.45 121.696 126.547 124.811 123.558C125.37 123.018 124.561 122.123 123.994 122.667L123.995 122.67Z" fill="#00315E"/>
<path d="M68.677 122.182C74.4215 112.976 93.0055 111.899 98.6751 121.975C99.0497 122.641 100.193 122.143 99.8156 121.473C93.7381 110.675 73.8945 111.489 67.643 121.511C67.2392 122.159 68.269 122.836 68.677 122.182Z" fill="#00315E"/>
<path d="M81.5714 113.8C80.0395 109.986 82.2374 105.68 84.6659 102.62L83.8583 102.655C86.5416 105.792 88.1609 110.202 86.3634 114.048C86.1137 114.58 86.9795 114.839 87.2526 114.356C89.4763 110.387 87.4191 105.301 84.6376 102.047C84.5866 101.992 84.5229 101.949 84.4514 101.921C84.3799 101.893 84.3025 101.88 84.2248 101.883C84.1471 101.886 84.0712 101.906 84.0028 101.94C83.9345 101.975 83.8754 102.023 83.83 102.081C81.1593 105.444 79.0013 110.047 80.6906 114.192C80.912 114.737 81.7887 114.346 81.5714 113.807V113.8Z" fill="#00315E"/>
<path d="M66.9338 122.51C64.8333 118.252 58.2454 115.727 54.1959 119.144C51.2903 121.598 50.7093 126.395 52.1304 129.614C52.8978 131.555 54.1845 133.283 55.8701 134.638C57.5119 135.921 65.3185 137.721 61.14 141.174C61.0715 141.23 61.0196 141.301 60.9894 141.381C60.9592 141.461 60.9517 141.546 60.9676 141.629C60.9835 141.712 61.0223 141.79 61.0802 141.856C61.1381 141.921 61.2132 141.971 61.2983 142.002C64.8582 143.137 68.5313 140.24 66.3767 136.809C65.2337 134.991 62.3947 133.758 60.6705 132.469C59.6876 131.643 58.9133 130.627 58.4025 129.492C57.8917 128.358 57.657 127.133 57.7151 125.906C57.8658 120.855 63.3988 123.655 64.8957 125.804C65.257 126.323 66.2136 125.913 65.8456 125.385C63.2706 121.685 57.7167 120.498 56.6677 125.814C56.2048 128.16 57.7775 131.397 59.6557 132.931C60.9478 133.987 62.3747 134.893 63.7409 135.86C64.7246 136.393 65.4647 137.24 65.8223 138.241C66.6698 141.031 63.5661 141.691 61.6679 141.087C61.7201 141.363 61.7725 141.639 61.8252 141.915C63.6485 140.408 64.2255 138.89 62.5288 137.007C61.8082 136.391 60.9579 135.918 60.0312 135.62C57.039 134.338 55.0651 133.012 53.524 130.191C51.3353 126.183 52.6365 118.578 58.6491 118.458C61.603 118.399 64.7883 120.495 65.9896 122.929C66.0525 123.041 66.1597 123.126 66.2889 123.166C66.4181 123.206 66.5591 123.198 66.6822 123.144C66.8053 123.09 66.901 122.994 66.949 122.876C66.997 122.758 66.9936 122.627 66.9395 122.511L66.9338 122.51Z" fill="#00315E"/>
<path d="M77.1015 144.598C77.1249 147.187 73.977 148.622 71.6384 149.178C71.1697 149.29 70.8533 149.966 71.3886 150.233C75.0268 152.051 79.5684 152.136 83.6004 152.16C87.9079 152.184 92.4511 151.884 96.5388 150.554C96.6502 150.504 96.7432 150.424 96.8065 150.326C96.8698 150.227 96.9006 150.113 96.8951 149.999C96.8897 149.884 96.8481 149.773 96.7756 149.68C96.7032 149.587 96.6029 149.516 96.4872 149.475C93.8406 148.73 91.7826 148.353 91.457 145.421C91.3738 144.67 90.1308 144.881 90.214 145.623C90.5937 149.041 92.7799 149.652 96.0493 150.572L95.9977 149.493C92.1164 150.754 87.7938 150.957 83.7202 150.99C79.9779 151.023 75.484 150.955 72.1138 149.271L71.864 150.324C74.7455 149.639 78.3928 147.846 78.3653 144.704C78.3586 143.956 77.1015 143.841 77.1082 144.593L77.1015 144.598Z" fill="#00315E"/>
<path d="M124.017 123.355C126.522 124.066 129.203 124.039 131.69 123.278C132.542 123.062 131.91 121.947 131.261 122.43C129.813 123.509 125.932 123.537 124.499 122.503C123.89 122.064 123.285 123.144 124.017 123.35L124.017 123.355Z" fill="#00315E"/>
<path d="M56.7401 134.907C56.8933 147.901 63.4004 159.891 75.8443 166.344C88.4198 172.868 105.936 172.075 118.836 166.806C134.085 160.579 144.923 146.035 146.444 130.823C147.082 124.432 146.427 115.007 138.565 112.718C131.76 110.736 125.827 117.299 123.714 122.463C123.665 122.607 123.677 122.762 123.749 122.896C123.82 123.031 123.945 123.136 124.097 123.188C124.249 123.24 124.417 123.236 124.566 123.176C124.715 123.117 124.834 123.007 124.897 122.869C126.235 119.457 128.764 116.556 132.085 114.627C137.386 111.621 142.119 115.229 144.143 119.718C147.046 126.161 145.093 135.084 142.675 141.389C137.89 153.865 125.842 164.116 112.205 167.812C100.278 171.044 85.8922 170.524 75.0676 164.586C63.8375 158.426 58.1354 146.804 58.0006 135.017C57.9914 134.27 56.7343 134.155 56.7434 134.907H56.7401Z" fill="#00315E"/>
<path d="M131.579 123.583C133.987 121.881 136.833 121.086 136.59 124.699C136.423 127.228 134.602 129.334 132.773 131.071C129.427 134.251 124.023 136.074 119.278 135.141C118.481 134.987 118.373 136.15 119.159 136.305C125.907 137.632 134.19 133.638 136.983 127.789C137.781 126.117 138.522 123.431 137.304 121.762C135.601 119.428 132.485 121.475 130.764 122.692C130.116 123.15 130.93 124.04 131.58 123.584L131.579 123.583Z" fill="#00315E"/>
<path d="M52.1736 114.667C51.2629 114.856 50.4028 115.214 49.6447 115.718C48.8866 116.223 48.2459 116.863 47.7611 117.602C46.6873 119.045 46.0035 120.706 45.7672 122.445C45.7178 123.187 45.8677 123.93 46.2034 124.606C46.5391 125.282 47.0502 125.87 47.6912 126.319C48.5338 126.924 51.9872 126.589 54.0119 123.725C59.2818 116.274 53.9211 114.398 52.1736 114.667Z" fill="#C2F1FF"/>
<path d="M53.5549 114.801C57.0324 119.709 48.4505 126.979 46.7896 125.482C47.0507 125.796 47.3531 126.078 47.6896 126.322C48.5322 126.928 51.9856 126.592 54.0103 123.729C58.5451 117.311 55.687 115.138 53.5549 114.801Z" fill="#93E5F9"/>
<path d="M52.0996 114.283C48.3981 115.097 44.7291 119.52 45.3477 123.169C45.9188 126.537 48.4639 127.672 51.6583 126.252C54.802 124.852 57.3312 120.202 56.5145 117.03C56.2378 116.169 55.6461 115.424 54.841 114.923C54.0358 114.422 53.0675 114.197 52.1021 114.284C51.5626 114.34 51.7117 115.107 52.2487 115.055C52.8844 115.014 53.5198 115.139 54.0828 115.415C54.6459 115.692 55.1142 116.108 55.4347 116.618C56.8325 118.745 54.8453 121.764 53.6681 123.508C51.7991 126.272 47.5972 127.504 46.2877 123.675C45.1571 120.367 48.9327 115.784 52.2487 115.055C52.7715 114.933 52.6282 114.166 52.0996 114.283Z" fill="#00315E"/>
<path d="M170.67 95.5735C169.713 96.3427 168.531 96.8319 167.274 96.9794C166.017 97.1268 164.741 96.9258 163.608 96.4019C162.474 95.8779 161.534 95.0544 160.905 94.0356C160.277 93.0168 159.989 91.8484 160.079 90.6782C160.168 89.508 160.63 88.3885 161.406 87.4614C162.182 86.5342 163.238 85.841 164.44 85.4694C165.641 85.0978 166.935 85.0645 168.158 85.3737C169.38 85.6829 170.476 86.3208 171.306 87.2066C172.419 88.3947 172.977 89.9433 172.858 91.5121C172.738 93.0808 171.951 94.5416 170.67 95.5735Z" fill="#AE00BC"/>
<path d="M166.473 97.512C164.848 97.5125 163.275 96.9847 162.028 96.0207C160.781 95.0566 159.939 93.7176 159.65 92.2375C159.361 90.7575 159.642 89.2303 160.445 87.9228C161.249 86.6154 162.522 85.6107 164.044 85.0842C165.566 84.5577 167.239 84.5429 168.772 85.0423C170.304 85.5418 171.598 86.5238 172.428 87.8168C173.258 89.1098 173.571 90.6316 173.313 92.1165C173.054 93.6015 172.24 94.9551 171.013 95.9411C169.753 96.9533 168.141 97.5111 166.473 97.512ZM166.466 85.6495C165.123 85.6498 163.821 86.0755 162.776 86.8559C161.731 87.6363 161.005 88.7243 160.72 89.9392C160.435 91.1541 160.608 92.4226 161.21 93.534C161.812 94.6454 162.806 95.5327 164.028 96.0485C165.249 96.5643 166.625 96.6774 167.926 96.3692C169.227 96.0609 170.374 95.3497 171.178 94.3539C171.982 93.3581 172.394 92.1377 172.345 90.8953C172.296 89.653 171.789 88.4636 170.908 87.5248C170.356 86.9353 169.673 86.4628 168.906 86.1393C168.139 85.8159 167.306 85.6491 166.463 85.6503L166.466 85.6495Z" fill="#00315E"/>
<path d="M166.844 89.1789C166.648 89.3364 166.405 89.4366 166.148 89.4666C165.89 89.4967 165.628 89.4553 165.396 89.3477C165.164 89.2401 164.971 89.0711 164.842 88.8622C164.714 88.6532 164.655 88.4136 164.673 88.1737C164.692 87.9338 164.786 87.7044 164.946 87.5143C165.105 87.3243 165.321 87.1822 165.568 87.1061C165.814 87.0299 166.08 87.0232 166.33 87.0866C166.581 87.15 166.805 87.2808 166.976 87.4624C167.089 87.5831 167.175 87.7232 167.23 87.8748C167.284 88.0264 167.306 88.1865 167.294 88.3459C167.282 88.5053 167.236 88.6609 167.159 88.8039C167.081 88.9468 166.975 89.0742 166.844 89.1789Z" fill="white"/>
<path d="M49.95 156.114C48.9933 156.883 47.8117 157.372 46.5547 157.52C45.2976 157.667 44.0216 157.466 42.8879 156.942C41.7543 156.418 40.8139 155.595 40.1857 154.576C39.5576 153.557 39.2698 152.389 39.3589 151.218C39.448 150.048 39.9099 148.929 40.6862 148.002C41.4625 147.074 42.5182 146.381 43.7201 146.009C44.9219 145.638 46.2158 145.605 47.438 145.914C48.6603 146.223 49.7562 146.861 50.5869 147.747C51.6997 148.935 52.2576 150.483 52.1382 152.052C52.0188 153.621 51.2318 155.082 49.95 156.114Z" fill="#AE00BC"/>
<path d="M45.7532 158.052C44.1284 158.053 42.5549 157.525 41.3077 156.561C40.0604 155.597 39.2187 154.258 38.9294 152.777C38.6401 151.297 38.9216 149.77 39.7248 148.462C40.528 147.154 41.8019 146.15 43.324 145.623C44.846 145.097 46.5195 145.082 48.0521 145.581C49.5847 146.081 50.8791 147.063 51.7092 148.356C52.5393 149.649 52.8523 151.171 52.5936 152.656C52.3349 154.141 51.5209 155.495 50.2938 156.481C49.0336 157.494 47.4215 158.051 45.7532 158.052ZM45.7465 146.19C44.4037 146.191 43.1015 146.616 42.0562 147.397C41.011 148.177 40.2857 149.265 40.0008 150.48C39.716 151.695 39.8887 152.964 40.4904 154.075C41.092 155.186 42.0863 156.074 43.3081 156.59C44.5299 157.105 45.9054 157.218 47.2063 156.91C48.5071 156.602 49.6548 155.891 50.4587 154.895C51.2625 153.899 51.6741 152.679 51.625 151.436C51.576 150.194 51.0692 149.005 50.1889 148.066C49.6369 147.477 48.9545 147.004 48.188 146.681C47.4215 146.357 46.5889 146.19 45.7465 146.19Z" fill="#00315E"/>
<path d="M46.1279 149.719C45.9315 149.876 45.6892 149.976 45.4314 150.006C45.1736 150.036 44.9121 149.995 44.6798 149.887C44.4474 149.78 44.2546 149.611 44.126 149.402C43.9973 149.193 43.9385 148.953 43.9569 148.713C43.9753 148.473 44.0701 148.244 44.2293 148.054C44.3886 147.864 44.6051 147.722 44.8515 147.646C45.0979 147.569 45.3632 147.563 45.6138 147.626C45.8644 147.69 46.089 147.82 46.2594 148.002C46.3725 148.123 46.4589 148.263 46.5135 148.414C46.5682 148.566 46.59 148.726 46.5778 148.885C46.5655 149.045 46.5196 149.2 46.4424 149.343C46.3652 149.486 46.2583 149.614 46.1279 149.719Z" fill="white"/>
<path d="M58.4468 18.2947C57.7365 18.8657 56.8592 19.2288 55.926 19.3382C54.9928 19.4476 54.0455 19.2983 53.2039 18.9093C52.3623 18.5202 51.6642 17.9088 51.1979 17.1525C50.7315 16.3961 50.518 15.5288 50.5841 14.66C50.6503 13.7913 50.9931 12.9601 51.5694 12.2718C52.1457 11.5835 52.9295 11.0688 53.8217 10.7929C54.7139 10.517 55.6745 10.4922 56.5819 10.7217C57.4893 10.9512 58.3029 11.4246 58.9197 12.0821C59.3293 12.5188 59.642 13.0259 59.8399 13.5744C60.0378 14.1229 60.1171 14.7022 60.0731 15.2791C60.0292 15.856 59.863 16.4192 59.5839 16.9366C59.3049 17.4541 58.9185 17.9156 58.4468 18.2947Z" fill="#DEFBFF"/>
<path d="M55.3316 19.8601C54.0936 19.8608 52.8946 19.4588 51.9442 18.7244C50.9938 17.9899 50.3521 16.9696 50.1315 15.8418C49.9108 14.714 50.1251 13.5503 50.7369 12.5538C51.3487 11.5574 52.3191 10.7915 53.4787 10.3901C54.6383 9.98867 55.9133 9.97709 57.0812 10.3575C58.249 10.7378 59.2355 11.4859 59.8682 12.4711C60.501 13.4563 60.7397 14.6159 60.543 15.7475C60.3462 16.8791 59.7262 17.9108 58.7915 18.6624C57.8314 19.4341 56.603 19.8594 55.3316 19.8601ZM55.3265 11.0532C54.3602 11.0534 53.4232 11.3597 52.671 11.9212C51.9189 12.4828 51.397 13.2659 51.1921 14.1401C50.9871 15.0143 51.1115 15.9271 51.5445 16.7268C51.9775 17.5265 52.6931 18.1649 53.5723 18.536C54.4515 18.9071 55.4414 18.9885 56.3774 18.7665C57.3135 18.5446 58.1393 18.0328 58.7176 17.3161C59.296 16.5995 59.592 15.7212 59.5566 14.8272C59.5211 13.9333 59.1562 13.0775 58.5226 12.402C58.1255 11.978 57.6345 11.6379 57.0828 11.4052C56.5312 11.1724 55.9327 11.0524 55.3265 11.0532Z" fill="#00315E"/>
<path d="M55.6104 13.5466C55.4647 13.6634 55.2848 13.7376 55.0935 13.7598C54.9023 13.782 54.7082 13.7511 54.5359 13.6712C54.3635 13.5912 54.2206 13.4659 54.1252 13.3108C54.0298 13.1557 53.9863 12.9779 54 12.7999C54.0137 12.6219 54.0841 12.4517 54.2023 12.3107C54.3206 12.1697 54.4813 12.0644 54.6641 12.0079C54.847 11.9515 55.0438 11.9464 55.2297 11.9935C55.4156 12.0406 55.5823 12.1377 55.7087 12.2725C55.8781 12.4535 55.963 12.6895 55.9446 12.9284C55.9261 13.1673 55.8059 13.3897 55.6104 13.5466Z" fill="white"/>
<path d="M27.9102 113.829C27.9897 115.585 27.5049 117.324 26.5172 118.825C25.5295 120.326 24.0832 121.522 22.3613 122.262C20.6393 123.002 18.719 123.252 16.8432 122.982C14.9673 122.711 13.2203 121.932 11.8229 120.742C10.4256 119.552 9.44075 118.006 8.99289 116.298C8.54504 114.59 8.65432 112.797 9.30693 111.146C9.95953 109.496 11.1261 108.062 12.6591 107.025C14.1922 105.988 16.0229 105.396 17.9197 105.323C20.4629 105.224 22.9441 106.065 24.8176 107.66C26.6911 109.256 27.8035 111.474 27.9102 113.829Z" fill="#E9CCFF"/>
<path d="M18.3127 123.574C15.6427 123.574 13.0803 122.599 11.1822 120.86C9.2841 119.122 8.20347 116.76 8.17501 114.288C8.14656 111.816 9.17261 109.434 11.0303 107.658C12.8879 105.882 15.4272 104.857 18.0967 104.804C20.7661 104.752 23.3502 105.676 25.2878 107.377C27.2253 109.078 28.3598 111.418 28.4449 113.889C28.5301 116.36 27.559 118.762 25.7425 120.573C23.9259 122.385 21.4108 123.46 18.7431 123.565C18.5974 123.571 18.4559 123.574 18.3127 123.574ZM18.326 105.801C18.1978 105.801 18.0687 105.801 17.9388 105.809C15.5535 105.904 13.3048 106.866 11.6811 108.486C10.0573 110.107 9.18968 112.255 9.2665 114.464C9.34332 116.674 10.3584 118.766 12.0914 120.286C13.8243 121.807 16.1352 122.633 18.5222 122.585C20.9092 122.538 23.1795 121.62 24.8403 120.032C26.501 118.444 27.4181 116.314 27.3923 114.103C27.3664 111.893 26.3998 109.781 24.7023 108.227C23.0048 106.672 20.7136 105.801 18.326 105.801Z" fill="#00315E"/>
<path d="M16.2539 112C16.2703 112.36 16.171 112.717 15.9685 113.025C15.766 113.333 15.4695 113.578 15.1164 113.73C14.7632 113.882 14.3693 113.933 13.9845 113.878C13.5997 113.823 13.2413 113.663 12.9545 113.419C12.6678 113.175 12.4656 112.858 12.3735 112.508C12.2815 112.157 12.3037 111.79 12.4373 111.451C12.571 111.112 12.8101 110.818 13.1245 110.605C13.4388 110.392 13.8143 110.271 14.2033 110.255C14.4617 110.245 14.7197 110.282 14.9626 110.364C15.2055 110.447 15.4286 110.572 15.619 110.734C15.8095 110.896 15.9636 111.091 16.0725 111.309C16.1814 111.526 16.2431 111.76 16.2539 112Z" fill="white"/>
<path d="M158.097 117.526C157.249 118.182 160.011 126.579 160.011 126.579C160.011 126.579 152.595 132.093 153.039 133.17C153.483 134.248 162.929 134.284 162.929 134.284C162.929 134.284 166.388 142.491 167.546 142.46C168.704 142.429 171.748 134.095 171.748 134.095C171.748 134.095 181.279 133.462 181.572 132.553C181.864 131.644 174.277 126.269 174.277 126.269C174.277 126.269 176.564 117.746 175.732 117.143C174.9 116.539 167.023 121.624 167.023 121.624C167.023 121.624 158.943 116.869 158.097 117.526Z" fill="#E9CCFF"/>
<path d="M167.537 142.949C166.544 142.949 164.873 140.198 162.567 134.771C158.166 134.741 153.004 134.462 152.544 133.345C152.166 132.427 154.472 130.094 159.401 126.407C157.584 120.828 157.031 117.715 157.757 117.153C157.924 117.032 158.132 116.969 158.345 116.978C159.91 116.978 165.325 120.061 167.003 121.044C168.668 119.979 174.051 116.61 175.522 116.61C175.712 116.604 175.899 116.658 176.051 116.764C176.319 116.958 177.133 117.549 174.864 126.081C182.46 131.492 182.166 132.397 182.069 132.697C181.971 132.997 181.678 133.903 172.127 134.559C170.086 140.099 168.546 142.921 167.555 142.949H167.537ZM153.55 133.018C154.182 133.46 158.878 133.782 162.925 133.799H163.283L163.412 134.107C164.842 137.498 166.764 141.325 167.524 141.926C168.253 141.292 169.983 137.387 171.241 133.939L171.354 133.631L171.703 133.608C175.559 133.352 180.001 132.83 180.98 132.393C180.423 131.529 177.021 128.833 173.951 126.657L173.677 126.463L173.761 126.155C174.696 122.669 175.533 118.582 175.373 117.599C174.192 117.83 170.04 120.268 167.318 122.025L167.031 122.21L166.736 122.036C164.14 120.507 159.703 118.111 158.458 117.956C158.316 118.912 159.374 122.981 160.508 126.434L160.612 126.749L160.334 126.955C157.208 129.286 153.787 132.216 153.553 133.018L153.55 133.018Z" fill="#00315E"/>
<path d="M179.892 132.247L171.5 132.87L169.87 130.042L179.892 132.247Z" fill="white"/>
<path d="M175.014 118.482L172.849 126.013L169.427 126.494L175.014 118.482Z" fill="white"/>
<path d="M159.424 118.673L166.652 122.668L166.212 125.849L159.424 118.673Z" fill="white"/>
<path d="M9.82667 26.0127C8.82763 26.4327 9.07737 35.1411 9.07737 35.1411C9.07737 35.1411 0.413197 38.605 0.52892 39.745C0.644643 40.885 9.67596 43.2267 9.67596 43.2267C9.67596 43.2267 10.6459 51.9228 11.7615 52.1756C12.8771 52.4284 18.1645 45.1984 18.1645 45.1984C18.1645 45.1984 27.464 46.9203 28.0018 46.1233C28.5397 45.3263 22.8126 38.3306 22.8126 38.3306C22.8126 38.3306 27.429 30.7352 26.8087 29.9544C26.1885 29.1736 17.1996 32.1127 17.1996 32.1127C17.1996 32.1127 10.8241 25.5926 9.82667 26.0127Z" fill="#FFF361"/>
<path d="M11.823 52.6681L11.6365 52.6473C10.6749 52.4292 9.85242 49.3877 9.18972 43.6052C4.98624 42.5022 0.126716 40.9752 0.00599796 39.7905C-0.0939065 38.8185 2.77837 37.1475 8.54286 34.8243C8.3955 29.0434 8.75352 25.9302 9.60853 25.5694C9.71146 25.527 9.82299 25.5054 9.93567 25.5062C11.2469 25.5062 15.3904 29.5545 17.3527 31.55C18.7897 31.0876 24.3752 29.3379 26.2701 29.3379C26.4466 29.3203 26.6251 29.341 26.7915 29.3983C26.9579 29.4555 27.1078 29.5478 27.2291 29.6678C27.4306 29.9198 28.04 30.6829 23.4394 38.2937C29.1656 45.3256 28.6253 46.1211 28.4471 46.387C28.2365 46.6953 27.7869 46.8248 26.8945 46.8248C24.0405 46.6424 21.2033 46.28 18.4026 45.7402C16.4112 48.4473 13.0993 52.6681 11.823 52.6681ZM1.08834 39.7019C1.72273 40.357 6.02527 41.7738 9.81748 42.7565L10.1621 42.8459L10.1988 43.175C10.5992 46.7631 11.346 50.8876 11.9013 51.6537C12.7813 51.2198 15.5453 47.9109 17.729 44.9225L17.9247 44.655L18.2668 44.7182C18.3276 44.7298 24.3852 45.8459 26.8945 45.8459C27.0893 45.8486 27.284 45.8382 27.4772 45.815C27.1725 44.8377 24.6974 41.4431 22.3904 38.6251L22.1823 38.37L22.3488 38.0917C24.2304 34.9947 26.1926 31.2995 26.3283 30.3067H26.2643C24.6408 30.3067 19.2909 31.9408 17.3669 32.5705L17.0339 32.6792L16.7991 32.438C14.2049 29.7826 11.0013 26.8767 10.0489 26.5121C9.64011 27.3893 9.49276 31.5431 9.59349 35.1242L9.60345 35.4533L9.27631 35.5835C5.67226 37.0334 1.617 38.9727 1.08834 39.7019Z" fill="#00315E"/>
<path d="M26.4857 45.4165L18.2803 43.9644L17.526 40.8612L26.4857 45.4165Z" fill="white"/>
<path d="M25.7414 31.059L21.5247 37.7364L18.1112 37.3595L25.7414 31.059Z" fill="white"/>
<path d="M10.7716 27.4339L16.5486 33.0214L15.2207 35.9558L10.7716 27.4339Z" fill="white"/>
<path d="M147.364 61.1237C147.584 61.7404 153.599 62.2113 153.599 62.2113C153.599 62.2113 155.373 67.5729 156.166 67.5845C156.959 67.596 159.21 62.4309 159.21 62.4309C159.21 62.4309 165.269 62.4726 165.523 61.8298C165.777 61.1869 161.169 57.5565 161.169 57.5565C161.169 57.5565 163.013 52.188 162.502 51.8134C161.99 51.4388 156.766 54.3253 156.766 54.3253C156.766 54.3253 151.861 51.0626 151.28 51.3763C150.699 51.69 152.088 57.2019 152.088 57.2019C152.088 57.2019 147.145 60.504 147.364 61.1237Z" fill="#FFF361"/>
<path d="M156.171 68.0708H156.158C155.813 68.0655 155.013 68.0547 153.201 62.6676C147.185 62.1743 146.957 61.5468 146.865 61.2755C146.757 60.9672 146.532 60.3406 151.5 56.9962C150.122 51.4365 150.704 51.1227 151.019 50.9539C151.132 50.8947 151.26 50.8647 151.39 50.8668C152.305 50.8668 155.288 52.7498 156.801 53.7434C158.164 52.9996 161.4 51.2916 162.367 51.2916C162.536 51.2865 162.702 51.3354 162.836 51.4302C163.108 51.6307 163.61 51.9999 161.78 57.3947C166.39 61.0613 166.133 61.7111 166.021 61.9948C165.886 62.337 165.661 62.9081 159.569 62.9197C157.292 68.0608 156.481 68.0708 156.171 68.0708ZM148.017 60.9472C149.865 61.354 151.747 61.6144 153.643 61.7257L153.998 61.7527L154.102 62.068C154.611 63.7721 155.31 65.4228 156.188 66.9933C157.207 65.4967 158.056 63.9066 158.722 62.2483L158.856 61.94H159.433C161.262 61.997 163.094 61.8867 164.9 61.6109C163.668 60.2683 162.305 59.0339 160.828 57.9234L160.562 57.7137L160.668 57.4054C161.274 55.747 161.74 54.0482 162.064 52.3236C160.325 53.0086 158.644 53.8167 157.038 54.7408L156.743 54.9042L156.463 54.7177C154.945 53.6665 153.339 52.7291 151.659 51.9143C151.821 53.6598 152.136 55.3901 152.603 57.0878L152.686 57.4046L152.402 57.5942C150.838 58.5919 149.371 59.7134 148.017 60.9472Z" fill="#00315E"/>
<path d="M161.911 52.6597L160.33 57.4016L158.138 57.6281L161.911 52.6597Z" fill="white"/>
<path d="M151.967 52.0839L156.269 55.0453L155.77 57.0332L151.967 52.0839Z" fill="white"/>
<path d="M148.411 60.6674L152.668 57.6498L154.595 58.6418L148.411 60.6674Z" fill="white"/>
</g>
<defs>
<clipPath id="clip0_104_658">
<rect width="182.1" height="171" fill="white" transform="translate(0.00354004)"/>
</clipPath>
</defs>
</svg>
