<svg width="120" height="40" viewBox="0 0 120 40" fill="none" xmlns="http://www.w3.org/2000/svg">
<rect x="0.5" y="0.5" width="119" height="39" rx="5.5" fill="black"/>
<rect x="0.5" y="0.5" width="119" height="39" rx="5.5" stroke="#A6A6A6"/>
<path d="M17.8051 19.4617L8.08984 30.0059C8.09076 30.0078 8.09076 30.0106 8.09167 30.0125C8.39005 31.1574 9.41203 32 10.6256 32C11.1111 32 11.5664 31.8656 11.957 31.6305L11.988 31.6118L22.9232 25.1593L17.8051 19.4617Z" fill="#EA4335"/>
<path d="M27.6332 17.6662L27.624 17.6597L22.9029 14.8612L17.584 19.7013L22.922 25.1582L27.6177 22.3878C28.4407 21.9324 29.0001 21.045 29.0001 20.0223C29.0001 19.0052 28.4489 18.1225 27.6332 17.6662Z" fill="#FBBC04"/>
<path d="M8.08942 9.99325C8.03102 10.2135 8 10.4449 8 10.6838V29.3163C8 29.5552 8.03102 29.7866 8.09034 30.0059L18.1386 19.7313L8.08942 9.99325Z" fill="#4285F4"/>
<path d="M17.8762 20L22.904 14.8594L11.9815 8.3836C11.5846 8.14005 11.1211 8.00009 10.6256 8.00009C9.41197 8.00009 8.38816 8.84456 8.08978 9.99043C8.08978 9.99136 8.08887 9.9923 8.08887 9.99323L17.8762 20Z" fill="#34A853"/>
<path d="M36.576 13V7.272H38.328C39.2027 7.272 39.904 7.536 40.432 8.064C40.9653 8.592 41.232 9.28267 41.232 10.136C41.232 10.9947 40.9653 11.688 40.432 12.216C39.904 12.7387 39.2027 13 38.328 13H36.576ZM37.312 7.976V12.296H38.328C38.9947 12.296 39.52 12.1067 39.904 11.728C40.288 11.344 40.48 10.8133 40.48 10.136C40.48 9.464 40.288 8.936 39.904 8.552C39.52 8.168 38.9947 7.976 38.328 7.976H37.312ZM42.8433 13H42.1073V7.272H42.8433V13ZM47.5339 11.472C47.5339 11.9733 47.3499 12.376 46.9819 12.68C46.6085 12.9787 46.1552 13.128 45.6219 13.128C45.1472 13.128 44.7285 12.9893 44.3659 12.712C44.0032 12.4347 43.7525 12.056 43.6139 11.576L44.3179 11.288C44.3659 11.4587 44.4325 11.6133 44.5179 11.752C44.6032 11.8907 44.7019 12.0107 44.8139 12.112C44.9312 12.208 45.0592 12.2853 45.1979 12.344C45.3365 12.3973 45.4832 12.424 45.6379 12.424C45.9739 12.424 46.2485 12.3387 46.4619 12.168C46.6752 11.992 46.7819 11.76 46.7819 11.472C46.7819 11.232 46.6939 11.0267 46.5179 10.856C46.3525 10.6907 46.0432 10.5307 45.5899 10.376C45.1312 10.2107 44.8459 10.0987 44.7339 10.04C44.1259 9.73067 43.8219 9.27467 43.8219 8.672C43.8219 8.25067 43.9899 7.89067 44.3259 7.592C44.6672 7.29333 45.0859 7.144 45.5819 7.144C46.0192 7.144 46.3979 7.256 46.7179 7.48C47.0379 7.69867 47.2512 7.97333 47.3579 8.304L46.6699 8.592C46.6059 8.37867 46.4779 8.20267 46.2859 8.064C46.0992 7.92 45.8699 7.848 45.5979 7.848C45.3099 7.848 45.0672 7.928 44.8699 8.088C44.6725 8.23733 44.5739 8.432 44.5739 8.672C44.5739 8.86933 44.6512 9.04 44.8059 9.184C44.9765 9.328 45.3472 9.49867 45.9179 9.696C46.4992 9.89333 46.9125 10.136 47.1579 10.424C47.4085 10.7067 47.5339 11.056 47.5339 11.472ZM49.1558 10.68V13H48.4198V7.272H50.3718C50.8678 7.272 51.2891 7.43733 51.6358 7.768C51.9878 8.09867 52.1638 8.50133 52.1638 8.976C52.1638 9.46133 51.9878 9.86667 51.6358 10.192C51.2944 10.5173 50.8731 10.68 50.3718 10.68H49.1558ZM49.1558 7.976V9.976H50.3878C50.6811 9.976 50.9238 9.87733 51.1158 9.68C51.3131 9.48267 51.4118 9.248 51.4118 8.976C51.4118 8.70933 51.3131 8.47733 51.1158 8.28C50.9238 8.07733 50.6811 7.976 50.3878 7.976H49.1558ZM58.4653 10.136C58.4653 10.984 58.1826 11.6933 57.6173 12.264C57.0466 12.84 56.3479 13.128 55.5213 13.128C54.6893 13.128 53.9906 12.84 53.4253 12.264C52.8599 11.6933 52.5773 10.984 52.5773 10.136C52.5773 9.288 52.8599 8.57867 53.4253 8.008C53.9906 7.432 54.6893 7.144 55.5213 7.144C56.3533 7.144 57.0519 7.43467 57.6173 8.016C58.1826 8.58667 58.4653 9.29333 58.4653 10.136ZM53.3293 10.136C53.3293 10.7973 53.5373 11.344 53.9533 11.776C54.3746 12.208 54.8973 12.424 55.5213 12.424C56.1453 12.424 56.6653 12.208 57.0813 11.776C57.5026 11.3493 57.7133 10.8027 57.7133 10.136C57.7133 9.46933 57.5026 8.92267 57.0813 8.496C56.6653 8.064 56.1453 7.848 55.5213 7.848C54.8973 7.848 54.3746 8.064 53.9533 8.496C53.5373 8.928 53.3293 9.47467 53.3293 10.136ZM60.0698 13H59.3338V7.272H60.2298L63.0138 11.728H63.0458L63.0138 10.624V7.272H63.7498V13H62.9818L60.0698 8.328H60.0378L60.0698 9.432V13ZM65.6401 13H64.9041V7.272H65.6401V13ZM66.1681 5.8L65.5921 6.824H64.9521L65.3681 5.8H66.1681ZM68.9816 13H68.2136L66.1976 7.272H67.0136L68.5816 11.92H68.6136L70.2456 7.272H71.0616L68.9816 13ZM75.0763 7.272V7.976H72.4683V9.792H74.8203V10.48H72.4683V12.296H75.0763V13H71.7323V7.272H75.0763ZM79.2842 13H76.0682V7.272H76.8042V12.296H79.2842V13ZM82.5464 13H81.8104V7.272H82.7064L85.4904 11.728H85.5224L85.4904 10.624V7.272H86.2264V13H85.4584L82.5464 8.328H82.5144L82.5464 9.432V13ZM92.9106 10.136C92.9106 10.984 92.6279 11.6933 92.0626 12.264C91.4919 12.84 90.7932 13.128 89.9666 13.128C89.1346 13.128 88.4359 12.84 87.8706 12.264C87.3052 11.6933 87.0226 10.984 87.0226 10.136C87.0226 9.288 87.3052 8.57867 87.8706 8.008C88.4359 7.432 89.1346 7.144 89.9666 7.144C90.7986 7.144 91.4972 7.43467 92.0626 8.016C92.6279 8.58667 92.9106 9.29333 92.9106 10.136ZM87.7746 10.136C87.7746 10.7973 87.9826 11.344 88.3986 11.776C88.8199 12.208 89.3426 12.424 89.9666 12.424C90.5906 12.424 91.1106 12.208 91.5266 11.776C91.9479 11.3493 92.1586 10.8027 92.1586 10.136C92.1586 9.46933 91.9479 8.92267 91.5266 8.496C91.1106 8.064 90.5906 7.848 89.9666 7.848C89.3426 7.848 88.8199 8.064 88.3986 8.496C87.9826 8.928 87.7746 9.47467 87.7746 10.136Z" fill="white"/>
<path d="M93.5181 29.4097H95.1469V18.3981H93.5181V29.4097ZM108.189 22.3646L106.322 27.1388H106.266L104.328 22.3646H102.573L105.479 29.0371L103.823 32.749H105.521L110 22.3646H108.189ZM98.9519 28.1588C98.4176 28.1588 97.6739 27.8902 97.6739 27.2234C97.6739 26.3742 98.6001 26.0483 99.4005 26.0483C100.116 26.0483 100.454 26.2042 100.889 26.4165C100.762 27.4365 99.892 28.1588 98.9519 28.1588ZM99.1483 22.1241C97.969 22.1241 96.7469 22.6482 96.2424 23.8101L97.6879 24.4188C97.9969 23.8101 98.5721 23.611 99.1762 23.611C100.019 23.611 100.875 24.121 100.889 25.0283V25.1411C100.594 24.971 99.9627 24.7165 99.1902 24.7165C97.632 24.7165 96.0451 25.5806 96.0451 27.1952C96.0451 28.6689 97.323 29.6184 98.7546 29.6184C99.8501 29.6184 100.454 29.1225 100.833 28.5411H100.889V29.3912H102.461V25.1692C102.461 23.2146 101.015 22.1241 99.1483 22.1241ZM89.0821 23.7053H86.7655V19.9308H89.0821C90.2998 19.9308 90.9911 20.9482 90.9911 21.8176C90.9911 22.6711 90.2998 23.7053 89.0821 23.7053ZM89.0402 18.3981H85.1375V29.4097H86.7655V25.2379H89.0402C90.8453 25.2379 92.6199 23.9184 92.6199 21.8176C92.6199 19.7168 90.8453 18.3981 89.0402 18.3981ZM67.7583 28.1606C66.6332 28.1606 65.6913 27.2102 65.6913 25.9047C65.6913 24.5852 66.6332 23.6198 67.7583 23.6198C68.8695 23.6198 69.7406 24.5852 69.7406 25.9047C69.7406 27.2102 68.8695 28.1606 67.7583 28.1606ZM69.6289 22.9812H69.5722C69.2064 22.5417 68.5038 22.1444 67.6178 22.1444C65.7611 22.1444 64.0599 23.7898 64.0599 25.9047C64.0599 28.0047 65.7611 29.6369 67.6178 29.6369C68.5038 29.6369 69.2064 29.2396 69.5722 28.7851H69.6289V29.3251C69.6289 30.7582 68.8695 31.5246 67.6457 31.5246C66.6471 31.5246 66.0282 30.8005 65.7751 30.1901L64.3549 30.7864C64.7626 31.78 65.8458 33 67.6457 33C69.5582 33 71.1757 31.8646 71.1757 29.0978V22.3708H69.6289V22.9812ZM72.3008 29.4097H73.9323V18.3973H72.3008V29.4097ZM76.3362 25.777C76.2943 24.3298 77.4474 23.5916 78.2766 23.5916C78.9243 23.5916 79.4725 23.9176 79.6549 24.3862L76.3362 25.777ZM81.3989 24.528C81.0899 23.6912 80.1472 22.1444 78.2208 22.1444C76.3083 22.1444 74.7196 23.6621 74.7196 25.8907C74.7196 27.9906 76.2943 29.6369 78.4032 29.6369C80.1053 29.6369 81.0899 28.5869 81.4976 27.9765L80.2319 27.1247C79.8103 27.7493 79.2333 28.1606 78.4032 28.1606C77.5739 28.1606 76.983 27.7774 76.6033 27.0261L81.5674 24.9534L81.3989 24.528ZM41.8501 23.2939V24.883H45.6184C45.5058 25.777 45.2107 26.4297 44.7612 26.8834C44.2121 27.4374 43.3541 28.0479 41.8501 28.0479C39.5291 28.0479 37.7152 26.1602 37.7152 23.8189C37.7152 21.4767 39.5291 19.5899 41.8501 19.5899C43.1018 19.5899 44.0157 20.0867 44.6905 20.7254L45.8017 19.604C44.8589 18.6959 43.6081 18 41.8501 18C38.6719 18 36 20.6117 36 23.8189C36 27.0261 38.6719 29.6369 41.8501 29.6369C43.5653 29.6369 44.8589 29.0688 45.8715 28.0047C46.9129 26.9547 47.2358 25.4793 47.2358 24.2866C47.2358 23.9176 47.2079 23.5775 47.1512 23.2939H41.8501ZM51.5208 28.1606C50.3957 28.1606 49.425 27.2243 49.425 25.8907C49.425 24.5421 50.3957 23.6198 51.5208 23.6198C52.6451 23.6198 53.6158 24.5421 53.6158 25.8907C53.6158 27.2243 52.6451 28.1606 51.5208 28.1606ZM51.5208 22.1444C49.4669 22.1444 47.7936 23.7194 47.7936 25.8907C47.7936 28.0479 49.4669 29.6369 51.5208 29.6369C53.5739 29.6369 55.2472 28.0479 55.2472 25.8907C55.2472 23.7194 53.5739 22.1444 51.5208 22.1444ZM59.65 28.1606C58.5249 28.1606 57.5542 27.2243 57.5542 25.8907C57.5542 24.5421 58.5249 23.6198 59.65 23.6198C60.7752 23.6198 61.745 24.5421 61.745 25.8907C61.745 27.2243 60.7752 28.1606 59.65 28.1606ZM59.65 22.1444C57.597 22.1444 55.9237 23.7194 55.9237 25.8907C55.9237 28.0479 57.597 29.6369 59.65 29.6369C61.7031 29.6369 63.3764 28.0479 63.3764 25.8907C63.3764 23.7194 61.7031 22.1444 59.65 22.1444Z" fill="white"/>
</svg>
