<svg width="41" height="40" viewBox="0 0 41 40" fill="none" xmlns="http://www.w3.org/2000/svg">
<path d="M36.4142 4.44444V35.5556H5.33528V4.44444H36.4142ZM38.8561 0H2.89336C1.7834 0 0.895432 0.888889 0.895432 2V38C0.895432 38.8889 1.7834 40 2.89336 40H38.8561C39.7441 40 40.854 38.8889 40.854 38V2C40.854 0.888889 39.7441 0 38.8561 0ZM18.6548 8.88889H31.9743V13.3333H18.6548V8.88889ZM18.6548 17.7778H31.9743V22.2222H18.6548V17.7778ZM18.6548 26.6667H31.9743V31.1111H18.6548V26.6667ZM9.77512 8.88889H14.215V13.3333H9.77512V8.88889ZM9.77512 17.7778H14.215V22.2222H9.77512V17.7778ZM9.77512 26.6667H14.215V31.1111H9.77512V26.6667Z" fill="white"/>
</svg>
