<svg width="55" height="54" viewBox="0 0 55 54" fill="none" xmlns="http://www.w3.org/2000/svg">
<path d="M27.234 17.1818C21.815 17.1818 17.4259 21.5755 17.4259 27C17.4259 32.4245 21.815 36.8182 27.234 36.8182C32.6529 36.8182 37.042 32.4245 37.042 27C37.042 21.5755 32.6529 17.1818 27.234 17.1818ZM49.1549 24.5455C48.027 14.31 39.9108 6.18545 29.686 5.05636V0H24.7819V5.05636C14.5571 6.18545 6.44095 14.31 5.31303 24.5455H0.261902V29.4545H5.31303C6.44095 39.69 14.5571 47.8145 24.7819 48.9436V54H29.686V48.9436C39.9108 47.8145 48.027 39.69 49.1549 29.4545H54.206V24.5455H49.1549ZM27.234 44.1818C17.7447 44.1818 10.0699 36.4991 10.0699 27C10.0699 17.5009 17.7447 9.81818 27.234 9.81818C36.7232 9.81818 44.398 17.5009 44.398 27C44.398 36.4991 36.7232 44.1818 27.234 44.1818Z" fill="white"/>
</svg>
