<svg width="64" height="58" viewBox="0 0 64 58" fill="none" xmlns="http://www.w3.org/2000/svg">
<path d="M31.36 52.997C31.5147 52.8393 31.655 52.6682 31.7793 52.4856C31.902 52.6706 32.0441 52.8421 32.2032 52.997H31.36Z" fill="url(#paint0_radial_405_2)"/>
<path d="M50.1475 7.32284C49.8868 5.43577 48.2444 3.01872 46.3021 1.71947C45.1849 0.969724 43.8766 0.555877 42.5319 0.526858C41.0304 0.45842 37.0599 3.49778 33.0506 8.85286C32.9756 8.95336 32.9312 9.07339 32.9227 9.19854C32.9141 9.3237 32.9418 9.44866 33.0024 9.55845C33.2849 9.40301 33.6946 9.18709 33.6946 9.18709C33.4916 9.53882 33.3008 9.91708 33.3872 9.98817C33.454 10.0412 33.6697 9.89852 33.7364 9.83751C34.6109 9.03801 40.7851 2.07545 43.3008 2.77309C44.1318 3.00333 44.8621 4.15244 44.904 4.21822C45.1588 4.61854 45.3175 5.07251 45.3677 5.54453C45.4573 6.45915 44.8415 6.98171 44.0841 7.51383C42.9983 8.27509 41.8355 8.92003 40.6149 9.43802C39.435 9.95986 38.2219 10.4029 36.9836 10.7643C36.2898 10.9627 35.6088 11.1267 34.9442 11.2641C34.8483 11.2824 34.7578 11.3223 34.6797 11.3809C34.6015 11.4394 34.5376 11.515 34.493 11.602C34.4483 11.6889 34.424 11.7849 34.422 11.8826C34.4199 11.9803 34.4401 12.0772 34.481 12.166C34.6174 12.4494 34.7025 12.7547 34.7322 13.0678C34.7502 13.2115 34.8162 13.3449 34.9196 13.4461C35.023 13.5474 35.1576 13.6106 35.3014 13.6254C36.4175 13.7535 37.5413 13.8005 38.6641 13.766C43.1747 13.6207 50.7835 11.9431 50.1475 7.32284Z" fill="url(#paint1_radial_405_2)"/>
<path d="M29.2327 8.6831C28.7383 7.87996 28.1947 7.10817 27.6052 6.37215C24.7735 2.85267 18.8607 -2.22654 15.5552 1.06216C14.2054 2.40544 13.2636 5.17264 13.3945 7.50693C13.4676 8.85144 13.9237 10.1469 14.7089 11.2402C16.9713 14.556 23.2313 14.3942 27.4377 13.8498C27.5328 13.8364 27.6239 13.8022 27.7044 13.7497C27.785 13.6973 27.8531 13.6278 27.9039 13.5462C27.9548 13.4646 27.9872 13.3729 27.9988 13.2774C28.0105 13.1819 28.0011 13.085 27.9714 12.9936L27.9677 12.9809C27.8458 12.5978 23.8927 12.6281 21.5778 12.2079C19.6084 11.8498 16.1763 10.6858 15.8822 8.67408C15.853 8.16472 15.9394 7.65535 16.1349 7.18419C16.3304 6.71302 16.6299 6.29229 17.0111 5.95357C17.3631 5.66181 17.7854 5.46754 18.2358 5.39015C18.2358 5.39015 18.3307 5.37636 18.4282 5.37052C20.6323 5.23842 26.2188 9.52026 26.2188 9.52026C26.6369 9.83857 27.2029 10.2768 27.8739 10.7999C28.0673 10.906 28.1749 10.8879 28.2327 10.8614C28.5236 10.7283 28.5173 9.95953 28.282 9.40726C28.181 9.17203 28.0344 8.95923 27.8506 8.78124C27.946 8.8465 28.0885 8.94305 28.2602 9.06189C28.867 9.48047 28.9799 9.57119 29.0801 9.5314C29.2693 9.4566 29.3912 8.93828 29.2327 8.6831Z" fill="url(#paint2_radial_405_2)"/>
<path d="M47.1103 11.3097H16.4556C12.04 11.3097 8.46045 14.893 8.46045 19.3131V49.9995C8.46045 54.4197 12.04 58.003 16.4556 58.003H47.1103C51.5259 58.003 55.1054 54.4197 55.1054 49.9995V19.3131C55.1054 14.893 51.5259 11.3097 47.1103 11.3097Z" fill="#5C008C"/>
<path d="M47.07 11.3955H16.5998C12.212 11.3955 8.65497 14.9562 8.65497 19.3486V49.8503C8.65497 54.2427 12.212 57.8034 16.5998 57.8034H47.07C51.4578 57.8034 55.0148 54.2427 55.0148 49.8503V19.3486C55.0148 14.9562 51.4578 11.3955 47.07 11.3955Z" fill="#5D008D"/>
<path d="M47.0297 11.4814H16.7439C12.3839 11.4814 8.84943 15.0195 8.84943 19.384V49.7012C8.84943 54.0657 12.3839 57.6038 16.7439 57.6038H47.0297C51.3897 57.6038 54.9241 54.0657 54.9241 49.7012V19.384C54.9241 15.0195 51.3897 11.4814 47.0297 11.4814Z" fill="#5E008D"/>
<path d="M46.9894 11.5675H16.8881C12.5559 11.5675 9.04395 15.0831 9.04395 19.4197V49.5523C9.04395 53.889 12.5559 57.4045 16.8881 57.4045H46.9894C51.3216 57.4045 54.8335 53.889 54.8335 49.5523V19.4197C54.8335 15.0831 51.3216 11.5675 46.9894 11.5675Z" fill="#5F008E"/>
<path d="M46.9492 11.654H17.0322C12.7279 11.654 9.23846 15.147 9.23846 19.4558V49.4037C9.23846 53.7126 12.7279 57.2056 17.0322 57.2056H46.9492C51.2535 57.2056 54.7429 53.7126 54.7429 49.4037V19.4558C54.7429 15.147 51.2535 11.654 46.9492 11.654Z" fill="#60008E"/>
<path d="M46.9088 11.7399H17.1763C12.8998 11.7399 9.43292 15.2104 9.43292 19.4914V49.2547C9.43292 53.5357 12.8998 57.0061 17.1763 57.0061H46.9088C51.1854 57.0061 54.6523 53.5357 54.6523 49.2547V19.4914C54.6523 15.2104 51.1854 11.7399 46.9088 11.7399Z" fill="#61008F"/>
<path d="M46.8675 11.8259H17.321C13.072 11.8259 9.62744 15.274 9.62744 19.5274V49.1045C9.62744 53.358 13.072 56.8061 17.321 56.8061H46.8675C51.1166 56.8061 54.5611 53.358 54.5611 49.1045V19.5274C54.5611 15.274 51.1166 11.8259 46.8675 11.8259Z" fill="#62008F"/>
<path d="M46.8273 11.9118H17.4652C13.244 11.9118 9.82196 15.3374 9.82196 19.563V48.9555C9.82196 53.1811 13.244 56.6067 17.4652 56.6067H46.8273C51.0485 56.6067 54.4705 53.1811 54.4705 48.9555V19.563C54.4705 15.3374 51.0485 11.9118 46.8273 11.9118Z" fill="#630090"/>
<path d="M46.7869 11.9978H17.6093C13.4159 11.9978 10.0164 15.4008 10.0164 19.5985V48.8064C10.0164 53.0042 13.4159 56.4072 17.6093 56.4072H46.7869C50.9804 56.4072 54.3799 53.0042 54.3799 48.8064V19.5985C54.3799 15.4008 50.9804 11.9978 46.7869 11.9978Z" fill="#640091"/>
<path d="M46.7467 12.0837H17.7535C13.5879 12.0837 10.2109 15.4641 10.2109 19.6341V48.6573C10.2109 52.8273 13.5879 56.2077 17.7535 56.2077H46.7467C50.9123 56.2077 54.2892 52.8273 54.2892 48.6573V19.6341C54.2892 15.4641 50.9123 12.0837 46.7467 12.0837Z" fill="#650091"/>
<path d="M46.7064 12.1696H17.8977C13.7598 12.1696 10.4055 15.5275 10.4055 19.6696V48.5082C10.4055 52.6504 13.7598 56.0082 17.8977 56.0082H46.7064C50.8443 56.0082 54.1986 52.6504 54.1986 48.5082V19.6696C54.1986 15.5275 50.8443 12.1696 46.7064 12.1696Z" fill="#660092"/>
<path d="M46.6661 12.2556H18.0418C13.9318 12.2556 10.5999 15.5909 10.5999 19.7052V48.3591C10.5999 52.4734 13.9318 55.8087 18.0418 55.8087H46.6661C50.7761 55.8087 54.108 52.4734 54.108 48.3591V19.7052C54.108 15.5909 50.7761 12.2556 46.6661 12.2556Z" fill="#670092"/>
<path d="M46.6253 12.3415H18.1865C14.104 12.3415 10.7944 15.6545 10.7944 19.7412V48.2095C10.7944 52.2963 14.104 55.6092 18.1865 55.6092H46.6253C50.7078 55.6092 54.0174 52.2963 54.0174 48.2095V19.7412C54.0174 15.6545 50.7078 12.3415 46.6253 12.3415Z" fill="#680093"/>
<path d="M46.5851 12.4275H18.3307C14.2759 12.4275 10.989 15.7179 10.989 19.7768V48.0605C10.989 52.1194 14.2759 55.4098 18.3307 55.4098H46.5851C50.6398 55.4098 53.9268 52.1194 53.9268 48.0605V19.7768C53.9268 15.7179 50.6398 12.4275 46.5851 12.4275Z" fill="#690094"/>
<path d="M46.5448 12.5134H18.4748C14.4479 12.5134 11.1835 15.7813 11.1835 19.8123V47.9114C11.1835 51.9425 14.4479 55.2103 18.4748 55.2103H46.5448C50.5717 55.2103 53.8362 51.9425 53.8362 47.9114V19.8123C53.8362 15.7813 50.5717 12.5134 46.5448 12.5134Z" fill="#6A0094"/>
<path d="M46.5045 12.5994H18.6189C14.6198 12.5994 11.3779 15.8446 11.3779 19.8479V47.7623C11.3779 51.7656 14.6198 55.0108 18.6189 55.0108H46.5045C50.5036 55.0108 53.7455 51.7656 53.7455 47.7623V19.8479C53.7455 15.8446 50.5036 12.5994 46.5045 12.5994Z" fill="#6B0095"/>
<path d="M46.4642 12.6853H18.7631C14.7918 12.6853 11.5724 15.908 11.5724 19.8834V47.6133C11.5724 51.5887 14.7918 54.8114 18.7631 54.8114H46.4642C50.4355 54.8114 53.6549 51.5887 53.6549 47.6133V19.8834C53.6549 15.908 50.4355 12.6853 46.4642 12.6853Z" fill="#6C0095"/>
<path d="M46.4234 12.7718H18.9078C14.964 12.7718 11.7669 15.9722 11.7669 19.92V47.4642C11.7669 51.412 14.964 54.6124 18.9078 54.6124H46.4234C50.3671 54.6124 53.5642 51.412 53.5642 47.4642V19.92C53.5642 15.9722 50.3671 12.7718 46.4234 12.7718Z" fill="#6D0096"/>
<path d="M46.3831 12.8577H19.0519C15.1359 12.8577 11.9614 16.0355 11.9614 19.9556V47.3151C11.9614 51.2351 15.1359 54.4129 19.0519 54.4129H46.3831C50.2991 54.4129 53.4736 51.2351 53.4736 47.3151V19.9556C53.4736 16.0355 50.2991 12.8577 46.3831 12.8577Z" fill="#6E0096"/>
<path d="M46.3429 12.9437H19.1961C15.3079 12.9437 12.1559 16.0989 12.1559 19.9911V47.166C12.1559 51.0582 15.3079 54.2135 19.1961 54.2135H46.3429C50.231 54.2135 53.383 51.0582 53.383 47.166V19.9911C53.383 16.0989 50.231 12.9437 46.3429 12.9437Z" fill="#6F0097"/>
<path d="M46.3026 13.0296H19.3403C15.4799 13.0296 12.3505 16.1623 12.3505 20.0267V47.0169C12.3505 50.8813 15.4799 54.014 19.3403 54.014H46.3026C50.163 54.014 53.2924 50.8813 53.2924 47.0169V20.0267C53.2924 16.1623 50.163 13.0296 46.3026 13.0296Z" fill="#700098"/>
<path d="M46.2623 13.1156H19.4844C15.6518 13.1156 12.5449 16.2257 12.5449 20.0622V46.8679C12.5449 50.7044 15.6518 53.8145 19.4844 53.8145H46.2623C50.0948 53.8145 53.2017 50.7044 53.2017 46.8679V20.0622C53.2017 16.2257 50.0948 13.1156 46.2623 13.1156Z" fill="#710098"/>
<path d="M46.222 13.2015H19.6285C15.8238 13.2015 12.7394 16.2891 12.7394 20.0978V46.7188C12.7394 50.5275 15.8238 53.6151 19.6285 53.6151H46.222C50.0268 53.6151 53.1111 50.5275 53.1111 46.7188V20.0978C53.1111 16.2891 50.0268 13.2015 46.222 13.2015Z" fill="#720099"/>
<path d="M46.1817 13.2874H19.7737C15.9965 13.2874 12.9344 16.3527 12.9344 20.1338V46.5692C12.9344 50.3503 15.9965 53.4155 19.7737 53.4155H46.1817C49.959 53.4155 53.021 50.3503 53.021 46.5692V20.1338C53.021 16.3527 49.959 13.2874 46.1817 13.2874Z" fill="#730099"/>
<path d="M46.1415 13.3734H19.9179C16.1685 13.3734 13.129 16.4161 13.129 20.1694V46.4201C13.129 50.1734 16.1685 53.2161 19.9179 53.2161H46.1415C49.8909 53.2161 52.9304 50.1734 52.9304 46.4201V20.1694C52.9304 16.4161 49.8909 13.3734 46.1415 13.3734Z" fill="#74009A"/>
<path d="M46.1012 13.4594H20.0621C16.3405 13.4594 13.3235 16.4794 13.3235 20.2049V46.271C13.3235 49.9965 16.3405 53.0166 20.0621 53.0166H46.1012C49.8228 53.0166 52.8398 49.9965 52.8398 46.271V20.2049C52.8398 16.4794 49.8228 13.4594 46.1012 13.4594Z" fill="#75009A"/>
<path d="M46.0609 13.5453H20.2062C16.5124 13.5453 13.5179 16.5428 13.5179 20.2405V46.1219C13.5179 49.8196 16.5124 52.8171 20.2062 52.8171H46.0609C49.7547 52.8171 52.7491 49.8196 52.7491 46.1219V20.2405C52.7491 16.5428 49.7547 13.5453 46.0609 13.5453Z" fill="#76009B"/>
<path d="M46.0206 13.6313H20.3504C16.6844 13.6313 13.7125 16.6062 13.7125 20.276V45.9729C13.7125 49.6427 16.6844 52.6177 20.3504 52.6177H46.0206C49.6866 52.6177 52.6585 49.6427 52.6585 45.9729V20.276C52.6585 16.6062 49.6866 13.6313 46.0206 13.6313Z" fill="#77009C"/>
<path d="M45.9804 13.7172H20.4945C16.8563 13.7172 13.907 16.6696 13.907 20.3116V45.8238C13.907 49.4658 16.8563 52.4182 20.4945 52.4182H45.9804C49.6186 52.4182 52.5679 49.4658 52.5679 45.8238V20.3116C52.5679 16.6696 49.6186 13.7172 45.9804 13.7172Z" fill="#78009C"/>
<path d="M45.9395 13.8031H20.6392C17.0285 13.8031 14.1014 16.7332 14.1014 20.3476V45.6742C14.1014 49.2886 17.0285 52.2187 20.6392 52.2187H45.9395C49.5502 52.2187 52.4772 49.2886 52.4772 45.6742V20.3476C52.4772 16.7332 49.5502 13.8031 45.9395 13.8031Z" fill="#79009D"/>
<path d="M45.8993 13.8896H20.7833C17.2005 13.8896 14.296 16.7971 14.296 20.3837V45.5257C14.296 49.1123 17.2005 52.0198 20.7833 52.0198H45.8993C49.4821 52.0198 52.3866 49.1123 52.3866 45.5257V20.3837C52.3866 16.7971 49.4821 13.8896 45.8993 13.8896Z" fill="#7A009D"/>
<path d="M45.859 13.9756H20.9275C17.3724 13.9756 14.4905 16.8605 14.4905 20.4193V45.3766C14.4905 48.9353 17.3724 51.8203 20.9275 51.8203H45.859C49.4141 51.8203 52.296 48.9353 52.296 45.3766V20.4193C52.296 16.8605 49.4141 13.9756 45.859 13.9756Z" fill="#7B009E"/>
<path d="M45.8187 14.0615H21.0716C17.5444 14.0615 14.6849 16.9239 14.6849 20.4548V45.2275C14.6849 48.7584 17.5444 51.6208 21.0716 51.6208H45.8187C49.3459 51.6208 52.2054 48.7584 52.2054 45.2275V20.4548C52.2054 16.9239 49.3459 14.0615 45.8187 14.0615Z" fill="#7C009F"/>
<path d="M45.7784 14.1474H21.2158C17.7163 14.1474 14.8795 16.9872 14.8795 20.4903V45.0784C14.8795 48.5815 17.7163 51.4213 21.2158 51.4213H45.7784C49.2779 51.4213 52.1148 48.5815 52.1148 45.0784V20.4903C52.1148 16.9872 49.2779 14.1474 45.7784 14.1474Z" fill="#7D009F"/>
<path d="M45.7382 14.2334H21.36C17.8883 14.2334 15.074 17.0506 15.074 20.5259V44.9293C15.074 48.4046 17.8883 51.2218 21.36 51.2218H45.7382C49.2098 51.2218 52.0242 48.4046 52.0242 44.9293V20.5259C52.0242 17.0506 49.2098 14.2334 45.7382 14.2334Z" fill="#7E00A0"/>
<path d="M45.6974 14.3193H21.5047C18.0605 14.3193 15.2685 17.1143 15.2685 20.562V44.7797C15.2685 48.2275 18.0605 51.0224 21.5047 51.0224H45.6974C49.1415 51.0224 51.9335 48.2275 51.9335 44.7797V20.562C51.9335 17.1143 49.1415 14.3193 45.6974 14.3193Z" fill="#7F00A0"/>
<path d="M45.657 14.4053H21.6488C18.2324 14.4053 15.463 17.1776 15.463 20.5975V44.6307C15.463 48.0505 18.2324 50.8229 21.6488 50.8229H45.657C49.0734 50.8229 51.8429 48.0505 51.8429 44.6307V20.5975C51.8429 17.1776 49.0734 14.4053 45.657 14.4053Z" fill="#8000A1"/>
<path d="M45.6168 14.4912H21.793C18.4044 14.4912 15.6575 17.241 15.6575 20.6331V44.4816C15.6575 47.8736 18.4044 50.6234 21.793 50.6234H45.6168C49.0053 50.6234 51.7523 47.8736 51.7523 44.4816V20.6331C51.7523 17.241 49.0053 14.4912 45.6168 14.4912Z" fill="#8100A1"/>
<path d="M45.5765 14.5771H21.9371C18.5764 14.5771 15.852 17.3044 15.852 20.6686V44.3325C15.852 47.6967 18.5764 50.4239 21.9371 50.4239H45.5765C48.9373 50.4239 51.6617 47.6967 51.6617 44.3325V20.6686C51.6617 17.3044 48.9373 14.5771 45.5765 14.5771Z" fill="#8200A2"/>
<path d="M45.5362 14.6631H22.0812C18.7483 14.6631 16.0464 17.3678 16.0464 20.7041V44.1834C16.0464 47.5198 18.7483 50.2245 22.0812 50.2245H45.5362C48.8691 50.2245 51.571 47.5198 51.571 44.1834V20.7041C51.571 17.3678 48.8691 14.6631 45.5362 14.6631Z" fill="#8300A3"/>
<path d="M45.4954 14.7491H22.2259C18.9205 14.7491 16.241 17.4314 16.241 20.7402V44.0338C16.241 47.3427 18.9205 50.025 22.2259 50.025H45.4954C48.8008 50.025 51.4804 47.3427 51.4804 44.0338V20.7402C51.4804 17.4314 48.8008 14.7491 45.4954 14.7491Z" fill="#8400A3"/>
<path d="M45.4552 14.835H22.3701C19.0925 14.835 16.4355 17.4948 16.4355 20.7758V43.8848C16.4355 47.1658 19.0925 49.8256 22.3701 49.8256H45.4552C48.7328 49.8256 51.3898 47.1658 51.3898 43.8848V20.7758C51.3898 17.4948 48.7328 14.835 45.4552 14.835Z" fill="#8500A4"/>
<path d="M45.4149 14.9209H22.5143C19.2645 14.9209 16.63 17.5581 16.63 20.8113V43.7357C16.63 46.9888 19.2645 49.626 22.5143 49.626H45.4149C48.6647 49.626 51.2992 46.9888 51.2992 43.7357V20.8113C51.2992 17.5581 48.6647 14.9209 45.4149 14.9209Z" fill="#8500A4"/>
<path d="M45.3746 15.0069H22.6584C19.4364 15.0069 16.8245 17.6215 16.8245 20.8468V43.5866C16.8245 46.8119 19.4364 49.4266 22.6584 49.4266H45.3746C48.5966 49.4266 51.2085 46.8119 51.2085 43.5866V20.8468C51.2085 17.6215 48.5966 15.0069 45.3746 15.0069Z" fill="#8600A5"/>
<path d="M45.3343 15.0934H22.8026C19.6084 15.0934 17.019 17.6855 17.019 20.883V43.4381C17.019 46.6356 19.6084 49.2277 22.8026 49.2277H45.3343C48.5285 49.2277 51.1179 46.6356 51.1179 43.4381V20.883C51.1179 17.6855 48.5285 15.0934 45.3343 15.0934Z" fill="#8700A5"/>
<path d="M45.294 15.1793H22.9467C19.7803 15.1793 17.2134 17.7488 17.2134 20.9185V43.289C17.2134 46.4586 19.7803 49.0281 22.9467 49.0281H45.294C48.4604 49.0281 51.0272 46.4586 51.0272 43.289V20.9185C51.0272 17.7488 48.4604 15.1793 45.294 15.1793Z" fill="#8800A6"/>
<path d="M45.2532 15.2652H23.0914C19.9525 15.2652 17.408 17.8124 17.408 20.9545V43.1393C17.408 46.2815 19.9525 48.8287 23.0914 48.8287H45.2532C48.3921 48.8287 50.9366 46.2815 50.9366 43.1393V20.9545C50.9366 17.8124 48.3921 15.2652 45.2532 15.2652Z" fill="#8900A7"/>
<path d="M45.213 15.3512H23.2356C20.1245 15.3512 17.6025 17.8758 17.6025 20.9901V42.9903C17.6025 46.1046 20.1245 48.6292 23.2356 48.6292H45.213C48.324 48.6292 50.846 46.1046 50.846 42.9903V20.9901C50.846 17.8758 48.324 15.3512 45.213 15.3512Z" fill="#8A00A7"/>
<path d="M45.1727 15.4371H23.3797C20.2965 15.4371 17.797 17.9392 17.797 21.0256V42.8412C17.797 45.9277 20.2965 48.4297 23.3797 48.4297H45.1727C48.256 48.4297 50.7554 45.9277 50.7554 42.8412V21.0256C50.7554 17.9392 48.256 15.4371 45.1727 15.4371Z" fill="#8B00A8"/>
<path d="M45.1324 15.5231H23.5238C20.4684 15.5231 17.9915 18.0026 17.9915 21.0612V42.6922C17.9915 45.7508 20.4684 48.2303 23.5238 48.2303H45.1324C48.1878 48.2303 50.6648 45.7508 50.6648 42.6922V21.0612C50.6648 18.0026 48.1878 15.5231 45.1324 15.5231Z" fill="#8C00A8"/>
<path d="M45.0921 15.609H23.668C20.6404 15.609 18.186 18.066 18.186 21.0968V42.5431C18.186 45.5739 20.6404 48.0308 23.668 48.0308H45.0921C48.1198 48.0308 50.5742 45.5739 50.5742 42.5431V21.0968C50.5742 18.066 48.1198 15.609 45.0921 15.609Z" fill="#8D00A9"/>
<path d="M45.0518 15.6949H23.8121C20.8123 15.6949 18.3804 18.1293 18.3804 21.1323V42.394C18.3804 45.3969 20.8123 47.8313 23.8121 47.8313H45.0518C48.0516 47.8313 50.4835 45.3969 50.4835 42.394V21.1323C50.4835 18.1293 48.0516 15.6949 45.0518 15.6949Z" fill="#8E00A9"/>
<path d="M45.011 15.7809H23.9568C20.9845 15.7809 18.575 18.1929 18.575 21.1683V42.2443C18.575 45.2197 20.9845 47.6318 23.9568 47.6318H45.011C47.9833 47.6318 50.3929 45.2197 50.3929 42.2443V21.1683C50.3929 18.1929 47.9833 15.7809 45.011 15.7809Z" fill="#8F00AA"/>
<path d="M44.9708 15.8669H24.101C21.1565 15.8669 18.7695 18.2563 18.7695 21.2039V42.0953C18.7695 45.0429 21.1565 47.4323 24.101 47.4323H44.9708C47.9153 47.4323 50.3023 45.0429 50.3023 42.0953V21.2039C50.3023 18.2563 47.9153 15.8669 44.9708 15.8669Z" fill="#9000AB"/>
<path d="M44.9305 15.9528H24.2452C21.3285 15.9528 18.964 18.3197 18.964 21.2394V41.9462C18.964 44.8659 21.3285 47.2328 24.2452 47.2328H44.9305C47.8472 47.2328 50.2117 44.8659 50.2117 41.9462V21.2394C50.2117 18.3197 47.8472 15.9528 44.9305 15.9528Z" fill="#9100AB"/>
<path d="M44.8902 16.0388H24.3893C21.5004 16.0388 19.1584 18.3831 19.1584 21.275V41.7972C19.1584 44.6891 21.5004 47.0334 24.3893 47.0334H44.8902C47.7791 47.0334 50.121 44.6891 50.121 41.7972V21.275C50.121 18.3831 47.7791 16.0388 44.8902 16.0388Z" fill="#9200AC"/>
<path d="M44.8499 16.1247H24.5334C21.6723 16.1247 19.353 18.4465 19.353 21.3105V41.6481C19.353 44.5121 21.6723 46.8339 24.5334 46.8339H44.8499C47.711 46.8339 50.0304 44.5121 50.0304 41.6481V21.3105C50.0304 18.4465 47.711 16.1247 44.8499 16.1247Z" fill="#9300AC"/>
<path d="M44.8097 16.2112H24.6776C21.8443 16.2112 19.5475 18.5104 19.5475 21.3466V41.4995C19.5475 44.3358 21.8443 46.635 24.6776 46.635H44.8097C47.643 46.635 49.9398 44.3358 49.9398 41.4995V21.3466C49.9398 18.5104 47.643 16.2112 44.8097 16.2112Z" fill="#9400AD"/>
<path d="M44.7688 16.2971H24.8223C22.0165 16.2971 19.7419 18.574 19.7419 21.3827V41.3499C19.7419 44.1586 22.0165 46.4355 24.8223 46.4355H44.7688C47.5746 46.4355 49.8491 44.1586 49.8491 41.3499V21.3827C49.8491 18.574 47.5746 16.2971 44.7688 16.2971Z" fill="#9500AE"/>
<path d="M44.7286 16.3831H24.9664C22.1885 16.3831 19.9365 18.6374 19.9365 21.4182V41.2008C19.9365 43.9817 22.1885 46.236 24.9664 46.236H44.7286C47.5065 46.236 49.7585 43.9817 49.7585 41.2008V21.4182C49.7585 18.6374 47.5065 16.3831 44.7286 16.3831Z" fill="#9600AE"/>
<path d="M44.6883 16.469H25.1106C22.3604 16.469 20.131 18.7008 20.131 21.4538V41.0518C20.131 43.8048 22.3604 46.0365 25.1106 46.0365H44.6883C47.4385 46.0365 49.6679 43.8048 49.6679 41.0518V21.4538C49.6679 18.7008 47.4385 16.469 44.6883 16.469Z" fill="#9700AF"/>
<path d="M44.648 16.5549H25.2547C22.5323 16.5549 20.3254 18.7641 20.3254 21.4893V40.9027C20.3254 43.6279 22.5323 45.837 25.2547 45.837H44.648C47.3703 45.837 49.5772 43.6279 49.5772 40.9027V21.4893C49.5772 18.7641 47.3703 16.5549 44.648 16.5549Z" fill="#9800AF"/>
<path d="M44.6077 16.6409H25.3989C22.7043 16.6409 20.52 18.8275 20.52 21.5249V40.7536C20.52 43.451 22.7043 45.6376 25.3989 45.6376H44.6077C47.3023 45.6376 49.4866 43.451 49.4866 40.7536V21.5249C49.4866 18.8275 47.3023 16.6409 44.6077 16.6409Z" fill="#9900B0"/>
<path d="M44.5669 16.7268H25.5436C22.8765 16.7268 20.7145 18.8911 20.7145 21.5609V40.604C20.7145 43.2738 22.8765 45.4381 25.5436 45.4381H44.5669C47.234 45.4381 49.396 43.2738 49.396 40.604V21.5609C49.396 18.8911 47.234 16.7268 44.5669 16.7268Z" fill="#9A00B0"/>
<path d="M44.5266 16.8128H25.6877C23.0485 16.8128 20.9089 18.9545 20.9089 21.5965V40.4549C20.9089 43.0969 23.0485 45.2386 25.6877 45.2386H44.5266C47.1658 45.2386 49.3054 43.0969 49.3054 40.4549V21.5965C49.3054 18.9545 47.1658 16.8128 44.5266 16.8128Z" fill="#9B00B1"/>
<path d="M44.4864 16.8987H25.8319C23.2204 16.8987 21.1035 19.0179 21.1035 21.632V40.3058C21.1035 42.92 23.2204 45.0392 25.8319 45.0392H44.4864C47.0978 45.0392 49.2148 42.92 49.2148 40.3058V21.632C49.2148 19.0179 47.0978 16.8987 44.4864 16.8987Z" fill="#9C00B2"/>
<path d="M44.4461 16.9847H25.976C23.3924 16.9847 21.298 19.0813 21.298 21.6676V40.1568C21.298 42.7431 23.3924 44.8397 25.976 44.8397H44.4461C47.0297 44.8397 49.1242 42.7431 49.1242 40.1568V21.6676C49.1242 19.0813 47.0297 16.9847 44.4461 16.9847Z" fill="#9D00B2"/>
<path d="M44.4058 17.0706H26.1201C23.5643 17.0706 21.4924 19.1447 21.4924 21.7031V40.0077C21.4924 42.5662 23.5643 44.6402 26.1201 44.6402H44.4058C46.9616 44.6402 49.0335 42.5662 49.0335 40.0077V21.7031C49.0335 19.1447 46.9616 17.0706 44.4058 17.0706Z" fill="#9E00B3"/>
<path d="M44.3655 17.1566H26.2643C23.7363 17.1566 21.687 19.208 21.687 21.7387V39.8586C21.687 42.3893 23.7363 44.4407 26.2643 44.4407H44.3655C46.8935 44.4407 48.9429 42.3893 48.9429 39.8586V21.7387C48.9429 19.208 46.8935 17.1566 44.3655 17.1566Z" fill="#9F00B3"/>
<path d="M44.3247 17.2425H26.409C23.9085 17.2425 21.8815 19.2716 21.8815 21.7747V39.709C21.8815 42.2121 23.9085 44.2412 26.409 44.2412H44.3247C46.8252 44.2412 48.8523 42.2121 48.8523 39.709V21.7747C48.8523 19.2716 46.8252 17.2425 44.3247 17.2425Z" fill="#A000B4"/>
<path d="M44.2845 17.329H26.5532C24.0805 17.329 22.076 19.3356 22.076 21.8108V39.5605C22.076 42.0357 24.0805 44.0423 26.5532 44.0423H44.2845C46.7572 44.0423 48.7617 42.0357 48.7617 39.5605V21.8108C48.7617 19.3356 46.7572 17.329 44.2845 17.329Z" fill="#A100B4"/>
<path d="M44.2441 17.4149H26.6973C24.2524 17.4149 22.2704 19.3989 22.2704 21.8464V39.4114C22.2704 41.8588 24.2524 43.8428 26.6973 43.8428H44.2441C46.689 43.8428 48.671 41.8588 48.671 39.4114V21.8464C48.671 19.3989 46.689 17.4149 44.2441 17.4149Z" fill="#A200B5"/>
<path d="M44.2039 17.5009H26.8415C24.4244 17.5009 22.465 19.4623 22.465 21.8819V39.2623C22.465 41.6819 24.4244 43.6434 26.8415 43.6434H44.2039C46.621 43.6434 48.5804 41.6819 48.5804 39.2623V21.8819C48.5804 19.4623 46.621 17.5009 44.2039 17.5009Z" fill="#A300B6"/>
<path d="M44.1636 17.5868H26.9856C24.5964 17.5868 22.6595 19.5257 22.6595 21.9174V39.1132C22.6595 41.505 24.5964 43.4439 26.9856 43.4439H44.1636C46.5529 43.4439 48.4898 41.505 48.4898 39.1132V21.9174C48.4898 19.5257 46.5529 17.5868 44.1636 17.5868Z" fill="#A400B6"/>
<path d="M44.1233 17.6728H27.1298C24.7683 17.6728 22.8539 19.5891 22.8539 21.953V38.9642C22.8539 41.3281 24.7683 43.2444 27.1298 43.2444H44.1233C46.4848 43.2444 48.3991 41.3281 48.3991 38.9642V21.953C48.3991 19.5891 46.4848 17.6728 44.1233 17.6728Z" fill="#A500B7"/>
<path d="M44.0825 17.7587H27.2745C24.9405 17.7587 23.0485 19.6527 23.0485 21.9891V38.8146C23.0485 41.1509 24.9405 43.0449 27.2745 43.0449H44.0825C46.4165 43.0449 48.3085 41.1509 48.3085 38.8146V21.9891C48.3085 19.6527 46.4165 17.7587 44.0825 17.7587Z" fill="#A600B7"/>
<path d="M44.0423 17.8446H27.4186C25.1125 17.8446 23.243 19.7161 23.243 22.0246V38.6655C23.243 40.974 25.1125 42.8454 27.4186 42.8454H44.0423C46.3484 42.8454 48.2179 40.974 48.2179 38.6655V22.0246C48.2179 19.7161 46.3484 17.8446 44.0423 17.8446Z" fill="#A700B8"/>
<path d="M44.0019 17.9306H27.5627C25.2844 17.9306 23.4374 19.7794 23.4374 22.0602V38.5164C23.4374 40.7971 25.2844 42.646 27.5627 42.646H44.0019C46.2803 42.646 48.1272 40.7971 48.1272 38.5164V22.0602C48.1272 19.7794 46.2803 17.9306 44.0019 17.9306Z" fill="#A800B9"/>
<path d="M43.9617 18.0165H27.7069C25.4564 18.0165 23.632 19.8429 23.632 22.0957V38.3673C23.632 40.6202 25.4564 42.4465 27.7069 42.4465H43.9617C46.2122 42.4465 48.0366 40.6202 48.0366 38.3673V22.0957C48.0366 19.8429 46.2122 18.0165 43.9617 18.0165Z" fill="#A900B9"/>
<path d="M43.9214 18.1025H27.8511C25.6284 18.1025 23.8265 19.9062 23.8265 22.1313V38.2183C23.8265 40.4433 25.6284 42.247 27.8511 42.247H43.9214C46.1442 42.247 47.946 40.4433 47.946 38.2183V22.1313C47.946 19.9062 46.1442 18.1025 43.9214 18.1025Z" fill="#AA00BA"/>
<path d="M43.8811 18.1884H27.9952C25.8003 18.1884 24.0209 19.9696 24.0209 22.1668V38.0692C24.0209 40.2664 25.8003 42.0475 27.9952 42.0475H43.8811C46.076 42.0475 47.8554 40.2664 47.8554 38.0692V22.1668C47.8554 19.9696 46.076 18.1884 43.8811 18.1884Z" fill="#AB00BA"/>
<path d="M43.8403 18.2744H28.1399C25.9725 18.2744 24.2155 20.0332 24.2155 22.2029V37.9196C24.2155 40.0892 25.9725 41.8481 28.1399 41.8481H43.8403C46.0077 41.8481 47.7648 40.0892 47.7648 37.9196V22.2029C47.7648 20.0332 46.0077 18.2744 43.8403 18.2744Z" fill="#AC00BB"/>
<path d="M43.8001 18.3603H28.2841C26.1445 18.3603 24.41 20.0966 24.41 22.2384V37.7705C24.41 39.9123 26.1445 41.6486 28.2841 41.6486H43.8001C45.9397 41.6486 47.6742 39.9123 47.6742 37.7705V22.2384C47.6742 20.0966 45.9397 18.3603 43.8001 18.3603Z" fill="#AD00BB"/>
<path d="M43.7597 18.4468H28.4282C26.3164 18.4468 24.6044 20.1605 24.6044 22.2745V37.6219C24.6044 39.7359 26.3164 41.4496 28.4282 41.4496H43.7597C45.8715 41.4496 47.5835 39.7359 47.5835 37.6219V22.2745C47.5835 20.1605 45.8715 18.4468 43.7597 18.4468Z" fill="#AE00BC"/>
<path d="M2.29904 22.9642C2.16828 24.0772 2.19093 25.2029 2.36635 26.3097C2.54919 27.4535 2.82159 28.097 2.75482 28.123C2.61385 28.176 0.805054 25.5887 0.482301 22.2342C0.410755 21.4915 0.0434826 17.043 2.67956 14.5029C4.90227 12.3612 8.04499 12.1156 11.3488 13.2546C18.1288 15.5889 25.9273 19.2192 28.653 17.1858C29.3395 16.6593 29.8544 15.9407 30.1326 15.121C30.3942 14.2187 30.3634 13.2566 30.0447 12.3729C29.961 12.1654 29.8554 11.9675 29.7299 11.7824C29.3589 11.2418 28.9879 11.1627 28.9185 10.8036C28.903 10.6842 28.9126 10.563 28.9468 10.4476C28.9809 10.3322 29.0388 10.2252 29.1167 10.1335C29.5394 9.77542 30.0669 9.56448 30.6197 9.53246C31.0259 9.5309 31.425 9.63804 31.776 9.84277C32.1269 10.0475 32.4167 10.3424 32.6156 10.697C33.5102 12.3055 32.0464 14.9698 31.845 15.3252C29.264 19.8803 21.9488 19.693 20.5566 19.5805C15.5939 19.1789 9.59411 13.6689 7.04229 13.3978C5.29338 13.6074 4.24828 16.4043 3.99283 16.999C2.49354 20.4904 3.78562 23.8772 3.97959 24.3642L2.29904 22.9642Z" fill="url(#paint3_radial_405_2)"/>
<path d="M21.0892 35.5837C31.1306 40.0677 43.1816 37.5562 51.7364 30.9432C46.4605 33.0059 39.1496 29.6588 33.4783 29.6259C27.5278 29.4222 22.6955 33.4059 16.8934 33.1226C18.2083 34.0782 19.6136 34.9025 21.0892 35.5837Z" fill="url(#paint4_linear_405_2)"/>
<path d="M63.5648 37.1206C62.9029 32.4138 58.7591 30.4297 54.6301 30.6223C52.9601 30.8185 51.0898 32.0069 47.3784 34.364C32.6707 44.1256 16.5166 38.2851 3.28742 25.6104C3.46337 27.0847 4.91655 29.3548 6.14397 30.5745C4.53338 29.6355 1.39754 28.8116 0 29.3081C15.887 33.5311 28.1145 61.915 45.3767 39.2867C50.0993 34.6712 55.7642 32.3438 58.6345 34.5004C60.0654 35.5736 60.35 37.6262 60.35 37.6262C60.484 38.4964 60.38 39.3867 60.049 40.2024C58.943 42.8099 55.5442 43.6418 53.2564 43.5054C51.553 43.4041 48.4421 42.646 47.7775 40.4332C47.5986 39.7834 47.614 39.0954 47.822 38.4543C47.3387 38.5509 46.1092 38.8634 45.6629 39.8305C45.027 41.2099 46.381 43.0603 47.1235 43.7033C52.8504 48.6743 63.6618 44.8805 63.5648 37.1206Z" fill="url(#paint5_radial_405_2)"/>
<path d="M33.3883 26.1409C33.3149 25.7547 33.0937 25.4124 32.7719 25.187C32.45 24.9616 32.0529 24.871 31.6653 24.9345C31.3081 24.9728 30.972 25.1228 30.7049 25.3633C30.4379 25.6039 30.2533 25.9226 30.1777 26.2741C31.2246 25.9911 32.3215 25.9456 33.3883 26.1409Z" fill="url(#paint6_radial_405_2)"/>
<path d="M37.1404 29.6185C35.1944 25.5897 28.5697 25.2518 26.7254 29.5697C27.1401 29.3824 27.5677 29.225 28.0048 29.0986C28.0048 29.0986 28.486 28.9612 29.0059 28.871C30.6688 28.6838 32.3488 28.7102 34.0051 28.9495C35.0634 29.1051 36.1107 29.3286 37.1404 29.6185Z" fill="url(#paint7_radial_405_2)"/>
<path d="M30.5826 52.1444C30.979 52.129 31.3775 52.1184 31.783 52.1184C32.1884 52.1184 32.5853 52.129 32.9812 52.1444C32.4613 50.7974 33.2409 49.2213 34.1625 48.5231C32.5922 48.8425 30.9737 48.8425 29.4034 48.5231C30.3266 49.2234 31.1014 50.7964 30.5826 52.1444Z" fill="url(#paint8_linear_405_2)"/>
<path d="M31.7829 52.7662C28.8016 52.7388 25.837 53.2143 23.0135 54.1726C25.8223 54.3137 28.7563 54.3906 31.7829 54.3906C34.8096 54.3906 37.7446 54.3137 40.5524 54.1726C37.7288 53.2143 34.7642 52.7388 31.7829 52.7662Z" fill="url(#paint9_linear_405_2)"/>
<path d="M24.7481 17.8033C21.2423 17.555 15.7916 15.0711 10.892 13.3161C8.64648 12.5119 6.4789 12.4021 4.64838 13.1671C4.7867 13.1575 4.92555 13.1512 5.06653 13.1512C5.7978 13.1493 6.52281 13.286 7.20337 13.5538C9.84952 14.3294 15.2224 19.2378 19.7107 19.615C20.6774 19.6962 24.6129 19.8145 27.6523 18.1577C26.6786 18.0922 25.7091 17.9739 24.7481 17.8033Z" fill="url(#paint10_radial_405_2)"/>
<path d="M31.9541 37.7891C28.258 37.8135 24.5987 37.0541 21.2169 35.5609C20.1231 35.0609 19.0704 34.4755 18.0683 33.8102C20.5857 33.6924 22.9557 32.8648 25.2532 32.0621C27.7255 31.1984 30.2821 30.3055 33.0114 30.3055C33.1527 30.3055 33.2964 30.3078 33.4423 30.3124C35.7312 30.4214 38.0049 30.7439 40.2339 31.2759C42.7248 31.7799 45.3031 32.3014 47.698 32.3014C48.4236 32.3055 49.1483 32.2509 49.8651 32.138C44.5788 35.7434 38.3482 37.7091 31.952 37.7896L31.9541 37.7891ZM45.0588 39.3769L45.0747 39.3552L45.0943 39.3366C48.6928 35.8182 52.8377 33.6324 55.911 33.6324C56.9561 33.5981 57.9833 33.9094 58.8338 34.5184C60.3707 35.6712 60.6818 37.8002 60.6945 37.8909C60.8398 38.8275 60.7265 39.7861 60.367 40.6629C59.2578 43.2778 56.0917 44.2063 53.7174 44.2063C53.5457 44.2063 53.3756 44.201 53.2108 44.1914C51.3919 44.0853 48.1204 43.2588 47.3986 40.8555C47.2498 40.3458 47.217 39.8092 47.3026 39.2851C47.0255 39.3581 46.7656 39.4856 46.5381 39.6601C46.3107 39.8346 46.1202 40.0527 45.9777 40.3016C45.4536 41.4369 46.6089 43.1012 47.3445 43.7399C49.0439 45.1623 51.1979 45.9248 53.4127 45.888C56.2165 45.907 58.9164 44.8263 60.9341 42.8773C61.6518 42.1726 62.2198 41.3301 62.6042 40.4002C62.9887 39.4703 63.1815 38.4723 63.1711 37.466C62.5187 32.9189 58.6027 31.2976 55.151 31.2976C54.9809 31.2976 54.8081 31.3013 54.6375 31.3093C53.0539 31.5008 51.2128 32.6706 47.5602 34.9906C42.8943 38.1886 37.3783 39.9142 31.7236 39.9446C22.6579 39.9446 13.0972 35.5206 4.00606 27.133C4.92644 28.8598 6.05991 30.4639 7.37986 31.9077L5.93569 31.2143C4.73922 30.5732 3.44207 30.1415 2.10028 29.9379C6.65433 31.7279 10.9217 35.2744 15.066 38.7185C20.7442 43.4402 26.107 47.8966 31.8821 47.8966C36.3773 47.8907 40.6881 45.1055 45.0598 39.3769H45.0588ZM32.0426 25.968C32.2795 25.968 32.517 25.9786 32.7533 26.0004C32.6393 25.8751 32.5001 25.7756 32.3448 25.7082C32.1895 25.6409 32.0216 25.6074 31.8524 25.6099C31.7966 25.6098 31.7408 25.6132 31.6854 25.62C31.3513 25.6592 31.0425 25.8178 30.8158 26.0667C31.2214 26.0006 31.6317 25.9676 32.0426 25.968ZM31.7247 27.1505C30.9138 27.1197 30.1076 27.2872 29.376 27.6384C28.6444 27.9897 28.0093 28.5142 27.5257 29.1665C27.6439 29.1278 27.7631 29.0906 27.8818 29.0567C27.9348 29.0418 28.4065 28.9092 28.9206 28.8201C29.5762 28.7164 30.2394 28.668 30.9032 28.6753C31.9515 28.6809 32.9983 28.7552 34.0369 28.8975C34.8017 29.0095 35.5691 29.1591 36.3291 29.3432C35.7836 28.6453 35.0837 28.0839 34.2845 27.7031C33.4853 27.3223 32.6086 27.1326 31.7236 27.1489L31.7247 27.1505ZM31.7607 52.0638C31.9865 52.0638 32.2175 52.067 32.4672 52.0734C32.3297 51.1225 32.5673 50.1553 33.1296 49.3767C32.2195 49.4758 31.3013 49.4758 30.3912 49.3767C30.9528 50.1558 31.1897 51.1231 31.0516 52.0739C31.3012 52.0654 31.536 52.0622 31.7575 52.0622L31.7607 52.0638ZM38.3117 54.2145C34.003 53.2009 29.5183 53.2009 25.2097 54.2145C27.3752 54.2952 29.5703 54.336 31.7607 54.336C33.9511 54.336 36.1452 54.2936 38.3106 54.2129L38.3117 54.2145Z" fill="url(#paint11_linear_405_2)"/>
<path d="M47.67 55.9918C47.1988 47.8051 45.079 39.7984 41.4378 32.4528C37.7966 25.1072 32.7093 18.5744 26.4817 13.2472H18.1611C16.2734 13.2472 14.4631 13.9978 13.1283 15.334C11.7935 16.6702 11.0436 18.4824 11.0436 20.3721V48.9396C11.0436 50.8292 11.7935 52.6415 13.1283 53.9776C14.4631 55.3138 16.2734 56.0645 18.1611 56.0645H46.7001C47.0247 56.0623 47.3487 56.038 47.67 55.9918Z" fill="url(#paint12_radial_405_2)"/>
<defs>
<radialGradient id="paint0_radial_405_2" cx="0" cy="0" r="1" gradientUnits="userSpaceOnUse" gradientTransform="translate(-30.3477 37.0975) scale(0.27853 0.250754)">
<stop stop-color="white"/>
<stop offset="0.21" stop-color="white" stop-opacity="0.992"/>
<stop offset="0.286" stop-color="white" stop-opacity="0.965"/>
<stop offset="0.34" stop-color="white" stop-opacity="0.922"/>
<stop offset="0.384" stop-color="white" stop-opacity="0.855"/>
<stop offset="0.421" stop-color="white" stop-opacity="0.769"/>
<stop offset="0.454" stop-color="white" stop-opacity="0.659"/>
<stop offset="0.484" stop-color="white" stop-opacity="0.533"/>
<stop offset="0.512" stop-color="white" stop-opacity="0.384"/>
<stop offset="0.537" stop-color="white" stop-opacity="0.216"/>
<stop offset="0.56" stop-color="white" stop-opacity="0.035"/>
<stop offset="0.564" stop-color="white" stop-opacity="0"/>
<stop offset="0.718" stop-color="white" stop-opacity="0"/>
</radialGradient>
<radialGradient id="paint1_radial_405_2" cx="0" cy="0" r="1" gradientUnits="userSpaceOnUse" gradientTransform="translate(2.62055 7.15135) scale(7.69325 7.69897)">
<stop offset="0.34" stop-color="#E795FE"/>
<stop offset="0.346" stop-color="#E58FFC"/>
<stop offset="0.371" stop-color="#E179F8"/>
<stop offset="0.4" stop-color="#DE68F4"/>
<stop offset="0.437" stop-color="#DC5CF1"/>
<stop offset="0.488" stop-color="#DB55F0"/>
<stop offset="0.63" stop-color="#DB54F0"/>
<stop offset="1" stop-color="#9013AC"/>
</radialGradient>
<radialGradient id="paint2_radial_405_2" cx="0" cy="0" r="1" gradientUnits="userSpaceOnUse" gradientTransform="translate(-26.9304 48.9763) rotate(32.9724) scale(11.1512 5.72425)">
<stop offset="0.34" stop-color="#E795FE"/>
<stop offset="0.346" stop-color="#E58FFC"/>
<stop offset="0.371" stop-color="#E179F8"/>
<stop offset="0.4" stop-color="#DE68F4"/>
<stop offset="0.437" stop-color="#DC5CF1"/>
<stop offset="0.488" stop-color="#DB55F0"/>
<stop offset="0.63" stop-color="#DB54F0"/>
<stop offset="1" stop-color="#9013AC"/>
</radialGradient>
<radialGradient id="paint3_radial_405_2" cx="0" cy="0" r="1" gradientUnits="userSpaceOnUse" gradientTransform="translate(-35.7073 17.5616) rotate(-0.300811) scale(3.67839 4.08967)">
<stop offset="0.34" stop-color="#E795FE"/>
<stop offset="0.346" stop-color="#E58FFC"/>
<stop offset="0.371" stop-color="#E179F8"/>
<stop offset="0.4" stop-color="#DE68F4"/>
<stop offset="0.437" stop-color="#DC5CF1"/>
<stop offset="0.488" stop-color="#DB55F0"/>
<stop offset="0.63" stop-color="#DB54F0"/>
<stop offset="1" stop-color="#9013AC"/>
</radialGradient>
<linearGradient id="paint4_linear_405_2" x1="19.0536" y1="16.7429" x2="21.5845" y2="62.1885" gradientUnits="userSpaceOnUse">
<stop stop-color="white"/>
<stop offset="0.144" stop-color="#FEFEFD"/>
<stop offset="0.196" stop-color="#FEFDF6"/>
<stop offset="0.233" stop-color="#FEFBEA"/>
<stop offset="0.263" stop-color="#FEF8D9"/>
<stop offset="0.289" stop-color="#FEF5C3"/>
<stop offset="0.311" stop-color="#FEF0A8"/>
<stop offset="0.331" stop-color="#FEEB88"/>
<stop offset="0.345" stop-color="#FEE76F"/>
<stop offset="0.358" stop-color="#FADA5A"/>
<stop offset="0.377" stop-color="#F6CE44"/>
<stop offset="0.398" stop-color="#F3C433"/>
<stop offset="0.425" stop-color="#F1BD27"/>
<stop offset="0.463" stop-color="#F0BA20"/>
<stop offset="0.568" stop-color="#F0B91F"/>
<stop offset="1" stop-color="#AC7025"/>
</linearGradient>
<radialGradient id="paint5_radial_405_2" cx="0" cy="0" r="1" gradientUnits="userSpaceOnUse" gradientTransform="translate(-74.1787 15.0007) scale(60.9996 61.0674)">
<stop stop-color="white"/>
<stop offset="0.144" stop-color="#FEFEFD"/>
<stop offset="0.196" stop-color="#FEFDF6"/>
<stop offset="0.233" stop-color="#FEFBEA"/>
<stop offset="0.263" stop-color="#FEF8D9"/>
<stop offset="0.289" stop-color="#FEF5C3"/>
<stop offset="0.311" stop-color="#FEF0A8"/>
<stop offset="0.331" stop-color="#FEEB88"/>
<stop offset="0.345" stop-color="#FEE76F"/>
<stop offset="0.358" stop-color="#FADA5A"/>
<stop offset="0.377" stop-color="#F6CE44"/>
<stop offset="0.398" stop-color="#F3C433"/>
<stop offset="0.425" stop-color="#F1BD27"/>
<stop offset="0.463" stop-color="#F0BA20"/>
<stop offset="0.568" stop-color="#F0B91F"/>
<stop offset="1" stop-color="#AC7025"/>
</radialGradient>
<radialGradient id="paint6_radial_405_2" cx="0" cy="0" r="1" gradientUnits="userSpaceOnUse" gradientTransform="translate(-63.938 14.9492) scale(61.0339 61.3823)">
<stop stop-color="white"/>
<stop offset="0.144" stop-color="#FEFEFD"/>
<stop offset="0.196" stop-color="#FEFDF6"/>
<stop offset="0.233" stop-color="#FEFBEA"/>
<stop offset="0.263" stop-color="#FEF8D9"/>
<stop offset="0.289" stop-color="#FEF5C3"/>
<stop offset="0.311" stop-color="#FEF0A8"/>
<stop offset="0.331" stop-color="#FEEB88"/>
<stop offset="0.345" stop-color="#FEE76F"/>
<stop offset="0.358" stop-color="#FADA5A"/>
<stop offset="0.377" stop-color="#F6CE44"/>
<stop offset="0.398" stop-color="#F3C433"/>
<stop offset="0.425" stop-color="#F1BD27"/>
<stop offset="0.463" stop-color="#F0BA20"/>
<stop offset="0.568" stop-color="#F0B91F"/>
<stop offset="1" stop-color="#AC7025"/>
</radialGradient>
<radialGradient id="paint7_radial_405_2" cx="0" cy="0" r="1" gradientUnits="userSpaceOnUse" gradientTransform="translate(-81.204 15.0089) scale(61.0606 61.0672)">
<stop stop-color="white"/>
<stop offset="0.144" stop-color="#FEFEFD"/>
<stop offset="0.196" stop-color="#FEFDF6"/>
<stop offset="0.233" stop-color="#FEFBEA"/>
<stop offset="0.263" stop-color="#FEF8D9"/>
<stop offset="0.289" stop-color="#FEF5C3"/>
<stop offset="0.311" stop-color="#FEF0A8"/>
<stop offset="0.331" stop-color="#FEEB88"/>
<stop offset="0.345" stop-color="#FEE76F"/>
<stop offset="0.358" stop-color="#FADA5A"/>
<stop offset="0.377" stop-color="#F6CE44"/>
<stop offset="0.398" stop-color="#F3C433"/>
<stop offset="0.425" stop-color="#F1BD27"/>
<stop offset="0.463" stop-color="#F0BA20"/>
<stop offset="0.568" stop-color="#F0B91F"/>
<stop offset="1" stop-color="#AC7025"/>
</radialGradient>
<linearGradient id="paint8_linear_405_2" x1="8.9295" y1="26.8675" x2="38.4584" y2="77.9193" gradientUnits="userSpaceOnUse">
<stop stop-color="white"/>
<stop offset="0.345" stop-color="#FEE76F"/>
<stop offset="0.358" stop-color="#FADA5A"/>
<stop offset="0.377" stop-color="#F6CE44"/>
<stop offset="0.398" stop-color="#F3C433"/>
<stop offset="0.425" stop-color="#F1BD27"/>
<stop offset="0.463" stop-color="#F0BA20"/>
<stop offset="0.568" stop-color="#F0B91F"/>
<stop offset="1" stop-color="#AC7025"/>
</linearGradient>
<linearGradient id="paint9_linear_405_2" x1="6.71985" y1="29.0658" x2="7.09348" y2="72.6434" gradientUnits="userSpaceOnUse">
<stop stop-color="white"/>
<stop offset="0.345" stop-color="#FEE76F"/>
<stop offset="0.358" stop-color="#FADA5A"/>
<stop offset="0.377" stop-color="#F6CE44"/>
<stop offset="0.398" stop-color="#F3C433"/>
<stop offset="0.425" stop-color="#F1BD27"/>
<stop offset="0.463" stop-color="#F0BA20"/>
<stop offset="0.568" stop-color="#F0B91F"/>
<stop offset="1" stop-color="#AC7025"/>
</linearGradient>
<radialGradient id="paint10_radial_405_2" cx="0" cy="0" r="1" gradientUnits="userSpaceOnUse" gradientTransform="translate(-83.6467 14.6738) scale(14.4759 14.5019)">
<stop offset="0.34" stop-color="#E795FE"/>
<stop offset="0.346" stop-color="#E58FFC"/>
<stop offset="0.371" stop-color="#E179F8"/>
<stop offset="0.4" stop-color="#DE68F4"/>
<stop offset="0.437" stop-color="#DC5CF1"/>
<stop offset="0.488" stop-color="#DB55F0"/>
<stop offset="0.63" stop-color="#DB54F0"/>
<stop offset="1" stop-color="#9013AC"/>
</radialGradient>
<linearGradient id="paint11_linear_405_2" x1="31.9641" y1="32.5615" x2="34.7012" y2="44.9354" gradientUnits="userSpaceOnUse">
<stop offset="0.004" stop-color="#F0B91F"/>
<stop offset="0.127" stop-color="#FEE76F"/>
<stop offset="0.13" stop-color="#FEEB88"/>
<stop offset="0.134" stop-color="#FEF0A8"/>
<stop offset="0.138" stop-color="#FEF5C3"/>
<stop offset="0.143" stop-color="#FEF8D9"/>
<stop offset="0.149" stop-color="#FEFBEA"/>
<stop offset="0.157" stop-color="#FEFDF6"/>
<stop offset="0.167" stop-color="#FEFEFD"/>
<stop offset="0.196" stop-color="white"/>
<stop offset="0.338" stop-color="#FEFEFD"/>
<stop offset="0.389" stop-color="#FEFCF6"/>
<stop offset="0.426" stop-color="#FDF8EA"/>
<stop offset="0.455" stop-color="#FCF3D9"/>
<stop offset="0.481" stop-color="#FBECC3"/>
<stop offset="0.503" stop-color="#F9E3A8"/>
<stop offset="0.523" stop-color="#F7D987"/>
<stop offset="0.542" stop-color="#F4CE62"/>
<stop offset="0.559" stop-color="#F1C139"/>
<stop offset="0.568" stop-color="#F0B91F"/>
</linearGradient>
<radialGradient id="paint12_radial_405_2" cx="0" cy="0" r="1" gradientUnits="userSpaceOnUse" gradientTransform="translate(120.19 -0.0690266) scale(123.847 123.956)">
<stop stop-color="white" stop-opacity="0.549"/>
<stop offset="0.21" stop-color="white" stop-opacity="0.545"/>
<stop offset="0.286" stop-color="white" stop-opacity="0.529"/>
<stop offset="0.34" stop-color="white" stop-opacity="0.506"/>
<stop offset="0.384" stop-color="white" stop-opacity="0.471"/>
<stop offset="0.421" stop-color="white" stop-opacity="0.424"/>
<stop offset="0.454" stop-color="white" stop-opacity="0.365"/>
<stop offset="0.484" stop-color="white" stop-opacity="0.294"/>
<stop offset="0.512" stop-color="white" stop-opacity="0.212"/>
<stop offset="0.537" stop-color="white" stop-opacity="0.118"/>
<stop offset="0.56" stop-color="white" stop-opacity="0.02"/>
<stop offset="0.564" stop-color="white" stop-opacity="0"/>
<stop offset="0.718" stop-color="white" stop-opacity="0"/>
</radialGradient>
</defs>
</svg>
