<svg width="138" height="61" viewBox="0 0 138 61" fill="none" xmlns="http://www.w3.org/2000/svg">
<path d="M65.6102 17.1432H67.2531C67.4482 17.1432 67.6353 17.2208 67.7732 17.3589C67.9112 17.497 67.9887 17.6843 67.9887 17.8796V19.4362H68.1689C68.3147 19.1084 68.496 18.7976 68.7094 18.5093C69.0588 18.0458 69.4963 17.656 69.9967 17.3624C70.6859 16.9839 71.4622 16.793 72.2482 16.8088C73.0341 16.8247 73.8021 17.0466 74.4755 17.4525C75.0134 17.8013 75.4736 18.2573 75.8275 18.7921C76.0401 19.1157 76.2169 19.4615 76.3548 19.8234H76.535C76.8845 19.0959 77.3499 18.43 77.9129 17.852C78.5567 17.156 79.5735 16.808 80.9635 16.808C81.9706 16.7613 82.9612 17.0767 83.7564 17.6971C84.4573 18.2735 84.9872 19.0311 85.2886 19.8876C85.5889 20.7093 85.7456 21.5767 85.7517 22.4516V30.0126C85.7517 30.2079 85.6743 30.3952 85.5363 30.5333C85.3983 30.6714 85.2112 30.749 85.0161 30.749H83.3732C83.1782 30.7489 82.9912 30.6712 82.8532 30.5332C82.7153 30.3951 82.6378 30.2079 82.6376 30.0126V22.7604C82.6702 22.3251 82.6153 21.8877 82.4761 21.474C82.3369 21.0603 82.1163 20.6787 81.8273 20.3518C81.5638 20.0854 81.2485 19.8759 80.9009 19.7362C80.5534 19.5965 80.1809 19.5296 79.8065 19.5396C79.4226 19.5334 79.0414 19.6044 78.6854 19.7483C78.3294 19.8922 78.0058 20.1061 77.7338 20.3773C77.4339 20.6937 77.2024 21.0686 77.0541 21.4787C76.9057 21.8888 76.8435 22.3251 76.8715 22.7604V30.0126C76.8715 30.2079 76.794 30.3952 76.6561 30.5333C76.5181 30.6714 76.331 30.749 76.1359 30.749H74.493C74.298 30.7489 74.1109 30.6712 73.973 30.5332C73.8351 30.3951 73.7576 30.2079 73.7574 30.0126V22.7604C73.7899 22.3251 73.7349 21.8876 73.5956 21.4739C73.4563 21.0602 73.2356 20.6787 72.9466 20.3518C72.6831 20.0855 72.3679 19.876 72.0205 19.7363C71.673 19.5966 71.3006 19.5297 70.9263 19.5396C70.5424 19.5334 70.1612 19.6044 69.8052 19.7483C69.4492 19.8922 69.1256 20.1061 68.8536 20.3773C68.5536 20.6937 68.3222 21.0686 68.1738 21.4787C68.0255 21.8888 67.9633 22.3251 67.9913 22.7604V30.0126C67.9913 30.2079 67.9138 30.3952 67.7759 30.5333C67.6379 30.6714 67.4508 30.749 67.2557 30.749H65.6128C65.4177 30.749 65.2306 30.6714 65.0927 30.5333C64.9547 30.3952 64.8772 30.2079 64.8772 30.0126V17.8796C64.8772 17.6848 64.9543 17.4979 65.0917 17.3599C65.2291 17.2218 65.4155 17.1439 65.6102 17.1432Z" fill="white"/>
<path d="M89.1489 28.9967C88.1299 27.4968 87.6241 25.7066 87.7074 23.8947C87.7074 21.7648 88.1965 20.051 89.1748 18.7534C89.6427 18.1212 90.2582 17.6134 90.9675 17.2745C91.6767 16.9355 92.4582 16.7757 93.2434 16.809C94.2399 16.7518 95.2257 17.0385 96.0364 17.6213C96.6571 18.0916 97.1556 18.7046 97.4896 19.4086H97.6952V17.8775C97.6952 17.6822 97.7727 17.4949 97.9107 17.3568C98.0486 17.2187 98.2357 17.1411 98.4308 17.1411H100.1C100.295 17.1413 100.482 17.2189 100.62 17.357C100.758 17.495 100.836 17.6822 100.836 17.8775V30.0105C100.836 30.2058 100.758 30.393 100.62 30.5311C100.482 30.6691 100.295 30.7467 100.1 30.7469H98.4308C98.2357 30.7469 98.0486 30.6693 97.9107 30.5312C97.7727 30.3931 97.6952 30.2058 97.6952 30.0105V28.2471H97.4896C97.1372 28.9844 96.617 29.6287 95.9707 30.1283C95.1579 30.7177 94.1671 31.0091 93.165 30.9532C92.3861 30.9857 91.6112 30.8239 90.9102 30.4824C90.2092 30.1409 89.604 29.6304 89.1489 28.9967ZM96.807 27.064C97.4045 26.108 97.7048 24.9958 97.6698 23.8687C97.706 22.7452 97.4055 21.6366 96.807 20.6855C96.515 20.2827 96.1318 19.9548 95.6889 19.7287C95.2459 19.5026 94.7558 19.3848 94.2586 19.3848C93.7614 19.3848 93.2713 19.5026 92.8283 19.7287C92.3854 19.9548 92.0022 20.2827 91.7102 20.6855C91.1596 21.6584 90.8712 22.758 90.8734 23.8762C90.8757 24.9944 91.1684 26.0928 91.7229 27.0635C92.0111 27.4698 92.3922 27.8011 92.8344 28.0298C93.2767 28.2584 93.7672 28.3778 94.265 28.3778C94.7627 28.3778 95.2532 28.2584 95.6955 28.0298C96.1377 27.8011 96.5189 27.4703 96.807 27.064Z" fill="white"/>
<path d="M107.606 35.442V34.338C107.606 34.2331 107.628 34.1295 107.672 34.0342C107.716 33.939 107.78 33.8543 107.86 33.7861C107.939 33.7179 108.033 33.6678 108.133 33.6391C108.234 33.6105 108.34 33.604 108.444 33.6202H108.455C108.83 33.6791 109.209 33.7094 109.588 33.7109C110.84 33.7109 111.741 33.3544 112.291 32.6414C112.861 31.8624 113.151 30.9134 113.114 29.9485V27.9383H112.909C112.544 28.6719 112.004 29.3046 111.338 29.7808C110.534 30.3482 109.565 30.6337 108.582 30.593C107.547 30.617 106.529 30.315 105.674 29.7294C104.822 29.1193 104.162 28.2794 103.769 27.3075C103.303 26.1675 103.076 24.9441 103.1 23.7127C103.075 22.4687 103.303 21.2325 103.769 20.0792C104.159 19.1024 104.82 18.2576 105.674 17.6441C106.529 17.0589 107.547 16.757 108.582 16.7809C109.593 16.7371 110.588 17.0418 111.401 17.6441C112.061 18.1317 112.581 18.785 112.908 19.538H113.113V17.9035C113.113 17.7082 113.191 17.521 113.329 17.383C113.467 17.2449 113.654 17.1673 113.849 17.1671H115.492C115.687 17.1671 115.874 17.2447 116.012 17.3828C116.15 17.5209 116.227 17.7082 116.227 17.9035V29.9463C116.219 30.9052 116.05 31.8558 115.725 32.7581C115.356 33.7675 114.698 34.6457 113.833 35.2834C112.712 36.0636 111.361 36.4447 109.998 36.3656C109.382 36.3728 108.768 36.3031 108.17 36.1582C108.009 36.1186 107.867 36.0266 107.765 35.8969C107.663 35.7672 107.607 35.6071 107.606 35.442ZM112.226 26.7165C112.813 25.8082 113.113 24.7443 113.089 23.6628C113.112 22.5935 112.811 21.5421 112.226 20.6474C111.956 20.232 111.583 19.8945 111.143 19.6686C110.702 19.4426 110.211 19.3359 109.717 19.3592C109.22 19.333 108.725 19.4367 108.28 19.6599C107.836 19.8831 107.457 20.2183 107.181 20.6325C106.592 21.5304 106.291 22.587 106.318 23.6607C106.289 24.7445 106.585 25.8122 107.166 26.7266C107.456 27.1268 107.837 27.4523 108.277 27.6764C108.718 27.9005 109.205 28.0167 109.698 28.0155C110.192 28.0143 110.679 27.8957 111.118 27.6695C111.557 27.4433 111.936 27.116 112.224 26.7144L112.226 26.7165Z" fill="white"/>
<path d="M119.395 14.2185C119.14 13.9665 118.966 13.6439 118.895 13.2921C118.825 12.9402 118.861 12.5753 118.999 12.2444C119.138 11.9134 119.372 11.6315 119.672 11.4349C119.972 11.2384 120.324 11.1362 120.682 11.1415C120.922 11.1356 121.16 11.1798 121.381 11.2711C121.603 11.3625 121.803 11.499 121.969 11.672C122.299 12.0143 122.484 12.4716 122.484 12.9476C122.484 13.4236 122.299 13.881 121.969 14.2233C121.626 14.5615 121.164 14.7512 120.682 14.7512C120.2 14.7512 119.738 14.5615 119.395 14.2233V14.2185ZM119.899 17.1433H121.542C121.737 17.1434 121.924 17.221 122.062 17.3591C122.199 17.4972 122.277 17.6844 122.277 17.8796V30.0126C122.277 30.2078 122.199 30.3951 122.062 30.5331C121.924 30.6712 121.737 30.7489 121.542 30.749H119.899C119.704 30.749 119.517 30.6714 119.379 30.5333C119.241 30.3952 119.163 30.2079 119.163 30.0126V17.8796C119.163 17.7827 119.182 17.6868 119.22 17.5973C119.257 17.5079 119.311 17.4266 119.38 17.3582C119.448 17.2898 119.529 17.2356 119.619 17.1987C119.708 17.1618 119.804 17.143 119.901 17.1433H119.899Z" fill="white"/>
<path d="M127.594 29.95C126.641 29.3001 125.891 28.3933 125.431 27.3346C124.964 26.2435 124.723 25.0688 124.723 23.8817C124.723 22.6946 124.964 21.5199 125.431 20.4288C125.891 19.3701 126.641 18.4633 127.594 17.8133C128.667 17.1131 129.93 16.762 131.211 16.808C131.988 16.7654 132.766 16.8804 133.498 17.1461C134.23 17.4117 134.901 17.8225 135.471 18.3539C136.292 19.166 136.876 20.1877 137.16 21.3084C137.186 21.4169 137.188 21.5301 137.165 21.6394C137.141 21.7487 137.093 21.8511 137.024 21.939C136.955 22.0269 136.867 22.0979 136.767 22.1466C136.666 22.1952 136.556 22.2203 136.444 22.2198H134.899C134.739 22.2207 134.584 22.1689 134.456 22.0725C134.329 21.976 134.236 21.8403 134.193 21.6861C134.049 21.1158 133.758 20.5934 133.349 20.1709C133.07 19.9022 132.738 19.6937 132.375 19.5585C132.012 19.4234 131.625 19.3644 131.238 19.3852C130.733 19.3552 130.228 19.4597 129.776 19.6882C129.324 19.9167 128.94 20.261 128.664 20.6861C128.075 21.6404 127.78 22.7477 127.816 23.8692C127.775 25.0079 128.07 26.1336 128.664 27.1054C128.94 27.5306 129.324 27.8751 129.776 28.1037C130.228 28.3323 130.733 28.4368 131.238 28.4068C131.624 28.4252 132.009 28.3637 132.37 28.2262C132.731 28.0888 133.06 27.8782 133.336 27.6078C133.75 27.1817 134.046 26.6546 134.193 26.0788C134.237 25.9253 134.329 25.7902 134.457 25.6943C134.584 25.5985 134.739 25.5472 134.899 25.5483H136.446C136.558 25.5479 136.668 25.5729 136.769 25.6216C136.869 25.6702 136.957 25.7412 137.026 25.8291C137.095 25.917 137.143 26.0195 137.167 26.1288C137.19 26.238 137.189 26.3512 137.162 26.4597C136.879 27.5803 136.294 28.6019 135.473 29.4137C134.903 29.9453 134.232 30.3562 133.5 30.622C132.768 30.8877 131.99 31.0027 131.213 30.9602C129.931 31.0051 128.667 30.6523 127.594 29.95Z" fill="white"/>
<path d="M66.1668 54.4209C65.6454 54.1114 65.2629 53.6132 65.0983 53.0293C64.9366 52.3241 64.863 51.6014 64.8795 50.878V36.2813C64.8795 36.086 64.957 35.8987 65.0949 35.7606C65.2329 35.6225 65.42 35.5449 65.6151 35.5449H67.258C67.453 35.5451 67.64 35.6227 67.778 35.7608C67.9159 35.8988 67.9934 36.086 67.9936 36.2813V50.287C67.9818 50.7613 68.0117 51.2356 68.0831 51.7046C68.1113 51.8552 68.1704 51.9984 68.2568 52.1249C68.3432 52.2514 68.455 52.3585 68.585 52.4394C68.9892 52.6493 69.4436 52.743 69.8978 52.7099H69.9481C70.0458 52.7083 70.1429 52.7261 70.2336 52.7624C70.3244 52.7986 70.4071 52.8525 70.4769 52.9209C70.5467 52.9894 70.6022 53.071 70.6403 53.1611C70.6783 53.2512 70.6981 53.3479 70.6985 53.4458V54.1848C70.6984 54.3676 70.6305 54.5439 70.5079 54.6795C70.3853 54.8151 70.2168 54.9002 70.035 54.9185C69.6226 54.9597 69.2083 54.9796 68.7938 54.9779C67.8834 55.0409 66.9735 54.8479 66.1668 54.4209ZM73.4767 53.1195C72.458 51.6194 71.9525 49.8294 72.0357 48.0175C72.0357 45.8876 72.5247 44.1739 73.5026 42.8762C73.9704 42.2441 74.5857 41.7363 75.2947 41.3971C76.0038 41.058 76.785 40.8979 77.5702 40.9308C78.5664 40.8736 79.5521 41.1603 80.3626 41.743C80.985 42.213 81.4847 42.8265 81.8195 43.5314H82.0251V42.0003C82.0252 41.8051 82.1028 41.6178 82.2407 41.4798C82.3786 41.3417 82.5657 41.2641 82.7607 41.2639H84.4301C84.6252 41.2639 84.8123 41.3415 84.9503 41.4796C85.0882 41.6177 85.1657 41.805 85.1657 42.0003V54.1333C85.1657 54.3286 85.0882 54.5159 84.9503 54.654C84.8123 54.7921 84.6252 54.8697 84.4301 54.8697H82.7607C82.5657 54.8696 82.3786 54.7919 82.2407 54.6539C82.1028 54.5158 82.0252 54.3286 82.0251 54.1333V52.3699H81.8195C81.4671 53.1072 80.9469 53.7515 80.3006 54.2511C79.4878 54.8406 78.497 55.132 77.4949 55.0761C76.7156 55.1087 75.9404 54.9471 75.239 54.6055C74.5377 54.264 73.932 53.7534 73.4767 53.1195ZM81.1353 51.1868C81.7324 50.2306 82.0325 49.1186 81.9975 47.9915C82.0337 46.8681 81.7334 45.7596 81.1353 44.8084C80.8432 44.4055 80.46 44.0776 80.017 43.8515C79.5741 43.6254 79.0839 43.5076 78.5866 43.5076C78.0894 43.5076 77.5992 43.6254 77.1563 43.8515C76.7133 44.0776 76.3301 44.4055 76.038 44.8084C75.4876 45.7813 75.1994 46.8809 75.2017 47.9991C75.204 49.1172 75.4968 50.2156 76.0513 51.1863C76.3394 51.5926 76.7205 51.9239 77.1628 52.1526C77.605 52.3813 78.0955 52.5006 78.5933 52.5006C79.091 52.5006 79.5816 52.3813 80.0238 52.1526C80.4661 51.9239 80.8472 51.5931 81.1353 51.1868ZM88.628 41.2661H90.2709C90.466 41.2661 90.6531 41.3436 90.7911 41.4817C90.929 41.6198 91.0065 41.8071 91.0065 42.0024V43.559H91.1867C91.3326 43.2312 91.5138 42.9204 91.7273 42.6322C92.0767 42.1686 92.5142 41.7788 93.0146 41.4852C93.7038 41.1067 94.4801 40.9158 95.266 40.9317C96.052 40.9475 96.82 41.1694 97.4934 41.5754C98.0312 41.9239 98.4913 42.38 98.8448 42.9149C99.0585 43.2383 99.2362 43.5842 99.3748 43.9463H99.555C99.9045 43.2187 100.37 42.5529 100.933 41.9748C101.577 41.2788 102.594 40.9308 103.983 40.9308C104.991 40.8842 105.981 41.1996 106.776 41.8199C107.477 42.3965 108.007 43.154 108.309 44.0104C108.609 44.8321 108.766 45.6995 108.772 46.5745V54.1355C108.772 54.3307 108.694 54.518 108.556 54.6561C108.418 54.7942 108.231 54.8718 108.036 54.8718H106.393C106.198 54.8717 106.011 54.794 105.873 54.656C105.735 54.5179 105.658 54.3307 105.658 54.1355V46.8832C105.69 46.4479 105.635 46.0105 105.496 45.5968C105.357 45.1831 105.136 44.8016 104.847 44.4747C104.584 44.2083 104.268 43.9988 103.921 43.8591C103.573 43.7194 103.201 43.6525 102.827 43.6624C102.443 43.6562 102.061 43.7272 101.705 43.8711C101.349 44.015 101.026 44.2289 100.754 44.5001C100.454 44.8165 100.222 45.1914 100.074 45.6015C99.9257 46.0116 99.8635 46.448 99.8915 46.8832V54.1355C99.8915 54.3307 99.814 54.518 99.6761 54.6561C99.5381 54.7942 99.351 54.8718 99.1559 54.8718H97.5067C97.3116 54.8718 97.1245 54.7942 96.9865 54.6561C96.8485 54.518 96.7711 54.3307 96.7711 54.1355V46.8832C96.8035 46.4479 96.7485 46.0105 96.6092 45.5968C96.4699 45.1831 96.2493 44.8015 95.9602 44.4747C95.6967 44.2083 95.3814 43.9987 95.0338 43.859C94.6863 43.7193 94.3138 43.6524 93.9394 43.6624C93.5556 43.6563 93.1745 43.7273 92.8186 43.8711C92.4626 44.015 92.1391 44.2289 91.8672 44.5001C91.5673 44.8165 91.3359 45.1914 91.1875 45.6015C91.0391 46.0116 90.977 46.448 91.005 46.8832V54.1355C91.005 54.3307 90.9275 54.518 90.7895 54.6561C90.6516 54.7942 90.4644 54.8718 90.2694 54.8718H88.6264C88.4313 54.8718 88.2442 54.7942 88.1063 54.6561C87.9683 54.518 87.8908 54.3307 87.8908 54.1355V42.0024C87.8908 41.9056 87.9099 41.8097 87.947 41.7203C87.9841 41.6308 88.0384 41.5496 88.1069 41.4812C88.1753 41.4128 88.2566 41.3586 88.346 41.3217C88.4355 41.2847 88.5313 41.2659 88.628 41.2661ZM116.272 54.2405C115.626 53.7427 115.102 53.1036 114.741 52.372H114.535V59.4433C114.535 59.54 114.516 59.6358 114.479 59.7252C114.442 59.8146 114.388 59.8958 114.319 59.9642C114.251 60.0325 114.17 60.0868 114.081 60.1238C113.991 60.1607 113.896 60.1798 113.799 60.1797H112.156C112.06 60.1798 111.964 60.1607 111.875 60.1238C111.785 60.0868 111.704 60.0325 111.636 59.9642C111.568 59.8958 111.513 59.8146 111.476 59.7252C111.439 59.6358 111.42 59.54 111.421 59.4433V42.0024C111.421 41.8071 111.498 41.6198 111.636 41.4817C111.774 41.3436 111.961 41.2661 112.156 41.2661H113.799C113.994 41.2661 114.181 41.3436 114.319 41.4817C114.457 41.6198 114.535 41.8071 114.535 42.0024V43.5314H114.741C115.077 42.8236 115.581 42.2089 116.208 41.7409C117.024 41.1593 118.014 40.8729 119.014 40.9286C119.804 40.8902 120.59 41.0476 121.304 41.3871C122.018 41.7265 122.638 42.2373 123.107 42.8741C124.068 44.1717 124.548 45.8855 124.548 48.0154C124.632 49.8273 124.126 51.6174 123.107 53.1174C122.648 53.7534 122.038 54.2653 121.333 54.6072C120.628 54.949 119.848 55.1101 119.065 55.0761C118.066 55.1289 117.079 54.8337 116.272 54.2405ZM120.533 51.2255C121.12 50.2612 121.415 49.1465 121.381 48.0175C121.418 46.896 121.123 45.7886 120.533 44.8343C120.24 44.431 119.855 44.1028 119.411 43.8765C118.967 43.6502 118.476 43.5322 117.978 43.5322C117.48 43.5322 116.988 43.6502 116.544 43.8765C116.1 44.1028 115.716 44.431 115.423 44.8343C114.824 45.7854 114.524 46.894 114.561 48.0175C114.527 49.1484 114.827 50.2643 115.423 51.2255C115.712 51.6352 116.094 51.9694 116.539 52.2001C116.984 52.4308 117.477 52.5512 117.978 52.5512C118.479 52.5512 118.972 52.4308 119.417 52.2001C119.861 51.9694 120.244 51.6352 120.533 51.2255Z" fill="url(#paint0_linear_104_40)"/>
<path d="M31.9522 52.997C32.1069 52.8393 32.2472 52.6682 32.3714 52.4856C32.4941 52.6706 32.6362 52.8421 32.7953 52.997H31.9522Z" fill="url(#paint1_radial_104_40)"/>
<path d="M50.7397 7.32284C50.4789 5.43577 48.8365 3.01872 46.8942 1.71947C45.777 0.969724 44.4687 0.555877 43.124 0.526858C41.6226 0.45842 37.652 3.49778 33.6428 8.85286C33.5678 8.95336 33.5233 9.07339 33.5148 9.19854C33.5062 9.3237 33.5339 9.44866 33.5945 9.55845C33.877 9.40301 34.2867 9.18709 34.2867 9.18709C34.0837 9.53882 33.8929 9.91708 33.9793 9.98817C34.0461 10.0412 34.2618 9.89852 34.3286 9.83751C35.203 9.03801 41.3772 2.07545 43.893 2.77309C44.724 3.00333 45.4543 4.15244 45.4961 4.21822C45.7509 4.61854 45.9097 5.07251 45.9599 5.54453C46.0494 6.45915 45.4336 6.98171 44.6763 7.51382C43.5904 8.27509 42.4276 8.92003 41.2071 9.43802C40.0272 9.95986 38.8141 10.4029 37.5757 10.7643C36.882 10.9627 36.2009 11.1267 35.5364 11.2641C35.4404 11.2824 35.35 11.3223 35.2718 11.3809C35.1936 11.4394 35.1297 11.515 35.0851 11.602C35.0404 11.6889 35.0162 11.7849 35.0141 11.8826C35.012 11.9803 35.0322 12.0772 35.0732 12.166C35.2095 12.4494 35.2946 12.7547 35.3244 13.0678C35.3423 13.2115 35.4084 13.3449 35.5117 13.4461C35.6151 13.5474 35.7497 13.6106 35.8936 13.6254C37.0096 13.7535 38.1334 13.8005 39.2562 13.766C43.7668 13.6207 51.3756 11.9431 50.7397 7.32284Z" fill="url(#paint2_radial_104_40)"/>
<path d="M29.8249 8.6831C29.3304 7.87996 28.7869 7.10817 28.1973 6.37215C25.3657 2.85267 19.4528 -2.22654 16.1473 1.06216C14.7975 2.40544 13.8558 5.17264 13.9867 7.50693C14.0598 8.85144 14.5159 10.1469 15.301 11.2402C17.5634 14.556 23.8235 14.3942 28.0298 13.8498C28.125 13.8364 28.216 13.8022 28.2966 13.7497C28.3771 13.6973 28.4452 13.6278 28.496 13.5462C28.5469 13.4646 28.5793 13.3729 28.591 13.2774C28.6026 13.1819 28.5933 13.085 28.5635 12.9936L28.5598 12.9809C28.4379 12.5978 24.4849 12.6281 22.17 12.2079C20.2006 11.8498 16.7685 10.6858 16.4743 8.67408C16.4451 8.16472 16.5315 7.65535 16.727 7.18419C16.9225 6.71302 17.2221 6.29229 17.6032 5.95357C17.9552 5.66181 18.3775 5.46754 18.828 5.39015C18.828 5.39015 18.9228 5.37636 19.0203 5.37052C21.2245 5.23842 26.8109 9.52026 26.8109 9.52026C27.2291 9.83857 27.7951 10.2768 28.466 10.7999C28.6595 10.906 28.767 10.8879 28.8248 10.8614C29.1158 10.7283 29.1094 9.95953 28.8741 9.40726C28.7732 9.17203 28.6265 8.95923 28.4427 8.78125C28.5381 8.8465 28.6807 8.94305 28.8524 9.06189C29.4592 9.48047 29.5721 9.57119 29.6722 9.5314C29.8614 9.4566 29.9833 8.93828 29.8249 8.6831Z" fill="url(#paint3_radial_104_40)"/>
<path d="M47.7024 11.3097H17.0478C12.6322 11.3097 9.05261 14.893 9.05261 19.3131V49.9995C9.05261 54.4197 12.6322 58.003 17.0478 58.003H47.7024C52.118 58.003 55.6976 54.4197 55.6976 49.9995V19.3131C55.6976 14.893 52.118 11.3097 47.7024 11.3097Z" fill="#5C008C"/>
<path d="M47.6621 11.3955H17.1919C12.8041 11.3955 9.2471 14.9562 9.2471 19.3486V49.8503C9.2471 54.2427 12.8041 57.8034 17.1919 57.8034H47.6621C52.0499 57.8034 55.6069 54.2427 55.6069 49.8503V19.3486C55.6069 14.9562 52.0499 11.3955 47.6621 11.3955Z" fill="#5D008D"/>
<path d="M47.6218 11.4814H17.3361C12.9761 11.4814 9.4416 15.0195 9.4416 19.384V49.7012C9.4416 54.0657 12.9761 57.6038 17.3361 57.6038H47.6218C51.9818 57.6038 55.5163 54.0657 55.5163 49.7012V19.384C55.5163 15.0195 51.9818 11.4814 47.6218 11.4814Z" fill="#5E008D"/>
<path d="M47.5816 11.5675H17.4802C13.148 11.5675 9.63611 15.0831 9.63611 19.4197V49.5523C9.63611 53.889 13.148 57.4045 17.4802 57.4045H47.5816C51.9138 57.4045 55.4257 53.889 55.4257 49.5523V19.4197C55.4257 15.0831 51.9138 11.5675 47.5816 11.5675Z" fill="#5F008E"/>
<path d="M47.5413 11.654H17.6244C13.32 11.654 9.83061 15.147 9.83061 19.4558V49.4037C9.83061 53.7126 13.32 57.2056 17.6244 57.2056H47.5413C51.8457 57.2056 55.3351 53.7126 55.3351 49.4037V19.4558C55.3351 15.147 51.8457 11.654 47.5413 11.654Z" fill="#60008E"/>
<path d="M47.501 11.7399H17.7685C13.492 11.7399 10.0251 15.2104 10.0251 19.4914V49.2547C10.0251 53.5357 13.492 57.0061 17.7685 57.0061H47.501C51.7776 57.0061 55.2444 53.5357 55.2444 49.2547V19.4914C55.2444 15.2104 51.7776 11.7399 47.501 11.7399Z" fill="#61008F"/>
<path d="M47.4597 11.8259H17.9132C13.6641 11.8259 10.2196 15.274 10.2196 19.5274V49.1045C10.2196 53.358 13.6641 56.8061 17.9132 56.8061H47.4597C51.7087 56.8061 55.1533 53.358 55.1533 49.1045V19.5274C55.1533 15.274 51.7087 11.8259 47.4597 11.8259Z" fill="#62008F"/>
<path d="M47.4194 11.9118H18.0574C13.8361 11.9118 10.4141 15.3374 10.4141 19.563V48.9555C10.4141 53.1811 13.8361 56.6067 18.0574 56.6067H47.4194C51.6407 56.6067 55.0627 53.1811 55.0627 48.9555V19.563C55.0627 15.3374 51.6407 11.9118 47.4194 11.9118Z" fill="#630090"/>
<path d="M47.3791 11.9978H18.2015C14.0081 11.9978 10.6086 15.4008 10.6086 19.5985V48.8064C10.6086 53.0042 14.0081 56.4072 18.2015 56.4072H47.3791C51.5726 56.4072 54.972 53.0042 54.972 48.8064V19.5985C54.972 15.4008 51.5726 11.9978 47.3791 11.9978Z" fill="#640091"/>
<path d="M47.3389 12.0837H18.3457C14.18 12.0837 10.8031 15.4641 10.8031 19.6341V48.6573C10.8031 52.8273 14.18 56.2077 18.3457 56.2077H47.3389C51.5045 56.2077 54.8814 52.8273 54.8814 48.6573V19.6341C54.8814 15.4641 51.5045 12.0837 47.3389 12.0837Z" fill="#650091"/>
<path d="M47.2986 12.1696H18.4898C14.352 12.1696 10.9976 15.5275 10.9976 19.6696V48.5082C10.9976 52.6504 14.352 56.0082 18.4898 56.0082H47.2986C51.4364 56.0082 54.7908 52.6504 54.7908 48.5082V19.6696C54.7908 15.5275 51.4364 12.1696 47.2986 12.1696Z" fill="#660092"/>
<path d="M47.2583 12.2556H18.634C14.5239 12.2556 11.1921 15.5909 11.1921 19.7052V48.3591C11.1921 52.4734 14.5239 55.8087 18.634 55.8087H47.2583C51.3683 55.8087 54.7002 52.4734 54.7002 48.3591V19.7052C54.7002 15.5909 51.3683 12.2556 47.2583 12.2556Z" fill="#670092"/>
<path d="M47.2175 12.3415H18.7787C14.6961 12.3415 11.3866 15.6545 11.3866 19.7412V48.2095C11.3866 52.2963 14.6961 55.6092 18.7787 55.6092H47.2175C51.3 55.6092 54.6095 52.2963 54.6095 48.2095V19.7412C54.6095 15.6545 51.3 12.3415 47.2175 12.3415Z" fill="#680093"/>
<path d="M47.1772 12.4275H18.9228C14.8681 12.4275 11.5811 15.7179 11.5811 19.7768V48.0605C11.5811 52.1194 14.8681 55.4098 18.9228 55.4098H47.1772C51.2319 55.4098 54.5189 52.1194 54.5189 48.0605V19.7768C54.5189 15.7179 51.2319 12.4275 47.1772 12.4275Z" fill="#690094"/>
<path d="M47.1369 12.5134H19.067C15.0401 12.5134 11.7756 15.7813 11.7756 19.8123V47.9114C11.7756 51.9425 15.0401 55.2103 19.067 55.2103H47.1369C51.1638 55.2103 54.4283 51.9425 54.4283 47.9114V19.8123C54.4283 15.7813 51.1638 12.5134 47.1369 12.5134Z" fill="#6A0094"/>
<path d="M47.0967 12.5994H19.2111C15.212 12.5994 11.9701 15.8446 11.9701 19.8479V47.7623C11.9701 51.7656 15.212 55.0108 19.2111 55.0108H47.0967C51.0957 55.0108 54.3377 51.7656 54.3377 47.7623V19.8479C54.3377 15.8446 51.0957 12.5994 47.0967 12.5994Z" fill="#6B0095"/>
<path d="M47.0564 12.6853H19.3553C15.384 12.6853 12.1646 15.908 12.1646 19.8834V47.6133C12.1646 51.5887 15.384 54.8114 19.3553 54.8114H47.0564C51.0277 54.8114 54.247 51.5887 54.247 47.6133V19.8834C54.247 15.908 51.0277 12.6853 47.0564 12.6853Z" fill="#6C0095"/>
<path d="M47.0156 12.7718H19.4999C15.5562 12.7718 12.3591 15.9722 12.3591 19.92V47.4642C12.3591 51.412 15.5562 54.6124 19.4999 54.6124H47.0156C50.9593 54.6124 54.1564 51.412 54.1564 47.4642V19.92C54.1564 15.9722 50.9593 12.7718 47.0156 12.7718Z" fill="#6D0096"/>
<path d="M46.9753 12.8577H19.6441C15.7281 12.8577 12.5536 16.0355 12.5536 19.9556V47.3151C12.5536 51.2351 15.7281 54.4129 19.6441 54.4129H46.9753C50.8912 54.4129 54.0658 51.2351 54.0658 47.3151V19.9556C54.0658 16.0355 50.8912 12.8577 46.9753 12.8577Z" fill="#6E0096"/>
<path d="M46.935 12.9437H19.7882C15.9001 12.9437 12.7481 16.0989 12.7481 19.9911V47.166C12.7481 51.0582 15.9001 54.2135 19.7882 54.2135H46.935C50.8232 54.2135 53.9752 51.0582 53.9752 47.166V19.9911C53.9752 16.0989 50.8232 12.9437 46.935 12.9437Z" fill="#6F0097"/>
<path d="M46.8947 13.0296H19.9324C16.072 13.0296 12.9426 16.1623 12.9426 20.0267V47.0169C12.9426 50.8813 16.072 54.014 19.9324 54.014H46.8947C50.7551 54.014 53.8845 50.8813 53.8845 47.0169V20.0267C53.8845 16.1623 50.7551 13.0296 46.8947 13.0296Z" fill="#700098"/>
<path d="M46.8545 13.1156H20.0766C16.244 13.1156 13.1371 16.2257 13.1371 20.0622V46.8679C13.1371 50.7044 16.244 53.8145 20.0766 53.8145H46.8545C50.687 53.8145 53.7939 50.7044 53.7939 46.8679V20.0622C53.7939 16.2257 50.687 13.1156 46.8545 13.1156Z" fill="#710098"/>
<path d="M46.8142 13.2015H20.2207C16.416 13.2015 13.3316 16.2891 13.3316 20.0978V46.7188C13.3316 50.5275 16.416 53.6151 20.2207 53.6151H46.8142C50.6189 53.6151 53.7033 50.5275 53.7033 46.7188V20.0978C53.7033 16.2891 50.6189 13.2015 46.8142 13.2015Z" fill="#720099"/>
<path d="M46.7739 13.2874H20.3659C16.5887 13.2874 13.5266 16.3527 13.5266 20.1338V46.5692C13.5266 50.3503 16.5887 53.4155 20.3659 53.4155H46.7739C50.5511 53.4155 53.6132 50.3503 53.6132 46.5692V20.1338C53.6132 16.3527 50.5511 13.2874 46.7739 13.2874Z" fill="#730099"/>
<path d="M46.7336 13.3734H20.5101C16.7606 13.3734 13.7211 16.4161 13.7211 20.1694V46.4201C13.7211 50.1734 16.7606 53.2161 20.5101 53.2161H46.7336C50.483 53.2161 53.5226 50.1734 53.5226 46.4201V20.1694C53.5226 16.4161 50.483 13.3734 46.7336 13.3734Z" fill="#74009A"/>
<path d="M46.6933 13.4594H20.6542C16.9326 13.4594 13.9156 16.4794 13.9156 20.2049V46.271C13.9156 49.9965 16.9326 53.0166 20.6542 53.0166H46.6933C50.415 53.0166 53.4319 49.9965 53.4319 46.271V20.2049C53.4319 16.4794 50.415 13.4594 46.6933 13.4594Z" fill="#75009A"/>
<path d="M46.6531 13.5453H20.7984C17.1046 13.5453 14.1101 16.5428 14.1101 20.2405V46.1219C14.1101 49.8196 17.1046 52.8171 20.7984 52.8171H46.6531C50.3469 52.8171 53.3413 49.8196 53.3413 46.1219V20.2405C53.3413 16.5428 50.3469 13.5453 46.6531 13.5453Z" fill="#76009B"/>
<path d="M46.6128 13.6313H20.9425C17.2765 13.6313 14.3046 16.6062 14.3046 20.276V45.9729C14.3046 49.6427 17.2765 52.6177 20.9425 52.6177H46.6128C50.2788 52.6177 53.2507 49.6427 53.2507 45.9729V20.276C53.2507 16.6062 50.2788 13.6313 46.6128 13.6313Z" fill="#77009C"/>
<path d="M46.5725 13.7172H21.0867C17.4485 13.7172 14.4991 16.6696 14.4991 20.3116V45.8238C14.4991 49.4658 17.4485 52.4182 21.0867 52.4182H46.5725C50.2107 52.4182 53.1601 49.4658 53.1601 45.8238V20.3116C53.1601 16.6696 50.2107 13.7172 46.5725 13.7172Z" fill="#78009C"/>
<path d="M46.5317 13.8031H21.2314C17.6207 13.8031 14.6936 16.7332 14.6936 20.3476V45.6742C14.6936 49.2886 17.6207 52.2187 21.2314 52.2187H46.5317C50.1424 52.2187 53.0694 49.2886 53.0694 45.6742V20.3476C53.0694 16.7332 50.1424 13.8031 46.5317 13.8031Z" fill="#79009D"/>
<path d="M46.4914 13.8896H21.3755C17.7926 13.8896 14.8881 16.7971 14.8881 20.3837V45.5257C14.8881 49.1123 17.7926 52.0198 21.3755 52.0198H46.4914C50.0743 52.0198 52.9788 49.1123 52.9788 45.5257V20.3837C52.9788 16.7971 50.0743 13.8896 46.4914 13.8896Z" fill="#7A009D"/>
<path d="M46.4511 13.9756H21.5197C17.9646 13.9756 15.0826 16.8605 15.0826 20.4193V45.3766C15.0826 48.9353 17.9646 51.8203 21.5197 51.8203H46.4511C50.0062 51.8203 52.8882 48.9353 52.8882 45.3766V20.4193C52.8882 16.8605 50.0062 13.9756 46.4511 13.9756Z" fill="#7B009E"/>
<path d="M46.4109 14.0615H21.6638C18.1365 14.0615 15.2771 16.9239 15.2771 20.4548V45.2275C15.2771 48.7584 18.1365 51.6208 21.6638 51.6208H46.4109C49.9381 51.6208 52.7976 48.7584 52.7976 45.2275V20.4548C52.7976 16.9239 49.9381 14.0615 46.4109 14.0615Z" fill="#7C009F"/>
<path d="M46.3706 14.1474H21.808C18.3085 14.1474 15.4716 16.9872 15.4716 20.4903V45.0784C15.4716 48.5815 18.3085 51.4213 21.808 51.4213H46.3706C49.8701 51.4213 52.7069 48.5815 52.7069 45.0784V20.4903C52.7069 16.9872 49.8701 14.1474 46.3706 14.1474Z" fill="#7D009F"/>
<path d="M46.3303 14.2334H21.9521C18.4805 14.2334 15.6661 17.0506 15.6661 20.5259V44.9293C15.6661 48.4046 18.4805 51.2218 21.9521 51.2218H46.3303C49.802 51.2218 52.6163 48.4046 52.6163 44.9293V20.5259C52.6163 17.0506 49.802 14.2334 46.3303 14.2334Z" fill="#7E00A0"/>
<path d="M46.2895 14.3193H22.0968C18.6527 14.3193 15.8606 17.1143 15.8606 20.562V44.7797C15.8606 48.2275 18.6527 51.0224 22.0968 51.0224H46.2895C49.7337 51.0224 52.5257 48.2275 52.5257 44.7797V20.562C52.5257 17.1143 49.7337 14.3193 46.2895 14.3193Z" fill="#7F00A0"/>
<path d="M46.2492 14.4053H22.241C18.8246 14.4053 16.0551 17.1776 16.0551 20.5975V44.6307C16.0551 48.0505 18.8246 50.8229 22.241 50.8229H46.2492C49.6656 50.8229 52.435 48.0505 52.435 44.6307V20.5975C52.435 17.1776 49.6656 14.4053 46.2492 14.4053Z" fill="#8000A1"/>
<path d="M46.2089 14.4912H22.3851C18.9966 14.4912 16.2496 17.241 16.2496 20.6331V44.4816C16.2496 47.8736 18.9966 50.6234 22.3851 50.6234H46.2089C49.5975 50.6234 52.3444 47.8736 52.3444 44.4816V20.6331C52.3444 17.241 49.5975 14.4912 46.2089 14.4912Z" fill="#8100A1"/>
<path d="M46.1687 14.5771H22.5293C19.1685 14.5771 16.4441 17.3044 16.4441 20.6686V44.3325C16.4441 47.6967 19.1685 50.4239 22.5293 50.4239H46.1687C49.5294 50.4239 52.2538 47.6967 52.2538 44.3325V20.6686C52.2538 17.3044 49.5294 14.5771 46.1687 14.5771Z" fill="#8200A2"/>
<path d="M46.1284 14.6631H22.6734C19.3405 14.6631 16.6386 17.3678 16.6386 20.7041V44.1834C16.6386 47.5198 19.3405 50.2245 22.6734 50.2245H46.1284C49.4613 50.2245 52.1632 47.5198 52.1632 44.1834V20.7041C52.1632 17.3678 49.4613 14.6631 46.1284 14.6631Z" fill="#8300A3"/>
<path d="M46.0876 14.7491H22.8181C19.5127 14.7491 16.8331 17.4314 16.8331 20.7402V44.0338C16.8331 47.3427 19.5127 50.025 22.8181 50.025H46.0876C49.393 50.025 52.0726 47.3427 52.0726 44.0338V20.7402C52.0726 17.4314 49.393 14.7491 46.0876 14.7491Z" fill="#8400A3"/>
<path d="M46.0473 14.835H22.9623C19.6847 14.835 17.0276 17.4948 17.0276 20.7758V43.8848C17.0276 47.1658 19.6847 49.8256 22.9623 49.8256H46.0473C49.3249 49.8256 51.9819 47.1658 51.9819 43.8848V20.7758C51.9819 17.4948 49.3249 14.835 46.0473 14.835Z" fill="#8500A4"/>
<path d="M46.007 14.9209H23.1064C19.8566 14.9209 17.2221 17.5581 17.2221 20.8113V43.7357C17.2221 46.9888 19.8566 49.626 23.1064 49.626H46.007C49.2568 49.626 51.8913 46.9888 51.8913 43.7357V20.8113C51.8913 17.5581 49.2568 14.9209 46.007 14.9209Z" fill="#8500A4"/>
<path d="M45.9667 15.0069H23.2505C20.0286 15.0069 17.4166 17.6215 17.4166 20.8468V43.5866C17.4166 46.8119 20.0286 49.4266 23.2505 49.4266H45.9667C49.1887 49.4266 51.8007 46.8119 51.8007 43.5866V20.8468C51.8007 17.6215 49.1887 15.0069 45.9667 15.0069Z" fill="#8600A5"/>
<path d="M45.9265 15.0934H23.3947C20.2005 15.0934 17.6111 17.6855 17.6111 20.883V43.4381C17.6111 46.6356 20.2005 49.2277 23.3947 49.2277H45.9265C49.1207 49.2277 51.7101 46.6356 51.7101 43.4381V20.883C51.7101 17.6855 49.1207 15.0934 45.9265 15.0934Z" fill="#8700A5"/>
<path d="M45.8862 15.1793H23.5389C20.3725 15.1793 17.8056 17.7488 17.8056 20.9185V43.289C17.8056 46.4586 20.3725 49.0281 23.5389 49.0281H45.8862C49.0526 49.0281 51.6194 46.4586 51.6194 43.289V20.9185C51.6194 17.7488 49.0526 15.1793 45.8862 15.1793Z" fill="#8800A6"/>
<path d="M45.8454 15.2652H23.6835C20.5447 15.2652 18.0001 17.8124 18.0001 20.9545V43.1393C18.0001 46.2815 20.5447 48.8287 23.6835 48.8287H45.8454C48.9843 48.8287 51.5288 46.2815 51.5288 43.1393V20.9545C51.5288 17.8124 48.9843 15.2652 45.8454 15.2652Z" fill="#8900A7"/>
<path d="M45.8051 15.3512H23.8277C20.7166 15.3512 18.1946 17.8758 18.1946 20.9901V42.9903C18.1946 46.1046 20.7166 48.6292 23.8277 48.6292H45.8051C48.9162 48.6292 51.4382 46.1046 51.4382 42.9903V20.9901C51.4382 17.8758 48.9162 15.3512 45.8051 15.3512Z" fill="#8A00A7"/>
<path d="M45.7648 15.4371H23.9719C20.8886 15.4371 18.3891 17.9392 18.3891 21.0256V42.8412C18.3891 45.9277 20.8886 48.4297 23.9719 48.4297H45.7648C48.8481 48.4297 51.3476 45.9277 51.3476 42.8412V21.0256C51.3476 17.9392 48.8481 15.4371 45.7648 15.4371Z" fill="#8B00A8"/>
<path d="M45.7246 15.5231H24.116C21.0606 15.5231 18.5836 18.0026 18.5836 21.0612V42.6922C18.5836 45.7508 21.0606 48.2303 24.116 48.2303H45.7246C48.78 48.2303 51.2569 45.7508 51.2569 42.6922V21.0612C51.2569 18.0026 48.78 15.5231 45.7246 15.5231Z" fill="#8C00A8"/>
<path d="M45.6843 15.609H24.2601C21.2325 15.609 18.7781 18.066 18.7781 21.0968V42.5431C18.7781 45.5739 21.2325 48.0308 24.2601 48.0308H45.6843C48.7119 48.0308 51.1663 45.5739 51.1663 42.5431V21.0968C51.1663 18.066 48.7119 15.609 45.6843 15.609Z" fill="#8D00A9"/>
<path d="M45.644 15.6949H24.4043C21.4045 15.6949 18.9726 18.1293 18.9726 21.1323V42.394C18.9726 45.3969 21.4045 47.8313 24.4043 47.8313H45.644C48.6438 47.8313 51.0757 45.3969 51.0757 42.394V21.1323C51.0757 18.1293 48.6438 15.6949 45.644 15.6949Z" fill="#8E00A9"/>
<path d="M45.6032 15.7809H24.549C21.5767 15.7809 19.1671 18.1929 19.1671 21.1683V42.2443C19.1671 45.2197 21.5767 47.6318 24.549 47.6318H45.6032C48.5755 47.6318 50.9851 45.2197 50.9851 42.2443V21.1683C50.9851 18.1929 48.5755 15.7809 45.6032 15.7809Z" fill="#8F00AA"/>
<path d="M45.5629 15.8669H24.6931C21.7486 15.8669 19.3616 18.2563 19.3616 21.2039V42.0953C19.3616 45.0429 21.7486 47.4323 24.6931 47.4323H45.5629C48.5074 47.4323 50.8944 45.0429 50.8944 42.0953V21.2039C50.8944 18.2563 48.5074 15.8669 45.5629 15.8669Z" fill="#9000AB"/>
<path d="M45.5226 15.9528H24.8373C21.9206 15.9528 19.5561 18.3197 19.5561 21.2394V41.9462C19.5561 44.8659 21.9206 47.2328 24.8373 47.2328H45.5226C48.4393 47.2328 50.8038 44.8659 50.8038 41.9462V21.2394C50.8038 18.3197 48.4393 15.9528 45.5226 15.9528Z" fill="#9100AB"/>
<path d="M45.4824 16.0388H24.9814C22.0925 16.0388 19.7506 18.3831 19.7506 21.275V41.7972C19.7506 44.6891 22.0925 47.0334 24.9814 47.0334H45.4824C48.3713 47.0334 50.7132 44.6891 50.7132 41.7972V21.275C50.7132 18.3831 48.3713 16.0388 45.4824 16.0388Z" fill="#9200AC"/>
<path d="M45.4421 16.1247H25.1256C22.2645 16.1247 19.9451 18.4465 19.9451 21.3105V41.6481C19.9451 44.5121 22.2645 46.8339 25.1256 46.8339H45.4421C48.3032 46.8339 50.6226 44.5121 50.6226 41.6481V21.3105C50.6226 18.4465 48.3032 16.1247 45.4421 16.1247Z" fill="#9300AC"/>
<path d="M45.4018 16.2112H25.2697C22.4365 16.2112 20.1396 18.5104 20.1396 21.3466V41.4995C20.1396 44.3358 22.4365 46.635 25.2697 46.635H45.4018C48.2351 46.635 50.5319 44.3358 50.5319 41.4995V21.3466C50.5319 18.5104 48.2351 16.2112 45.4018 16.2112Z" fill="#9400AD"/>
<path d="M45.361 16.2971H25.4144C22.6087 16.2971 20.3341 18.574 20.3341 21.3827V41.3499C20.3341 44.1586 22.6087 46.4355 25.4144 46.4355H45.361C48.1668 46.4355 50.4413 44.1586 50.4413 41.3499V21.3827C50.4413 18.574 48.1668 16.2971 45.361 16.2971Z" fill="#9500AE"/>
<path d="M45.3207 16.3831H25.5586C22.7806 16.3831 20.5286 18.6374 20.5286 21.4182V41.2008C20.5286 43.9817 22.7806 46.236 25.5586 46.236H45.3207C48.0987 46.236 50.3507 43.9817 50.3507 41.2008V21.4182C50.3507 18.6374 48.0987 16.3831 45.3207 16.3831Z" fill="#9600AE"/>
<path d="M45.2804 16.469H25.7027C22.9526 16.469 20.7231 18.7008 20.7231 21.4538V41.0518C20.7231 43.8048 22.9526 46.0365 25.7027 46.0365H45.2804C48.0306 46.0365 50.2601 43.8048 50.2601 41.0518V21.4538C50.2601 18.7008 48.0306 16.469 45.2804 16.469Z" fill="#9700AF"/>
<path d="M45.2402 16.5549H25.8469C23.1245 16.5549 20.9176 18.7641 20.9176 21.4893V40.9027C20.9176 43.6279 23.1245 45.837 25.8469 45.837H45.2402C47.9625 45.837 50.1694 43.6279 50.1694 40.9027V21.4893C50.1694 18.7641 47.9625 16.5549 45.2402 16.5549Z" fill="#9800AF"/>
<path d="M45.1999 16.6409H25.991C23.2965 16.6409 21.1121 18.8275 21.1121 21.5249V40.7536C21.1121 43.451 23.2965 45.6376 25.991 45.6376H45.1999C47.8944 45.6376 50.0788 43.451 50.0788 40.7536V21.5249C50.0788 18.8275 47.8944 16.6409 45.1999 16.6409Z" fill="#9900B0"/>
<path d="M45.1591 16.7268H26.1357C23.4687 16.7268 21.3066 18.8911 21.3066 21.5609V40.604C21.3066 43.2738 23.4687 45.4381 26.1357 45.4381H45.1591C47.8261 45.4381 49.9882 43.2738 49.9882 40.604V21.5609C49.9882 18.8911 47.8261 16.7268 45.1591 16.7268Z" fill="#9A00B0"/>
<path d="M45.1188 16.8128H26.2799C23.6406 16.8128 21.5011 18.9545 21.5011 21.5965V40.4549C21.5011 43.0969 23.6406 45.2386 26.2799 45.2386H45.1188C47.758 45.2386 49.8975 43.0969 49.8975 40.4549V21.5965C49.8975 18.9545 47.758 16.8128 45.1188 16.8128Z" fill="#9B00B1"/>
<path d="M45.0785 16.8987H26.424C23.8126 16.8987 21.6956 19.0179 21.6956 21.632V40.3058C21.6956 42.92 23.8126 45.0392 26.424 45.0392H45.0785C47.6899 45.0392 49.8069 42.92 49.8069 40.3058V21.632C49.8069 19.0179 47.6899 16.8987 45.0785 16.8987Z" fill="#9C00B2"/>
<path d="M45.0382 16.9847H26.5682C23.9846 16.9847 21.8901 19.0813 21.8901 21.6676V40.1568C21.8901 42.7431 23.9846 44.8397 26.5682 44.8397H45.0382C47.6219 44.8397 49.7163 42.7431 49.7163 40.1568V21.6676C49.7163 19.0813 47.6219 16.9847 45.0382 16.9847Z" fill="#9D00B2"/>
<path d="M44.998 17.0706H26.7123C24.1565 17.0706 22.0846 19.1447 22.0846 21.7031V40.0077C22.0846 42.5662 24.1565 44.6402 26.7123 44.6402H44.998C47.5538 44.6402 49.6257 42.5662 49.6257 40.0077V21.7031C49.6257 19.1447 47.5538 17.0706 44.998 17.0706Z" fill="#9E00B3"/>
<path d="M44.9577 17.1566H26.8565C24.3285 17.1566 22.2791 19.208 22.2791 21.7387V39.8586C22.2791 42.3893 24.3285 44.4407 26.8565 44.4407H44.9577C47.4857 44.4407 49.5351 42.3893 49.5351 39.8586V21.7387C49.5351 19.208 47.4857 17.1566 44.9577 17.1566Z" fill="#9F00B3"/>
<path d="M44.9169 17.2425H27.0012C24.5007 17.2425 22.4736 19.2716 22.4736 21.7747V39.709C22.4736 42.2121 24.5007 44.2412 27.0012 44.2412H44.9169C47.4174 44.2412 49.4444 42.2121 49.4444 39.709V21.7747C49.4444 19.2716 47.4174 17.2425 44.9169 17.2425Z" fill="#A000B4"/>
<path d="M44.8766 17.329H27.1453C24.6726 17.329 22.6681 19.3356 22.6681 21.8108V39.5605C22.6681 42.0357 24.6726 44.0423 27.1453 44.0423H44.8766C47.3493 44.0423 49.3538 42.0357 49.3538 39.5605V21.8108C49.3538 19.3356 47.3493 17.329 44.8766 17.329Z" fill="#A100B4"/>
<path d="M44.8363 17.4149H27.2895C24.8446 17.4149 22.8626 19.3989 22.8626 21.8464V39.4114C22.8626 41.8588 24.8446 43.8428 27.2895 43.8428H44.8363C47.2812 43.8428 49.2632 41.8588 49.2632 39.4114V21.8464C49.2632 19.3989 47.2812 17.4149 44.8363 17.4149Z" fill="#A200B5"/>
<path d="M44.796 17.5009H27.4336C25.0165 17.5009 23.0571 19.4623 23.0571 21.8819V39.2623C23.0571 41.6819 25.0165 43.6434 27.4336 43.6434H44.796C47.2131 43.6434 49.1725 41.6819 49.1725 39.2623V21.8819C49.1725 19.4623 47.2131 17.5009 44.796 17.5009Z" fill="#A300B6"/>
<path d="M44.7558 17.5868H27.5778C25.1885 17.5868 23.2516 19.5257 23.2516 21.9174V39.1132C23.2516 41.505 25.1885 43.4439 27.5778 43.4439H44.7558C47.145 43.4439 49.0819 41.505 49.0819 39.1132V21.9174C49.0819 19.5257 47.145 17.5868 44.7558 17.5868Z" fill="#A400B6"/>
<path d="M44.7155 17.6728H27.7219C25.3605 17.6728 23.4461 19.5891 23.4461 21.953V38.9642C23.4461 41.3281 25.3605 43.2444 27.7219 43.2444H44.7155C47.0769 43.2444 48.9913 41.3281 48.9913 38.9642V21.953C48.9913 19.5891 47.0769 17.6728 44.7155 17.6728Z" fill="#A500B7"/>
<path d="M44.6747 17.7587H27.8666C25.5327 17.7587 23.6406 19.6527 23.6406 21.9891V38.8146C23.6406 41.1509 25.5327 43.0449 27.8666 43.0449H44.6747C47.0086 43.0449 48.9007 41.1509 48.9007 38.8146V21.9891C48.9007 19.6527 47.0086 17.7587 44.6747 17.7587Z" fill="#A600B7"/>
<path d="M44.6344 17.8446H28.0108C25.7046 17.8446 23.8351 19.7161 23.8351 22.0246V38.6655C23.8351 40.974 25.7046 42.8454 28.0108 42.8454H44.6344C46.9405 42.8454 48.8101 40.974 48.8101 38.6655V22.0246C48.8101 19.7161 46.9405 17.8446 44.6344 17.8446Z" fill="#A700B8"/>
<path d="M44.5941 17.9306H28.1549C25.8766 17.9306 24.0296 19.7794 24.0296 22.0602V38.5164C24.0296 40.7971 25.8766 42.646 28.1549 42.646H44.5941C46.8725 42.646 48.7194 40.7971 48.7194 38.5164V22.0602C48.7194 19.7794 46.8725 17.9306 44.5941 17.9306Z" fill="#A800B9"/>
<path d="M44.5538 18.0165H28.2991C26.0485 18.0165 24.2241 19.8429 24.2241 22.0957V38.3673C24.2241 40.6202 26.0485 42.4465 28.2991 42.4465H44.5538C46.8044 42.4465 48.6288 40.6202 48.6288 38.3673V22.0957C48.6288 19.8429 46.8044 18.0165 44.5538 18.0165Z" fill="#A900B9"/>
<path d="M44.5136 18.1025H28.4432C26.2205 18.1025 24.4186 19.9062 24.4186 22.1313V38.2183C24.4186 40.4433 26.2205 42.247 28.4432 42.247H44.5136C46.7363 42.247 48.5382 40.4433 48.5382 38.2183V22.1313C48.5382 19.9062 46.7363 18.1025 44.5136 18.1025Z" fill="#AA00BA"/>
<path d="M44.4733 18.1884H28.5874C26.3924 18.1884 24.6131 19.9696 24.6131 22.1668V38.0692C24.6131 40.2664 26.3924 42.0475 28.5874 42.0475H44.4733C46.6682 42.0475 48.4475 40.2664 48.4475 38.0692V22.1668C48.4475 19.9696 46.6682 18.1884 44.4733 18.1884Z" fill="#AB00BA"/>
<path d="M44.4325 18.2744H28.7321C26.5646 18.2744 24.8076 20.0332 24.8076 22.2029V37.9196C24.8076 40.0892 26.5646 41.8481 28.7321 41.8481H44.4325C46.5999 41.8481 48.3569 40.0892 48.3569 37.9196V22.2029C48.3569 20.0332 46.5999 18.2744 44.4325 18.2744Z" fill="#AC00BB"/>
<path d="M44.3922 18.3603H28.8762C26.7366 18.3603 25.0021 20.0966 25.0021 22.2384V37.7705C25.0021 39.9123 26.7366 41.6486 28.8762 41.6486H44.3922C46.5318 41.6486 48.2663 39.9123 48.2663 37.7705V22.2384C48.2663 20.0966 46.5318 18.3603 44.3922 18.3603Z" fill="#AD00BB"/>
<path d="M44.3519 18.4468H29.0204C26.9086 18.4468 25.1966 20.1605 25.1966 22.2745V37.6219C25.1966 39.7359 26.9086 41.4496 29.0204 41.4496H44.3519C46.4637 41.4496 48.1757 39.7359 48.1757 37.6219V22.2745C48.1757 20.1605 46.4637 18.4468 44.3519 18.4468Z" fill="#AE00BC"/>
<path d="M2.89116 22.9642C2.7604 24.0772 2.78304 25.2029 2.95846 26.3097C3.1413 27.4535 3.41371 28.097 3.34693 28.123C3.20596 28.176 1.39717 25.5887 1.07441 22.2342C1.00287 21.4915 0.635596 17.043 3.27168 14.5029C5.49438 12.3612 8.63711 12.1156 11.941 13.2546C18.7209 15.5889 26.5194 19.2192 29.2451 17.1858C29.9316 16.6593 30.4465 15.9407 30.7248 15.121C30.9864 14.2187 30.9556 13.2566 30.6368 12.3729C30.5531 12.1654 30.4475 11.9675 30.322 11.7824C29.951 11.2418 29.58 11.1627 29.5106 10.8036C29.4951 10.6842 29.5047 10.563 29.5389 10.4476C29.573 10.3322 29.6309 10.2252 29.7088 10.1335C30.1315 9.77542 30.659 9.56448 31.2118 9.53246C31.618 9.5309 32.0172 9.63804 32.3681 9.84277C32.719 10.0475 33.0089 10.3424 33.2077 10.697C34.1023 12.3055 32.6385 14.9698 32.4371 15.3252C29.8561 19.8803 22.5409 19.693 21.1487 19.5805C16.186 19.1789 10.1862 13.6689 7.6344 13.3978C5.8855 13.6074 4.84039 16.4043 4.58495 16.999C3.08565 20.4904 4.37773 23.8772 4.5717 24.3642L2.89116 22.9642Z" fill="url(#paint4_radial_104_40)"/>
<path d="M21.6813 35.5837C31.7227 40.0677 43.7737 37.5562 52.3285 30.9432C47.0527 33.0059 39.7417 29.6588 34.0705 29.6259C28.1199 29.4222 23.2876 33.4059 17.4855 33.1226C18.8005 34.0782 20.2058 34.9025 21.6813 35.5837Z" fill="url(#paint5_linear_104_40)"/>
<path d="M64.157 37.1206C63.495 32.4138 59.3512 30.4297 55.2222 30.6223C53.5522 30.8185 51.682 32.0069 47.9706 34.364C33.2628 44.1256 17.1087 38.2851 3.87955 25.6104C4.0555 27.0847 5.50868 29.3548 6.7361 30.5745C5.12551 29.6355 1.98967 28.8116 0.592133 29.3081C16.4791 33.5311 28.7066 61.915 45.9689 39.2867C50.6914 34.6712 56.3563 32.3438 59.2267 34.5004C60.6576 35.5736 60.9422 37.6262 60.9422 37.6262C61.0762 38.4964 60.9722 39.3867 60.6412 40.2024C59.5351 42.8099 56.1364 43.6418 53.8485 43.5054C52.1452 43.4041 49.0342 42.646 48.3696 40.4332C48.1907 39.7834 48.2062 39.0954 48.4142 38.4543C47.9308 38.5509 46.7013 38.8634 46.2551 39.8305C45.6191 41.2099 46.9732 43.0603 47.7157 43.7033C53.4425 48.6743 64.254 44.8805 64.157 37.1206Z" fill="url(#paint6_radial_104_40)"/>
<path d="M33.9804 26.1409C33.907 25.7547 33.6859 25.4124 33.364 25.187C33.0421 24.9616 32.6451 24.871 32.2574 24.9345C31.9002 24.9728 31.5642 25.1228 31.2971 25.3633C31.03 25.6039 30.8455 25.9226 30.7698 26.2741C31.8168 25.9911 32.9136 25.9456 33.9804 26.1409Z" fill="url(#paint7_radial_104_40)"/>
<path d="M37.7326 29.6185C35.7865 25.5897 29.1619 25.2518 27.3176 29.5697C27.7323 29.3824 28.1598 29.225 28.5969 29.0986C28.5969 29.0986 29.0781 28.9612 29.598 28.871C31.261 28.6838 32.941 28.7102 34.5973 28.9495C35.6556 29.1051 36.7028 29.3286 37.7326 29.6185Z" fill="url(#paint8_radial_104_40)"/>
<path d="M31.1747 52.1444C31.5711 52.129 31.9697 52.1184 32.3751 52.1184C32.7805 52.1184 33.1775 52.129 33.5734 52.1444C33.0535 50.7974 33.833 49.2213 34.7547 48.5231C33.1843 48.8425 31.5659 48.8425 29.9955 48.5231C30.9187 49.2234 31.6935 50.7964 31.1747 52.1444Z" fill="url(#paint9_linear_104_40)"/>
<path d="M32.3751 52.7662C29.3938 52.7388 26.4292 53.2143 23.6056 54.1726C26.4145 54.3137 29.3484 54.3906 32.3751 54.3906C35.4018 54.3906 38.3367 54.3137 41.1445 54.1726C38.321 53.2143 35.3564 52.7388 32.3751 52.7662Z" fill="url(#paint10_linear_104_40)"/>
<path d="M25.3402 17.8033C21.8345 17.555 16.3837 15.0711 11.4841 13.3161C9.23862 12.5119 7.07104 12.4021 5.24052 13.1671C5.37884 13.1575 5.5177 13.1512 5.65867 13.1512C6.38994 13.1493 7.11496 13.286 7.79552 13.5538C10.4417 14.3294 15.8145 19.2378 20.3029 19.615C21.2695 19.6962 25.2051 19.8145 28.2445 18.1577C27.2707 18.0922 26.3012 17.9739 25.3402 17.8033Z" fill="url(#paint11_radial_104_40)"/>
<path d="M32.5463 37.7891C28.8502 37.8135 25.1908 37.0541 21.809 35.5609C20.7153 35.0609 19.6625 34.4755 18.6605 33.8102C21.1778 33.6924 23.5479 32.8648 25.8453 32.0621C28.3176 31.1984 30.8742 30.3055 33.6036 30.3055C33.7449 30.3055 33.8885 30.3078 34.0344 30.3124C36.3233 30.4214 38.597 30.7439 40.826 31.2759C43.3169 31.7799 45.8952 32.3014 48.2901 32.3014C49.0157 32.3055 49.7404 32.2509 50.4572 32.138C45.1709 35.7434 38.9403 37.7091 32.5441 37.7896L32.5463 37.7891ZM45.6509 39.3769L45.6668 39.3552L45.6864 39.3366C49.2849 35.8182 53.4298 33.6324 56.5031 33.6324C57.5482 33.5981 58.5755 33.9094 59.4259 34.5184C60.9628 35.6712 61.2739 37.8002 61.2867 37.8909C61.4319 38.8275 61.3187 39.7861 60.9591 40.6629C59.8499 43.2778 56.6838 44.2063 54.3096 44.2063C54.1379 44.2063 53.9677 44.201 53.8029 44.1914C51.9841 44.0853 48.7125 43.2588 47.9907 40.8555C47.842 40.3458 47.8092 39.8092 47.8948 39.2851C47.6176 39.3581 47.3577 39.4856 47.1303 39.6601C46.9028 39.8346 46.7123 40.0527 46.5699 40.3016C46.0457 41.4369 47.2011 43.1012 47.9367 43.7399C49.636 45.1623 51.79 45.9248 54.0048 45.888C56.8087 45.907 59.5085 44.8263 61.5262 42.8773C62.2439 42.1726 62.812 41.3301 63.1964 40.4002C63.5808 39.4703 63.7736 38.4723 63.7632 37.466C63.1108 32.9189 59.1949 31.2976 55.7431 31.2976C55.573 31.2976 55.4002 31.3013 55.2296 31.3093C53.646 31.5008 51.8049 32.6706 48.1524 34.9906C43.4865 38.1887 37.9705 39.9142 32.3157 39.9446C23.25 39.9446 13.6893 35.5206 4.5982 27.133C5.51857 28.8598 6.65205 30.4639 7.972 31.9077L6.52782 31.2143C5.33136 30.5732 4.0342 30.1415 2.69241 29.9379C7.24646 31.7279 11.5138 35.2744 15.6582 38.7185C21.3363 43.4402 26.6991 47.8966 32.4742 47.8966C36.9694 47.8907 41.2802 45.1055 45.6519 39.3769H45.6509ZM32.6348 25.968C32.8717 25.968 33.1091 25.9786 33.3455 26.0004C33.2315 25.8751 33.0922 25.7756 32.9369 25.7082C32.7816 25.6409 32.6137 25.6074 32.4445 25.6099C32.3887 25.6098 32.333 25.6132 32.2776 25.62C31.9434 25.6592 31.6346 25.8178 31.4079 26.0667C31.8135 26.0006 32.2238 25.9676 32.6348 25.968ZM32.3168 27.1505C31.5059 27.1197 30.6998 27.2872 29.9681 27.6384C29.2365 27.9897 28.6014 28.5142 28.1178 29.1665C28.236 29.1278 28.3552 29.0906 28.474 29.0567C28.527 29.0418 28.9986 28.9092 29.5127 28.8201C30.1684 28.7164 30.8316 28.668 31.4953 28.6753C32.5436 28.6809 33.5904 28.7552 34.6291 28.8975C35.3938 29.0095 36.1612 29.1591 36.9212 29.3432C36.3758 28.6453 35.6758 28.0839 34.8766 27.7031C34.0774 27.3223 33.2007 27.1326 32.3157 27.1489L32.3168 27.1505ZM32.3528 52.0638C32.5786 52.0638 32.8097 52.067 33.0593 52.0734C32.9218 51.1225 33.1594 50.1553 33.7218 49.3767C32.8116 49.4758 31.8935 49.4758 30.9834 49.3767C31.545 50.1558 31.7818 51.1231 31.6437 52.0739C31.8933 52.0654 32.1281 52.0622 32.3496 52.0622L32.3528 52.0638ZM38.9038 54.2145C34.5952 53.2009 30.1105 53.2009 25.8018 54.2145C27.9673 54.2952 30.1625 54.336 32.3528 54.336C34.5432 54.336 36.7373 54.2936 38.9028 54.2129L38.9038 54.2145Z" fill="url(#paint12_linear_104_40)"/>
<path d="M48.2621 55.9918C47.791 47.8051 45.6711 39.7984 42.0299 32.4528C38.3887 25.1072 33.3014 18.5744 27.0738 13.2472H18.7532C16.8655 13.2472 15.0552 13.9978 13.7204 15.334C12.3856 16.6702 11.6357 18.4824 11.6357 20.3721V48.9396C11.6357 50.8292 12.3856 52.6415 13.7204 53.9776C15.0552 55.3138 16.8655 56.0645 18.7532 56.0645H47.2922C47.6168 56.0623 47.9408 56.038 48.2621 55.9918Z" fill="url(#paint13_radial_104_40)"/>
<defs>
<linearGradient id="paint0_linear_104_40" x1="94.7172" y1="20.025" x2="94.7172" y2="54.9325" gradientUnits="userSpaceOnUse">
<stop stop-color="#FCE580"/>
<stop offset="0.29" stop-color="#F8D762"/>
<stop offset="1" stop-color="#F0B91F"/>
</linearGradient>
<radialGradient id="paint1_radial_104_40" cx="0" cy="0" r="1" gradientUnits="userSpaceOnUse" gradientTransform="translate(-29.7556 37.0975) scale(0.27853 0.250754)">
<stop stop-color="white"/>
<stop offset="0.21" stop-color="white" stop-opacity="0.992"/>
<stop offset="0.286" stop-color="white" stop-opacity="0.965"/>
<stop offset="0.34" stop-color="white" stop-opacity="0.922"/>
<stop offset="0.384" stop-color="white" stop-opacity="0.855"/>
<stop offset="0.421" stop-color="white" stop-opacity="0.769"/>
<stop offset="0.454" stop-color="white" stop-opacity="0.659"/>
<stop offset="0.484" stop-color="white" stop-opacity="0.533"/>
<stop offset="0.512" stop-color="white" stop-opacity="0.384"/>
<stop offset="0.537" stop-color="white" stop-opacity="0.216"/>
<stop offset="0.56" stop-color="white" stop-opacity="0.035"/>
<stop offset="0.564" stop-color="white" stop-opacity="0"/>
<stop offset="0.718" stop-color="white" stop-opacity="0"/>
</radialGradient>
<radialGradient id="paint2_radial_104_40" cx="0" cy="0" r="1" gradientUnits="userSpaceOnUse" gradientTransform="translate(3.21268 7.15135) scale(7.69325 7.69897)">
<stop offset="0.34" stop-color="#E795FE"/>
<stop offset="0.346" stop-color="#E58FFC"/>
<stop offset="0.371" stop-color="#E179F8"/>
<stop offset="0.4" stop-color="#DE68F4"/>
<stop offset="0.437" stop-color="#DC5CF1"/>
<stop offset="0.488" stop-color="#DB55F0"/>
<stop offset="0.63" stop-color="#DB54F0"/>
<stop offset="1" stop-color="#9013AC"/>
</radialGradient>
<radialGradient id="paint3_radial_104_40" cx="0" cy="0" r="1" gradientUnits="userSpaceOnUse" gradientTransform="translate(-26.3382 48.9763) rotate(32.9724) scale(11.1512 5.72425)">
<stop offset="0.34" stop-color="#E795FE"/>
<stop offset="0.346" stop-color="#E58FFC"/>
<stop offset="0.371" stop-color="#E179F8"/>
<stop offset="0.4" stop-color="#DE68F4"/>
<stop offset="0.437" stop-color="#DC5CF1"/>
<stop offset="0.488" stop-color="#DB55F0"/>
<stop offset="0.63" stop-color="#DB54F0"/>
<stop offset="1" stop-color="#9013AC"/>
</radialGradient>
<radialGradient id="paint4_radial_104_40" cx="0" cy="0" r="1" gradientUnits="userSpaceOnUse" gradientTransform="translate(-35.1152 17.5616) rotate(-0.300811) scale(3.67839 4.08967)">
<stop offset="0.34" stop-color="#E795FE"/>
<stop offset="0.346" stop-color="#E58FFC"/>
<stop offset="0.371" stop-color="#E179F8"/>
<stop offset="0.4" stop-color="#DE68F4"/>
<stop offset="0.437" stop-color="#DC5CF1"/>
<stop offset="0.488" stop-color="#DB55F0"/>
<stop offset="0.63" stop-color="#DB54F0"/>
<stop offset="1" stop-color="#9013AC"/>
</radialGradient>
<linearGradient id="paint5_linear_104_40" x1="19.6458" y1="16.7429" x2="22.1767" y2="62.1885" gradientUnits="userSpaceOnUse">
<stop stop-color="white"/>
<stop offset="0.144" stop-color="#FEFEFD"/>
<stop offset="0.196" stop-color="#FEFDF6"/>
<stop offset="0.233" stop-color="#FEFBEA"/>
<stop offset="0.263" stop-color="#FEF8D9"/>
<stop offset="0.289" stop-color="#FEF5C3"/>
<stop offset="0.311" stop-color="#FEF0A8"/>
<stop offset="0.331" stop-color="#FEEB88"/>
<stop offset="0.345" stop-color="#FEE76F"/>
<stop offset="0.358" stop-color="#FADA5A"/>
<stop offset="0.377" stop-color="#F6CE44"/>
<stop offset="0.398" stop-color="#F3C433"/>
<stop offset="0.425" stop-color="#F1BD27"/>
<stop offset="0.463" stop-color="#F0BA20"/>
<stop offset="0.568" stop-color="#F0B91F"/>
<stop offset="1" stop-color="#AC7025"/>
</linearGradient>
<radialGradient id="paint6_radial_104_40" cx="0" cy="0" r="1" gradientUnits="userSpaceOnUse" gradientTransform="translate(-73.5865 15.0007) scale(60.9996 61.0674)">
<stop stop-color="white"/>
<stop offset="0.144" stop-color="#FEFEFD"/>
<stop offset="0.196" stop-color="#FEFDF6"/>
<stop offset="0.233" stop-color="#FEFBEA"/>
<stop offset="0.263" stop-color="#FEF8D9"/>
<stop offset="0.289" stop-color="#FEF5C3"/>
<stop offset="0.311" stop-color="#FEF0A8"/>
<stop offset="0.331" stop-color="#FEEB88"/>
<stop offset="0.345" stop-color="#FEE76F"/>
<stop offset="0.358" stop-color="#FADA5A"/>
<stop offset="0.377" stop-color="#F6CE44"/>
<stop offset="0.398" stop-color="#F3C433"/>
<stop offset="0.425" stop-color="#F1BD27"/>
<stop offset="0.463" stop-color="#F0BA20"/>
<stop offset="0.568" stop-color="#F0B91F"/>
<stop offset="1" stop-color="#AC7025"/>
</radialGradient>
<radialGradient id="paint7_radial_104_40" cx="0" cy="0" r="1" gradientUnits="userSpaceOnUse" gradientTransform="translate(-63.3459 14.9492) scale(61.0339 61.3823)">
<stop stop-color="white"/>
<stop offset="0.144" stop-color="#FEFEFD"/>
<stop offset="0.196" stop-color="#FEFDF6"/>
<stop offset="0.233" stop-color="#FEFBEA"/>
<stop offset="0.263" stop-color="#FEF8D9"/>
<stop offset="0.289" stop-color="#FEF5C3"/>
<stop offset="0.311" stop-color="#FEF0A8"/>
<stop offset="0.331" stop-color="#FEEB88"/>
<stop offset="0.345" stop-color="#FEE76F"/>
<stop offset="0.358" stop-color="#FADA5A"/>
<stop offset="0.377" stop-color="#F6CE44"/>
<stop offset="0.398" stop-color="#F3C433"/>
<stop offset="0.425" stop-color="#F1BD27"/>
<stop offset="0.463" stop-color="#F0BA20"/>
<stop offset="0.568" stop-color="#F0B91F"/>
<stop offset="1" stop-color="#AC7025"/>
</radialGradient>
<radialGradient id="paint8_radial_104_40" cx="0" cy="0" r="1" gradientUnits="userSpaceOnUse" gradientTransform="translate(-80.6119 15.0089) scale(61.0606 61.0672)">
<stop stop-color="white"/>
<stop offset="0.144" stop-color="#FEFEFD"/>
<stop offset="0.196" stop-color="#FEFDF6"/>
<stop offset="0.233" stop-color="#FEFBEA"/>
<stop offset="0.263" stop-color="#FEF8D9"/>
<stop offset="0.289" stop-color="#FEF5C3"/>
<stop offset="0.311" stop-color="#FEF0A8"/>
<stop offset="0.331" stop-color="#FEEB88"/>
<stop offset="0.345" stop-color="#FEE76F"/>
<stop offset="0.358" stop-color="#FADA5A"/>
<stop offset="0.377" stop-color="#F6CE44"/>
<stop offset="0.398" stop-color="#F3C433"/>
<stop offset="0.425" stop-color="#F1BD27"/>
<stop offset="0.463" stop-color="#F0BA20"/>
<stop offset="0.568" stop-color="#F0B91F"/>
<stop offset="1" stop-color="#AC7025"/>
</radialGradient>
<linearGradient id="paint9_linear_104_40" x1="9.52163" y1="26.8675" x2="39.0506" y2="77.9193" gradientUnits="userSpaceOnUse">
<stop stop-color="white"/>
<stop offset="0.345" stop-color="#FEE76F"/>
<stop offset="0.358" stop-color="#FADA5A"/>
<stop offset="0.377" stop-color="#F6CE44"/>
<stop offset="0.398" stop-color="#F3C433"/>
<stop offset="0.425" stop-color="#F1BD27"/>
<stop offset="0.463" stop-color="#F0BA20"/>
<stop offset="0.568" stop-color="#F0B91F"/>
<stop offset="1" stop-color="#AC7025"/>
</linearGradient>
<linearGradient id="paint10_linear_104_40" x1="7.312" y1="29.0658" x2="7.68562" y2="72.6434" gradientUnits="userSpaceOnUse">
<stop stop-color="white"/>
<stop offset="0.345" stop-color="#FEE76F"/>
<stop offset="0.358" stop-color="#FADA5A"/>
<stop offset="0.377" stop-color="#F6CE44"/>
<stop offset="0.398" stop-color="#F3C433"/>
<stop offset="0.425" stop-color="#F1BD27"/>
<stop offset="0.463" stop-color="#F0BA20"/>
<stop offset="0.568" stop-color="#F0B91F"/>
<stop offset="1" stop-color="#AC7025"/>
</linearGradient>
<radialGradient id="paint11_radial_104_40" cx="0" cy="0" r="1" gradientUnits="userSpaceOnUse" gradientTransform="translate(-83.0546 14.6738) scale(14.4759 14.5019)">
<stop offset="0.34" stop-color="#E795FE"/>
<stop offset="0.346" stop-color="#E58FFC"/>
<stop offset="0.371" stop-color="#E179F8"/>
<stop offset="0.4" stop-color="#DE68F4"/>
<stop offset="0.437" stop-color="#DC5CF1"/>
<stop offset="0.488" stop-color="#DB55F0"/>
<stop offset="0.63" stop-color="#DB54F0"/>
<stop offset="1" stop-color="#9013AC"/>
</radialGradient>
<linearGradient id="paint12_linear_104_40" x1="32.5562" y1="32.5615" x2="35.2934" y2="44.9354" gradientUnits="userSpaceOnUse">
<stop offset="0.004" stop-color="#F0B91F"/>
<stop offset="0.127" stop-color="#FEE76F"/>
<stop offset="0.13" stop-color="#FEEB88"/>
<stop offset="0.134" stop-color="#FEF0A8"/>
<stop offset="0.138" stop-color="#FEF5C3"/>
<stop offset="0.143" stop-color="#FEF8D9"/>
<stop offset="0.149" stop-color="#FEFBEA"/>
<stop offset="0.157" stop-color="#FEFDF6"/>
<stop offset="0.167" stop-color="#FEFEFD"/>
<stop offset="0.196" stop-color="white"/>
<stop offset="0.338" stop-color="#FEFEFD"/>
<stop offset="0.389" stop-color="#FEFCF6"/>
<stop offset="0.426" stop-color="#FDF8EA"/>
<stop offset="0.455" stop-color="#FCF3D9"/>
<stop offset="0.481" stop-color="#FBECC3"/>
<stop offset="0.503" stop-color="#F9E3A8"/>
<stop offset="0.523" stop-color="#F7D987"/>
<stop offset="0.542" stop-color="#F4CE62"/>
<stop offset="0.559" stop-color="#F1C139"/>
<stop offset="0.568" stop-color="#F0B91F"/>
</linearGradient>
<radialGradient id="paint13_radial_104_40" cx="0" cy="0" r="1" gradientUnits="userSpaceOnUse" gradientTransform="translate(120.782 -0.0690266) scale(123.847 123.956)">
<stop stop-color="white" stop-opacity="0.549"/>
<stop offset="0.21" stop-color="white" stop-opacity="0.545"/>
<stop offset="0.286" stop-color="white" stop-opacity="0.529"/>
<stop offset="0.34" stop-color="white" stop-opacity="0.506"/>
<stop offset="0.384" stop-color="white" stop-opacity="0.471"/>
<stop offset="0.421" stop-color="white" stop-opacity="0.424"/>
<stop offset="0.454" stop-color="white" stop-opacity="0.365"/>
<stop offset="0.484" stop-color="white" stop-opacity="0.294"/>
<stop offset="0.512" stop-color="white" stop-opacity="0.212"/>
<stop offset="0.537" stop-color="white" stop-opacity="0.118"/>
<stop offset="0.56" stop-color="white" stop-opacity="0.02"/>
<stop offset="0.564" stop-color="white" stop-opacity="0"/>
<stop offset="0.718" stop-color="white" stop-opacity="0"/>
</radialGradient>
</defs>
</svg>
