<svg width="174" height="72" viewBox="0 0 174 72" fill="none" xmlns="http://www.w3.org/2000/svg">
<g clip-path="url(#clip0_53892_1010)">
<path d="M86.4008 20.7563H88.4093C88.9015 20.7563 89.3017 21.1564 89.3043 21.6513V23.5492H89.5228C89.7018 23.1491 89.9229 22.7701 90.1782 22.4173C90.6047 21.8514 91.1391 21.3749 91.7471 21.0116C92.5448 20.5352 93.4635 20.3009 94.3927 20.3378C95.5246 20.3378 96.4723 20.5931 97.2199 21.1222C97.8779 21.5539 98.4413 22.112 98.8809 22.7648C99.1441 23.157 99.36 23.5782 99.5205 24.0231H99.739C100.165 23.136 100.734 22.3226 101.418 21.6145C102.203 20.7563 103.443 20.3378 105.141 20.3378C106.546 20.3378 107.676 20.7036 108.552 21.4144C109.41 22.1225 110.058 23.0491 110.432 24.0968C110.803 25.1023 110.995 26.1632 110.998 27.2346V36.4663C110.998 36.9586 110.598 37.3587 110.103 37.3613H108.094C107.602 37.3613 107.202 36.9612 107.199 36.4663V27.6163C107.199 26.3211 106.87 25.3366 106.215 24.6785C105.564 24.0257 104.672 23.6677 103.751 23.694C102.803 23.6835 101.89 24.052 101.216 24.7154C100.505 25.3893 100.158 26.3764 100.158 27.6163V36.4663C100.158 36.9586 99.7575 37.3587 99.2626 37.3613H97.2541C96.7618 37.3613 96.3617 36.9612 96.3591 36.4663V27.6189C96.3591 26.3238 96.03 25.3393 95.3746 24.6812C94.7244 24.0283 93.832 23.6703 92.9107 23.6967C91.963 23.6861 91.0496 24.0547 90.3757 24.718C89.6649 25.3919 89.3175 26.3791 89.3175 27.6189V36.4689C89.3175 36.9612 88.9173 37.3613 88.4225 37.364H86.4139C85.9217 37.364 85.5216 36.9638 85.5189 36.4689V21.6539C85.4926 21.1854 85.8506 20.7879 86.3192 20.7616C86.3508 20.7563 86.3745 20.7563 86.4008 20.7563Z" fill="white"/>
<path d="M115.157 35.2265C113.988 33.6392 113.388 31.5596 113.388 29.0036C113.388 26.4133 113.991 24.3153 115.175 22.728C116.378 21.1406 118.021 20.3562 120.137 20.3562C121.58 20.3562 122.727 20.6852 123.549 21.3407C124.309 21.9146 124.918 22.6674 125.318 23.5308H125.573V21.6513C125.573 21.1591 125.973 20.759 126.468 20.7563H128.511C129.003 20.7563 129.403 21.1564 129.406 21.6513V36.4663C129.406 36.9586 129.006 37.3587 128.511 37.3613H126.468C125.976 37.3613 125.576 36.9612 125.573 36.4663V34.3131H125.354C124.92 35.2133 124.283 36.0004 123.493 36.6111C122.654 37.285 121.506 37.6141 120.063 37.6141C117.965 37.6141 116.325 36.8112 115.157 35.2265ZM124.515 32.8705C125.241 31.6991 125.61 30.3434 125.573 28.9667C125.573 27.4347 125.225 26.1395 124.515 25.0813C123.804 24.0231 122.783 23.494 121.414 23.494C120.008 23.494 118.968 24.0231 118.276 25.0813C117.602 26.1395 117.255 27.4347 117.255 28.9667C117.255 30.4987 117.602 31.7939 118.294 32.8705C118.987 33.9472 120.027 34.4763 121.414 34.4763C122.659 34.5315 123.841 33.9208 124.515 32.8705Z" fill="white"/>
<path d="M137.705 43.0894V41.739C137.703 41.252 138.098 40.8545 138.585 40.8518C138.632 40.8518 138.679 40.8545 138.727 40.8624H138.745C139.203 40.9335 139.666 40.9703 140.132 40.9729C141.664 40.9729 142.759 40.536 143.436 39.6594C144.11 38.7828 144.439 37.6877 144.439 36.3742V33.9287H144.184C143.736 34.8211 143.081 35.5924 142.267 36.1715C141.391 36.8269 140.259 37.156 138.911 37.156C137.642 37.1902 136.397 36.819 135.352 36.0978C134.307 35.3554 133.496 34.3315 133.017 33.1416C132.448 31.7544 132.169 30.2618 132.196 28.7613C132.164 27.2425 132.446 25.7341 133.017 24.3284C133.496 23.1333 134.307 22.1014 135.352 21.3538C136.397 20.6326 137.642 20.2614 138.911 20.2956C140.317 20.2956 141.464 20.6431 142.359 21.3538C143.162 21.954 143.797 22.7516 144.202 23.6703H144.457V21.6829C144.457 21.1906 144.857 20.7905 145.352 20.7879H147.361C147.853 20.7879 148.253 21.188 148.256 21.6829V36.3873C148.248 37.5587 148.04 38.7196 147.635 39.8173C147.182 41.0519 146.376 42.1233 145.318 42.8998C144.186 43.7764 142.617 44.2134 140.63 44.2134C139.88 44.2187 139.132 44.1344 138.403 43.9581C137.998 43.8659 137.713 43.5053 137.705 43.0894ZM143.362 32.4335C144.084 31.3279 144.455 30.0302 144.42 28.7113C144.449 27.403 144.081 26.1184 143.362 25.026C142.686 24.002 141.522 23.4045 140.298 23.4571C138.929 23.4571 137.908 23.9678 137.197 25.0076C136.471 26.1026 136.102 27.3978 136.139 28.7113C136.105 30.0328 136.465 31.3358 137.179 32.4519C137.871 33.5102 138.911 34.0208 140.298 34.0208C141.53 34.0735 142.696 33.468 143.362 32.4335Z" fill="white"/>
<path d="M152.12 17.1816C151.254 16.3234 151.246 14.9283 152.105 14.0622C152.963 13.1962 154.358 13.1883 155.224 14.0464C155.648 14.465 155.882 15.0362 155.879 15.6311C155.893 16.2102 155.669 16.7709 155.258 17.1816C154.85 17.608 154.279 17.8397 153.689 17.8213C153.097 17.8502 152.523 17.6159 152.12 17.1816ZM152.723 20.7564H154.732C155.224 20.7564 155.624 21.1565 155.627 21.6514V36.4664C155.627 36.9586 155.227 37.3587 154.732 37.3614H152.723C152.231 37.3614 151.831 36.9613 151.828 36.4664V21.6514C151.831 21.1565 152.228 20.7564 152.723 20.7564Z" fill="white"/>
<path d="M162.137 36.3926C160.974 35.5977 160.058 34.4921 159.492 33.1996C158.91 31.8649 158.618 30.4224 158.633 28.9667C158.626 27.5242 158.918 26.0948 159.492 24.7707C160.058 23.4782 160.974 22.3726 162.137 21.5776C163.324 20.7563 164.801 20.3562 166.552 20.3562C168.76 20.3562 170.492 20.9774 171.751 22.2357C172.753 23.2308 173.464 24.4785 173.812 25.8473C173.93 26.3291 173.638 26.816 173.156 26.9345C173.085 26.9529 173.009 26.9608 172.935 26.9608H171.037C170.632 26.9714 170.276 26.6976 170.179 26.3054C170 25.6104 169.642 24.976 169.139 24.4627C168.518 23.823 167.644 23.4966 166.567 23.4966C165.162 23.4966 164.122 24.0257 163.43 25.0839C162.737 26.1422 162.39 27.4373 162.39 28.9693C162.39 30.5382 162.737 31.8518 163.43 32.91C164.122 33.9682 165.162 34.4973 166.567 34.4973C167.52 34.5368 168.45 34.1893 169.139 33.5312C169.639 33.01 169.997 32.3677 170.179 31.6701C170.287 31.2858 170.637 31.0173 171.037 31.0147H172.935C173.43 31.0121 173.835 31.4122 173.838 31.9071C173.838 31.9808 173.83 32.0545 173.812 32.1282C173.464 33.497 172.751 34.7448 171.751 35.7398C170.474 36.9981 168.739 37.6193 166.552 37.6193C164.783 37.6141 163.324 37.2139 162.137 36.3926Z" fill="white"/>
<path d="M87.058 64.222C86.4236 63.8403 85.9524 63.2348 85.7445 62.5241C85.5418 61.6633 85.4497 60.7815 85.4707 59.897V42.0705C85.4707 41.5783 85.8708 41.1782 86.3657 41.1755H88.3742C88.8665 41.1755 89.2666 41.5757 89.2692 42.0705V59.1652C89.2561 59.7443 89.2929 60.3261 89.3798 60.8973C89.4456 61.2711 89.672 61.5975 90.001 61.7923C90.3301 62.0108 90.8776 62.1213 91.6068 62.1213H91.6621C92.1596 62.1135 92.5676 62.5109 92.5729 63.0085C92.5729 63.0111 92.5729 63.0137 92.5729 63.0164V63.9114C92.5702 64.3694 92.2254 64.7537 91.77 64.8064C91.2672 64.859 90.7618 64.8853 90.2564 64.8801C88.827 64.8985 87.7504 64.6616 87.058 64.222ZM95.9976 62.6162C94.8288 61.0289 94.2286 58.9493 94.2286 56.3933C94.2286 53.803 94.8314 51.705 96.016 50.1177C97.219 48.5304 98.8616 47.7459 100.978 47.7459C102.421 47.7459 103.568 48.075 104.39 48.7305C105.15 49.3043 105.758 50.0572 106.159 50.9206H106.414V49.0595C106.414 48.5672 106.814 48.1671 107.309 48.1645H109.352C109.844 48.1645 110.244 48.5646 110.247 49.0595V63.8745C110.247 64.3668 109.847 64.7669 109.352 64.7695H107.309C106.817 64.7695 106.417 64.3694 106.414 63.8745V61.7212H106.195C105.761 62.6215 105.124 63.4086 104.334 64.0193C103.495 64.6932 102.347 65.0222 100.904 65.0222C98.809 65.0249 97.1664 64.222 95.9976 62.6162ZM105.358 60.2629C106.085 59.0915 106.453 57.7358 106.417 56.3591C106.417 54.827 106.069 53.5319 105.358 52.4737C104.648 51.4155 103.626 50.8864 102.257 50.8864C100.852 50.8864 99.8119 51.4155 99.1196 52.4737C98.4457 53.5319 98.0982 54.827 98.0982 56.3591C98.0982 57.8911 98.4457 59.1862 99.138 60.2629C99.8303 61.3395 100.87 61.8686 102.257 61.8686C103.626 61.8686 104.648 61.3395 105.358 60.2629ZM114.516 48.1487H116.525C117.017 48.1487 117.417 48.5488 117.42 49.0437V50.9417H117.638C117.817 50.5415 118.038 50.1625 118.294 49.8097C118.72 49.2438 119.255 48.7673 119.863 48.404C120.66 47.9276 121.579 47.6933 122.508 47.7302C123.64 47.7302 124.588 47.9855 125.335 48.5146C125.993 48.9463 126.557 49.5044 126.996 50.1572C127.26 50.5494 127.476 50.9706 127.636 51.4155H127.855C128.281 50.5284 128.85 49.715 129.534 49.0069C130.318 48.1487 131.558 47.7302 133.256 47.7302C134.662 47.7302 135.791 48.0961 136.668 48.8068C137.526 49.5149 138.173 50.4415 138.547 51.4892C138.918 52.4948 139.111 53.5556 139.113 54.627V63.8587C139.113 64.351 138.713 64.7511 138.218 64.7537H136.21C135.717 64.7537 135.317 64.3536 135.315 63.8587V55.0087C135.315 53.7135 134.986 52.729 134.33 52.0709C133.68 51.4181 132.79 51.0601 131.866 51.0864C130.919 51.0759 130.005 51.4444 129.331 52.1078C128.621 52.7817 128.273 53.7688 128.273 55.0087V63.8587C128.273 64.351 127.873 64.7511 127.378 64.7537H125.37C124.877 64.7537 124.477 64.3536 124.475 63.8587V55.0113C124.475 53.7162 124.146 52.7317 123.49 52.0736C122.84 51.4207 121.95 51.0627 121.026 51.0891C120.079 51.0785 119.165 51.4471 118.491 52.1104C117.78 52.7843 117.433 53.7715 117.433 55.0113V63.8613C117.433 64.3536 117.033 64.7537 116.538 64.7564H114.529C114.037 64.7564 113.637 64.3562 113.634 63.8613V49.0411C113.621 48.562 113.998 48.1619 114.477 48.1487C114.495 48.1487 114.506 48.1487 114.516 48.1487ZM148.29 63.9851C147.495 63.3796 146.852 62.6004 146.41 61.7054H146.155V70.3344C146.155 70.8266 145.755 71.2267 145.26 71.2294H143.251C142.759 71.2294 142.359 70.8292 142.356 70.3344V49.0595C142.356 48.5672 142.756 48.1671 143.251 48.1645H145.26C145.752 48.1645 146.152 48.5646 146.155 49.0595V50.9206H146.41C146.818 50.0572 147.432 49.3043 148.198 48.7305C149.037 48.075 150.185 47.7459 151.628 47.7459C153.781 47.7459 155.46 48.5304 156.626 50.1177C157.795 51.705 158.395 53.7846 158.395 56.3933C158.395 58.9467 157.811 61.0289 156.626 62.6162C155.458 64.2036 153.799 65.0064 151.683 65.0064C150.28 65.0249 149.148 64.68 148.29 63.9851ZM153.489 60.3182C154.181 59.2415 154.528 57.928 154.528 56.3959C154.528 54.8639 154.181 53.5688 153.489 52.5105C152.796 51.4523 151.757 50.9232 150.351 50.9232C148.982 50.9232 147.961 51.4523 147.25 52.5105C146.539 53.5688 146.192 54.8639 146.192 56.3959C146.15 57.7806 146.518 59.1441 147.25 60.3182C147.942 61.3948 148.982 61.9423 150.351 61.9423C151.757 61.9423 152.815 61.3948 153.489 60.3182Z" fill="url(#paint0_linear_53892_1010)"/>
<path d="M38.4224 64.7064C38.6066 64.5195 38.7777 64.3115 38.9357 64.0825C39.0857 64.3089 39.2595 64.5169 39.4569 64.7064H38.4224Z" fill="url(#paint1_radial_53892_1010)"/>
<path d="M61.3793 8.95276C61.0608 6.64943 59.0549 3.69854 56.6805 2.11385C54.6799 0.7766 52.8425 0.692363 52.0738 0.658143C50.2391 0.573907 45.3876 4.28293 40.4887 10.8217C40.2966 11.0771 40.2834 11.4167 40.4308 11.6825C40.7757 11.493 41.2758 11.2324 41.2758 11.2324C41.0284 11.6615 40.7941 12.1248 40.8994 12.209C40.981 12.2774 41.2442 12.1011 41.3258 12.0247C42.3946 11.0481 49.9363 2.55082 53.0136 3.40108C54.0297 3.68274 54.9221 5.08317 54.9721 5.16477C55.2195 5.56226 55.4722 6.10453 55.538 6.78368C55.6486 7.89981 54.8957 8.53684 53.9691 9.18704C51.9922 10.5743 50.1891 11.343 49.731 11.5351C48.2937 12.1379 47.0934 12.6433 45.2955 13.1567C44.4478 13.3988 43.616 13.5989 42.8026 13.7674C42.3051 13.87 42.0103 14.4123 42.2366 14.8677C42.4025 15.202 42.5025 15.5758 42.542 15.9654C42.5789 16.326 42.8789 16.6051 43.2369 16.6472C44.5268 16.792 45.9062 16.8657 47.3461 16.8183C52.8609 16.6393 62.1585 14.5939 61.3793 8.95276Z" fill="url(#paint2_radial_53892_1010)"/>
<path d="M35.8242 10.6138C35.2451 9.67672 34.587 8.72643 33.8341 7.79194C30.3752 3.4959 23.1493 -2.70334 19.1113 1.31103C17.4608 2.951 16.3104 6.32834 16.471 9.17657C16.6052 11.5773 17.6424 13.0962 18.0767 13.7332C20.8407 17.7818 28.4904 17.5844 33.6288 16.9184C34.1263 16.8552 34.4238 16.3551 34.2816 15.8733C34.2816 15.8733 34.279 15.8654 34.2764 15.8575C34.1289 15.389 29.2985 15.4258 26.4687 14.9125C24.0628 14.4755 19.8694 13.0541 19.5088 10.5981C19.3166 9.27923 20.2248 7.813 20.8881 7.27599C21.0645 7.13384 21.5962 6.7153 22.3859 6.58894C22.3859 6.58894 22.5018 6.57315 22.6202 6.56525C25.3131 6.40468 32.1415 11.6299 32.1415 11.6299C32.6522 12.0222 33.3445 12.5539 34.1632 13.1909C34.4001 13.3226 34.5317 13.2989 34.6028 13.2673C34.9581 13.1041 34.9502 12.1669 34.6633 11.4931C34.5054 11.1219 34.279 10.8692 34.1368 10.7297C34.2527 10.8086 34.4264 10.9271 34.637 11.0719C35.3767 11.5826 35.5162 11.6931 35.6399 11.6457C35.8689 11.5589 36.019 10.9271 35.8242 10.6138Z" fill="url(#paint3_radial_53892_1010)"/>
<path d="M57.6698 70.8163H20.2111C14.8148 70.8163 10.4424 66.4413 10.4424 61.0475V23.5888C10.4424 18.1924 14.8174 13.8201 20.2111 13.8201H57.6698C63.0662 13.8201 67.4386 18.1951 67.4386 23.5888V61.0475C67.4386 66.4413 63.0636 70.8163 57.6698 70.8163Z" fill="#5C008C"/>
<path d="M57.6202 70.5714H20.3879C15.0257 70.5714 10.6797 66.2253 10.6797 60.8632V23.6335C10.6797 18.2713 15.0257 13.9253 20.3879 13.9253H57.6202C62.9823 13.9253 67.3284 18.2713 67.3284 23.6335V60.8658C67.3284 66.2253 62.9823 70.5714 57.6202 70.5714Z" fill="#5D008D"/>
<path d="M57.5701 70.3293H20.5642C15.2362 70.3293 10.9165 66.0096 10.9165 60.6817V23.6757C10.9165 18.3478 15.2362 14.0281 20.5642 14.0281H57.5701C62.898 14.0281 67.2177 18.3478 67.2177 23.6757V60.6817C67.2177 66.0096 62.898 70.3293 57.5701 70.3293Z" fill="#5E008D"/>
<path d="M57.5198 70.0842H20.7402C15.4465 70.0842 11.1558 65.7935 11.1558 60.4998V23.7202C11.1558 18.4265 15.4465 14.1357 20.7402 14.1357H57.5224C62.8161 14.1357 67.1069 18.4265 67.1069 23.7202V60.5024C67.1069 65.7935 62.8135 70.0842 57.5198 70.0842Z" fill="#5F008E"/>
<path d="M57.4728 69.8422H20.917C15.6575 69.8422 11.3931 65.5777 11.3931 60.3183V23.7625C11.3931 18.503 15.6575 14.2385 20.917 14.2385H57.4728C62.7323 14.2385 66.9967 18.503 66.9967 23.7625V60.3183C66.9941 65.5777 62.7323 69.8422 57.4728 69.8422Z" fill="#60008E"/>
<path d="M57.4227 69.5973H21.0933C15.868 69.5973 11.6299 65.3618 11.6299 60.1339V23.8071C11.6299 18.5819 15.8654 14.3438 21.0933 14.3438H57.4227C62.6479 14.3438 66.886 18.5792 66.886 23.8071V60.1366C66.8834 65.3618 62.6479 69.5973 57.4227 69.5973Z" fill="#61008F"/>
<path d="M57.3728 69.3553H21.2698C16.0788 69.3553 11.8696 65.1461 11.8696 59.9551V23.8494C11.8696 18.6584 16.0788 14.4492 21.2698 14.4492H57.3728C62.5639 14.4492 66.773 18.6584 66.773 23.8494V59.9525C66.773 65.1461 62.5639 69.3553 57.3728 69.3553Z" fill="#62008F"/>
<path d="M57.3225 69.1104H21.4432C16.2864 69.1104 12.1035 64.9302 12.1035 59.7707V23.8914C12.1035 18.7346 16.2837 14.5518 21.4432 14.5518H57.3225C62.4793 14.5518 66.6621 18.732 66.6621 23.8914V59.7707C66.6621 64.9302 62.4819 69.1104 57.3225 69.1104Z" fill="#630090"/>
<path d="M57.2753 68.8681H21.6224C16.4972 68.8681 12.3433 64.7142 12.3433 59.589V23.9361C12.3433 18.8109 16.4972 14.657 21.6224 14.657H57.2753C62.4005 14.657 66.5544 18.8109 66.5544 23.9361V59.589C66.5518 64.7142 62.3979 68.8681 57.2753 68.8681Z" fill="#640091"/>
<path d="M57.225 68.6235H21.7985C16.7075 68.6235 12.5825 64.496 12.5825 59.4076V23.9811C12.5825 18.8901 16.7101 14.7651 21.7985 14.7651H57.225C62.316 14.7651 66.4409 18.8927 66.4409 23.9811V59.4076C66.4409 64.4986 62.316 68.6235 57.225 68.6235Z" fill="#650091"/>
<path d="M57.1753 68.3812H21.9752C16.9184 68.3812 12.8198 64.2826 12.8198 59.2258V24.0231C12.8198 18.9663 16.9184 14.8677 21.9752 14.8677H57.1753C62.2321 14.8677 66.3307 18.9663 66.3307 24.0231V59.2258C66.3307 64.2826 62.2321 68.3812 57.1753 68.3812Z" fill="#660092"/>
<path d="M57.1252 68.1364H22.1515C17.1289 68.1364 13.0566 64.0641 13.0566 59.0415V24.0678C13.0566 19.0452 17.1289 14.9729 22.1515 14.9729H57.1278C62.1504 14.9729 66.2227 19.0452 66.2227 24.0678V59.0441C66.2201 64.0667 62.1478 68.1364 57.1252 68.1364Z" fill="#670092"/>
<path d="M57.0778 67.8943H22.3251C17.3368 67.8943 13.2935 63.851 13.2935 58.8627V24.11C13.2935 19.1217 17.3368 15.0784 22.3251 15.0784H57.0751C62.0635 15.0784 66.1068 19.1217 66.1068 24.11V58.86C66.1094 63.851 62.0661 67.8943 57.0778 67.8943Z" fill="#680093"/>
<path d="M57.0276 67.6495H22.5014C17.5473 67.6495 13.5303 63.6325 13.5303 58.6783V24.1547C13.5303 19.2006 17.5473 15.1836 22.5014 15.1836H57.0276C61.9818 15.1836 65.9988 19.2006 65.9988 24.1547V58.681C65.9988 63.6351 61.9818 67.6495 57.0276 67.6495Z" fill="#690094"/>
<path d="M56.9775 67.4072H22.6777C17.7578 67.4072 13.7671 63.4191 13.7671 58.4966V24.1967C13.7671 19.2768 17.7551 15.2861 22.6777 15.2861H56.9775C61.8974 15.2861 65.8881 19.2742 65.8881 24.1967V58.4966C65.8881 63.4191 61.9001 67.4072 56.9775 67.4072Z" fill="#6A0094"/>
<path d="M56.9303 67.165H22.8542C17.9686 67.165 14.0068 63.2032 14.0068 58.3176V24.2415C14.0068 19.3558 17.9686 15.394 22.8542 15.394H56.9277C61.8134 15.394 65.7751 19.3558 65.7751 24.2415V58.3149C65.7777 63.2032 61.816 67.165 56.9303 67.165Z" fill="#6B0095"/>
<path d="M56.8802 66.9203H23.0305C18.1791 66.9203 14.2437 62.9876 14.2437 58.1335V24.2864C14.2437 19.4349 18.1764 15.4995 23.0305 15.4995H56.8776C61.729 15.4995 65.6644 19.4323 65.6644 24.2864V58.1335C65.6671 62.9876 61.7317 66.9203 56.8802 66.9203Z" fill="#6C0095"/>
<path d="M56.8301 66.678H23.2068C18.3869 66.678 14.4805 62.7716 14.4805 57.9517V24.3284C14.4805 19.5085 18.3869 15.6021 23.2068 15.6021H56.8301C61.65 15.6021 65.5564 19.5085 65.5564 24.3284V57.9517C65.5564 62.7716 61.65 66.678 56.8301 66.678Z" fill="#6D0096"/>
<path d="M56.7803 66.4332H23.3834C18.5977 66.4332 14.7202 62.5531 14.7202 57.7701V24.3731C14.7202 19.5874 18.6003 15.71 23.3834 15.71H56.7803C61.566 15.71 65.4435 19.5901 65.4435 24.3731V57.7701C65.4461 62.5557 61.566 66.4332 56.7803 66.4332Z" fill="#6E0096"/>
<path d="M56.7328 66.1911H23.5596C18.8082 66.1911 14.957 62.34 14.957 57.5885V24.4153C14.957 19.6639 18.8082 15.8127 23.5596 15.8127H56.7302C61.4816 15.8127 65.3328 19.6639 65.3328 24.4153V57.5859C65.3354 62.34 61.4816 66.1911 56.7328 66.1911Z" fill="#6F0097"/>
<path d="M56.6832 65.9463H23.7364C19.0192 65.9463 15.1943 62.1214 15.1943 57.4042V24.46C15.1943 19.7428 19.0192 15.918 23.7364 15.918H56.6832C61.4004 15.918 65.2252 19.7428 65.2252 24.46V57.4068C65.2226 62.1214 61.4004 65.9463 56.6832 65.9463Z" fill="#700098"/>
<path d="M56.6329 65.7041H23.9125C19.2295 65.7041 15.4336 61.9082 15.4336 57.2252V24.5048C15.4336 19.8218 19.2295 16.0259 23.9125 16.0259H56.6329C61.3159 16.0259 65.1118 19.8218 65.1118 24.5048V57.2252C65.1118 61.9055 61.3159 65.7041 56.6329 65.7041Z" fill="#710098"/>
<path d="M56.5828 65.4594H24.0887C19.44 65.4594 15.6704 61.6898 15.6704 57.041V24.547C15.6704 19.8982 19.44 16.1287 24.0887 16.1287H56.5828C61.2316 16.1287 65.0011 19.8982 65.0011 24.547V57.041C65.0011 61.6898 61.2342 65.4594 56.5828 65.4594Z" fill="#720099"/>
<path d="M56.5358 65.2171H24.2655C19.651 65.2171 15.9077 61.4765 15.9077 56.8593V24.589C15.9077 19.9744 19.6483 16.2312 24.2655 16.2312H56.5358C61.1503 16.2312 64.8936 19.9718 64.8936 24.589V56.8593C64.8909 61.4738 61.1503 65.2171 56.5358 65.2171Z" fill="#730099"/>
<path d="M56.4855 64.9722H24.4416C19.8613 64.9722 16.147 61.258 16.147 56.6776V24.6337C16.147 20.0534 19.8613 16.3391 24.4416 16.3391H56.4855C61.0658 16.3391 64.7801 20.0534 64.7801 24.6337V56.6776C64.7801 61.258 61.0658 64.9722 56.4855 64.9722Z" fill="#74009A"/>
<path d="M56.4354 64.73H24.6179C20.0691 64.73 16.3838 61.0447 16.3838 56.4959V24.6784C16.3838 20.1297 20.0691 16.4443 24.6179 16.4443H56.4354C60.9841 16.4443 64.6694 20.1297 64.6694 24.6784V56.4959C64.6694 61.042 60.9841 64.73 56.4354 64.73Z" fill="#75009A"/>
<path d="M56.3857 64.4853H24.7946C20.2801 64.4853 16.6211 60.8263 16.6211 56.3118V24.7206C16.6211 20.2061 20.2801 16.5471 24.7946 16.5471H56.3857C60.9003 16.5471 64.5593 20.2061 64.5593 24.7206V56.3144C64.5593 60.8263 60.9003 64.4853 56.3857 64.4853Z" fill="#76009B"/>
<path d="M56.3381 64.2431H24.9707C20.4904 64.2431 16.8604 60.6104 16.8604 56.1328V24.7654C16.8604 20.2851 20.493 16.655 24.9707 16.655H56.3381C60.8184 16.655 64.4484 20.2877 64.4484 24.7654V56.1328C64.4484 60.6104 60.8158 64.2431 56.3381 64.2431Z" fill="#77009C"/>
<path d="M56.2879 63.9984H25.147C20.7009 63.9984 17.0972 60.3947 17.0972 55.9486V24.8076C17.0972 20.3615 20.7009 16.7578 25.147 16.7578H56.2879C60.734 16.7578 64.3377 20.3615 64.3377 24.8076V55.9486C64.3377 60.3947 60.734 63.9984 56.2879 63.9984Z" fill="#78009C"/>
<path d="M56.2378 63.7562H25.3232C20.9114 63.7562 17.334 60.1788 17.334 55.7669V24.8523C17.334 20.4404 20.9114 16.863 25.3232 16.863H56.2378C60.6497 16.863 64.2271 20.4404 64.2271 24.8523V55.7669C64.2271 60.1788 60.6497 63.7562 56.2378 63.7562Z" fill="#79009D"/>
<path d="M56.188 63.5113H25.4998C21.1222 63.5113 17.5737 59.9629 17.5737 55.5852V24.8943C17.5737 20.5167 21.1222 16.9683 25.4998 16.9683H56.1907C60.5683 16.9683 64.1168 20.5167 64.1168 24.8943V55.5852C64.1168 59.9629 60.5683 63.5113 56.188 63.5113Z" fill="#7A009D"/>
<path d="M56.1406 63.2693H25.6761C21.3327 63.2693 17.8105 59.7472 17.8105 55.4037V24.9393C17.8105 20.5958 21.3327 17.0737 25.6761 17.0737H56.1406C60.484 17.0737 64.0061 20.5958 64.0061 24.9393V55.4037C64.0061 59.7472 60.484 63.2693 56.1406 63.2693Z" fill="#7B009E"/>
<path d="M56.0904 63.0243H25.8524C21.5432 63.0243 18.0474 59.5312 18.0474 55.2194V24.9813C18.0474 20.6721 21.5405 17.1763 25.8524 17.1763H56.0904C60.3996 17.1763 63.8954 20.6694 63.8954 24.9813V55.2194C63.8954 59.5312 60.3996 63.0243 56.0904 63.0243Z" fill="#7C009F"/>
<path d="M56.0406 62.7822H26.0289C21.7539 62.7822 18.2871 59.3153 18.2871 55.0403V25.026C18.2871 20.751 21.7539 17.2842 26.0289 17.2842H56.0432C60.3182 17.2842 63.7851 20.751 63.7851 25.026V55.0403C63.7851 59.3153 60.3182 62.7822 56.0406 62.7822Z" fill="#7D009F"/>
<path d="M55.9932 62.5375H26.2052C21.9618 62.5375 18.5239 59.0996 18.5239 54.8562V25.0682C18.5239 20.8248 21.9618 17.387 26.2052 17.387H55.9932C60.2365 17.387 63.6744 20.8248 63.6744 25.0682V54.8562C63.6744 59.0996 60.2339 62.5375 55.9932 62.5375Z" fill="#7E00A0"/>
<path d="M55.943 62.2952H26.3815C22.1723 62.2952 18.7607 58.8837 18.7607 54.6745V25.1129C18.7607 20.9037 22.1723 17.4922 26.3815 17.4922H55.943C60.1522 17.4922 63.5638 20.9037 63.5638 25.1129V54.6745C63.5638 58.8837 60.1522 62.2952 55.943 62.2952Z" fill="#7F00A0"/>
<path d="M55.8932 62.0504H26.558C22.3831 62.0504 19.0005 58.6651 19.0005 54.4928V25.1576C19.0005 20.9827 22.3857 17.6001 26.558 17.6001H55.8958C60.0708 17.6001 63.4534 20.9853 63.4534 25.1576V54.4955C63.4508 58.6678 60.0681 62.0504 55.8932 62.0504Z" fill="#8000A1"/>
<path d="M55.8431 61.8081H26.7343C22.5936 61.8081 19.2373 58.4518 19.2373 54.3111V25.1996C19.2373 21.0589 22.5936 17.7026 26.7343 17.7026H55.8457C59.9864 17.7026 63.3427 21.0589 63.3427 25.1996V54.3111C63.3401 58.4518 59.9838 61.8081 55.8431 61.8081Z" fill="#8100A1"/>
<path d="M55.7958 61.5634H26.9081C22.8016 61.5634 19.4717 58.2335 19.4717 54.127V25.2446C19.4717 21.1381 22.8016 17.8081 26.9081 17.8081H55.7932C59.8997 17.8081 63.2296 21.1381 63.2296 25.2446V54.1296C63.2296 58.2361 59.9023 61.5634 55.7958 61.5634Z" fill="#8200A2"/>
<path d="M55.746 61.3212H27.0847C23.0124 61.3212 19.7114 58.0202 19.7114 53.9479V25.2866C19.7114 21.2143 23.0124 17.9133 27.0847 17.9133H55.7434C59.8157 17.9133 63.1167 21.2143 63.1167 25.2866V53.9453C63.1193 58.0202 59.8183 61.3212 55.746 61.3212Z" fill="#8300A3"/>
<path d="M55.6959 61.079H27.261C23.2229 61.079 19.9482 57.8043 19.9482 53.7662V25.3313C19.9482 21.2932 23.2229 18.0186 27.261 18.0186H55.6959C59.734 18.0186 63.0086 21.2932 63.0086 25.3313V53.7662C63.0086 57.8043 59.734 61.079 55.6959 61.079Z" fill="#8400A3"/>
<path d="M55.6458 60.8343H27.4372C23.4334 60.8343 20.1851 57.5885 20.1851 53.5821V25.3735C20.1851 21.3697 23.4308 18.1213 27.4372 18.1213H55.6458C59.6496 18.1213 62.8979 21.3671 62.8979 25.3735V53.5821C62.8979 57.5885 59.6522 60.8343 55.6458 60.8343Z" fill="#8500A4"/>
<path d="M55.5986 60.5921H27.6138C23.6416 60.5921 20.4248 57.3727 20.4248 53.4031V25.4209C20.4248 21.4487 23.6442 18.2319 27.6138 18.2319H55.5959C59.5682 18.2319 62.785 21.4513 62.785 25.4209V53.4031C62.7876 57.3727 59.5682 60.5921 55.5986 60.5921Z" fill="#8500A4"/>
<path d="M55.5485 60.3471H27.7901C23.8521 60.3471 20.6616 57.1567 20.6616 53.2187V25.4603C20.6616 21.5222 23.8521 18.3318 27.7901 18.3318H55.5485C59.4865 18.3318 62.677 21.5222 62.677 25.4603V53.2187C62.677 57.1567 59.4865 60.3471 55.5485 60.3471Z" fill="#8600A5"/>
<path d="M55.4984 60.1051H27.9664C24.0626 60.1051 20.8984 56.941 20.8984 53.0372V25.5052C20.8984 21.6014 24.0626 18.4373 27.9664 18.4373H55.4984C59.4022 18.4373 62.5663 21.6014 62.5663 25.5052V53.0372C62.5663 56.941 59.4022 60.1051 55.4984 60.1051Z" fill="#8700A5"/>
<path d="M55.4481 59.8602H28.1424C24.2729 59.8602 21.1377 56.7225 21.1377 52.8555V25.5472C21.1377 21.6776 24.2755 18.5425 28.1424 18.5425H55.4481C59.3177 18.5425 62.4528 21.6803 62.4528 25.5472V52.8529C62.4555 56.7251 59.3177 59.8602 55.4481 59.8602Z" fill="#8800A6"/>
<path d="M55.4011 59.618H28.3192C24.4838 59.618 21.375 56.5092 21.375 52.6738V25.5919C21.375 21.7565 24.4838 18.6477 28.3192 18.6477H55.4011C59.2364 18.6477 62.3453 21.7565 62.3453 25.5919V52.6738C62.3453 56.5092 59.2364 59.618 55.4011 59.618Z" fill="#8900A7"/>
<path d="M55.3509 59.3734H28.4955C24.6943 59.3734 21.6118 56.2908 21.6118 52.4897V25.6368C21.6118 21.8357 24.6943 18.7532 28.4955 18.7532H55.3509C59.1521 18.7532 62.2346 21.8357 62.2346 25.6368V52.4897C62.2346 56.2908 59.1521 59.3734 55.3509 59.3734Z" fill="#8A00A7"/>
<path d="M55.3007 59.1311H28.6716C24.9046 59.1311 21.8511 56.0775 21.8511 52.3106V25.6789C21.8511 21.912 24.9046 18.8584 28.6716 18.8584H55.3007C59.0676 18.8584 62.1212 21.912 62.1212 25.6789V52.308C62.1238 56.0749 59.0676 59.1311 55.3007 59.1311Z" fill="#8B00A8"/>
<path d="M55.2535 58.8862H28.8508C25.1181 58.8862 22.0908 55.859 22.0908 52.1263V25.7236C22.0908 21.9909 25.1181 18.9636 28.8508 18.9636H55.2535C58.9862 18.9636 62.0134 21.9909 62.0134 25.7236V52.1263C62.0134 55.859 58.9862 58.8862 55.2535 58.8862Z" fill="#8C00A8"/>
<path d="M55.2035 58.6442H29.0246C25.3261 58.6442 22.3252 55.6459 22.3252 51.9448V25.7658C22.3252 22.0673 25.3235 19.0664 29.0246 19.0664H55.2035C58.902 19.0664 61.9029 22.0647 61.9029 25.7658V51.9448C61.9029 55.6433 58.902 58.6442 55.2035 58.6442Z" fill="#8D00A9"/>
<path d="M55.1532 58.3993H29.2006C25.5338 58.3993 22.5645 55.4274 22.5645 51.7631V25.8105C22.5645 22.1436 25.5364 19.1743 29.2006 19.1743H55.1532C58.8201 19.1743 61.7894 22.1463 61.7894 25.8105V51.7631C61.7894 55.4274 58.8201 58.3993 55.1532 58.3993Z" fill="#8E00A9"/>
<path d="M55.1036 58.1571H29.3774C25.7448 58.1571 22.8018 55.2141 22.8018 51.5814V25.8552C22.8018 22.2225 25.7448 19.2795 29.3774 19.2795H55.1036C58.7363 19.2795 61.6793 22.2225 61.6793 25.8552V51.5814C61.6793 55.2115 58.7363 58.1571 55.1036 58.1571Z" fill="#8F00AA"/>
<path d="M55.0562 57.9123H29.5537C25.9552 57.9123 23.0386 54.9957 23.0386 51.3972V25.8948C23.0386 22.2963 25.9552 19.3796 29.5537 19.3796H55.0562C58.6546 19.3796 61.5713 22.2963 61.5713 25.8948V51.3972C61.5687 54.9957 58.652 57.9123 55.0562 57.9123Z" fill="#9000AB"/>
<path d="M55.0058 57.6702H29.7298C26.1655 57.6702 23.2778 54.7799 23.2778 51.2183V25.9422C23.2778 22.378 26.1682 19.4902 29.7298 19.4902H55.0058C58.5701 19.4902 61.4578 22.3806 61.4578 25.9422V51.2183C61.4578 54.7799 58.5701 57.6702 55.0058 57.6702Z" fill="#9100AB"/>
<path d="M54.9562 57.4253H29.9065C26.3765 57.4253 23.5151 54.5639 23.5151 51.0339V25.9842C23.5151 22.4542 26.3765 19.5928 29.9065 19.5928H54.9562C58.4862 19.5928 61.3476 22.4542 61.3476 25.9842V51.0339C61.3476 54.5639 58.4862 57.4253 54.9562 57.4253Z" fill="#9200AC"/>
<path d="M54.9058 57.1832H30.0799C26.5841 57.1832 23.749 54.3481 23.749 50.8523V26.0264C23.749 22.5306 26.5841 19.6956 30.0799 19.6956H54.9058C58.4016 19.6956 61.2367 22.5306 61.2367 26.0264V50.8523C61.2367 54.3481 58.4016 57.1832 54.9058 57.1832Z" fill="#9300AC"/>
<path d="M54.8584 56.9384H30.2589C26.7973 56.9384 23.9912 54.1323 23.9912 50.6707V26.0712C23.9912 22.6096 26.7973 19.8035 30.2589 19.8035H54.8584C58.32 19.8035 61.1261 22.6096 61.1261 26.0712V50.6707C61.1261 54.1323 58.32 56.9384 54.8584 56.9384Z" fill="#9400AD"/>
<path d="M54.8088 56.6961H30.4357C27.0083 56.6961 24.2285 53.9164 24.2285 50.489V26.1158C24.2285 22.6885 27.0083 19.9087 30.4357 19.9087H54.8088C58.2362 19.9087 61.016 22.6885 61.016 26.1158V50.489C61.016 53.9164 58.2362 56.6961 54.8088 56.6961Z" fill="#9500AE"/>
<path d="M54.7584 56.4514H30.609C27.2158 56.4514 24.4624 53.7006 24.4624 50.3048V26.1554C24.4624 22.7623 27.2132 20.0088 30.609 20.0088H54.7584C58.1515 20.0088 60.905 22.7596 60.905 26.1554V50.3048C60.905 53.7006 58.1541 56.4514 54.7584 56.4514Z" fill="#9600AE"/>
<path d="M54.7086 56.209H30.7855C27.424 56.209 24.7021 53.4845 24.7021 50.1256V26.2026C24.7021 22.841 27.4266 20.1191 30.7855 20.1191H54.7086C58.0701 20.1191 60.792 22.8436 60.792 26.2026V50.1256C60.7946 53.4845 58.0701 56.209 54.7086 56.209Z" fill="#9700AF"/>
<path d="M54.6614 55.9643H30.9648C27.6374 55.9643 24.9419 53.2688 24.9419 49.9414V26.2448C24.9419 22.9175 27.6374 20.2219 30.9648 20.2219H54.6614C57.9887 20.2219 60.6843 22.9175 60.6843 26.2448V49.9414C60.6843 53.2688 57.9861 55.9643 54.6614 55.9643Z" fill="#9800AF"/>
<path d="M54.6113 55.7221H31.141C27.8479 55.7221 25.1787 53.0528 25.1787 49.7597V26.2895C25.1787 22.9964 27.8479 20.3271 31.141 20.3271H54.6113C57.9044 20.3271 60.5736 22.9964 60.5736 26.2895V49.7597C60.5736 53.0528 57.9044 55.7221 54.6113 55.7221Z" fill="#9900B0"/>
<path d="M54.5614 55.4773H31.3149C28.056 55.4773 25.4131 52.8344 25.4131 49.5755V26.329C25.4131 23.0702 28.056 20.4272 31.3149 20.4272H54.5614C57.8203 20.4272 60.4632 23.0702 60.4632 26.329V49.5755C60.4632 52.8371 57.8203 55.4773 54.5614 55.4773Z" fill="#9A00B0"/>
<path d="M54.511 55.2352H31.4909C28.2663 55.2352 25.6523 52.6212 25.6523 49.3966V26.3765C25.6523 23.1518 28.2663 20.5378 31.4909 20.5378H54.511C57.7357 20.5378 60.3497 23.1518 60.3497 26.3765V49.3966C60.3523 52.6212 57.7383 55.2352 54.511 55.2352Z" fill="#9B00B1"/>
<path d="M54.4636 54.9929H31.6672C28.4768 54.9929 25.8892 52.4053 25.8892 49.2149V26.4211C25.8892 23.2307 28.4768 20.6431 31.6672 20.6431H54.4609C57.6514 20.6431 60.239 23.2307 60.239 26.4211V49.2149C60.2416 52.4053 57.654 54.9929 54.4636 54.9929Z" fill="#9C00B2"/>
<path d="M54.414 54.7482H31.844C28.6878 54.7482 26.1265 52.1895 26.1265 49.0307V26.4607C26.1265 23.3045 28.6851 20.7432 31.844 20.7432H54.414C57.5702 20.7432 60.1315 23.3018 60.1315 26.4607V49.0307C60.1315 52.1895 57.5702 54.7482 54.414 54.7482Z" fill="#9D00B2"/>
<path d="M54.3637 54.506H32.0201C28.8981 54.506 26.3657 51.9737 26.3657 48.8517V26.5081C26.3657 23.3861 28.8981 20.8538 32.0201 20.8538H54.3637C57.4857 20.8538 60.018 23.3861 60.018 26.5081V48.8517C60.018 51.9737 57.4883 54.506 54.3637 54.506Z" fill="#9E00B3"/>
<path d="M54.3165 54.2611H32.1993C29.1089 54.2611 26.6055 51.7577 26.6055 48.6673V26.5501C26.6055 23.4597 29.1089 20.9563 32.1993 20.9563H54.3165C57.4069 20.9563 59.9103 23.4597 59.9103 26.5501V48.6673C59.9076 51.7577 57.4043 54.2611 54.3165 54.2611Z" fill="#9F00B3"/>
<path d="M54.2666 54.0191H32.3731C29.3169 54.0191 26.8398 51.542 26.8398 48.4858V26.5923C26.8398 23.5361 29.3169 21.0591 32.3731 21.0591H54.2666C57.3227 21.0591 59.7998 23.5361 59.7998 26.5923V48.4858C59.7972 51.542 57.3201 54.0191 54.2666 54.0191Z" fill="#A000B4"/>
<path d="M54.2163 53.7742H32.5492C29.5272 53.7742 27.0791 51.3261 27.0791 48.3041V26.6371C27.0791 23.6151 29.5272 21.167 32.5492 21.167H54.2163C57.2382 21.167 59.6863 23.6151 59.6863 26.6371V48.3041C59.6863 51.3261 57.2382 53.7742 54.2163 53.7742Z" fill="#A100B4"/>
<path d="M54.1661 53.532H32.7255C29.7377 53.532 27.3159 51.1102 27.3159 48.1224V26.6817C27.3159 23.694 29.7377 21.2722 32.7255 21.2722H54.1661C57.1539 21.2722 59.5757 23.694 59.5757 26.6817V48.1224C59.5757 51.1102 57.1539 53.532 54.1661 53.532Z" fill="#A200B5"/>
<path d="M54.119 53.2873H32.9047C29.9511 53.2873 27.5557 50.8918 27.5557 47.9383V26.724C27.5557 23.7705 29.9511 21.375 32.9047 21.375H54.119C57.0725 21.375 59.4679 23.7705 59.4679 26.724V47.9383C59.4653 50.8945 57.0725 53.2873 54.119 53.2873Z" fill="#A300B6"/>
<path d="M54.0688 53.0451H33.0783C30.159 53.0451 27.7925 50.6786 27.7925 47.7593V26.7687C27.7925 23.8494 30.159 21.4829 33.0783 21.4829H54.0688C56.9882 21.4829 59.3547 23.8494 59.3547 26.7687V47.7593C59.3547 50.6786 56.9882 53.0451 54.0688 53.0451Z" fill="#A400B6"/>
<path d="M54.0192 52.8002H33.255C30.37 52.8002 28.0298 50.46 28.0298 47.5749V26.8107C28.0298 23.9256 30.37 21.5854 33.255 21.5854H54.0192C56.9043 21.5854 59.2445 23.9256 59.2445 26.8107V47.5749C59.2445 50.4626 56.9043 52.8002 54.0192 52.8002Z" fill="#A500B7"/>
<path d="M53.9691 52.5579H33.4313C30.5805 52.5579 28.2666 50.2467 28.2666 47.3932V26.8554C28.2666 24.0045 30.5778 21.6907 33.4313 21.6907H53.9691C56.82 21.6907 59.1338 24.0019 59.1338 26.8554V47.3932C59.1338 50.244 56.8226 52.5579 53.9691 52.5579Z" fill="#A600B7"/>
<path d="M53.9214 52.3133H33.6074C30.7908 52.3133 28.5059 50.0284 28.5059 47.2117V26.8977C28.5059 24.081 30.7908 21.7961 33.6074 21.7961H53.9214C56.7381 21.7961 59.023 24.081 59.023 26.8977V47.2117C59.023 50.0284 56.7381 52.3133 53.9214 52.3133Z" fill="#A700B8"/>
<path d="M53.8718 52.071H33.7842C30.9991 52.071 28.7432 49.8151 28.7432 47.03V26.9424C28.7432 24.1573 30.9991 21.9014 33.7842 21.9014H53.8718C56.6569 21.9014 58.9128 24.1573 58.9128 26.9424V47.03C58.9128 49.8124 56.6542 52.071 53.8718 52.071Z" fill="#A800B9"/>
<path d="M53.8217 51.8263H33.9604C31.2096 51.8263 28.98 49.5967 28.98 46.8459V26.9846C28.98 24.2338 31.2096 22.0042 33.9604 22.0042H53.8217C56.5725 22.0042 58.8022 24.2338 58.8022 26.9846V46.8459C58.8022 49.5967 56.5725 51.8263 53.8217 51.8263Z" fill="#A900B9"/>
<path d="M53.7716 51.5841H34.1341C31.4175 51.5841 29.2168 49.3835 29.2168 46.6669V27.0293C29.2168 24.3127 31.4175 22.1121 34.1341 22.1121H53.7716C56.4882 22.1121 58.6889 24.3127 58.6889 27.0293V46.6669C58.6915 49.3808 56.4882 51.5841 53.7716 51.5841Z" fill="#AA00BA"/>
<path d="M53.7244 51.3392H34.3133C31.6309 51.3392 29.4565 49.1649 29.4565 46.4825V27.0713C29.4565 24.3889 31.6309 22.2146 34.3133 22.2146H53.7244C56.4068 22.2146 58.5811 24.3889 58.5811 27.0713V46.4825C58.5811 49.1649 56.4068 51.3392 53.7244 51.3392Z" fill="#AB00BA"/>
<path d="M53.6743 51.097H34.4895C31.8414 51.097 29.6934 48.9489 29.6934 46.3008V27.116C29.6934 24.4678 31.8414 22.3198 34.4895 22.3198H53.6743C56.3225 22.3198 58.4705 24.4678 58.4705 27.116V46.3008C58.4705 48.9489 56.3225 51.097 53.6743 51.097Z" fill="#AC00BB"/>
<path d="M53.6242 50.8523H34.6632C32.0492 50.8523 29.9302 48.7332 29.9302 46.1193V27.1583C29.9302 24.5444 32.0492 22.4253 34.6632 22.4253H53.6242C56.2381 22.4253 58.3572 24.5444 58.3572 27.1583V46.1193C58.3598 48.7332 56.2381 50.8523 53.6242 50.8523Z" fill="#AD00BB"/>
<path d="M53.5741 50.6101H34.8395C32.2597 50.6101 30.167 48.5173 30.167 45.9376V27.203C30.167 24.6233 32.2597 22.5305 34.8395 22.5305H53.5741C56.1538 22.5305 58.2465 24.6233 58.2465 27.203V45.9376C58.2465 48.5173 56.1564 50.6101 53.5741 50.6101Z" fill="#AE00BC"/>
<path d="M2.91432 28.0454C2.80113 29.0273 2.7274 30.4514 2.9959 32.1282C3.21968 33.5234 3.55133 34.3105 3.46973 34.3421C3.29862 34.4079 1.08744 31.249 0.692581 27.1504C0.605713 26.2422 0.155578 20.8143 3.37759 17.7133C6.0942 15.0994 9.93487 14.7993 13.9703 16.1892C22.2544 19.0427 31.7836 23.4704 35.1135 20.988C36.4876 19.964 36.922 18.4662 36.922 18.4662C37.0036 18.1819 37.4274 16.6183 36.814 15.1126C36.685 14.794 36.5403 14.5545 36.4297 14.3913C35.9796 13.7306 35.5242 13.6358 35.4373 13.1962C35.4057 13.0304 35.4136 12.7619 35.6795 12.3775C35.948 12.1564 36.6219 11.6694 37.5169 11.6431C38.6462 11.6115 39.5491 12.3328 39.9571 13.0646C41.0495 15.0283 39.2621 18.2793 39.0147 18.7137C35.8611 24.2732 26.9216 24.0442 25.2184 23.9073C19.1534 23.4177 11.8223 16.692 8.70289 16.3603C6.56277 16.6156 5.2887 20.0298 4.97808 20.7564C3.14594 25.0182 4.7254 29.1537 4.96231 29.7459C3.59611 28.614 3.59611 28.614 2.91432 28.0454Z" fill="url(#paint4_radial_53892_1010)"/>
<path d="M25.8738 43.4501C38.1432 48.9228 52.8688 45.8561 63.3219 37.7852C56.8752 40.3044 47.9409 36.2163 41.0125 36.1768C33.7419 35.9267 27.8375 40.7914 20.7485 40.4465C22.3464 41.589 24.0416 42.6209 25.8738 43.4501Z" fill="url(#paint5_linear_53892_1010)"/>
<path d="M77.7763 45.3268C76.9682 39.5803 71.9035 37.1586 66.8599 37.3955C64.8198 37.635 62.5349 39.0855 57.9993 41.9626C40.0281 53.8768 20.2879 46.7483 4.12247 31.2778C4.33832 33.0784 6.11254 35.8476 7.613 37.3376C5.64398 36.1925 1.81388 35.1843 0.105469 35.7924C19.5192 40.9465 34.458 75.5939 55.5512 47.9724C61.3213 42.3364 68.2419 39.4987 71.7508 42.1311C73.4961 43.442 73.8462 45.9454 73.8462 45.9454C73.9567 46.7562 73.9804 47.9092 73.4777 49.0911C72.1272 52.2737 67.9734 53.2898 65.1778 53.1239C63.0956 53.0002 59.2944 52.0736 58.4836 49.3728C58.2125 48.4672 58.3468 47.5986 58.5389 46.9563C57.9466 47.0747 56.4462 47.4564 55.9013 48.6357C55.1247 50.3152 56.7779 52.579 57.686 53.3661C64.6829 59.4311 77.8948 54.7981 77.7763 45.3268Z" fill="url(#paint6_radial_53892_1010)"/>
<path d="M40.9017 31.9229C40.7491 30.9752 39.8435 30.3224 38.7958 30.4487C37.864 30.5619 37.1322 31.2542 36.9795 32.0834C38.2351 31.7386 39.5934 31.686 40.9017 31.9229Z" fill="url(#paint7_radial_53892_1010)"/>
<path d="M45.4876 36.1687C43.1106 31.2515 35.016 30.8382 32.7627 36.1082C33.3287 35.8528 33.8551 35.6686 34.3263 35.5343C34.3263 35.5343 34.9133 35.3659 35.5504 35.2553C38.0564 34.8236 41.6601 35.3501 41.6601 35.3501C42.6446 35.4975 43.9608 35.7397 45.4876 36.1687Z" fill="url(#paint8_radial_53892_1010)"/>
<path d="M37.4718 63.6641C37.9562 63.6457 38.4458 63.6326 38.9381 63.6326C39.4303 63.6326 39.9173 63.6457 40.4017 63.6641C39.7673 62.0189 40.7202 60.0946 41.8442 59.2444C40.9518 59.4313 39.97 59.5366 38.9354 59.5366C37.9009 59.5366 36.919 59.4313 36.0293 59.2444C37.1612 60.0999 38.1062 62.0215 37.4718 63.6641Z" fill="url(#paint9_linear_53892_1010)"/>
<path d="M38.9405 64.4221C34.9604 64.4221 31.2724 65.0565 28.2241 66.1384C31.6541 66.3095 35.242 66.4043 38.9405 66.4043C42.639 66.4043 46.2243 66.3095 49.6569 66.1384C46.6086 65.0592 42.918 64.4221 38.9405 64.4221Z" fill="url(#paint10_linear_53892_1010)"/>
<path d="M30.3433 21.7462C26.0604 21.4434 19.3978 18.4109 13.4118 16.2682C10.6689 15.2863 8.02072 15.1521 5.7832 16.0865C5.95168 16.076 6.12278 16.0681 6.29388 16.0681C7.22838 16.0681 8.11286 16.2445 8.9052 16.5604C12.1378 17.508 18.7029 23.4993 24.1888 23.96C25.3707 24.06 30.1801 24.2048 33.8917 22.1805C32.6729 22.0963 31.4857 21.9488 30.3433 21.7462Z" fill="url(#paint11_radial_53892_1010)"/>
<path d="M39.1489 46.143C34.4922 46.143 30.0777 45.2269 26.0291 43.4211C24.7603 42.8473 23.4915 42.1444 22.1806 41.2836C25.2578 41.1388 28.1535 40.1306 30.9596 39.1488C33.9815 38.0958 37.1035 37.0034 40.4388 37.0034C40.6125 37.0034 40.7889 37.006 40.9652 37.0113C43.5239 37.0271 46.3116 37.5904 49.2651 38.188C52.3108 38.8039 55.4591 39.441 58.3863 39.441C59.3339 39.441 60.2132 39.3752 61.0345 39.2409C54.5299 43.6501 46.6801 46.143 39.1489 46.143ZM55.1616 48.0804L55.1827 48.0541L55.2064 48.0304C59.6024 43.737 64.6671 41.0678 68.4235 41.0678C69.8371 41.0678 71.0375 41.431 71.9957 42.1497C73.8726 43.5554 74.2542 46.1562 74.27 46.2667C74.4385 47.4908 74.3043 48.6306 73.8699 49.6493C72.5142 52.8424 68.6447 53.9743 65.7438 53.9743C65.5332 53.9743 65.3252 53.969 65.1252 53.9559C62.9034 53.8243 58.9049 52.8187 58.023 49.8836C57.8414 49.2834 57.8045 48.6411 57.9046 47.9672C57.2833 48.1778 56.5857 48.5516 56.283 49.2071C55.6434 50.5943 57.0543 52.6239 57.9519 53.4031C59.8999 55.0931 62.5349 56.0249 65.3674 56.0249C65.3674 56.0249 65.3674 56.0249 65.37 56.0249C68.8526 56.0249 72.2879 54.6508 74.5596 52.3501C76.3733 50.5154 77.3183 48.2305 77.292 45.7429C76.4944 40.1912 71.7114 38.2143 67.4917 38.2143C67.2837 38.2143 67.0731 38.2195 66.8652 38.2274C64.9304 38.4617 62.6797 39.8885 58.2178 42.7209C52.166 46.7326 45.6561 48.7675 38.8672 48.7675C27.7902 48.7675 16.1077 43.3658 4.99645 33.1285C5.64139 34.6237 8.05264 37.8931 9.11875 38.954L7.35506 38.109C6.13364 37.3982 4.25149 36.7902 2.66943 36.5506C8.23427 38.7355 13.449 43.0657 18.5137 47.2696C25.4526 53.0293 32.0046 58.4704 39.062 58.4704C44.5558 58.473 49.8205 55.072 55.1616 48.0804ZM39.2568 31.7097C39.5464 31.7097 39.8359 31.7228 40.1255 31.7492C39.8649 31.4543 39.47 31.2727 39.0252 31.2727C38.9567 31.2727 38.8883 31.278 38.8225 31.2859C38.4013 31.3359 38.0222 31.5386 37.759 31.8308C38.2486 31.7492 38.7514 31.7097 39.2568 31.7097ZM38.8672 33.1549C36.6824 33.1549 34.8397 34.0578 33.7367 35.6188C33.8815 35.5714 34.0263 35.5266 34.1711 35.4845C34.2342 35.4661 34.8134 35.3055 35.4399 35.1949C36.119 35.0765 36.9351 35.0186 37.8617 35.0186C39.8201 35.0186 41.6154 35.2792 41.6918 35.2897C42.6263 35.4266 43.5634 35.6082 44.4926 35.8346C43.2686 34.1788 41.1679 33.1549 38.8672 33.1549ZM38.912 63.564C39.1884 63.564 39.47 63.5667 39.7754 63.5746C39.5674 62.4216 39.9386 61.2107 40.5835 60.2815C40.036 60.342 39.4779 60.3736 38.9093 60.3736C38.3434 60.3736 37.7827 60.342 37.2378 60.2841C37.8827 61.2133 38.2513 62.4216 38.0459 63.5772C38.3513 63.5693 38.6382 63.564 38.912 63.564ZM46.917 66.1885C44.4321 65.5778 41.7102 65.2593 38.912 65.2593C36.1138 65.2593 33.3919 65.5778 30.9069 66.1885C33.5525 66.2859 36.2349 66.3359 38.912 66.3359C41.5891 66.3386 44.2715 66.2886 46.917 66.1885Z" fill="url(#paint12_linear_53892_1010)"/>
<path d="M58.3521 68.3602C57.1491 47.5038 47.3593 28.9509 32.4627 16.1838H22.2965C17.4924 16.1838 13.5991 20.0771 13.5991 24.8812V59.7523C13.5991 64.5564 17.4924 68.4496 22.2965 68.4496H57.1676C57.5703 68.4496 57.9652 68.4128 58.3521 68.3602Z" fill="url(#paint13_radial_53892_1010)" fill-opacity="0.55"/>
</g>
<defs>
<linearGradient id="paint0_linear_53892_1010" x1="121.931" y1="22.2496" x2="121.931" y2="64.8306" gradientUnits="userSpaceOnUse">
<stop stop-color="#FCE580"/>
<stop offset="0.29" stop-color="#F8D863"/>
<stop offset="1" stop-color="#F0B91F"/>
</linearGradient>
<radialGradient id="paint1_radial_53892_1010" cx="0" cy="0" r="1" gradientUnits="userSpaceOnUse" gradientTransform="translate(38.9581 64.8901) scale(0.340947 0.306066)">
<stop stop-color="white"/>
<stop offset="0.4845" stop-color="white" stop-opacity="0.1413"/>
<stop offset="0.5642" stop-color="white" stop-opacity="0"/>
<stop offset="0.7179" stop-color="white" stop-opacity="0"/>
</radialGradient>
<radialGradient id="paint2_radial_53892_1010" cx="0" cy="0" r="1" gradientUnits="userSpaceOnUse" gradientTransform="translate(50.8769 8.74601) scale(9.39947)">
<stop offset="0.3404" stop-color="#E795FE"/>
<stop offset="0.346" stop-color="#E68FFD"/>
<stop offset="0.371" stop-color="#E279F8"/>
<stop offset="0.4005" stop-color="#DF68F4"/>
<stop offset="0.437" stop-color="#DD5DF2"/>
<stop offset="0.4882" stop-color="#DB56F0"/>
<stop offset="0.6304" stop-color="#DB54F0"/>
<stop offset="1" stop-color="#9013AC"/>
</radialGradient>
<radialGradient id="paint3_radial_53892_1010" cx="0" cy="0" r="1" gradientUnits="userSpaceOnUse" gradientTransform="translate(26.1841 8.65288) rotate(29.9083) scale(13.1776 7.21631)">
<stop offset="0.3404" stop-color="#E795FE"/>
<stop offset="0.346" stop-color="#E68FFD"/>
<stop offset="0.371" stop-color="#E279F8"/>
<stop offset="0.4005" stop-color="#DF68F4"/>
<stop offset="0.437" stop-color="#DD5DF2"/>
<stop offset="0.4882" stop-color="#DB56F0"/>
<stop offset="0.6304" stop-color="#DB54F0"/>
<stop offset="1" stop-color="#9013AC"/>
</radialGradient>
<radialGradient id="paint4_radial_53892_1010" cx="0" cy="0" r="1" gradientUnits="userSpaceOnUse" gradientTransform="translate(38.25 13.3404) rotate(0.182515) scale(4.49897 4.99714)">
<stop offset="0.3404" stop-color="#E795FE"/>
<stop offset="0.346" stop-color="#E68FFD"/>
<stop offset="0.371" stop-color="#E279F8"/>
<stop offset="0.4005" stop-color="#DF68F4"/>
<stop offset="0.437" stop-color="#DD5DF2"/>
<stop offset="0.4882" stop-color="#DB56F0"/>
<stop offset="0.6304" stop-color="#DB54F0"/>
<stop offset="1" stop-color="#9013AC"/>
</radialGradient>
<linearGradient id="paint5_linear_53892_1010" x1="23.3735" y1="20.4547" x2="76.0826" y2="73.1638" gradientUnits="userSpaceOnUse">
<stop stop-color="white"/>
<stop offset="0.1442" stop-color="#FFFFFD"/>
<stop offset="0.1962" stop-color="#FFFEF6"/>
<stop offset="0.2332" stop-color="#FFFCEB"/>
<stop offset="0.2631" stop-color="#FFF9DA"/>
<stop offset="0.2888" stop-color="#FFF5C4"/>
<stop offset="0.3115" stop-color="#FEF1A8"/>
<stop offset="0.3315" stop-color="#FEEB89"/>
<stop offset="0.345" stop-color="#FEE76F"/>
<stop offset="0.3582" stop-color="#FADB5A"/>
<stop offset="0.3766" stop-color="#F7CE44"/>
<stop offset="0.3983" stop-color="#F4C533"/>
<stop offset="0.4252" stop-color="#F2BE28"/>
<stop offset="0.463" stop-color="#F0BA21"/>
<stop offset="0.5677" stop-color="#F0B91F"/>
<stop offset="1" stop-color="#AC7025"/>
</linearGradient>
<radialGradient id="paint6_radial_53892_1010" cx="0" cy="0" r="1" gradientUnits="userSpaceOnUse" gradientTransform="translate(25.4946 18.3336) scale(74.542 74.542)">
<stop stop-color="white"/>
<stop offset="0.1442" stop-color="#FFFFFD"/>
<stop offset="0.1962" stop-color="#FFFEF6"/>
<stop offset="0.2332" stop-color="#FFFCEB"/>
<stop offset="0.2631" stop-color="#FFF9DA"/>
<stop offset="0.2888" stop-color="#FFF5C4"/>
<stop offset="0.3115" stop-color="#FEF1A8"/>
<stop offset="0.3315" stop-color="#FEEB89"/>
<stop offset="0.345" stop-color="#FEE76F"/>
<stop offset="0.3582" stop-color="#FADB5A"/>
<stop offset="0.3766" stop-color="#F7CE44"/>
<stop offset="0.3983" stop-color="#F4C533"/>
<stop offset="0.4252" stop-color="#F2BE28"/>
<stop offset="0.463" stop-color="#F0BA21"/>
<stop offset="0.5677" stop-color="#F0B91F"/>
<stop offset="1" stop-color="#AC7025"/>
</radialGradient>
<radialGradient id="paint7_radial_53892_1010" cx="0" cy="0" r="1" gradientUnits="userSpaceOnUse" gradientTransform="translate(25.4943 18.3337) scale(74.5421 74.542)">
<stop stop-color="white"/>
<stop offset="0.1442" stop-color="#FFFFFD"/>
<stop offset="0.1962" stop-color="#FFFEF6"/>
<stop offset="0.2332" stop-color="#FFFCEB"/>
<stop offset="0.2631" stop-color="#FFF9DA"/>
<stop offset="0.2888" stop-color="#FFF5C4"/>
<stop offset="0.3115" stop-color="#FEF1A8"/>
<stop offset="0.3315" stop-color="#FEEB89"/>
<stop offset="0.345" stop-color="#FEE76F"/>
<stop offset="0.3582" stop-color="#FADB5A"/>
<stop offset="0.3766" stop-color="#F7CE44"/>
<stop offset="0.3983" stop-color="#F4C533"/>
<stop offset="0.4252" stop-color="#F2BE28"/>
<stop offset="0.463" stop-color="#F0BA21"/>
<stop offset="0.5677" stop-color="#F0B91F"/>
<stop offset="1" stop-color="#AC7025"/>
</radialGradient>
<radialGradient id="paint8_radial_53892_1010" cx="0" cy="0" r="1" gradientUnits="userSpaceOnUse" gradientTransform="translate(25.4945 18.3335) scale(74.542 74.542)">
<stop stop-color="white"/>
<stop offset="0.1442" stop-color="#FFFFFD"/>
<stop offset="0.1962" stop-color="#FFFEF6"/>
<stop offset="0.2332" stop-color="#FFFCEB"/>
<stop offset="0.2631" stop-color="#FFF9DA"/>
<stop offset="0.2888" stop-color="#FFF5C4"/>
<stop offset="0.3115" stop-color="#FEF1A8"/>
<stop offset="0.3315" stop-color="#FEEB89"/>
<stop offset="0.345" stop-color="#FEE76F"/>
<stop offset="0.3582" stop-color="#FADB5A"/>
<stop offset="0.3766" stop-color="#F7CE44"/>
<stop offset="0.3983" stop-color="#F4C533"/>
<stop offset="0.4252" stop-color="#F2BE28"/>
<stop offset="0.463" stop-color="#F0BA21"/>
<stop offset="0.5677" stop-color="#F0B91F"/>
<stop offset="1" stop-color="#AC7025"/>
</radialGradient>
<linearGradient id="paint9_linear_53892_1010" x1="11.017" y1="32.8111" x2="63.7264" y2="85.5202" gradientUnits="userSpaceOnUse">
<stop stop-color="white"/>
<stop offset="0.345" stop-color="#FEE76F"/>
<stop offset="0.3582" stop-color="#FADB5A"/>
<stop offset="0.3766" stop-color="#F7CE44"/>
<stop offset="0.3983" stop-color="#F4C533"/>
<stop offset="0.4252" stop-color="#F2BE28"/>
<stop offset="0.463" stop-color="#F0BA21"/>
<stop offset="0.5677" stop-color="#F0B91F"/>
<stop offset="1" stop-color="#AC7025"/>
</linearGradient>
<linearGradient id="paint10_linear_53892_1010" x1="8.31383" y1="35.5139" x2="61.023" y2="88.2233" gradientUnits="userSpaceOnUse">
<stop stop-color="white"/>
<stop offset="0.345" stop-color="#FEE76F"/>
<stop offset="0.3582" stop-color="#FADB5A"/>
<stop offset="0.3766" stop-color="#F7CE44"/>
<stop offset="0.3983" stop-color="#F4C533"/>
<stop offset="0.4252" stop-color="#F2BE28"/>
<stop offset="0.463" stop-color="#F0BA21"/>
<stop offset="0.5677" stop-color="#F0B91F"/>
<stop offset="1" stop-color="#AC7025"/>
</linearGradient>
<radialGradient id="paint11_radial_53892_1010" cx="0" cy="0" r="1" gradientUnits="userSpaceOnUse" gradientTransform="translate(15.0796 17.93) scale(17.7027 17.7027)">
<stop offset="0.3404" stop-color="#E795FE"/>
<stop offset="0.346" stop-color="#E68FFD"/>
<stop offset="0.371" stop-color="#E279F8"/>
<stop offset="0.4005" stop-color="#DF68F4"/>
<stop offset="0.437" stop-color="#DD5DF2"/>
<stop offset="0.4882" stop-color="#DB56F0"/>
<stop offset="0.6304" stop-color="#DB54F0"/>
<stop offset="1" stop-color="#9013AC"/>
</radialGradient>
<linearGradient id="paint12_linear_53892_1010" x1="39.1391" y1="39.7645" x2="52.1144" y2="52.7397" gradientUnits="userSpaceOnUse">
<stop offset="0.00350149" stop-color="#F0B91F"/>
<stop offset="0.1271" stop-color="#FEE76F"/>
<stop offset="0.1298" stop-color="#FEEB89"/>
<stop offset="0.1338" stop-color="#FEF1A8"/>
<stop offset="0.1383" stop-color="#FFF5C4"/>
<stop offset="0.1434" stop-color="#FFF9DA"/>
<stop offset="0.1493" stop-color="#FFFCEB"/>
<stop offset="0.1566" stop-color="#FFFEF6"/>
<stop offset="0.1669" stop-color="#FFFFFD"/>
<stop offset="0.1955" stop-color="white"/>
<stop offset="0.3379" stop-color="#FFFEFD"/>
<stop offset="0.3892" stop-color="#FEFCF6"/>
<stop offset="0.4258" stop-color="#FEF9EA"/>
<stop offset="0.4553" stop-color="#FCF3DA"/>
<stop offset="0.4806" stop-color="#FBECC4"/>
<stop offset="0.5031" stop-color="#F9E4A8"/>
<stop offset="0.5234" stop-color="#F7DA88"/>
<stop offset="0.542" stop-color="#F4CE62"/>
<stop offset="0.5586" stop-color="#F2C139"/>
<stop offset="0.5677" stop-color="#F0B91F"/>
</linearGradient>
<radialGradient id="paint13_radial_53892_1010" cx="0" cy="0" r="1" gradientUnits="userSpaceOnUse" gradientTransform="translate(103.782 -0.0892387) scale(151.323 151.323)">
<stop stop-color="white"/>
<stop offset="0.4845" stop-color="white" stop-opacity="0.1413"/>
<stop offset="0.5642" stop-color="white" stop-opacity="0"/>
<stop offset="0.7179" stop-color="white" stop-opacity="0"/>
</radialGradient>
<clipPath id="clip0_53892_1010">
<rect width="174" height="71.3374" fill="white"/>
</clipPath>
</defs>
</svg>
