<svg width="27" height="28" viewBox="0 0 27 28" fill="none" xmlns="http://www.w3.org/2000/svg">
<path d="M24.7522 24.6159H3.2998V20.0186C5.37562 20.0186 5.53901 18.4865 6.87932 18.4865C8.21963 18.4865 8.37927 20.0186 10.4588 20.0186C12.51 20.0186 12.72 18.4865 14.026 18.4865C15.3738 18.4865 15.5201 20.0186 17.6055 20.0186C19.691 20.0186 19.8447 18.4865 21.1851 18.4865C22.5018 18.4865 22.685 20.0186 24.7522 20.0186V24.6159Z" fill="#640090"/>
<path d="M14.0266 5.22106C13.8259 5.22169 13.6271 5.18281 13.4415 5.10662C13.2559 5.03042 13.0872 4.91843 12.9448 4.77701C12.8025 4.63559 12.6895 4.4675 12.6121 4.28238C12.5347 4.09726 12.4946 3.89873 12.494 3.6981V3.68953C12.494 2.20512 14.0266 2.58814 14.0266 0.624817C14.6014 0.624817 15.5587 2.0369 15.5587 3.3065C15.5587 4.57609 14.8789 5.22106 14.0266 5.22106Z" fill="#640090"/>
<path d="M14.0266 5.98712H14.026C13.1799 5.98712 12.494 6.67306 12.494 7.51921V9.93412C12.494 10.7803 13.1799 11.4662 14.026 11.4662H14.0266C14.8727 11.4662 15.5587 10.7803 15.5587 9.93412V7.51921C15.5587 6.67306 14.8727 5.98712 14.0266 5.98712Z" fill="#640090"/>
<path d="M22.7198 12.3737H5.33223C4.77268 12.439 4.25657 12.7074 3.8819 13.1281C3.50722 13.5488 3.30008 14.0924 3.2998 14.6558V18.4865C4.64547 18.4865 4.79386 16.9539 6.87932 16.9539C8.96478 16.9539 9.11103 18.4865 10.4588 18.4865C11.7649 18.4865 11.9749 16.9539 14.026 16.9539C16.0992 16.9539 16.2797 18.4865 17.6055 18.4865C18.9448 18.4865 19.1162 16.9539 21.1851 16.9539C23.2539 16.9539 23.4109 18.4865 24.7522 18.4865V14.6558C24.752 14.0924 24.5448 13.5488 24.1702 13.1281C23.7955 12.7074 23.2794 12.439 22.7198 12.3737Z" fill="#640090"/>
<path d="M25.9655 25.3771H1.52446C0.95287 25.3771 0.489502 25.8405 0.489502 26.4121C0.489502 26.9837 0.95287 27.4471 1.52446 27.4471H25.9655C26.5371 27.4471 27.0005 26.9837 27.0005 26.4121C27.0005 25.8405 26.5371 25.3771 25.9655 25.3771Z" fill="#640090"/>
</svg>
