<svg width="32" height="32" viewBox="0 0 32 32" fill="none" xmlns="http://www.w3.org/2000/svg">
<g clip-path="url(#clip0_55885_5)">
<path d="M10.4002 16.131C11.3691 16.1308 12.3163 15.8433 13.1218 15.3049C13.9274 14.7664 14.5552 14.0012 14.9259 13.106C15.2966 12.2108 15.3936 11.2257 15.2045 10.2754C15.0154 9.32511 14.5488 8.4522 13.8637 7.76705C13.1785 7.08191 12.3056 6.6153 11.3553 6.42622C10.405 6.23714 9.41995 6.33409 8.52473 6.7048C7.62951 7.07551 6.8643 7.70333 6.32587 8.5089C5.78744 9.31447 5.49995 10.2616 5.49976 11.2305C5.49938 11.8742 5.62587 12.5116 5.872 13.1063C6.11814 13.701 6.47909 14.2414 6.93421 14.6965C7.38934 15.1516 7.92971 15.5126 8.52443 15.7587C9.11915 16.0049 9.75655 16.1314 10.4002 16.131ZM13.7597 17.5307H13.3969C12.4646 17.9917 11.4384 18.2315 10.3983 18.2315C9.35811 18.2315 8.33197 17.9917 7.39957 17.5307H7.03973C5.70327 17.5312 4.42169 18.0623 3.47667 19.0073C2.53165 19.9524 2.00051 21.2339 2 22.5704L2 23.8279C2 24.3849 2.22125 24.919 2.61509 25.3129C3.00893 25.7067 3.54308 25.928 4.10005 25.928H16.7032C17.2602 25.928 17.7944 25.7067 18.1882 25.3129C18.582 24.919 18.8033 24.3849 18.8033 23.8279V22.5704C18.803 21.9083 18.6724 21.2528 18.4188 20.6412C18.1652 20.0296 17.7936 19.474 17.3253 19.006C16.8569 18.538 16.301 18.1668 15.6892 17.9137C15.0774 17.6606 14.4218 17.5304 13.7597 17.5307ZM22.9995 16.131C23.8302 16.131 24.6423 15.8846 25.333 15.4231C26.0237 14.9616 26.562 14.3056 26.8799 13.5382C27.1978 12.7707 27.281 11.9262 27.1189 11.1115C26.9568 10.2967 26.5568 9.54835 25.9694 8.96096C25.382 8.37356 24.6337 7.97354 23.8189 7.81148C23.0042 7.64942 22.1597 7.73259 21.3922 8.05049C20.6247 8.36838 19.9688 8.90672 19.5073 9.59742C19.0458 10.2881 18.7994 11.1002 18.7994 11.9309C18.7997 13.0447 19.2423 14.1129 20.0299 14.9005C20.8175 15.6881 21.8857 16.1307 22.9995 16.131ZM25.0996 17.5307H24.9332C23.6858 17.9981 22.3113 17.9981 21.0639 17.5307H20.8975C20.0398 17.5373 19.1991 17.771 18.4609 18.2078C19.5739 19.3899 20.1963 20.9507 20.202 22.5743V24.2545C20.202 24.3512 20.1798 24.4422 20.1759 24.5341H27.9019C28.4589 24.5341 28.993 24.3128 29.3868 23.919C29.7807 23.5251 30.0019 22.991 30.0019 22.434C30.0022 21.7905 29.8756 21.1533 29.6295 20.5588C29.3834 19.9642 29.0225 19.424 28.5675 18.969C28.1125 18.514 27.5723 18.1531 26.9777 17.907C26.3832 17.6609 25.7459 17.5343 25.1025 17.5345L25.0996 17.5307Z" fill="#640090"/>
</g>
<defs>
<clipPath id="clip0_55885_5">
<rect width="28" height="19.5998" fill="white" transform="translate(2 6.33105)"/>
</clipPath>
</defs>
</svg>
