<svg width="33" height="32" viewBox="0 0 33 32" fill="none" xmlns="http://www.w3.org/2000/svg">
<path d="M13.8488 15.9C14.9715 15.9 16.0689 15.5671 17.0023 14.9434C17.9358 14.3197 18.6633 13.4332 19.0929 12.3961C19.5225 11.3589 19.6349 10.2176 19.4159 9.11653C19.1969 8.01546 18.6563 7.00407 17.8625 6.21024C17.0687 5.41642 16.0573 4.87581 14.9562 4.6568C13.8551 4.43778 12.7138 4.55019 11.6767 4.9798C10.6395 5.40942 9.75298 6.13695 9.12927 7.07039C8.50557 8.00383 8.17267 9.10125 8.17267 10.2239C8.17188 10.9695 8.31817 11.708 8.60314 12.397C8.88812 13.086 9.30619 13.7121 9.83342 14.2393C10.3607 14.7665 10.9867 15.1846 11.6757 15.4696C12.3647 15.7546 13.1032 15.9008 13.8488 15.9ZM17.7395 17.5212H17.3193C16.2402 18.0544 15.0529 18.3317 13.8493 18.3317C12.6458 18.3317 11.4584 18.0544 10.3794 17.5212H9.95817C8.41058 17.5215 6.92646 18.1364 5.83215 19.2307C4.73784 20.325 4.12294 21.8091 4.12268 23.3567L4.12268 24.8186C4.12268 25.4635 4.37889 26.0821 4.83493 26.5381C5.29098 26.9942 5.90952 27.2504 6.55447 27.2504H21.1432C21.788 27.2501 22.4062 26.9938 22.8621 26.5378C23.3179 26.0817 23.574 25.4634 23.574 24.8186V23.3567C23.5737 21.8091 22.9588 20.325 21.8645 19.2307C20.7702 18.1364 19.2871 17.5215 17.7395 17.5212Z" fill="#640090"/>
<path d="M24.6157 16.6918C24.5297 16.6918 24.4445 16.6748 24.365 16.6418C24.2855 16.6089 24.2134 16.5605 24.1526 16.4996L21.4958 13.8427C21.3766 13.7193 21.3106 13.5541 21.3121 13.3825C21.3136 13.2109 21.3824 13.0468 21.5037 12.9255C21.625 12.8042 21.7891 12.7354 21.9607 12.7339C22.1322 12.7324 22.2975 12.7984 22.4209 12.9176L24.6117 15.1084L28.6537 11.0664C28.7771 10.9472 28.9424 10.8812 29.1139 10.8827C29.2855 10.8842 29.4496 10.953 29.5709 11.0743C29.6922 11.1956 29.761 11.3597 29.7625 11.5313C29.764 11.7029 29.698 11.8681 29.5788 11.9915L25.0748 16.4966C24.9536 16.6198 24.7885 16.69 24.6157 16.6918Z" fill="#640090"/>
</svg>
